<?xml version="1.0" encoding="UTF-8" standalone="no"?>
<!-- Created with Inkscape (http://www.inkscape.org/) -->

<svg
   xmlns:dc="http://purl.org/dc/elements/1.1/"
   xmlns:cc="http://creativecommons.org/ns#"
   xmlns:rdf="http://www.w3.org/1999/02/22-rdf-syntax-ns#"
   xmlns:svg="http://www.w3.org/2000/svg"
   xmlns="http://www.w3.org/2000/svg"
   xmlns:sodipodi="http://sodipodi.sourceforge.net/DTD/sodipodi-0.dtd"
   xmlns:inkscape="http://www.inkscape.org/namespaces/inkscape"
   id="svg2"
   version="1.1"
   inkscape:version="0.48.4 r9939"
   width="477"
   height="477"
   xml:space="preserve"
   sodipodi:docname="fcch-founder.svg"
   inkscape:export-filename="C:\swarren\fcch-founder-stephen-warren.bmp.png"
   inkscape:export-xdpi="299.99997"
   inkscape:export-ydpi="299.99997"><metadata
     id="metadata8"><rdf:RDF><cc:Work
         rdf:about=""><dc:format>image/svg+xml</dc:format><dc:type
           rdf:resource="http://purl.org/dc/dcmitype/StillImage" /><dc:title /></cc:Work></rdf:RDF></metadata><defs
     id="defs6" /><sodipodi:namedview
     pagecolor="#ffffff"
     bordercolor="#666666"
     borderopacity="1"
     objecttolerance="10"
     gridtolerance="10"
     guidetolerance="10"
     inkscape:pageopacity="0"
     inkscape:pageshadow="2"
     inkscape:window-width="1920"
     inkscape:window-height="1036"
     id="namedview4"
     showgrid="false"
     units="in"
     inkscape:zoom="1.1181311"
     inkscape:cx="88.405317"
     inkscape:cy="242.80425"
     inkscape:window-x="0"
     inkscape:window-y="25"
     inkscape:window-maximized="1"
     inkscape:current-layer="g10"
     showborder="true"
     inkscape:showpageshadow="true"
     inkscape:document-units="in"
     showguides="true"
     inkscape:guide-bbox="true"><inkscape:grid
       type="xygrid"
       id="grid4328"
       empspacing="5"
       visible="true"
       enabled="true"
       snapvisiblegridlinesonly="true" /></sodipodi:namedview><g
     id="g10"
     inkscape:groupmode="layer"
     inkscape:label="Business_Card"
     transform="matrix(1.25,0,0,-1.25,0,477.005)"><g
       transform="matrix(0.08642681,0,0,0.08642681,193.2361,295.70218)"
       id="g24"
       style="fill:#000000"><path
         style="fill:#000000;fill-rule:nonzero"
         inkscape:connector-curvature="0"
         d="m 0,0 c 55.617,0 100.72,-45.083 100.72,-100.7 0,-55.628 -45.104,-100.7 -100.72,-100.7 -55.627,0 -100.72,45.072 -100.72,100.7 C -100.72,-45.083 -55.627,0 0,0 m -188.1,-33.397 c -128.14,-211.2 -340.37,-340.04 -567.64,-369.78 33.817,-84.173 81.861,-163.07 143.09,-232.75 237.65,321.39 685.49,414.31 1033.9,202.9 81.232,-49.297 150.29,-111.03 206.21,-181.28 23.775,29.093 45.851,60.166 65.898,93.23 26.311,43.344 48.041,88.197 65.423,133.96 -105.8,13.324 -210.56,48.58 -307.63,107.46 -338.85,205.6 -465.81,627.58 -311.24,981.02 -95.676,16.89 -192.77,16.216 -286.7,-0.869 105.26,-228.18 98.86,-502.9 -41.318,-733.9"
         id="path26" /></g><g
       transform="matrix(0.08642681,0,0,0.08642681,51.265126,342.52049)"
       id="g28"
       style="fill:#000000;stroke:#000000;stroke-width:8.33074856;stroke-miterlimit:4;stroke-opacity:1;stroke-dasharray:none"><path
         style="fill:#000000;fill-rule:nonzero;stroke:#000000;stroke-width:8.33074856;stroke-miterlimit:4;stroke-opacity:1;stroke-dasharray:none"
         inkscape:connector-curvature="0"
         d="m 0,0 -25.358,0 0,-28.356 c 0,-5.737 0.79,-9.711 2.372,-11.924 1.581,-2.214 4.444,-3.319 8.59,-3.319 v -2.781 h -34.52 v 2.781 c 4.144,0 6.994,1.104 8.548,3.315 1.554,2.211 2.331,6.182 2.331,11.913 v 59.85 c 0,5.785 -0.764,9.783 -2.29,11.994 -1.527,2.211 -4.39,3.317 -8.589,3.317 v 2.78 H 16.933 V 32.556 h -2.209 c -1.036,5.072 -2.4,8.398 -4.09,9.98 C 8.943,44.117 5.099,44.908 -0.9,44.908 H -25.358 V 4.744 h 25.031 c 3.381,0 5.89,0.859 7.525,2.577 1.636,1.718 2.7,4.649 3.191,8.794 h 2.617 V -10.879 H 10.389 C 10.062,-3.627 6.598,0 0,0"
         id="path30" /></g><g
       transform="matrix(0.08642681,0,0,0.08642681,69.187843,342.68312)"
       id="g32"
       style="fill:#000000;stroke:#000000;stroke-width:8.33074856;stroke-miterlimit:4;stroke-opacity:1;stroke-dasharray:none"><path
         style="fill:#000000;fill-rule:nonzero;stroke:#000000;stroke-width:8.33074856;stroke-miterlimit:4;stroke-opacity:1;stroke-dasharray:none"
         inkscape:connector-curvature="0"
         d="m 0,0 c 0,-14.016 3.326,-25.345 9.979,-33.988 6.653,-8.644 15.379,-12.965 26.176,-12.965 10.907,0 19.755,4.417 26.545,13.252 6.789,8.834 10.183,19.849 10.183,33.047 0,14.178 -3.326,25.562 -9.979,34.151 C 56.25,42.086 47.634,46.38 37.055,46.38 25.821,46.38 16.837,42.154 10.103,33.702 3.367,25.248 0,14.015 0,0 m -14.724,0.164 c 0,14.233 4.908,26.107 14.724,35.623 9.816,9.516 22.058,14.275 36.728,14.275 14.233,0 26.271,-4.827 36.115,-14.479 9.843,-9.652 14.764,-21.46 14.764,-35.419 0,-14.233 -4.962,-26.258 -14.887,-36.074 -9.926,-9.816 -22.059,-14.724 -36.401,-14.724 -14.288,0 -26.367,4.908 -36.237,14.724 -9.871,9.816 -14.806,21.841 -14.806,36.074"
         id="path34" /></g><g
       transform="matrix(0.08642681,0,0,0.08642681,93.75539,346.48661)"
       id="g36"
       style="fill:#000000;stroke:#000000;stroke-width:8.33074856;stroke-miterlimit:4;stroke-opacity:1;stroke-dasharray:none"><path
         style="fill:#000000;fill-rule:nonzero;stroke:#000000;stroke-width:8.33074856;stroke-miterlimit:4;stroke-opacity:1;stroke-dasharray:none"
         inkscape:connector-curvature="0"
         d="m 0,0 -10.062,0 0,-43.845 11.78,0 c 7.034,0 12.556,2.017 16.564,6.053 4.008,4.036 6.012,9.379 6.012,16.033 0,6.489 -2.222,11.738 -6.666,15.747 C 13.183,-2.004 7.307,0 0,0 m -2.291,-47.853 -7.771,0 0,-26.392 c 0,-5.682 0.805,-9.644 2.414,-11.883 1.607,-2.241 4.458,-3.361 8.548,-3.361 v -2.781 h -34.52 v 2.781 c 4.254,0 7.13,1.118 8.63,3.357 1.499,2.237 2.25,6.194 2.25,11.872 v 60.177 c 0,5.675 -0.737,9.592 -2.209,11.748 -1.472,2.156 -4.364,3.235 -8.671,3.235 V 3.681 H 5.726 c 9.706,0 17.464,-2.36 23.272,-7.076 5.808,-4.717 8.711,-10.73 8.711,-18.037 0,-11.779 -6.599,-19.631 -19.795,-23.558 2.898,-1.854 5.727,-4.403 8.489,-7.647 2.761,-3.244 6.381,-8.635 10.857,-16.173 5.02,-8.359 8.944,-13.839 11.77,-16.444 2.824,-2.605 5.759,-4.017 8.802,-4.235 V -92.27 H 38.2 c -4.036,4.859 -8.916,11.987 -14.642,21.385 -6.108,9.89 -10.893,16.2 -14.356,18.933 -3.463,2.733 -7.294,4.099 -11.493,4.099"
         id="path38" /></g><g
       transform="matrix(0.08642681,0,0,0.08642681,117.2695,346.40088)"
       id="g40"
       style="fill:#000000;stroke:#000000;stroke-width:8.33074856;stroke-miterlimit:4;stroke-opacity:1;stroke-dasharray:none"><path
         style="fill:#000000;fill-rule:nonzero;stroke:#000000;stroke-width:8.33074856;stroke-miterlimit:4;stroke-opacity:1;stroke-dasharray:none"
         inkscape:connector-curvature="0"
         d="m 0,0 -14.561,0 0,-73.769 c 0,-5.787 0.708,-9.689 2.127,-11.709 1.418,-2.019 4.172,-3.029 8.262,-3.029 v -2.781 h -33.947 v 2.781 c 4.222,0 7.09,1.159 8.606,3.479 1.515,2.32 2.274,6.236 2.274,11.75 V 0 h -13.907 c -6.653,0 -11.492,-1.063 -14.519,-3.19 -3.026,-2.127 -4.731,-5.644 -5.112,-10.552 H -63.64 V 8.262 h 2.863 c 2.562,-2.4 7.361,-3.599 14.397,-3.599 H 3.926 c 7.252,0 12.324,1.199 15.215,3.599 h 3.026 v -22.004 h -1.881 c -1.2,5.289 -3.341,8.902 -6.421,10.838 C 10.783,-0.969 6.162,0 0,0"
         id="path42" /></g><g
       transform="matrix(0.08642681,0,0,0.08642681,233.90296,346.92407)"
       id="g44"
       style="fill:#000000;stroke:#000000;stroke-width:8.33074856;stroke-miterlimit:4;stroke-opacity:1;stroke-dasharray:none"><path
         style="fill:#000000;fill-rule:nonzero;stroke:#000000;stroke-width:8.33074856;stroke-miterlimit:4;stroke-opacity:1;stroke-dasharray:none"
         inkscape:connector-curvature="0"
         d="m 0,0 0,-28.63 -2.863,0 c -2.29,8.888 -5.958,15.432 -11.002,19.632 -5.045,4.199 -11.767,6.299 -20.163,6.299 -10.909,0 -19.551,-3.926 -25.931,-11.78 -6.381,-7.852 -9.57,-18.322 -9.57,-31.41 0,-14.343 3.366,-25.89 10.101,-34.643 6.735,-8.752 15.555,-13.128 26.463,-13.128 15.105,0 26.257,7.035 33.456,21.104 l 2.535,-2.372 c -3.217,-7.635 -8.412,-13.675 -15.583,-18.119 -7.171,-4.444 -15.337,-6.666 -24.499,-6.666 -8.67,0 -16.701,2.045 -24.09,6.134 -7.389,4.09 -13.087,9.721 -17.095,16.892 -4.008,7.17 -6.013,15.419 -6.013,24.745 0,15.268 4.69,27.906 14.07,37.914 9.378,10.006 21.213,15.01 35.501,15.01 4.798,0 10.879,-0.846 18.242,-2.536 4.143,-0.982 7.005,-1.472 8.588,-1.472 2.455,0 4.172,1.008 5.154,3.026 H 0 z"
         id="path46" /></g><g
       transform="matrix(0.08642681,0,0,0.08642681,248.64126,342.68312)"
       id="g48"
       style="fill:#000000;stroke:#000000;stroke-width:8.33074856;stroke-miterlimit:4;stroke-opacity:1;stroke-dasharray:none"><path
         style="fill:#000000;fill-rule:nonzero;stroke:#000000;stroke-width:8.33074856;stroke-miterlimit:4;stroke-opacity:1;stroke-dasharray:none"
         inkscape:connector-curvature="0"
         d="m 0,0 c 0,-14.016 3.325,-25.345 9.979,-33.988 6.653,-8.644 15.378,-12.965 26.176,-12.965 10.907,0 19.754,4.417 26.544,13.252 6.789,8.834 10.184,19.849 10.184,33.047 0,14.178 -3.327,25.562 -9.98,34.151 C 56.25,42.086 47.634,46.38 37.055,46.38 25.82,46.38 16.836,42.154 10.102,33.702 3.366,25.248 0,14.015 0,0 m -14.725,0.164 c 0,14.233 4.909,26.107 14.725,35.623 9.815,9.516 22.058,14.275 36.728,14.275 14.233,0 26.27,-4.827 36.114,-14.479 9.843,-9.652 14.765,-21.46 14.765,-35.419 0,-14.233 -4.963,-26.258 -14.887,-36.074 -9.926,-9.816 -22.06,-14.724 -36.402,-14.724 -14.288,0 -26.367,4.908 -36.237,14.724 -9.87,9.816 -14.806,21.841 -14.806,36.074"
         id="path50" /></g><g
       transform="matrix(0.08642681,0,0,0.08642681,277.28424,340.32184)"
       id="g52"
       style="fill:#000000;stroke:#000000;stroke-width:8.33074856;stroke-miterlimit:4;stroke-opacity:1;stroke-dasharray:none"><path
         style="fill:#000000;fill-rule:nonzero;stroke:#000000;stroke-width:8.33074856;stroke-miterlimit:4;stroke-opacity:1;stroke-dasharray:none"
         inkscape:connector-curvature="0"
         d="m 0,0 2.862,0 -5.889,-20.941 -69.53,0 0,2.781 c 3.927,0 6.721,1.227 8.385,3.684 1.663,2.456 2.495,6.577 2.495,12.363 V 58.31 c 0,5.186 -0.777,8.801 -2.332,10.849 -1.554,2.046 -4.404,3.07 -8.548,3.07 v 2.781 h 34.356 v -2.781 c -3.818,0 -6.558,-1.173 -8.221,-3.518 -1.664,-2.345 -2.494,-6.216 -2.494,-11.615 V -7.035 c 0,-3.546 0.749,-5.971 2.249,-7.28 1.499,-1.309 4.376,-1.963 8.63,-1.963 h 19.059 c 5.89,0 10.006,1.022 12.352,3.067 C -4.282,-11.166 -2.073,-6.763 0,0"
         id="path54" /></g><g
       transform="matrix(0.08642681,0,0,0.08642681,297.84235,340.32184)"
       id="g56"
       style="fill:#000000;stroke:#000000;stroke-width:8.33074856;stroke-miterlimit:4;stroke-opacity:1;stroke-dasharray:none"><path
         style="fill:#000000;fill-rule:nonzero;stroke:#000000;stroke-width:8.33074856;stroke-miterlimit:4;stroke-opacity:1;stroke-dasharray:none"
         inkscape:connector-curvature="0"
         d="m 0,0 2.862,0 -5.889,-20.941 -69.53,0 0,2.781 c 3.927,0 6.721,1.227 8.385,3.684 1.663,2.456 2.495,6.577 2.495,12.363 V 58.31 c 0,5.186 -0.777,8.801 -2.332,10.849 -1.554,2.046 -4.404,3.07 -8.548,3.07 v 2.781 h 34.356 v -2.781 c -3.818,0 -6.558,-1.173 -8.221,-3.518 -1.664,-2.345 -2.494,-6.216 -2.494,-11.615 V -7.035 c 0,-3.546 0.749,-5.971 2.249,-7.28 1.499,-1.309 4.376,-1.963 8.63,-1.963 h 19.059 c 5.89,0 10.006,1.022 12.352,3.067 C -4.282,-11.166 -2.073,-6.763 0,0"
         id="path58" /></g><g
       transform="matrix(0.08642681,0,0,0.08642681,314.01217,346.8043)"
       id="g60"
       style="fill:#000000;stroke:#000000;stroke-width:8.33074856;stroke-miterlimit:4;stroke-opacity:1;stroke-dasharray:none"><path
         style="fill:#000000;fill-rule:nonzero;stroke:#000000;stroke-width:8.33074856;stroke-miterlimit:4;stroke-opacity:1;stroke-dasharray:none"
         inkscape:connector-curvature="0"
         d="m 0,0 0,-2.781 c -4.09,0 -6.927,-1.119 -8.507,-3.358 -1.583,-2.237 -2.373,-6.221 -2.373,-11.952 v -59.85 c 0,-5.731 0.79,-9.702 2.373,-11.913 1.58,-2.211 4.417,-3.315 8.507,-3.315 v -2.782 h -34.52 v 2.782 c 4.199,0 7.062,1.091 8.589,3.274 1.527,2.183 2.29,6.168 2.29,11.954 v 59.85 c 0,5.894 -0.75,9.919 -2.249,12.075 -1.501,2.156 -4.376,3.235 -8.63,3.235 V 0 H 0 z"
         id="path62" /></g><g
       transform="matrix(0.08642681,0,0,0.08642681,336.06476,346.56351)"
       id="g64"
       style="fill:#000000;stroke:#000000;stroke-width:8.33074856;stroke-miterlimit:4;stroke-opacity:1;stroke-dasharray:none"><path
         style="fill:#000000;fill-rule:nonzero;stroke:#000000;stroke-width:8.33074856;stroke-miterlimit:4;stroke-opacity:1;stroke-dasharray:none"
         inkscape:connector-curvature="0"
         d="m 0,0 0,2.781 28.957,0 0,-2.781 c -4.636,0 -7.853,-1.092 -9.652,-3.272 -1.799,-2.182 -2.7,-6.135 -2.7,-11.861 V -93.17 h -2.939 l -67.98,83.436 v -67.389 c 0,-4.75 0.967,-8.148 2.904,-10.196 1.934,-2.047 5.166,-3.07 9.692,-3.07 v -2.781 h -29.12 v 2.781 c 4.635,0 7.771,1.215 9.407,3.643 1.636,2.428 2.453,6.7 2.453,12.814 v 56.165 c 0,6.058 -1.103,10.411 -3.312,13.058 -2.209,2.647 -5.849,4.217 -10.92,4.709 v 2.781 h 24.627 l 60.28,-74.683 v 56.114 c 0,5.89 -0.832,9.993 -2.494,12.311 C 7.539,-1.16 4.472,0 0,0"
         id="path66" /></g><g
       transform="matrix(0.08642681,0,0,0.08642681,356.78238,346.92407)"
       id="g68"
       style="fill:#000000;stroke:#000000;stroke-width:8.33074856;stroke-miterlimit:4;stroke-opacity:1;stroke-dasharray:none"><path
         style="fill:#000000;fill-rule:nonzero;stroke:#000000;stroke-width:8.33074856;stroke-miterlimit:4;stroke-opacity:1;stroke-dasharray:none"
         inkscape:connector-curvature="0"
         d="m 0,0 2.699,0 0,-22.495 -2.863,0 c -0.654,6.217 -2.903,11.07 -6.748,14.56 -3.845,3.49 -8.685,5.236 -14.52,5.236 -5.181,0 -9.353,-1.309 -12.515,-3.926 -3.163,-2.618 -4.744,-6.109 -4.744,-10.471 0,-4.036 1.308,-7.717 3.926,-11.043 2.618,-3.327 8.288,-7.607 17.014,-12.842 10.144,-6.054 16.96,-11.344 20.45,-15.87 3.489,-4.526 5.236,-9.707 5.236,-15.542 0,-7.525 -2.669,-13.961 -8.005,-19.304 -5.336,-5.345 -11.762,-8.016 -19.275,-8.016 -4.355,0 -9.91,1.2 -16.661,3.599 -2.777,0.981 -4.547,1.472 -5.308,1.472 -1.58,0 -2.805,-1.227 -3.676,-3.681 h -2.863 v 25.93 h 2.863 c 0.053,-7.144 2.382,-12.87 6.98,-17.177 4.599,-4.309 9.975,-6.463 16.124,-6.463 5.823,0 10.491,1.556 14.002,4.667 3.51,3.111 5.266,7.258 5.266,12.444 0,3.874 -1.443,7.584 -4.327,11.132 -2.886,3.548 -8.915,8.121 -18.087,13.719 -7.481,4.619 -12.473,8.265 -14.979,10.939 -2.505,2.674 -4.356,5.605 -5.554,8.798 -1.199,3.191 -1.797,6.697 -1.797,10.518 0,7.364 2.413,13.339 7.239,17.923 4.826,4.583 11.111,6.875 18.855,6.875 4.253,0 8.888,-0.846 13.906,-2.536 2.344,-0.764 3.98,-1.145 4.908,-1.145 0.763,0 1.28,0.163 1.554,0.491 0.272,0.327 0.573,1.063 0.9,2.208"
         id="path70" /></g><g
       transform="matrix(0.08642681,0,0,0.08642681,21.080051,308.32676)"
       id="g72"
       style="fill:#000000"><path
         style="fill:#000000;fill-rule:nonzero"
         inkscape:connector-curvature="0"
         d="m 0,0 c 11.249,0 22.008,-1.185 32.278,-3.546 10.271,-2.365 19.074,-5.666 26.41,-9.903 v -31.545 c -10.271,3.913 -19.727,6.847 -28.366,8.804 -8.643,1.956 -17.446,2.934 -26.409,2.934 -9.457,0 -18.829,-1.552 -28.121,-4.646 -9.292,-3.099 -17.606,-8.192 -24.942,-15.284 -7.336,-7.091 -13.247,-16.467 -17.729,-28.121 -4.486,-11.657 -6.725,-26.126 -6.725,-43.404 0,-12.555 1.67,-24.128 5.013,-34.724 3.34,-10.598 8.314,-19.768 14.917,-27.509 6.602,-7.745 14.874,-13.778 24.82,-18.096 9.941,-4.321 21.434,-6.48 34.479,-6.48 9.452,0 18.989,1.017 28.609,3.057 9.618,2.037 18.99,4.929 28.121,8.681 v -31.545 c -2.773,-1.631 -6.399,-3.262 -10.881,-4.89 -4.486,-1.632 -9.414,-3.056 -14.794,-4.279 -5.38,-1.223 -11.088,-2.201 -17.117,-2.935 -6.033,-0.733 -12.066,-1.1 -18.096,-1.1 -15.65,0 -30.444,2.365 -44.382,7.091 -13.939,4.727 -26.127,11.982 -36.558,21.763 -10.434,9.781 -18.668,22.169 -24.697,37.169 -6.033,14.997 -9.048,32.767 -9.048,53.308 0,15.322 1.59,29.099 4.769,41.326 3.178,12.227 7.538,22.986 13.082,32.278 5.54,9.292 12.02,17.198 19.44,23.72 7.416,6.518 15.322,11.859 23.72,16.016 8.394,4.157 17.075,7.172 26.042,9.048 8.965,1.862 17.688,2.802 26.166,2.802"
         id="path74" /></g><g
       transform="matrix(0.08642681,0,0,0.08642681,45.888177,305.13595)"
       id="g76"
       style="fill:#000000"><path
         style="fill:#000000;fill-rule:nonzero"
         inkscape:connector-curvature="0"
         d="m 0,0 -2.935,0 c -8.967,0 -17.77,-0.817 -26.409,-2.445 -8.642,-1.632 -16.75,-4.119 -24.331,-7.458 -7.58,-3.344 -14.427,-7.459 -20.54,-12.349 -6.114,-4.891 -11.211,-10.679 -15.284,-17.362 v -161.88 h -37.902 v 232.3 h 29.344 l 7.336,-36.924 h 0.733 c 3.749,6.029 8.353,11.653 13.817,16.872 5.46,5.216 11.615,9.782 18.462,13.694 6.846,3.913 14.343,6.969 22.497,9.17 8.149,2.201 16.708,3.301 25.675,3.301 1.628,0 3.301,-0.042 5.013,-0.122 1.711,-0.083 3.216,-0.205 4.523,-0.366 V -0.004 z"
         id="path78" /></g><g
       transform="matrix(0.08642681,0,0,0.08642681,60.642859,305.51668)"
       id="g80"
       style="fill:#000000"><path
         style="fill:#000000;fill-rule:nonzero"
         inkscape:connector-curvature="0"
         d="m 0,0 c -8.75,0 -16.876,-1.712 -24.388,-5.135 -7.512,-3.424 -14.072,-8.07 -19.681,-13.939 -5.613,-5.868 -10.152,-12.757 -13.618,-20.662 -3.469,-7.91 -5.612,-16.346 -6.438,-25.309 h 118.84 c 0,9.128 -1.199,17.644 -3.591,25.553 -2.392,7.905 -5.899,14.794 -10.522,20.663 C 35.98,-12.96 30.287,-8.356 23.521,-5.013 16.75,-1.674 8.91,0 0,0 m 19.994,-179 c 12.551,0 24.002,1.016 34.357,3.057 10.35,2.036 20.663,4.928 30.933,8.68 v -31.544 c -8.314,-4.077 -18.584,-7.294 -30.811,-9.659 -12.226,-2.361 -25.351,-3.546 -39.369,-3.546 -16.629,0 -32.241,2.12 -46.828,6.358 -14.592,4.237 -27.224,11.084 -37.891,20.541 -10.668,9.452 -19.024,21.801 -25.065,37.046 -6.04,15.241 -9.059,33.623 -9.059,55.142 0,21.19 2.927,39.572 8.781,55.142 5.853,15.566 13.659,28.568 23.417,39.003 9.758,10.43 20.977,18.255 33.662,23.474 12.685,5.216 25.939,7.825 39.762,7.825 13.007,0 25.164,-2.162 36.466,-6.48 11.302,-4.321 21.099,-11.126 29.394,-20.418 8.291,-9.292 14.836,-21.274 19.634,-35.946 4.8,-14.672 7.199,-32.278 7.199,-52.819 v -5.013 c 0,-1.387 -0.084,-4.524 -0.244,-9.414 h -160.41 c 0,-14.836 2.239,-27.43 6.725,-37.78 4.481,-10.355 10.595,-18.749 18.339,-25.187 7.742,-6.442 16.831,-11.126 27.266,-14.061 C -3.317,-177.533 7.931,-179 19.997,-179"
         id="path82" /></g><g
       transform="matrix(0.08642681,0,0,0.08642681,89.439238,296.53424)"
       id="g84"
       style="fill:#000000"><path
         style="fill:#000000;fill-rule:nonzero"
         inkscape:connector-curvature="0"
         d="m 0,0 c -6.98,1.956 -15.256,3.828 -24.831,5.624 -9.575,1.792 -20.121,2.77 -31.644,2.935 -16.067,0 -28.645,-3.424 -37.731,-10.271 -9.089,-6.847 -13.632,-17.362 -13.632,-31.544 0,-7.176 1.135,-13.45 3.408,-18.829 2.27,-5.38 5.395,-9.824 9.372,-13.327 3.974,-3.508 8.682,-6.113 14.119,-7.825 5.433,-1.712 11.236,-2.568 17.403,-2.568 8.116,0 15.661,1.181 22.639,3.546 6.976,2.361 13.185,5.173 18.622,8.436 5.437,3.26 10.064,6.518 13.877,9.781 3.813,3.26 6.61,5.785 8.398,7.581 V 0 z m 1.957,-76.294 -0.978,0 c -3.099,-3.913 -7.012,-7.787 -11.738,-11.615 -4.73,-3.832 -10.19,-7.256 -16.384,-10.271 -6.197,-3.018 -12.96,-5.418 -20.296,-7.214 -7.336,-1.792 -15.161,-2.689 -23.475,-2.689 -11.248,0 -21.561,1.674 -30.933,5.013 -9.376,3.339 -17.446,8.23 -24.209,14.672 -6.766,6.438 -12.024,14.305 -15.772,23.597 -3.752,9.292 -5.624,19.807 -5.624,31.545 0,11.573 2.078,21.923 6.235,31.055 4.157,9.128 9.984,16.873 17.485,23.23 7.496,6.358 16.505,11.249 27.02,14.672 10.515,3.424 22.13,5.135 34.846,5.135 12.062,-0.164 23.23,-1.222 33.501,-3.178 10.27,-1.957 19.398,-4.402 27.387,-7.336 H 0 v 16.139 c 0,6.357 -0.409,11.982 -1.223,16.872 -0.817,4.891 -2.2,9.209 -4.156,12.96 -4.242,7.826 -11.004,14.306 -20.297,19.441 -9.292,5.135 -21.847,7.703 -37.657,7.703 -11.738,0 -22.784,-1.101 -33.134,-3.302 -10.355,-2.2 -20.663,-5.257 -30.933,-9.17 v 31.789 c 3.912,1.957 8.516,3.791 13.816,5.502 5.295,1.712 10.881,3.18 16.75,4.402 5.869,1.223 12.062,2.159 18.584,2.812 6.519,0.65 13.041,0.978 19.562,0.978 23.476,0 42.671,-4.157 57.588,-12.471 14.922,-8.32 25.64,-19.32 32.162,-33.015 2.445,-5.219 4.195,-10.965 5.257,-17.239 1.059,-6.278 1.589,-13.166 1.589,-20.663 V -101.97 H 6.119 l -4.156,25.676 z"
         id="path86" /></g><g
       transform="matrix(0.08642681,0,0,0.08642681,113.1177,287.67914)"
       id="g88"
       style="fill:#000000"><path
         style="fill:#000000;fill-rule:nonzero"
         inkscape:connector-curvature="0"
         d="m 0,0 c -3.263,-1.303 -8.234,-2.525 -14.917,-3.668 -6.686,-1.139 -14.671,-1.792 -23.963,-1.956 -12.227,0 -22.826,1.509 -31.789,4.523 -8.968,3.016 -16.426,7.337 -22.375,12.961 -5.953,5.624 -10.393,12.429 -13.327,20.418 -2.935,7.986 -4.402,16.873 -4.402,26.654 v 141.34 h -44.749 v 32.523 h 44.749 v 63.578 h 37.902 V 232.795 H -3.423 V 200.272 H -72.871 V 64.802 c 0,-5.38 0.772,-10.354 2.324,-14.916 1.547,-4.566 3.992,-8.521 7.336,-11.86 3.339,-3.343 7.618,-5.953 12.837,-7.825 5.216,-1.876 11.494,-2.812 18.83,-2.812 5.05,0 10.392,0.404 16.016,1.222 5.621,0.815 10.795,1.873 15.525,3.18 V 0.002 z"
         id="path90" /></g><g
       transform="matrix(0.08642681,0,0,0.08642681,135.48813,297.73946)"
       id="g92"
       style="fill:#000000"><path
         style="fill:#000000;fill-rule:nonzero"
         inkscape:connector-curvature="0"
         d="m 0,0 c 0,14.343 -1.754,27.101 -5.257,38.269 -3.508,11.165 -8.399,20.621 -14.672,28.366 -6.278,7.741 -13.736,13.61 -22.375,17.606 -8.643,3.993 -18.095,5.991 -28.365,5.991 -10.271,0 -19.727,-1.998 -28.366,-5.991 -8.643,-3.996 -16.101,-9.865 -22.375,-17.606 -6.278,-7.745 -11.168,-17.201 -14.672,-28.366 -3.507,-11.168 -5.257,-23.926 -5.257,-38.269 0,-14.183 1.75,-26.86 5.257,-38.024 3.504,-11.169 8.436,-20.583 14.794,-28.244 6.358,-7.665 13.855,-13.491 22.497,-17.484 8.639,-3.997 18.096,-5.991 28.366,-5.991 10.27,0 19.685,1.994 28.243,5.991 8.559,3.993 15.975,9.819 22.253,17.484 6.273,7.661 11.164,17.075 14.672,28.244 C -1.752,-26.86 0.002,-14.183 0.002,0 m 39.614,0 c 0,-18.259 -2.61,-34.888 -7.825,-49.884 -5.219,-15.001 -12.593,-27.839 -22.13,-38.514 -9.537,-10.679 -21.072,-18.951 -34.601,-24.82 -13.534,-5.868 -28.694,-8.803 -45.483,-8.803 -17.282,0 -32.729,2.935 -46.339,8.803 -13.613,5.869 -25.186,14.141 -34.723,24.82 -9.537,10.675 -16.835,23.513 -21.886,38.514 -5.055,14.996 -7.58,31.625 -7.58,49.884 0,18.42 2.606,35.128 7.825,50.129 5.215,14.996 12.593,27.876 22.13,38.636 9.537,10.759 21.11,19.073 34.724,24.942 13.609,5.869 28.812,8.803 45.605,8.803 17.117,0 32.522,-2.934 46.216,-8.803 13.69,-5.86 25.263,-14.176 34.72,-24.935 9.452,-10.76 16.708,-23.64 21.763,-38.636 5.05,-15.001 7.58,-31.709 7.58,-50.129"
         id="path94" /></g><g
       transform="matrix(0.08642681,0,0,0.08642681,158.55413,305.13595)"
       id="g96"
       style="fill:#000000"><path
         style="fill:#000000;fill-rule:nonzero"
         inkscape:connector-curvature="0"
         d="m 0,0 -2.935,0 c -8.967,0 -17.77,-0.817 -26.409,-2.445 -8.642,-1.632 -16.75,-4.119 -24.331,-7.458 -7.58,-3.344 -14.427,-7.459 -20.54,-12.349 -6.114,-4.891 -11.211,-10.679 -15.284,-17.362 v -161.88 h -37.902 v 232.3 h 29.344 l 7.336,-36.924 h 0.733 c 3.749,6.029 8.353,11.653 13.817,16.872 5.46,5.216 11.615,9.782 18.462,13.694 6.846,3.913 14.343,6.969 22.497,9.17 8.149,2.201 16.708,3.301 25.675,3.301 1.628,0 3.301,-0.042 5.013,-0.122 1.711,-0.083 3.216,-0.205 4.523,-0.366 V -0.004 z"
         id="path98" /></g><g
       transform="matrix(0.08642681,0,0,0.08642681,260.99413,305.05148)"
       id="g100"
       style="fill:#000000"><path
         style="fill:#000000;fill-rule:nonzero"
         inkscape:connector-curvature="0"
         d="m 0,0 0.733,0 c 4.238,5.38 8.964,10.393 14.183,15.039 5.216,4.646 11.004,8.639 17.362,11.982 6.358,3.339 13.204,5.991 20.54,7.947 7.336,1.956 15.242,2.934 23.72,2.934 8.804,0 17.607,-1.184 26.409,-3.546 8.804,-2.364 16.953,-6.564 24.453,-12.593 7.497,-6.033 13.611,-14.427 18.34,-25.186 4.727,-10.76 7.092,-24.618 7.092,-41.571 v -155.52 H 114.93 v 149.41 c 0,18.745 -3.546,32.847 -10.637,42.304 C 97.204,0.645 85.589,5.376 69.45,5.376 56.081,5.376 43.365,1.746 31.303,-5.506 19.237,-12.762 8.806,-22.745 0.003,-35.461 v -165.06 h -37.902 v 354.08 H 0.003 V -0.001 z"
         id="path102" /></g><g
       transform="matrix(0.08642681,0,0,0.08642681,291.96498,287.19378)"
       id="g104"
       style="fill:#000000"><path
         style="fill:#000000;fill-rule:nonzero"
         inkscape:connector-curvature="0"
         d="m 0,0 c -12.066,0 -22.906,1.307 -32.522,3.912 -9.622,2.606 -18.058,6.274 -25.31,11.005 -7.256,4.726 -13.411,10.392 -18.462,16.994 -5.055,6.603 -9.048,13.817 -11.982,21.641 -2.285,5.869 -3.912,12.307 -4.891,19.318 -0.978,7.007 -1.467,14.672 -1.467,22.986 v 142.56 h 37.903 V 96.096 c 0,-12.88 1.711,-23.64 5.134,-32.278 3.913,-9.781 10.229,-17.484 18.951,-23.109 8.72,-5.624 19.846,-8.436 33.379,-8.436 14.344,0 25.878,3.095 34.602,9.292 8.719,6.194 14.954,14.508 18.706,24.943 2.771,7.985 4.157,17.85 4.157,29.588 v 142.32 H 96.101 V 95.606 c 0,-7.825 -0.452,-15.123 -1.345,-21.886 -0.899,-6.765 -2.323,-13 -4.279,-18.704 C 87.542,47.026 83.507,39.648 78.372,32.886 73.237,26.119 66.917,20.292 59.421,15.401 51.921,10.511 43.24,6.721 33.378,4.031 23.513,1.341 12.387,-0.004 0,-0.004"
         id="path106" /></g><g
       transform="matrix(0.08642681,0,0,0.08642681,324.46128,297.84536)"
       id="g108"
       style="fill:#000000"><path
         style="fill:#000000;fill-rule:nonzero"
         inkscape:connector-curvature="0"
         d="m 0,0 c 0,18.42 -2.162,33.378 -6.48,44.872 -4.322,11.493 -9.866,20.456 -16.628,26.898 -6.767,6.438 -13.981,10.882 -21.641,13.327 -7.665,2.445 -15.325,3.668 -22.986,3.668 -11.738,0 -22.784,-2.445 -33.134,-7.336 -10.355,-4.89 -19.525,-11.248 -27.51,-19.074 v -121.53 c 2.281,-3.099 5.258,-6.481 8.926,-10.149 3.668,-3.668 8.027,-7.091 13.082,-10.27 5.051,-3.179 10.718,-5.868 16.995,-8.07 6.273,-2.2 13.162,-3.3 20.663,-3.3 11.248,0 21.151,2.2 29.71,6.602 8.559,4.402 15.731,10.637 21.519,18.706 5.785,8.07 10.148,17.687 13.083,28.855 2.933,11.163 4.4,23.432 4.4,36.801 m 39.614,2.935 c 0,-21.684 -2.934,-40.432 -8.803,-56.243 -5.869,-15.814 -13.614,-28.897 -23.231,-39.247 -9.62,-10.354 -20.624,-18.057 -33.012,-23.108 -12.39,-5.051 -25.186,-7.581 -38.39,-7.581 -9.947,0 -18.707,1.265 -26.287,3.79 -7.581,2.526 -14.023,5.541 -19.319,9.048 -5.3,3.504 -9.537,7.05 -12.716,10.637 -3.178,3.584 -5.421,6.438 -6.724,8.559 h -0.734 l -8.069,-25.92 h -28.61 v 354.08 h 37.902 V 93.41 h 0.733 c 8.315,8.803 18.012,15.65 29.1,20.541 11.084,4.89 23.72,7.336 37.902,7.336 6.519,0 13.572,-0.734 21.152,-2.201 7.581,-1.467 15.077,-3.997 22.497,-7.581 C -9.58,107.917 -2.446,103.191 4.4,97.323 11.251,91.44 17.28,84.142 22.5,75.423 27.715,66.7 31.872,56.35 34.971,44.367 38.066,32.385 39.617,18.569 39.617,2.92"
         id="path110" /></g><path
       style="fill:#000000;fill-opacity:1;fill-rule:nonzero;stroke:#000000;stroke-width:0.72000003;stroke-miterlimit:4;stroke-opacity:1;stroke-dasharray:none"
       inkscape:connector-curvature="0"
       d="m 377.75859,327.74645 -162.18855,0 0,0.25844 162.18855,0 0,-0.25844 z"
       id="path112" /><path
       style="fill:#000000;fill-opacity:1;fill-rule:nonzero;stroke:#000000;stroke-width:0.72000003;stroke-miterlimit:4;stroke-opacity:1;stroke-dasharray:none"
       inkscape:connector-curvature="0"
       d="m 170.19596,327.74645 -162.188552,0 0,0.25844 162.188552,0 0,-0.25844 z"
       id="path114" /><path
       style="fill:none;stroke:#000000;stroke-width:0.61573219;stroke-linecap:butt;stroke-linejoin:miter;stroke-miterlimit:4;stroke-opacity:1;stroke-dashoffset:0"
       d="m 49.703282,381.30412 282.193418,0 c 27.36506,0 49.39542,-22.03035 49.39542,-49.39541 l 0,-282.193424 c 0,-27.36506 -22.03036,-49.39541516 -49.39542,-49.39541516 l -282.193418,0 c -27.36506,0 -49.3954159,22.03035516 -49.3954159,49.39541516 l 0,282.193424 c 0,27.36506 22.0303559,49.39541 49.3954159,49.39541 z"
       id="rect5098"
       inkscape:connector-curvature="0" /><path
       style="fill:#000000;fill-opacity:1;stroke:#000000;stroke-width:0.79999495px;stroke-linecap:butt;stroke-linejoin:miter;stroke-opacity:1"
       d="m 33.599721,71.612011 14.399816,0 -21.599724,-57.600007 -14.399815,0 z"
       id="path5259"
       inkscape:connector-curvature="0"
       sodipodi:nodetypes="ccccc" /><path
       style="fill:#000000;fill-opacity:1;stroke:#000000;stroke-width:0.79999495px;stroke-linecap:butt;stroke-linejoin:miter;stroke-opacity:1"
       d="m 62.399353,71.612011 14.399816,0 -21.599724,-57.600007 -14.399816,0 z"
       id="path5259-4"
       inkscape:connector-curvature="0"
       sodipodi:nodetypes="ccccc" /><path
       style="fill:#000000;fill-opacity:1;stroke:#000000;stroke-width:0.79999495px;stroke-linecap:butt;stroke-linejoin:miter;stroke-opacity:1"
       d="m 91.198985,71.612011 14.399815,0 -21.599723,-57.600007 -14.399816,0 z"
       id="path5259-3"
       inkscape:connector-curvature="0"
       sodipodi:nodetypes="ccccc" /><path
       style="fill:#000000;fill-opacity:1;stroke:#000000;stroke-width:0.79996115px;stroke-linecap:butt;stroke-linejoin:miter;stroke-opacity:1"
       d="m 119.99676,71.612031 14.39859,0 -21.59788,-57.600047 -14.3986,0 z"
       id="path5259-8"
       inkscape:connector-curvature="0"
       sodipodi:nodetypes="ccccc" /><path
       style="fill:#000000;fill-opacity:1;stroke:#000000;stroke-width:0.79996115px;stroke-linecap:butt;stroke-linejoin:miter;stroke-opacity:1"
       d="m 148.79394,71.612031 14.39859,0 -21.59788,-57.600047 -14.3986,0 z"
       id="path5259-4-1"
       inkscape:connector-curvature="0"
       sodipodi:nodetypes="ccccc" /><path
       style="fill:#000000;fill-opacity:1;stroke:#000000;stroke-width:0.79996115px;stroke-linecap:butt;stroke-linejoin:miter;stroke-opacity:1"
       d="m 177.59112,71.612031 14.3986,0 -21.59789,-57.600047 -14.39859,0 z"
       id="path5259-3-2"
       inkscape:connector-curvature="0"
       sodipodi:nodetypes="ccccc" /><path
       style="fill:#000000;fill-opacity:1;stroke:#000000;stroke-width:0.79999495px;stroke-linecap:butt;stroke-linejoin:miter;stroke-opacity:1"
       d="m 206.39751,71.612011 14.39982,0 -21.59973,-57.600007 -14.39981,0 z"
       id="path5259-43"
       inkscape:connector-curvature="0"
       sodipodi:nodetypes="ccccc" /><path
       style="fill:#000000;fill-opacity:1;stroke:#000000;stroke-width:0.79999495px;stroke-linecap:butt;stroke-linejoin:miter;stroke-opacity:1"
       d="m 235.19714,71.612011 14.39982,0 -21.59972,-57.600007 -14.39982,0 z"
       id="path5259-4-9"
       inkscape:connector-curvature="0"
       sodipodi:nodetypes="ccccc" /><path
       style="fill:#000000;fill-opacity:1;stroke:#000000;stroke-width:0.79999495px;stroke-linecap:butt;stroke-linejoin:miter;stroke-opacity:1"
       d="m 263.99678,71.612011 14.39981,0 -21.59972,-57.600007 -14.39982,0 z"
       id="path5259-3-5"
       inkscape:connector-curvature="0"
       sodipodi:nodetypes="ccccc" /><path
       style="fill:#000000;fill-opacity:1;stroke:#000000;stroke-width:0.79996115px;stroke-linecap:butt;stroke-linejoin:miter;stroke-opacity:1"
       d="m 292.79451,71.612031 14.39861,0 -21.59782,-57.600047 -14.39862,0 z"
       id="path5259-8-5"
       inkscape:connector-curvature="0"
       sodipodi:nodetypes="ccccc" /><path
       style="fill:#000000;fill-opacity:1;stroke:#000000;stroke-width:0.79996115px;stroke-linecap:butt;stroke-linejoin:miter;stroke-opacity:1"
       d="m 321.59174,71.612031 14.39862,0 -21.59793,-57.600047 -14.39861,0 z"
       id="path5259-4-1-2"
       inkscape:connector-curvature="0"
       sodipodi:nodetypes="ccccc" /><path
       style="fill:#000000;fill-opacity:1;stroke:#000000;stroke-width:0.79996115px;stroke-linecap:butt;stroke-linejoin:miter;stroke-opacity:1"
       d="m 350.38887,71.612031 14.39862,0 -21.59783,-57.600047 -14.39861,0 z"
       id="path5259-3-2-0"
       inkscape:connector-curvature="0"
       sodipodi:nodetypes="ccccc" /><path
       style="fill:#000000;fill-opacity:1;stroke:#000000;stroke-width:0.79996127px;stroke-linecap:butt;stroke-linejoin:miter;stroke-opacity:1"
       d="m 379.19339,71.612031 14.39863,0 -21.59783,-57.600047 -14.39863,0 z"
       id="path5259-8-5-2"
       inkscape:connector-curvature="0"
       sodipodi:nodetypes="ccccc" /><path
       style="fill:#000000;fill-opacity:1;stroke:#000000;stroke-width:0.79991269px;stroke-linecap:butt;stroke-linejoin:miter;stroke-opacity:1"
       d="m 4.79521,71.612042 14.396834,0 -21.5952521,-57.600082 -14.3968359,0 z"
       id="path5259-437"
       inkscape:connector-curvature="0"
       sodipodi:nodetypes="ccccc" /><flowRoot
       xml:space="preserve"
       id="flowRoot3227"
       style="font-size:40px;font-style:normal;font-weight:normal;text-align:center;line-height:125%;letter-spacing:0px;word-spacing:0px;text-anchor:middle;fill:#000000;fill-opacity:1;stroke:none;font-family:Sans"
       transform="matrix(0.8,0,0,-0.8,-6.4,378.41201)"><flowRegion
         id="flowRegion3229"><rect
           id="rect3231"
           width="475.89957"
           height="45.588547"
           x="8.895319"
           y="192.55916"
           style="text-align:center;text-anchor:middle;fill:#000000" /></flowRegion><flowPara
         id="flowPara3233"
         style="font-style:normal;font-variant:normal;font-weight:normal;font-stretch:normal;fill:#000000;font-family:Corbel;-inkscape-font-specification:Corbel">FOUNDER</flowPara></flowRoot><flowRoot
       xml:space="preserve"
       id="flowRoot3235"
       style="font-size:40px;font-style:normal;font-variant:normal;font-weight:normal;font-stretch:normal;line-height:125%;letter-spacing:0px;word-spacing:0px;fill:#000000;fill-opacity:1;stroke:none;font-family:Microsoft YaHei;-inkscape-font-specification:Microsoft YaHei"
       transform="matrix(0.8,0,0,-0.8,-6.4,357.61201)"><flowRegion
         id="flowRegion3237"><rect
           id="rect3239"
           width="476.47186"
           height="112.97047"
           x="9.3922653"
           y="241.40884"
           style="font-style:normal;font-variant:normal;font-weight:normal;font-stretch:normal;fill:#000000;font-family:Microsoft YaHei;-inkscape-font-specification:Microsoft YaHei" /></flowRegion><flowPara
         id="flowPara3241"
         style="font-size:48px;font-style:normal;font-variant:normal;font-weight:bold;font-stretch:normal;text-align:center;text-anchor:middle;fill:#000000;font-family:Corbel;-inkscape-font-specification:Corbel">Stephen Warren</flowPara><flowPara
         id="flowPara3243"
         style="font-size:48px;font-style:normal;font-variant:normal;font-weight:bold;font-stretch:normal;text-align:center;text-anchor:middle;fill:#000000;font-family:Corbel;-inkscape-font-specification:Corbel">and family</flowPara></flowRoot><rect
       style="fill:#000000;stroke:#000000;stroke-width:0.33882353;stroke-opacity:1"
       id="rect3348"
       width="0.38117647"
       height="0.38117647"
       x="0.16941176"
       y="-381.43042"
       transform="scale(1,-1)" /></g></svg>