<?xml version="1.0" encoding="UTF-8" standalone="no"?>
<!-- Generator: Adobe Illustrator 15.1.0, SVG Export Plug-In . SVG Version: 6.00 Build 0)  -->

<svg
   version="1.1"
   id="Layer_1"
   x="0px"
   y="0px"
   width="1.7569335in"
   height="0.99999285in"
   viewBox="0 0 168.66561 95.99931"
   enable-background="new 0 0 1029.771 581.236"
   xml:space="preserve"
   sodipodi:docname="logo-monochrome-engrave.svg"
   inkscape:version="1.3 (0e150ed, 2023-07-21)"
   xmlns:inkscape="http://www.inkscape.org/namespaces/inkscape"
   xmlns:sodipodi="http://sodipodi.sourceforge.net/DTD/sodipodi-0.dtd"
   xmlns="http://www.w3.org/2000/svg"
   xmlns:svg="http://www.w3.org/2000/svg"><defs
   id="defs16">&#10;	&#10;	&#10;	&#10;	&#10;	&#10;&#10;		&#10;		&#10;		&#10;		&#10;		&#10;		&#10;		&#10;		&#10;		&#10;		&#10;		&#10;	&#10;		&#10;		&#10;		&#10;	&#10;		&#10;		&#10;		&#10;		&#10;		&#10;		&#10;		&#10;	&#10;	&#10;	&#10;	&#10;	&#10;	&#10;&#10;		&#10;		&#10;		&#10;		&#10;		&#10;		&#10;		&#10;	&#10;		&#10;		&#10;		&#10;		&#10;		&#10;		&#10;		&#10;		&#10;		&#10;		&#10;		&#10;	&#10;		&#10;		&#10;		&#10;	</defs><sodipodi:namedview
   id="namedview16"
   pagecolor="#ffffff"
   bordercolor="#000000"
   borderopacity="0.25"
   inkscape:showpageshadow="2"
   inkscape:pageopacity="0.0"
   inkscape:pagecheckerboard="0"
   inkscape:deskcolor="#d1d1d1"
   inkscape:zoom="0.91911778"
   inkscape:cx="216.51197"
   inkscape:cy="-31.007996"
   inkscape:window-width="1920"
   inkscape:window-height="1031"
   inkscape:window-x="0"
   inkscape:window-y="25"
   inkscape:window-maximized="1"
   inkscape:current-layer="Layer_1"
   showgrid="false"
   inkscape:document-units="in" />&#10;&#10;<g
   id="g16"
   transform="matrix(0.16516503,0,0,0.16516503,-1.41656,-506.27148)">&#10;	<path
   fill="#3da1c6"
   d="m 636.109,7.16 c -14.25,2.976 -26.251,12.138 -32.877,25.105 -6.627,12.974 -7.039,28.047 -1.11,41.358 7.365,16.533 12.682,33.93 15.817,51.745 4.314,24.556 4.492,49.868 0.223,74.813 -4.263,24.951 -12.91,49.536 -26.422,72.873 v 0 c -16.979,29.301 -39.47,53.01 -65.52,70.894 -26.047,17.872 -55.659,29.85 -86.522,35.275 -5.222,0.921 -10.467,1.647 -15.738,2.186 -14.484,1.482 -27.403,9.374 -35.326,21.575 -7.943,12.206 -9.892,27.217 -5.356,41.055 7.142,21.81 16.604,43.264 28.528,63.957 11.903,20.683 25.721,39.642 40.995,56.759 9.694,10.867 23.652,16.699 38.194,15.972 14.533,-0.732 27.838,-7.938 36.394,-19.726 16.401,-22.6 37.026,-41.977 60.649,-56.931 23.629,-14.947 50.229,-25.466 78.762,-30.502 12.476,-2.186 25.341,-3.325 38.515,-3.313 36.723,0.046 71.002,9.02 101.298,24.871 30.285,15.857 56.507,38.657 76.422,66.241 8.532,11.806 21.78,19.022 36.328,19.801 14.535,0.767 28.477,-5.008 38.211,-15.841 31.767,-35.367 55.31,-76.576 69.788,-120.676 4.544,-13.832 2.599,-28.785 -5.311,-41.015 -7.908,-12.219 -20.768,-20.115 -35.252,-21.627 -33.827,-3.548 -66.647,-14.913 -95.467,-33.271 -28.837,-18.376 -53.696,-43.619 -72.026,-75.432 -13.174,-22.896 -21.7,-46.967 -25.998,-71.397 -7.669,-43.516 -1.809,-88.256 16.035,-128.041 C 815.294,60.574 814.922,45.5 808.319,32.527 801.726,19.548 789.754,10.357 775.516,7.359 733.574,-1.529 689.88,-2.473 646.788,5.104 643.229,5.729 639.657,6.427 636.109,7.16 Z"
   id="path1-5" />&#10;	<path
   fill="#182e33"
   d="m 833.67,236.023 h -19.274 c 3.508,-7.445 5.482,-15.663 5.482,-24.322 0,-33.415 -28.957,-60.495 -64.673,-60.495 H 294.699 c -35.716,0 -64.676,27.08 -64.676,60.495 0,8.659 1.98,16.876 5.485,24.322 H 94.168 C 36.66,236.023 0,282.635 0,340.137 0,397.628 36.66,444.245 94.168,444.245 h 494.557 c -4.636,8.366 -7.279,17.97 -7.279,28.201 0,32.248 26.147,58.396 58.384,58.396 h 114.7 c 32.241,0 58.377,-26.147 58.377,-58.396 0,-10.231 -2.649,-19.835 -7.273,-28.201 h 106.964 c 39.109,0 39.081,-35.772 39.081,-35.772 v -61.297 c 0,-80.839 -39.081,-111.153 -118.009,-111.153 z"
   id="path2" />&#10;	<g
   id="g7">&#10;		<path
   fill="#3da1c6"
   d="m 106.5,268.214 c -9.588,0 -18.771,1.797 -27.506,5.368 -8.75,3.582 -16.43,8.567 -23.045,14.936 -6.624,6.387 -11.906,13.976 -15.852,22.776 -3.949,8.813 -5.92,18.496 -5.92,29.049 0,10.576 2.006,20.321 6.009,29.243 4.012,8.928 9.322,16.647 15.946,23.143 6.61,6.501 14.261,11.537 22.951,15.12 8.681,3.582 17.757,5.368 27.237,5.368 4.612,0 9.285,-0.452 14.023,-1.362 4.735,-0.91 9.837,-2.335 15.306,-4.28 l 3.643,-1.271 v -42.269 c -9.111,9.717 -19.369,14.57 -30.786,14.57 -5.222,0 -10.081,-0.962 -14.576,-2.907 -4.495,-1.946 -8.41,-4.624 -11.752,-8.023 -3.339,-3.399 -5.946,-7.405 -7.829,-12.023 -1.891,-4.612 -2.824,-9.654 -2.824,-15.125 0,-5.334 0.933,-10.312 2.824,-14.937 1.883,-4.602 4.461,-8.584 7.731,-11.932 3.291,-3.337 7.205,-5.975 11.757,-7.915 4.558,-1.945 9.5,-2.924 14.845,-2.924 12.144,0 22.351,5.041 30.608,15.125 V 275.31 c -5.829,-2.426 -11.391,-4.212 -16.667,-5.368 -5.287,-1.156 -10.66,-1.728 -16.123,-1.728 z"
   id="path3" />&#10;		<path
   fill="#3da1c6"
   d="m 258.087,339.897 c 5.036,-6.501 7.56,-14.965 7.56,-25.415 0,-5.831 -0.944,-11.291 -2.819,-16.396 -1.891,-5.104 -4.678,-9.591 -8.381,-13.482 -3.703,-3.88 -8.418,-6.948 -14.118,-9.197 -5.717,-2.249 -12.395,-3.371 -20.041,-3.371 h -55.565 v 137.357 h 35.707 v -52.832 l 34.067,52.832 h 44.449 l -43.175,-56.295 c 9.835,-2.305 17.278,-6.7 22.316,-13.201 z m -34.702,-10.839 c -3.76,2.913 -9.171,4.372 -16.218,4.372 h -6.736 v -33.884 h 6.736 c 7.047,0 12.458,1.459 16.218,4.378 3.76,2.906 5.648,7.096 5.648,12.566 0,5.461 -1.888,9.655 -5.648,12.568 z"
   id="path4" />&#10;		<polygon
   fill="#3da1c6"
   points="331.012,302.276 373.464,302.276 373.464,272.037 295.308,272.037 295.308,409.394 373.464,409.394 373.464,379.167 331.012,379.167 331.012,355.474 371.092,355.474 371.092,325.236 331.012,325.236 "
   id="polygon4" />&#10;		<path
   fill="#3da1c6"
   d="M 435.473,272.037 383.19,409.394 h 38.068 l 8.204,-23.864 h 51.004 l 8.207,23.864 h 38.065 l -52.28,-137.357 z m 3.465,86.344 16.03,-45.725 16.026,45.725 z"
   id="path5" />&#10;		<polygon
   fill="#3da1c6"
   points="584.232,302.276 613.567,302.276 613.567,272.037 519.205,272.037 519.205,302.276 548.528,302.276 548.528,409.394 584.232,409.394 "
   id="polygon5" />&#10;		<path
   fill="#3da1c6"
   d="m 755.497,289.159 c -6.741,-6.558 -14.788,-11.691 -24.127,-15.394 -9.362,-3.697 -19.561,-5.551 -30.611,-5.551 -11.177,0 -21.414,1.854 -30.708,5.551 -9.288,3.703 -17.266,8.836 -23.95,15.394 -6.672,6.558 -11.903,14.25 -15.668,23.051 -3.761,8.808 -5.644,18.302 -5.644,28.505 0,10.204 1.883,19.703 5.644,28.517 3.765,8.802 8.996,16.481 15.668,23.04 6.685,6.558 14.662,11.697 23.95,15.394 9.294,3.697 19.531,5.552 30.708,5.552 11.051,0 21.249,-1.854 30.611,-5.552 9.339,-3.696 17.386,-8.836 24.127,-15.394 6.741,-6.559 11.989,-14.238 15.761,-23.04 3.766,-8.813 5.653,-18.312 5.653,-28.517 0,-10.203 -1.888,-19.697 -5.653,-28.505 -3.772,-8.801 -9.02,-16.493 -15.761,-23.051 z m -19.028,66.675 c -2.077,4.619 -4.893,8.625 -8.476,12.023 -3.594,3.399 -7.72,6.055 -12.396,7.927 -4.669,1.883 -9.614,2.821 -14.839,2.821 -5.225,0 -10.169,-0.938 -14.839,-2.821 -4.692,-1.872 -8.79,-4.527 -12.304,-7.927 -3.525,-3.398 -6.318,-7.404 -8.384,-12.023 -2.061,-4.606 -3.097,-9.654 -3.097,-15.119 0,-5.465 1.036,-10.501 3.097,-15.125 2.065,-4.602 4.858,-8.618 8.384,-12.018 3.514,-3.399 7.611,-6.044 12.304,-7.932 4.67,-1.878 9.614,-2.821 14.839,-2.821 5.225,0 10.17,0.943 14.839,2.821 4.676,1.888 8.802,4.532 12.396,7.932 3.583,3.399 6.398,7.416 8.476,12.018 2.055,4.624 3.091,9.66 3.091,15.125 0,5.465 -1.037,10.513 -3.091,15.119 z"
   id="path6" />&#10;		<path
   fill="#3da1c6"
   d="m 869.116,353.099 c 9.844,-2.306 17.277,-6.701 22.324,-13.202 5.03,-6.501 7.549,-14.965 7.549,-25.415 0,-5.831 -0.933,-11.291 -2.815,-16.396 -1.882,-5.105 -4.67,-9.591 -8.378,-13.482 -3.709,-3.88 -8.425,-6.948 -14.112,-9.197 -5.724,-2.249 -12.396,-3.371 -20.041,-3.371 h -55.568 v 137.357 h 35.71 v -52.832 l 34.062,52.832 h 44.449 z m -12.384,-24.041 c -3.766,2.913 -9.174,4.372 -16.213,4.372 h -6.735 v -33.884 h 6.735 c 7.039,0 12.447,1.459 16.213,4.378 3.766,2.906 5.643,7.096 5.643,12.566 0,5.461 -1.877,9.655 -5.643,12.568 z"
   id="path7" />&#10;	</g>&#10;	<g
   id="g13">&#10;		<polygon
   fill="#fff0e4"
   points="304.713,205.619 290.541,205.619 290.541,197.321 306.096,197.321 306.096,186.378 277.625,186.378 277.625,236.063 290.541,236.063 290.541,216.561 304.713,216.561 "
   id="polygon7" />&#10;		<path
   fill="#fff0e4"
   d="m 319.215,229.872 c 2.412,2.369 5.302,4.223 8.656,5.574 3.365,1.339 7.07,2.009 11.108,2.009 4,0 7.691,-0.669 11.076,-2.009 3.379,-1.351 6.29,-3.205 8.73,-5.574 2.44,-2.375 4.335,-5.15 5.7,-8.333 1.368,-3.193 2.048,-6.627 2.048,-10.324 0,-3.686 -0.681,-7.13 -2.048,-10.312 -1.365,-3.182 -3.259,-5.963 -5.7,-8.332 -2.441,-2.375 -5.351,-4.229 -8.73,-5.574 -3.385,-1.339 -7.076,-2.003 -11.076,-2.003 -4.038,0 -7.743,0.664 -11.108,2.003 -3.354,1.345 -6.244,3.199 -8.656,5.574 -2.415,2.369 -4.312,5.15 -5.68,8.332 -1.354,3.182 -2.037,6.627 -2.037,10.312 0,3.697 0.684,7.131 2.037,10.324 1.368,3.182 3.265,5.958 5.68,8.333 z m 6.922,-24.127 c 0.744,-1.66 1.751,-3.113 3.027,-4.344 1.276,-1.23 2.758,-2.192 4.446,-2.861 1.691,-0.681 3.485,-1.024 5.368,-1.024 1.9,0 3.683,0.343 5.374,1.024 1.694,0.669 3.193,1.631 4.49,2.861 1.288,1.23 2.309,2.684 3.053,4.344 0.753,1.671 1.127,3.491 1.127,5.471 0,1.98 -0.375,3.812 -1.127,5.477 -0.744,1.666 -1.765,3.119 -3.053,4.344 -1.296,1.236 -2.796,2.192 -4.49,2.873 -1.691,0.681 -3.474,1.024 -5.374,1.024 -1.883,0 -3.677,-0.344 -5.368,-1.024 -1.688,-0.681 -3.17,-1.637 -4.446,-2.873 -1.276,-1.225 -2.283,-2.678 -3.027,-4.344 -0.75,-1.665 -1.125,-3.497 -1.125,-5.477 0,-1.98 0.375,-3.8 1.125,-5.471 z"
   id="path8" />&#10;		<path
   fill="#fff0e4"
   d="m 387.622,216.95 12.318,19.114 h 16.084 L 400.4,215.702 c 3.56,-0.835 6.25,-2.427 8.075,-4.779 1.825,-2.352 2.738,-5.419 2.738,-9.196 0,-2.106 -0.352,-4.086 -1.03,-5.929 -0.678,-1.843 -1.685,-3.468 -3.03,-4.882 -1.333,-1.396 -3.042,-2.512 -5.102,-3.325 -2.069,-0.812 -4.484,-1.213 -7.248,-1.213 H 374.7 v 49.685 h 12.922 z m 0,-20.625 h 2.435 c 2.541,0 4.501,0.526 5.866,1.58 1.353,1.053 2.034,2.569 2.034,4.549 0,1.975 -0.681,3.497 -2.034,4.55 -1.365,1.053 -3.325,1.58 -5.866,1.58 h -2.435 z"
   id="path9" />&#10;		<polygon
   fill="#fff0e4"
   points="450.956,186.378 416.813,186.378 416.813,197.321 427.423,197.321 427.423,236.063 440.34,236.063 440.34,197.321 450.956,197.321 "
   id="polygon9" />&#10;		<path
   fill="#fff0e4"
   d="m 484.8,230.032 c 2.383,2.358 5.15,4.178 8.298,5.471 3.145,1.293 6.427,1.951 9.854,1.951 1.668,0 3.356,-0.166 5.073,-0.498 1.706,-0.332 3.554,-0.853 5.537,-1.545 l 1.316,-0.469 v -15.291 c -3.299,3.525 -7.01,5.282 -11.136,5.282 -1.886,0 -3.646,-0.361 -5.276,-1.059 -1.625,-0.698 -3.042,-1.671 -4.25,-2.896 -1.208,-1.23 -2.154,-2.678 -2.83,-4.349 -0.684,-1.671 -1.024,-3.497 -1.024,-5.471 0,-1.94 0.34,-3.743 1.024,-5.414 0.675,-1.66 1.617,-3.102 2.795,-4.315 1.185,-1.202 2.604,-2.163 4.258,-2.867 1.643,-0.692 3.425,-1.047 5.365,-1.047 4.395,0 8.086,1.82 11.073,5.471 v -15.428 c -2.112,-0.87 -4.115,-1.522 -6.026,-1.946 -1.917,-0.406 -3.854,-0.618 -5.84,-0.618 -3.468,0 -6.784,0.646 -9.949,1.946 -3.165,1.293 -5.94,3.09 -8.335,5.396 -2.395,2.306 -4.309,5.053 -5.729,8.241 -1.428,3.188 -2.149,6.69 -2.149,10.513 0,3.823 0.73,7.348 2.175,10.576 1.455,3.232 3.375,6.02 5.776,8.366 z"
   id="path10" />&#10;		<path
   fill="#fff0e4"
   d="m 529.237,229.872 c 2.42,2.369 5.305,4.223 8.675,5.574 3.359,1.339 7.051,2.009 11.097,2.009 4.006,0 7.691,-0.669 11.068,-2.009 3.394,-1.351 6.306,-3.205 8.732,-5.574 2.438,-2.375 4.344,-5.15 5.711,-8.333 1.356,-3.193 2.038,-6.627 2.038,-10.324 0,-3.686 -0.682,-7.13 -2.038,-10.312 -1.367,-3.182 -3.273,-5.963 -5.711,-8.332 -2.427,-2.375 -5.339,-4.229 -8.732,-5.574 -3.377,-1.339 -7.062,-2.003 -11.068,-2.003 -4.046,0 -7.737,0.664 -11.097,2.003 -3.37,1.345 -6.255,3.199 -8.675,5.574 -2.41,2.369 -4.298,5.15 -5.666,8.332 -1.356,3.182 -2.037,6.627 -2.037,10.312 0,3.697 0.681,7.131 2.037,10.324 1.368,3.182 3.256,5.958 5.666,8.333 z m 6.924,-24.127 c 0.744,-1.66 1.751,-3.113 3.033,-4.344 1.271,-1.23 2.759,-2.192 4.446,-2.861 1.694,-0.681 3.479,-1.024 5.368,-1.024 1.889,0 3.68,0.343 5.368,1.024 1.693,0.669 3.193,1.631 4.498,2.861 1.287,1.23 2.312,2.684 3.056,4.344 0.738,1.671 1.116,3.491 1.116,5.471 0,1.98 -0.378,3.812 -1.116,5.477 -0.744,1.666 -1.769,3.119 -3.056,4.344 -1.305,1.236 -2.805,2.192 -4.498,2.873 -1.688,0.681 -3.479,1.024 -5.368,1.024 -1.889,0 -3.674,-0.344 -5.368,-1.024 -1.688,-0.681 -3.176,-1.637 -4.446,-2.873 -1.282,-1.225 -2.289,-2.678 -3.033,-4.344 -0.744,-1.665 -1.127,-3.497 -1.127,-5.477 0,-1.98 0.383,-3.8 1.127,-5.471 z"
   id="path11" />&#10;		<polygon
   fill="#fff0e4"
   points="597.652,186.378 584.736,186.378 584.736,236.063 613.138,236.063 613.138,225.122 597.652,225.122 "
   id="polygon11" />&#10;		<polygon
   fill="#fff0e4"
   points="632.722,186.378 619.794,186.378 619.794,236.063 648.195,236.063 648.195,225.122 632.722,225.122 "
   id="polygon12" />&#10;		<rect
   x="654.84601"
   y="186.37801"
   fill="#fff0e4"
   width="12.933"
   height="49.685001"
   id="rect12" />&#10;		<polygon
   fill="#fff0e4"
   points="691.104,205.687 714.951,236.063 727.811,236.063 727.811,186.378 714.951,186.378 714.951,216.761 691.104,186.378 678.183,186.378 678.183,236.063 691.104,236.063 "
   id="polygon13" />&#10;		<path
   fill="#fff0e4"
   d="m 752.842,226.506 c -1.843,0 -3.708,-0.412 -5.591,-1.247 -1.895,-0.836 -3.806,-2.118 -5.74,-3.823 l -5.534,10.416 c 5.362,3.726 11.177,5.603 17.46,5.603 3.045,0 5.746,-0.406 8.149,-1.225 2.393,-0.807 4.4,-1.952 6.066,-3.428 1.637,-1.465 2.896,-3.239 3.748,-5.305 0.852,-2.066 1.282,-4.366 1.282,-6.919 0,-3.783 -0.979,-6.844 -2.931,-9.19 -1.951,-2.358 -5.041,-4.229 -9.265,-5.643 -1.042,-0.344 -2.111,-0.675 -3.188,-0.984 -1.082,-0.304 -2.043,-0.675 -2.913,-1.076 -0.835,-0.423 -1.545,-0.927 -2.065,-1.488 -0.521,-0.572 -0.79,-1.305 -0.79,-2.174 0,-1.282 0.532,-2.312 1.579,-3.102 1.059,-0.79 2.409,-1.19 4.081,-1.19 1.315,0 2.684,0.275 4.103,0.83 1.391,0.543 2.799,1.391 4.218,2.535 l 5.128,-10.083 c -2.461,-1.316 -5.024,-2.323 -7.709,-2.999 -2.684,-0.681 -5.247,-1.019 -7.708,-1.019 -2.645,0 -5.03,0.395 -7.153,1.185 -2.118,0.796 -3.938,1.895 -5.408,3.325 -1.47,1.43 -2.615,3.142 -3.423,5.139 -0.807,2.003 -1.219,4.229 -1.219,6.696 0,2.461 0.39,4.493 1.156,6.089 0.767,1.603 1.769,2.942 3.033,3.989 1.259,1.059 2.667,1.906 4.274,2.535 1.608,0.641 3.245,1.225 4.916,1.751 1.414,0.48 2.599,0.927 3.583,1.316 0.995,0.401 1.797,0.824 2.409,1.282 0.618,0.469 1.064,0.973 1.321,1.522 0.264,0.549 0.401,1.196 0.401,1.94 0,1.23 -0.527,2.329 -1.552,3.302 -1.033,0.966 -2.601,1.44 -4.718,1.44 z"
   id="path13" />&#10;	</g>&#10;	<g
   id="g15">&#10;		<polygon
   fill="#3da1c6"
   points="658.079,495.476 670.995,495.476 670.995,445.779 658.079,445.779 658.079,464.961 639.429,464.961 639.429,445.779 626.512,445.779 626.512,495.476 639.429,495.476 639.429,474.977 658.079,474.977 "
   id="polygon14" />&#10;		<path
   fill="#3da1c6"
   d="m 711.855,472.802 c 0,1.447 -0.058,2.936 -0.166,4.452 -0.108,1.511 -0.446,2.884 -1.024,4.12 -0.561,1.225 -1.437,2.232 -2.598,2.987 -1.168,0.772 -2.822,1.162 -4.979,1.162 -2.151,0 -3.816,-0.39 -5.007,-1.162 -1.185,-0.755 -2.061,-1.763 -2.604,-2.987 -0.549,-1.236 -0.881,-2.609 -0.984,-4.12 -0.114,-1.517 -0.166,-3.005 -0.166,-4.452 V 445.779 H 681.41 v 28.809 c 0,7.726 1.774,13.368 5.34,16.934 3.56,3.554 9.002,5.34 16.338,5.34 7.337,0 12.773,-1.786 16.315,-5.34 3.531,-3.565 5.3,-9.208 5.3,-16.934 v -28.809 h -12.848 z"
   id="path14" />&#10;		<path
   fill="#3da1c6"
   d="m 770.742,473.26 c -0.812,-1.048 -1.865,-1.946 -3.17,-2.667 -1.294,-0.722 -2.867,-1.259 -4.704,-1.614 1.837,-1.139 3.216,-2.541 4.114,-4.183 0.898,-1.648 1.351,-3.726 1.351,-6.227 0,-4.138 -1.185,-7.297 -3.554,-9.494 -2.381,-2.197 -5.843,-3.297 -10.415,-3.297 h -19.24 v 49.697 h 20.751 c 2.632,0 5.013,-0.31 7.119,-0.928 2.117,-0.618 3.896,-1.533 5.373,-2.758 1.471,-1.236 2.609,-2.759 3.428,-4.556 0.813,-1.809 1.214,-3.868 1.214,-6.192 0,-1.499 -0.172,-2.907 -0.526,-4.223 -0.356,-1.315 -0.933,-2.499 -1.741,-3.558 z m -22.708,-17.592 h 2.381 c 4.029,0 6.055,1.603 6.055,4.812 0,3.205 -2.025,4.808 -6.055,4.808 h -2.381 z m 9.826,28.534 c -1.413,0.836 -3.736,1.259 -6.987,1.259 h -2.839 v -10.553 h 2.839 c 3.251,0 5.574,0.418 6.987,1.248 1.402,0.841 2.106,2.181 2.106,4.028 10e-4,1.843 -0.703,3.183 -2.106,4.018 z"
   id="path15" />&#10;	</g>&#10;</g><path
   fill="#3da1c6"
   d="m 103.6464,-385.00426 c -2.3536,0.49153 -4.33575,2.00477 -5.43013,4.14647 -1.09455,2.14285 -1.1626,4.63238 -0.18333,6.8309 1.21644,2.73067 2.09462,5.60404 2.61241,8.54646 0.71253,4.05579 0.74192,8.23645 0.0368,12.35649 -0.7041,4.12103 -2.13229,8.18162 -4.364,12.03607 v 0 c -2.80433,4.8395 -6.51906,8.7554 -10.82161,11.70921 -4.30205,2.95183 -9.19292,4.93018 -14.29041,5.8262 -0.86249,0.15212 -1.72878,0.27202 -2.59936,0.36105 -2.39225,0.24477 -4.52602,1.54826 -5.83462,3.56343 -1.31191,2.01601 -1.63382,4.4953 -0.88463,6.78085 1.17961,3.60225 2.7424,7.1457 4.71183,10.56346 1.96596,3.41611 4.24821,6.54748 6.77094,9.37461 1.60111,1.79484 3.90648,2.75809 6.30831,2.63801 2.40035,-0.1209 4.59787,-1.31108 6.01102,-3.25804 2.70887,-3.73273 6.1154,-6.93314 10.01709,-9.40301 3.90269,-2.46873 8.29608,-4.2061 13.00873,-5.03787 2.0606,-0.36105 4.18545,-0.54917 6.36133,-0.54719 6.06536,0.008 11.72705,1.48979 16.73089,4.10782 5.00202,2.61902 9.33298,6.38479 12.62224,10.9407 1.40919,1.94994 3.5973,3.14177 6.00012,3.27043 2.40067,0.12668 4.7034,-0.82715 6.31112,-2.61638 5.2468,-5.84139 9.13528,-12.64768 11.52654,-19.93145 0.75051,-2.28457 0.42926,-4.75428 -0.8772,-6.77425 -1.30612,-2.01815 -3.43014,-3.32229 -5.82239,-3.57202 -5.58704,-0.58601 -11.00776,-2.46311 -15.76781,-5.49521 -4.76287,-3.03507 -8.8687,-7.20433 -11.89618,-12.45873 -2.17588,-3.78161 -3.58408,-7.7573 -4.29396,-11.79228 -1.26665,-7.18733 -0.29878,-14.57681 2.64842,-21.1479 0.9829,-2.1957 0.92146,-4.6854 -0.16913,-6.82809 -1.08893,-2.14367 -3.06629,-3.66171 -5.41791,-4.15687 -6.92735,-1.46799 -14.14407,-1.6239 -21.26136,-0.37245 -0.58782,0.10323 -1.17779,0.21852 -1.7638,0.33958 z"
   id="path16"
   style="vector-effect:non-scaling-stroke;fill:none;stroke:#000000;stroke-width:1;stroke-dasharray:none;stroke-opacity:1;-inkscape-stroke:hairline" /><path
   fill="#182e33"
   d="m 136.27657,-347.20409 h -3.18339 c 0.5794,-1.22966 0.90543,-2.58698 0.90543,-4.01715 0,-5.51899 -4.78268,-9.99166 -10.68171,-9.99166 H 47.25741 c -5.89904,0 -10.68221,4.47267 -10.68221,9.99166 0,1.43017 0.32702,2.78733 0.90593,4.01715 H 14.1367 c -9.49831,0 -15.55326,7.69867 -15.55326,17.19599 0,9.4955 6.05495,17.195 15.55326,17.195 h 81.68352 c -0.7657,1.38177 -1.20223,2.96801 -1.20223,4.65782 0,5.32624 4.31857,9.64497 9.64299,9.64497 h 18.94443 c 5.32509,0 9.64184,-4.31857 9.64184,-9.64497 0,-1.68981 -0.43752,-3.27605 -1.20125,-4.65782 h 17.66672 c 6.45944,0 6.45481,-5.90828 6.45481,-5.90828 v -10.12413 c 0,-13.35177 -6.45481,-18.35858 -19.49096,-18.35858 z"
   id="path18"
   style="vector-effect:non-scaling-stroke;fill:none;stroke:#000000;stroke-width:1;stroke-dasharray:none;stroke-opacity:1;-inkscape-stroke:hairline" /><path
   fill="#3da1c6"
   d="m 16.17352,-341.88727 c -1.58361,0 -3.10032,0.2968 -4.54303,0.88661 -1.4452,0.59162 -2.71367,1.41497 -3.80623,2.4669 -1.09405,1.05491 -1.96646,2.30835 -2.6182,3.7618 -0.65223,1.4556 -0.97777,3.0549 -0.97777,4.79788 0,1.74679 0.33132,3.35632 0.99247,4.82992 0.66264,1.4746 1.53967,2.74951 2.63372,3.82242 1.09174,1.07373 2.35542,1.90551 3.79071,2.49729 1.43379,0.59162 2.93283,0.88661 4.4986,0.88661 0.76174,0 1.53355,-0.0747 2.31611,-0.22496 0.78205,-0.1503 1.62472,-0.38566 2.52801,-0.7069 l 0.6017,-0.20993 v -6.98136 c -1.50482,1.60491 -3.19908,2.40646 -5.08477,2.40646 -0.8625,0 -1.66503,-0.15889 -2.40745,-0.48014 -0.74242,-0.32141 -1.38904,-0.76372 -1.94102,-1.32512 -0.55148,-0.56139 -0.98207,-1.22304 -1.29308,-1.98578 -0.31232,-0.76174 -0.46642,-1.5945 -0.46642,-2.49812 0,-0.88099 0.1541,-1.70318 0.46642,-2.46707 0.31101,-0.76009 0.73681,-1.41777 1.2769,-1.97075 0.54355,-0.55115 1.19001,-0.98686 1.94184,-1.30728 0.75282,-0.32124 1.56907,-0.48294 2.45188,-0.48294 2.00576,0 3.6916,0.8326 5.05537,2.49812 v -7.04165 c -0.96275,-0.40069 -1.8814,-0.69567 -2.75281,-0.8866 -0.87323,-0.19093 -1.76066,-0.28541 -2.66295,-0.28541 z"
   id="path19"
   style="vector-effect:non-scaling-stroke;fill:none;stroke:#000000;stroke-width:1;stroke-dasharray:none;stroke-opacity:1;-inkscape-stroke:hairline" /><path
   fill="#3da1c6"
   d="m 41.21039,-330.04774 c 0.83177,-1.07374 1.24864,-2.4717 1.24864,-4.19767 0,-0.96308 -0.15591,-1.86488 -0.4656,-2.70805 -0.31232,-0.843 -0.77264,-1.58409 -1.38424,-2.22675 -0.61161,-0.64084 -1.39036,-1.14757 -2.3318,-1.51902 -0.94425,-0.37146 -2.04722,-0.55678 -3.31008,-0.55678 h -9.17739 v 22.68658 h 5.89755 v -8.726 l 5.62667,8.726 h 7.34142 l -7.131,-9.29797 c 1.6244,-0.3807 2.85373,-1.1066 3.68583,-2.18034 z m -5.73156,-1.79023 c -0.62102,0.48113 -1.51473,0.72211 -2.67865,0.72211 h -1.11255 v -5.59646 h 1.11255 c 1.16392,0 2.05763,0.24098 2.67865,0.7231 0.62102,0.47997 0.93285,1.17201 0.93285,2.07546 0,0.90197 -0.31183,1.59467 -0.93285,2.07579 z"
   id="path20"
   style="vector-effect:non-scaling-stroke;fill:none;stroke:#000000;stroke-width:1;stroke-dasharray:none;stroke-opacity:1;-inkscape-stroke:hairline" /><polygon
   fill="#3da1c6"
   points="373.464,409.394 373.464,379.167 331.012,379.167 331.012,355.474 371.092,355.474 371.092,325.236 331.012,325.236 331.012,302.276 373.464,302.276 373.464,272.037 295.308,272.037 295.308,409.394 "
   id="polygon20"
   transform="matrix(0.16516503,0,0,0.16516503,-1.41656,-386.18684)"
   style="vector-effect:non-scaling-stroke;fill:none;stroke:#000000;stroke-width:6.05455;stroke-dasharray:none;stroke-opacity:1;-inkscape-stroke:hairline" /><path
   fill="#3da1c6"
   d="m 70.50835,-341.25584 -8.63532,22.68657 h 6.2875 l 1.35501,-3.9415 h 8.42408 l 1.35551,3.9415 h 6.28701 l -8.63483,-22.68657 z m 0.5723,14.26101 2.64759,-7.55217 2.64694,7.55217 z"
   id="path21"
   style="vector-effect:non-scaling-stroke;fill:none;stroke:#000000;stroke-width:1;stroke-dasharray:none;stroke-opacity:1;-inkscape-stroke:hairline" /><polygon
   fill="#3da1c6"
   points="548.528,302.276 548.528,409.394 584.232,409.394 584.232,302.276 613.567,302.276 613.567,272.037 519.205,272.037 519.205,302.276 "
   id="polygon21"
   transform="matrix(0.16516503,0,0,0.16516503,-1.41656,-386.18684)"
   style="vector-effect:non-scaling-stroke;fill:none;stroke:#000000;stroke-width:6.05455;stroke-dasharray:none;stroke-opacity:1;-inkscape-stroke:hairline" /><path
   fill="#3da1c6"
   d="m 123.36512,-338.42789 c -1.11337,-1.08315 -2.44246,-1.93094 -3.98493,-2.54255 -1.54628,-0.61061 -3.2308,-0.91683 -5.05587,-0.91683 -1.84605,0 -3.53684,0.30622 -5.07189,0.91683 -1.53405,0.61161 -2.85174,1.4594 -3.9557,2.54255 -1.10198,1.08316 -1.96596,2.35361 -2.5878,3.80722 -0.62119,1.45478 -0.9322,3.02285 -0.9322,4.70803 0,1.68535 0.31101,3.25425 0.9322,4.71001 0.62184,1.45379 1.48582,2.72209 2.5878,3.80541 1.10413,1.08315 2.42165,1.93193 3.9557,2.54255 1.53505,0.61061 3.22584,0.91699 5.07189,0.91699 1.82524,0 3.50959,-0.30621 5.05587,-0.91699 1.54247,-0.61045 2.87156,-1.4594 3.98493,-2.54255 1.11338,-1.08332 1.98017,-2.35162 2.60317,-3.80541 0.62201,-1.4556 0.93368,-3.0245 0.93368,-4.71001 0,-1.68518 -0.31183,-3.25325 -0.93368,-4.70803 -0.623,-1.45361 -1.48979,-2.72406 -2.60317,-3.80722 z m -3.14276,11.01238 c -0.34304,0.7629 -0.80815,1.42455 -1.39993,1.98578 -0.59361,0.5614 -1.27508,1.00008 -2.04739,1.30927 -0.77116,0.311 -1.5879,0.46593 -2.45088,0.46593 -0.86299,0 -1.67957,-0.15493 -2.45089,-0.46593 -0.77495,-0.30919 -1.4518,-0.74771 -2.03219,-1.30927 -0.58221,-0.56123 -1.04351,-1.22288 -1.38474,-1.98578 -0.34041,-0.76075 -0.51152,-1.5945 -0.51152,-2.49713 0,-0.90262 0.17111,-1.73439 0.51152,-2.49812 0.34106,-0.76009 0.80237,-1.42339 1.38474,-1.98495 0.58039,-0.5614 1.25707,-0.99826 2.03219,-1.31009 0.77132,-0.31018 1.5879,-0.46593 2.45089,-0.46593 0.86298,0 1.67972,0.15575 2.45088,0.46593 0.77231,0.31183 1.45378,0.74853 2.04739,1.31009 0.59178,0.56139 1.05672,1.22486 1.39993,1.98495 0.33942,0.76373 0.51053,1.5955 0.51053,2.49812 0,0.90263 -0.17128,1.73638 -0.51053,2.49713 z"
   id="path22"
   style="vector-effect:non-scaling-stroke;fill:none;stroke:#000000;stroke-width:1;stroke-dasharray:none;stroke-opacity:1;-inkscape-stroke:hairline" /><path
   fill="#3da1c6"
   d="m 142.13101,-327.86723 c 1.62588,-0.38087 2.85356,-1.10677 3.68714,-2.18051 0.83078,-1.07374 1.24684,-2.4717 1.24684,-4.19767 0,-0.96308 -0.1541,-1.86488 -0.46494,-2.70805 -0.31084,-0.84316 -0.77133,-1.58409 -1.38376,-2.22675 -0.61259,-0.64084 -1.39151,-1.14757 -2.33081,-1.51902 -0.9454,-0.37146 -2.04738,-0.55678 -3.31007,-0.55678 h -9.17789 v 22.68658 h 5.89804 v -8.726 l 5.62586,8.726 h 7.34142 z m -2.0454,-3.97074 c -0.62202,0.48113 -1.51523,0.72211 -2.67782,0.72211 h -1.11239 v -5.59646 h 1.11239 c 1.16259,0 2.0558,0.24098 2.67782,0.7231 0.62201,0.47997 0.93202,1.17201 0.93202,2.07546 0,0.90197 -0.31001,1.59467 -0.93202,2.07579 z"
   id="path23"
   style="vector-effect:non-scaling-stroke;fill:none;stroke:#000000;stroke-width:1;stroke-dasharray:none;stroke-opacity:1;-inkscape-stroke:hairline" /><polygon
   fill="#fff0e4"
   points="277.625,186.378 277.625,236.063 290.541,236.063 290.541,216.561 304.713,216.561 304.713,205.619 290.541,205.619 290.541,197.321 306.096,197.321 306.096,186.378 "
   id="polygon23"
   transform="matrix(0.16516503,0,0,0.16516503,-1.41656,-386.18684)"
   style="vector-effect:non-scaling-stroke;fill:none;stroke:#000000;stroke-width:6.05455;stroke-dasharray:none;stroke-opacity:1;-inkscape-stroke:hairline" /><path
   fill="#fff0e4"
   d="m 51.3066,-348.22002 c 0.39837,0.39127 0.8757,0.69749 1.42966,0.92063 0.55578,0.22115 1.16772,0.33181 1.83466,0.33181 0.66066,0 1.27028,-0.11049 1.82936,-0.33181 0.5581,-0.22314 1.03889,-0.52936 1.4419,-0.92063 0.403,-0.39227 0.71599,-0.8506 0.94144,-1.37632 0.22594,-0.52738 0.33825,-1.09455 0.33825,-1.70517 0,-0.6088 -0.11247,-1.17762 -0.33825,-1.70318 -0.22545,-0.52556 -0.53828,-0.98488 -0.94144,-1.37616 -0.40317,-0.39226 -0.8838,-0.69848 -1.4419,-0.92062 -0.55908,-0.22116 -1.1687,-0.33083 -1.82936,-0.33083 -0.66694,0 -1.27888,0.10967 -1.83466,0.33083 -0.55396,0.22214 -1.03129,0.52836 -1.42966,0.92062 -0.39888,0.39128 -0.7122,0.8506 -0.93814,1.37616 -0.22364,0.52556 -0.33644,1.09455 -0.33644,1.70318 0,0.61062 0.11297,1.17779 0.33644,1.70517 0.22594,0.52555 0.53926,0.98405 0.93814,1.37632 z m 1.14327,-3.98494 c 0.12288,-0.27417 0.2892,-0.51416 0.49995,-0.71748 0.21075,-0.20315 0.45553,-0.36204 0.73433,-0.47253 0.27929,-0.11248 0.5756,-0.16913 0.8866,-0.16913 0.31382,0 0.6083,0.0566 0.8876,0.16913 0.27979,0.11049 0.52737,0.26938 0.74159,0.47253 0.21273,0.20316 0.38137,0.44331 0.50425,0.71748 0.12437,0.27599 0.18614,0.57659 0.18614,0.90362 0,0.32702 -0.0619,0.62961 -0.18614,0.90461 -0.12288,0.27516 -0.29152,0.51515 -0.50425,0.71747 -0.21405,0.20415 -0.4618,0.36204 -0.74159,0.47452 -0.2793,0.11248 -0.57378,0.16913 -0.8876,0.16913 -0.311,0 -0.60731,-0.0568 -0.8866,-0.16913 -0.2788,-0.11248 -0.52358,-0.27037 -0.73433,-0.47452 -0.21075,-0.20232 -0.37707,-0.44231 -0.49995,-0.71747 -0.12388,-0.275 -0.18581,-0.57759 -0.18581,-0.90461 0,-0.32703 0.0619,-0.62763 0.18581,-0.90362 z"
   id="path24"
   style="vector-effect:non-scaling-stroke;fill:none;stroke:#000000;stroke-width:1;stroke-dasharray:none;stroke-opacity:1;-inkscape-stroke:hairline" /><path
   fill="#fff0e4"
   d="m 62.60504,-350.35429 2.0345,3.15697 h 2.65652 l -2.58054,-3.36309 c 0.58799,-0.13792 1.03228,-0.40086 1.33371,-0.78933 0.30142,-0.38846 0.45222,-0.89503 0.45222,-1.51885 0,-0.34784 -0.0581,-0.67487 -0.17012,-0.97927 -0.11198,-0.3044 -0.27831,-0.57279 -0.50045,-0.80633 -0.22017,-0.23057 -0.50243,-0.4149 -0.84267,-0.54918 -0.34173,-0.13411 -0.7406,-0.20034 -1.19712,-0.20034 h -3.32031 v 8.20622 h 2.13426 z m 0,-3.40653 h 0.40218 c 0.41968,0 0.7434,0.0869 0.96885,0.26097 0.22347,0.17391 0.33595,0.4243 0.33595,0.75133 0,0.3262 -0.11248,0.57758 -0.33595,0.7515 -0.22545,0.17392 -0.54917,0.26096 -0.96885,0.26096 h -0.40218 z"
   id="path25"
   style="vector-effect:non-scaling-stroke;fill:none;stroke:#000000;stroke-width:1;stroke-dasharray:none;stroke-opacity:1;-inkscape-stroke:hairline" /><polygon
   fill="#fff0e4"
   points="440.34,236.063 440.34,197.321 450.956,197.321 450.956,186.378 416.813,186.378 416.813,197.321 427.423,197.321 427.423,236.063 "
   id="polygon25"
   transform="matrix(0.16516503,0,0,0.16516503,-1.41656,-386.18684)"
   style="vector-effect:non-scaling-stroke;fill:none;stroke:#000000;stroke-width:6.05455;stroke-dasharray:none;stroke-opacity:1;-inkscape-stroke:hairline" /><path
   fill="#fff0e4"
   d="m 78.65545,-348.1936 c 0.39358,0.38946 0.8506,0.69006 1.37054,0.90362 0.51944,0.21356 1.06151,0.32224 1.62753,0.32224 0.2755,0 0.5543,-0.0274 0.83788,-0.0823 0.28178,-0.0548 0.587,-0.14088 0.91452,-0.25518 l 0.21736,-0.0775 v -2.52554 c -0.54488,0.58221 -1.15781,0.87241 -1.83928,0.87241 -0.3115,0 -0.60219,-0.0596 -0.87141,-0.17491 -0.26839,-0.11529 -0.50243,-0.27599 -0.70195,-0.47832 -0.19952,-0.20315 -0.35577,-0.44231 -0.46742,-0.7183 -0.11297,-0.276 -0.16913,-0.57759 -0.16913,-0.90362 0,-0.32042 0.0562,-0.61822 0.16913,-0.89421 0.11149,-0.27417 0.26708,-0.51234 0.46164,-0.71268 0.19572,-0.19853 0.43009,-0.35726 0.70327,-0.47353 0.27137,-0.1143 0.56569,-0.17293 0.88611,-0.17293 0.7259,0 1.33553,0.3006 1.82888,0.90362 v -2.54817 c -0.34883,-0.14369 -0.67966,-0.25138 -0.99529,-0.32141 -0.31662,-0.0671 -0.63655,-0.10207 -0.96456,-0.10207 -0.5728,0 -1.12048,0.1067 -1.64323,0.32141 -0.52275,0.21356 -0.98108,0.51036 -1.37665,0.89123 -0.39557,0.38087 -0.7117,0.83458 -0.94623,1.36113 -0.23586,0.52654 -0.35494,1.10495 -0.35494,1.73638 0,0.63142 0.12057,1.21363 0.35923,1.74678 0.24032,0.53381 0.55744,0.9943 0.954,1.38177 z"
   id="path26"
   style="vector-effect:non-scaling-stroke;fill:none;stroke:#000000;stroke-width:1;stroke-dasharray:none;stroke-opacity:1;-inkscape-stroke:hairline" /><path
   fill="#fff0e4"
   d="m 85.99488,-348.22002 c 0.3997,0.39127 0.87621,0.69749 1.43281,0.92063 0.55479,0.22115 1.16458,0.33181 1.83284,0.33181 0.66165,0 1.27028,-0.11049 1.82804,-0.33181 0.56057,-0.22314 1.04154,-0.52936 1.44223,-0.92063 0.40267,-0.39227 0.71747,-0.8506 0.94325,-1.37632 0.22397,-0.52738 0.33661,-1.09455 0.33661,-1.70517 0,-0.6088 -0.11264,-1.17762 -0.33661,-1.70318 -0.22578,-0.52556 -0.54058,-0.98488 -0.94325,-1.37616 -0.40086,-0.39226 -0.88182,-0.69848 -1.44223,-0.92062 -0.55776,-0.22116 -1.16639,-0.33083 -1.82804,-0.33083 -0.66826,0 -1.27788,0.10967 -1.83284,0.33083 -0.5566,0.22214 -1.03311,0.52836 -1.43281,0.92062 -0.39804,0.39128 -0.70987,0.8506 -0.93582,1.37616 -0.22396,0.52556 -0.33644,1.09455 -0.33644,1.70318 0,0.61062 0.11248,1.17779 0.33644,1.70517 0.22595,0.52555 0.53778,0.98405 0.93582,1.37632 z m 1.14361,-3.98494 c 0.12288,-0.27417 0.2892,-0.51416 0.50094,-0.71748 0.20993,-0.20315 0.45569,-0.36204 0.73433,-0.47253 0.27979,-0.11248 0.57461,-0.16913 0.8866,-0.16913 0.312,0 0.60781,0.0566 0.88661,0.16913 0.27962,0.11049 0.52737,0.26938 0.74291,0.47253 0.21257,0.20316 0.38186,0.44331 0.50475,0.71748 0.12189,0.27599 0.18432,0.57659 0.18432,0.90362 0,0.32702 -0.0624,0.62961 -0.18432,0.90461 -0.12289,0.27516 -0.29218,0.51515 -0.50475,0.71747 -0.21554,0.20415 -0.46329,0.36204 -0.74291,0.47452 -0.2788,0.11248 -0.57461,0.16913 -0.88661,0.16913 -0.31199,0 -0.60681,-0.0568 -0.8866,-0.16913 -0.2788,-0.11248 -0.52457,-0.27037 -0.73433,-0.47452 -0.21174,-0.20232 -0.37806,-0.44231 -0.50094,-0.71747 -0.12289,-0.275 -0.18614,-0.57759 -0.18614,-0.90461 0,-0.32703 0.0632,-0.62763 0.18614,-0.90362 z"
   id="path27"
   style="vector-effect:non-scaling-stroke;fill:none;stroke:#000000;stroke-width:1;stroke-dasharray:none;stroke-opacity:1;-inkscape-stroke:hairline" /><polygon
   fill="#fff0e4"
   points="597.652,225.122 597.652,186.378 584.736,186.378 584.736,236.063 613.138,236.063 613.138,225.122 "
   id="polygon27"
   transform="matrix(0.16516503,0,0,0.16516503,-1.41656,-386.18684)"
   style="vector-effect:non-scaling-stroke;fill:none;stroke:#000000;stroke-width:6.05455;stroke-dasharray:none;stroke-opacity:1;-inkscape-stroke:hairline" /><polygon
   fill="#fff0e4"
   points="632.722,225.122 632.722,186.378 619.794,186.378 619.794,236.063 648.195,236.063 648.195,225.122 "
   id="polygon28"
   transform="matrix(0.16516503,0,0,0.16516503,-1.41656,-386.18684)"
   style="vector-effect:non-scaling-stroke;fill:none;stroke:#000000;stroke-width:6.05455;stroke-dasharray:none;stroke-opacity:1;-inkscape-stroke:hairline" /><rect
   x="106.74109"
   y="-355.40372"
   fill="#fff0e4"
   width="2.1360793"
   height="8.2062244"
   id="rect28"
   style="vector-effect:non-scaling-stroke;fill:none;stroke:#000000;stroke-width:1;stroke-dasharray:none;stroke-opacity:1;-inkscape-stroke:hairline" /><polygon
   fill="#fff0e4"
   points="714.951,216.761 691.104,186.378 678.183,186.378 678.183,236.063 691.104,236.063 691.104,205.687 714.951,236.063 727.811,236.063 727.811,186.378 714.951,186.378 "
   id="polygon29"
   transform="matrix(0.16516503,0,0,0.16516503,-1.41656,-386.18684)"
   style="vector-effect:non-scaling-stroke;fill:none;stroke:#000000;stroke-width:6.05455;stroke-dasharray:none;stroke-opacity:1;-inkscape-stroke:hairline" /><path
   fill="#fff0e4"
   d="m 122.92661,-348.77597 c -0.3044,0 -0.61243,-0.068 -0.92344,-0.20596 -0.31298,-0.13808 -0.62861,-0.34982 -0.94804,-0.63143 l -0.91403,1.72036 c 0.88562,0.61541 1.84605,0.92542 2.88378,0.92542 0.50293,0 0.94904,-0.067 1.34593,-0.20232 0.39524,-0.13329 0.72673,-0.32241 1.0019,-0.56619 0.27037,-0.24197 0.47831,-0.53497 0.61903,-0.8762 0.14072,-0.34123 0.21175,-0.72111 0.21175,-1.14278 0,-0.62482 -0.1617,-1.13039 -0.4841,-1.51786 -0.32224,-0.38946 -0.8326,-0.69849 -1.53026,-0.93203 -0.1721,-0.0568 -0.34866,-0.11149 -0.52654,-0.16252 -0.17871,-0.0502 -0.33744,-0.11149 -0.48113,-0.17772 -0.13791,-0.0699 -0.25518,-0.15311 -0.34106,-0.24577 -0.0861,-0.0945 -0.13049,-0.21554 -0.13049,-0.35907 0,-0.21174 0.0879,-0.38186 0.2608,-0.51234 0.17491,-0.13048 0.39788,-0.19654 0.67404,-0.19654 0.21719,0 0.4433,0.0454 0.67767,0.13708 0.22975,0.0897 0.4623,0.22975 0.69667,0.4187 l 0.84696,-1.66536 c -0.40647,-0.21736 -0.82979,-0.38368 -1.27325,-0.49533 -0.44331,-0.11248 -0.86662,-0.16831 -1.2731,-0.16831 -0.43686,0 -0.83078,0.0652 -1.18142,0.19573 -0.34982,0.13147 -0.65042,0.31298 -0.89321,0.54917 -0.2428,0.23619 -0.43191,0.51895 -0.56536,0.84878 -0.13329,0.33083 -0.20134,0.69849 -0.20134,1.10595 0,0.40647 0.0644,0.74208 0.19093,1.00569 0.12668,0.26476 0.29218,0.48591 0.50095,0.65884 0.20794,0.17491 0.44049,0.3148 0.70591,0.41869 0.26559,0.10587 0.53596,0.20233 0.81195,0.28921 0.23355,0.0793 0.42927,0.15311 0.59179,0.21735 0.16434,0.0662 0.2968,0.1361 0.39788,0.21175 0.10207,0.0775 0.17574,0.1607 0.21819,0.25138 0.0436,0.0907 0.0662,0.19753 0.0662,0.32042 0,0.20315 -0.087,0.38467 -0.25634,0.54537 -0.17062,0.15955 -0.42959,0.23784 -0.77925,0.23784 z"
   id="path29"
   style="vector-effect:non-scaling-stroke;fill:none;stroke:#000000;stroke-width:1;stroke-dasharray:none;stroke-opacity:1;-inkscape-stroke:hairline" /><polygon
   fill="#3da1c6"
   points="639.429,464.961 639.429,445.779 626.512,445.779 626.512,495.476 639.429,495.476 639.429,474.977 658.079,474.977 658.079,495.476 670.995,495.476 670.995,445.779 658.079,445.779 658.079,464.961 "
   id="polygon30"
   transform="matrix(0.16516503,0,0,0.16516503,-1.41656,-386.18684)"
   style="vector-effect:non-scaling-stroke;fill:none;stroke:#000000;stroke-width:6.05455;stroke-dasharray:none;stroke-opacity:1;-inkscape-stroke:hairline" /><path
   fill="#3da1c6"
   d="m 116.15699,-308.09648 c 0,0.23899 -0.01,0.48492 -0.0274,0.73531 -0.0178,0.24957 -0.0737,0.47634 -0.16913,0.68048 -0.0927,0.20233 -0.23735,0.36865 -0.4291,0.49335 -0.19292,0.12751 -0.4661,0.19192 -0.82236,0.19192 -0.35527,0 -0.63027,-0.0644 -0.82698,-0.19192 -0.19572,-0.1247 -0.34041,-0.29119 -0.43009,-0.49335 -0.0907,-0.20414 -0.14551,-0.43091 -0.16252,-0.68048 -0.0188,-0.25055 -0.0274,-0.49632 -0.0274,-0.73531 v -4.46326 h -2.13344 v 4.75824 c 0,1.27607 0.29301,2.20793 0.88198,2.79691 0.58799,0.58699 1.48682,0.88198 2.69847,0.88198 1.21182,0 2.10965,-0.29499 2.69467,-0.88198 0.5832,-0.58882 0.87537,-1.52084 0.87537,-2.79691 v -4.75824 h -2.12204 z"
   id="path30"
   style="vector-effect:non-scaling-stroke;fill:none;stroke:#000000;stroke-width:1;stroke-dasharray:none;stroke-opacity:1;-inkscape-stroke:hairline" /><path
   fill="#3da1c6"
   d="m 125.88307,-308.02084 c -0.13412,-0.17309 -0.30804,-0.32141 -0.52358,-0.44049 -0.21372,-0.11925 -0.47353,-0.20795 -0.77693,-0.26658 0.3034,-0.18812 0.53117,-0.41968 0.67949,-0.69088 0.14831,-0.2722 0.22313,-0.61541 0.22313,-1.02849 0,-0.68345 -0.19572,-1.20521 -0.58699,-1.56807 -0.39326,-0.36287 -0.96506,-0.54455 -1.7202,-0.54455 h -3.17777 v 8.2082 h 3.42734 c 0.43471,0 0.82797,-0.0512 1.17581,-0.15327 0.34965,-0.10207 0.64348,-0.2532 0.88743,-0.45553 0.24296,-0.20414 0.43091,-0.45569 0.56618,-0.75249 0.13428,-0.29878 0.20051,-0.63886 0.20051,-1.0227 0,-0.24758 -0.0284,-0.48013 -0.0869,-0.69749 -0.0588,-0.21719 -0.1541,-0.41275 -0.28755,-0.58766 z m -3.75057,-2.90558 h 0.39326 c 0.66545,0 1.00007,0.26476 1.00007,0.79477 0,0.52936 -0.33446,0.79412 -1.00007,0.79412 h -0.39326 z m 1.62291,4.71282 c -0.23338,0.13808 -0.61706,0.20794 -1.15401,0.20794 h -0.4689 v -1.74299 h 0.4689 c 0.53695,0 0.92063,0.069 1.15401,0.20613 0.23156,0.1389 0.34784,0.36022 0.34784,0.66528 1.6e-4,0.3044 -0.11611,0.52573 -0.34784,0.66364 z"
   id="path31"
   style="vector-effect:non-scaling-stroke;fill:none;stroke:#000000;stroke-width:1;stroke-dasharray:none;stroke-opacity:1;-inkscape-stroke:hairline" /><path
   fill="#3da1c6"
   d="m 103.6464,-268.53201 c -2.3536,0.49153 -4.33575,2.00477 -5.43013,4.14647 -1.09455,2.14285 -1.1626,4.63238 -0.18333,6.8309 1.21644,2.73067 2.09462,5.60404 2.61241,8.54646 0.71253,4.05579 0.74192,8.23645 0.0368,12.35649 -0.7041,4.12103 -2.13229,8.18162 -4.364,12.03607 v 0 c -2.80433,4.8395 -6.51906,8.7554 -10.82161,11.70921 -4.30205,2.95183 -9.19292,4.93018 -14.29041,5.8262 -0.86249,0.15212 -1.72878,0.27202 -2.59936,0.36105 -2.39225,0.24477 -4.52602,1.54826 -5.83462,3.56343 -1.31191,2.01601 -1.63382,4.4953 -0.88463,6.78085 1.17961,3.60225 2.7424,7.1457 4.71183,10.56346 1.96596,3.41611 4.24821,6.54748 6.77094,9.37461 1.60111,1.79484 3.90648,2.75809 6.30831,2.63801 2.40035,-0.1209 4.59787,-1.31108 6.01102,-3.25804 2.70887,-3.73273 6.1154,-6.93314 10.01709,-9.40301 3.90269,-2.46873 8.29608,-4.2061 13.00873,-5.03787 2.0606,-0.36105 4.18545,-0.54917 6.36133,-0.54719 6.06536,0.008 11.72705,1.48979 16.73089,4.10782 5.00202,2.61902 9.33298,6.38479 12.62224,10.9407 1.40919,1.94994 3.5973,3.14177 6.00012,3.27043 2.40067,0.12668 4.7034,-0.82715 6.31112,-2.61638 5.2468,-5.84139 9.13528,-12.64768 11.52654,-19.93145 0.75051,-2.28457 0.42926,-4.75428 -0.8772,-6.77425 -1.30612,-2.01815 -3.43014,-3.32229 -5.82239,-3.57202 -5.58704,-0.58601 -11.00776,-2.46311 -15.76781,-5.49521 -4.76287,-3.03507 -8.8687,-7.20433 -11.89618,-12.45873 -2.17588,-3.78161 -3.58408,-7.7573 -4.29396,-11.79228 -1.26665,-7.18733 -0.29878,-14.57681 2.64842,-21.1479 0.9829,-2.1957 0.92146,-4.6854 -0.16913,-6.82809 -1.08893,-2.14367 -3.06629,-3.66171 -5.41791,-4.15687 -6.92735,-1.46799 -14.14407,-1.6239 -21.26136,-0.37245 -0.58782,0.10323 -1.17779,0.21852 -1.7638,0.33958 z"
   id="path32"
   style="vector-effect:non-scaling-stroke;fill:none;stroke:#000000;stroke-width:1;stroke-dasharray:none;stroke-opacity:1;-inkscape-stroke:hairline" /><path
   fill="#182e33"
   d="m 136.27657,-230.73184 h -3.18339 c 0.5794,-1.22966 0.90543,-2.58698 0.90543,-4.01715 0,-5.51899 -4.78268,-9.99166 -10.68171,-9.99166 H 47.25741 c -5.89904,0 -10.68221,4.47267 -10.68221,9.99166 0,1.43017 0.32702,2.78733 0.90593,4.01715 H 14.1367 c -9.49831,0 -15.55326,7.69867 -15.55326,17.19599 0,9.4955 6.05495,17.195 15.55326,17.195 h 81.68352 c -0.7657,1.38177 -1.20223,2.96801 -1.20223,4.65782 0,5.32624 4.31857,9.64497 9.64299,9.64497 h 18.94443 c 5.32509,0 9.64184,-4.31857 9.64184,-9.64497 0,-1.68981 -0.43752,-3.27605 -1.20125,-4.65782 h 17.66672 c 6.45944,0 6.45481,-5.90828 6.45481,-5.90828 v -10.12413 c 0,-13.35177 -6.45481,-18.35858 -19.49096,-18.35858 z"
   id="path33"
   style="fill:none;stroke:#000000;stroke-width:2.83465;stroke-dasharray:none;stroke-opacity:1" /><path
   fill="#3da1c6"
   d="m 16.17352,-225.41502 c -1.58361,0 -3.10032,0.2968 -4.54303,0.88661 -1.4452,0.59162 -2.71367,1.41497 -3.80623,2.4669 -1.09405,1.05491 -1.96646,2.30835 -2.6182,3.7618 -0.65223,1.4556 -0.97777,3.0549 -0.97777,4.79788 0,1.74679 0.33132,3.35632 0.99247,4.82992 0.66264,1.4746 1.53967,2.74951 2.63372,3.82242 1.09174,1.07373 2.35542,1.90551 3.79071,2.49729 1.43379,0.59162 2.93283,0.88661 4.4986,0.88661 0.76174,0 1.53355,-0.0747 2.31611,-0.22496 0.78205,-0.1503 1.62472,-0.38566 2.52801,-0.7069 l 0.6017,-0.20993 v -6.98136 c -1.50482,1.60491 -3.19908,2.40646 -5.08477,2.40646 -0.8625,0 -1.66503,-0.15889 -2.40745,-0.48014 -0.74242,-0.32141 -1.38904,-0.76372 -1.94102,-1.32512 -0.55148,-0.56139 -0.98207,-1.22304 -1.29308,-1.98578 -0.31232,-0.76174 -0.46642,-1.5945 -0.46642,-2.49812 0,-0.88099 0.1541,-1.70318 0.46642,-2.46707 0.31101,-0.76009 0.73681,-1.41777 1.2769,-1.97075 0.54355,-0.55115 1.19001,-0.98686 1.94184,-1.30728 0.75282,-0.32124 1.56907,-0.48294 2.45188,-0.48294 2.00576,0 3.6916,0.8326 5.05537,2.49812 v -7.04165 c -0.96275,-0.40069 -1.8814,-0.69567 -2.75281,-0.8866 -0.87323,-0.19093 -1.76066,-0.28541 -2.66295,-0.28541 z"
   id="path34"
   style="vector-effect:non-scaling-stroke;fill:none;stroke:#000000;stroke-width:1;stroke-dasharray:none;stroke-opacity:1;-inkscape-stroke:hairline" /><path
   fill="#3da1c6"
   d="m 41.21039,-213.57549 c 0.83177,-1.07374 1.24864,-2.4717 1.24864,-4.19767 0,-0.96308 -0.15591,-1.86488 -0.4656,-2.70805 -0.31232,-0.843 -0.77264,-1.58409 -1.38424,-2.22675 -0.61161,-0.64084 -1.39036,-1.14757 -2.3318,-1.51902 -0.94425,-0.37146 -2.04722,-0.55678 -3.31008,-0.55678 h -9.17739 v 22.68658 h 5.89755 v -8.726 l 5.62667,8.726 h 7.34142 l -7.131,-9.29797 c 1.6244,-0.3807 2.85373,-1.1066 3.68583,-2.18034 z m -5.73156,-1.79023 c -0.62102,0.48113 -1.51473,0.72211 -2.67865,0.72211 h -1.11255 v -5.59646 h 1.11255 c 1.16392,0 2.05763,0.24098 2.67865,0.7231 0.62102,0.47997 0.93285,1.17201 0.93285,2.07546 0,0.90197 -0.31183,1.59467 -0.93285,2.07579 z"
   id="path35"
   style="vector-effect:non-scaling-stroke;fill:none;stroke:#000000;stroke-width:1;stroke-dasharray:none;stroke-opacity:1;-inkscape-stroke:hairline" /><polygon
   fill="#3da1c6"
   points="373.464,379.167 331.012,379.167 331.012,355.474 371.092,355.474 371.092,325.236 331.012,325.236 331.012,302.276 373.464,302.276 373.464,272.037 295.308,272.037 295.308,409.394 373.464,409.394 "
   id="polygon35"
   transform="matrix(0.16516503,0,0,0.16516503,-1.41656,-269.71459)"
   style="vector-effect:non-scaling-stroke;fill:none;stroke:#000000;stroke-width:6.05455;stroke-dasharray:none;stroke-opacity:1;-inkscape-stroke:hairline" /><path
   fill="#3da1c6"
   d="m 70.50835,-224.78359 -8.63532,22.68657 h 6.2875 l 1.35501,-3.9415 h 8.42408 l 1.35551,3.9415 h 6.28701 l -8.63483,-22.68657 z m 0.5723,14.26101 2.64759,-7.55217 2.64694,7.55217 z"
   id="path36"
   style="vector-effect:non-scaling-stroke;fill:none;stroke:#000000;stroke-width:1;stroke-dasharray:none;stroke-opacity:1;-inkscape-stroke:hairline" /><polygon
   fill="#3da1c6"
   points="548.528,409.394 584.232,409.394 584.232,302.276 613.567,302.276 613.567,272.037 519.205,272.037 519.205,302.276 548.528,302.276 "
   id="polygon36"
   transform="matrix(0.16516503,0,0,0.16516503,-1.41656,-269.71459)"
   style="vector-effect:non-scaling-stroke;fill:none;stroke:#000000;stroke-width:6.05455;stroke-dasharray:none;stroke-opacity:1;-inkscape-stroke:hairline" /><path
   fill="#3da1c6"
   d="m 123.36512,-221.95564 c -1.11337,-1.08315 -2.44246,-1.93094 -3.98493,-2.54255 -1.54628,-0.61061 -3.2308,-0.91683 -5.05587,-0.91683 -1.84605,0 -3.53684,0.30622 -5.07189,0.91683 -1.53405,0.61161 -2.85174,1.4594 -3.9557,2.54255 -1.10198,1.08316 -1.96596,2.35361 -2.5878,3.80722 -0.62119,1.45478 -0.9322,3.02285 -0.9322,4.70803 0,1.68535 0.31101,3.25425 0.9322,4.71001 0.62184,1.45379 1.48582,2.72209 2.5878,3.80541 1.10413,1.08315 2.42165,1.93193 3.9557,2.54255 1.53505,0.61061 3.22584,0.91699 5.07189,0.91699 1.82524,0 3.50959,-0.30621 5.05587,-0.91699 1.54247,-0.61045 2.87156,-1.4594 3.98493,-2.54255 1.11338,-1.08332 1.98017,-2.35162 2.60317,-3.80541 0.62201,-1.4556 0.93368,-3.0245 0.93368,-4.71001 0,-1.68518 -0.31183,-3.25325 -0.93368,-4.70803 -0.623,-1.45361 -1.48979,-2.72406 -2.60317,-3.80722 z m -3.14276,11.01238 c -0.34304,0.7629 -0.80815,1.42455 -1.39993,1.98578 -0.59361,0.5614 -1.27508,1.00008 -2.04739,1.30927 -0.77116,0.311 -1.5879,0.46593 -2.45088,0.46593 -0.86299,0 -1.67957,-0.15493 -2.45089,-0.46593 -0.77495,-0.30919 -1.4518,-0.74771 -2.03219,-1.30927 -0.58221,-0.56123 -1.04351,-1.22288 -1.38474,-1.98578 -0.34041,-0.76075 -0.51152,-1.5945 -0.51152,-2.49713 0,-0.90262 0.17111,-1.73439 0.51152,-2.49812 0.34106,-0.76009 0.80237,-1.42339 1.38474,-1.98495 0.58039,-0.5614 1.25707,-0.99826 2.03219,-1.31009 0.77132,-0.31018 1.5879,-0.46593 2.45089,-0.46593 0.86298,0 1.67972,0.15575 2.45088,0.46593 0.77231,0.31183 1.45378,0.74853 2.04739,1.31009 0.59178,0.56139 1.05672,1.22486 1.39993,1.98495 0.33942,0.76373 0.51053,1.5955 0.51053,2.49812 0,0.90263 -0.17128,1.73638 -0.51053,2.49713 z"
   id="path37"
   style="vector-effect:non-scaling-stroke;fill:none;stroke:#000000;stroke-width:1;stroke-dasharray:none;stroke-opacity:1;-inkscape-stroke:hairline" /><path
   fill="#3da1c6"
   d="m 142.13101,-211.39498 c 1.62588,-0.38087 2.85356,-1.10677 3.68714,-2.18051 0.83078,-1.07374 1.24684,-2.4717 1.24684,-4.19767 0,-0.96308 -0.1541,-1.86488 -0.46494,-2.70805 -0.31084,-0.84316 -0.77133,-1.58409 -1.38376,-2.22675 -0.61259,-0.64084 -1.39151,-1.14757 -2.33081,-1.51902 -0.9454,-0.37146 -2.04738,-0.55678 -3.31007,-0.55678 h -9.17789 v 22.68658 h 5.89804 v -8.726 l 5.62586,8.726 h 7.34142 z m -2.0454,-3.97074 c -0.62202,0.48113 -1.51523,0.72211 -2.67782,0.72211 h -1.11239 v -5.59646 h 1.11239 c 1.16259,0 2.0558,0.24098 2.67782,0.7231 0.62201,0.47997 0.93202,1.17201 0.93202,2.07546 0,0.90197 -0.31001,1.59467 -0.93202,2.07579 z"
   id="path38"
   style="vector-effect:non-scaling-stroke;fill:none;stroke:#000000;stroke-width:1;stroke-dasharray:none;stroke-opacity:1;-inkscape-stroke:hairline" /><polygon
   fill="#fff0e4"
   points="277.625,236.063 290.541,236.063 290.541,216.561 304.713,216.561 304.713,205.619 290.541,205.619 290.541,197.321 306.096,197.321 306.096,186.378 277.625,186.378 "
   id="polygon38"
   transform="matrix(0.16516503,0,0,0.16516503,-1.41656,-269.71459)"
   style="vector-effect:non-scaling-stroke;fill:none;stroke:#000000;stroke-width:6.05455;stroke-dasharray:none;stroke-opacity:1;-inkscape-stroke:hairline" /><path
   fill="#fff0e4"
   d="m 51.3066,-231.74777 c 0.39837,0.39127 0.8757,0.69749 1.42966,0.92063 0.55578,0.22115 1.16772,0.33181 1.83466,0.33181 0.66066,0 1.27028,-0.11049 1.82936,-0.33181 0.5581,-0.22314 1.03889,-0.52936 1.4419,-0.92063 0.403,-0.39227 0.71599,-0.8506 0.94144,-1.37632 0.22594,-0.52738 0.33825,-1.09455 0.33825,-1.70517 0,-0.6088 -0.11247,-1.17762 -0.33825,-1.70318 -0.22545,-0.52556 -0.53828,-0.98488 -0.94144,-1.37616 -0.40317,-0.39226 -0.8838,-0.69848 -1.4419,-0.92062 -0.55908,-0.22116 -1.1687,-0.33083 -1.82936,-0.33083 -0.66694,0 -1.27888,0.10967 -1.83466,0.33083 -0.55396,0.22214 -1.03129,0.52836 -1.42966,0.92062 -0.39888,0.39128 -0.7122,0.8506 -0.93814,1.37616 -0.22364,0.52556 -0.33644,1.09455 -0.33644,1.70318 0,0.61062 0.11297,1.17779 0.33644,1.70517 0.22594,0.52555 0.53926,0.98405 0.93814,1.37632 z m 1.14327,-3.98494 c 0.12288,-0.27417 0.2892,-0.51416 0.49995,-0.71748 0.21075,-0.20315 0.45553,-0.36204 0.73433,-0.47253 0.27929,-0.11248 0.5756,-0.16913 0.8866,-0.16913 0.31382,0 0.6083,0.0566 0.8876,0.16913 0.27979,0.11049 0.52737,0.26938 0.74159,0.47253 0.21273,0.20316 0.38137,0.44331 0.50425,0.71748 0.12437,0.27599 0.18614,0.57659 0.18614,0.90362 0,0.32702 -0.0619,0.62961 -0.18614,0.90461 -0.12288,0.27516 -0.29152,0.51515 -0.50425,0.71747 -0.21405,0.20415 -0.4618,0.36204 -0.74159,0.47452 -0.2793,0.11248 -0.57378,0.16913 -0.8876,0.16913 -0.311,0 -0.60731,-0.0568 -0.8866,-0.16913 -0.2788,-0.11248 -0.52358,-0.27037 -0.73433,-0.47452 -0.21075,-0.20232 -0.37707,-0.44231 -0.49995,-0.71747 -0.12388,-0.275 -0.18581,-0.57759 -0.18581,-0.90461 0,-0.32703 0.0619,-0.62763 0.18581,-0.90362 z"
   id="path39"
   style="vector-effect:non-scaling-stroke;fill:none;stroke:#000000;stroke-width:1;stroke-dasharray:none;stroke-opacity:1;-inkscape-stroke:hairline" /><path
   fill="#fff0e4"
   d="m 62.60504,-233.88204 2.0345,3.15697 h 2.65652 l -2.58054,-3.36309 c 0.58799,-0.13792 1.03228,-0.40086 1.33371,-0.78933 0.30142,-0.38846 0.45222,-0.89503 0.45222,-1.51885 0,-0.34784 -0.0581,-0.67487 -0.17012,-0.97927 -0.11198,-0.3044 -0.27831,-0.57279 -0.50045,-0.80633 -0.22017,-0.23057 -0.50243,-0.4149 -0.84267,-0.54918 -0.34173,-0.13411 -0.7406,-0.20034 -1.19712,-0.20034 h -3.32031 v 8.20622 h 2.13426 z m 0,-3.40653 h 0.40218 c 0.41968,0 0.7434,0.0869 0.96885,0.26097 0.22347,0.17391 0.33595,0.4243 0.33595,0.75133 0,0.3262 -0.11248,0.57758 -0.33595,0.7515 -0.22545,0.17392 -0.54917,0.26096 -0.96885,0.26096 h -0.40218 z"
   id="path40"
   style="vector-effect:non-scaling-stroke;fill:none;stroke:#000000;stroke-width:1;stroke-dasharray:none;stroke-opacity:1;-inkscape-stroke:hairline" /><polygon
   fill="#fff0e4"
   points="440.34,197.321 450.956,197.321 450.956,186.378 416.813,186.378 416.813,197.321 427.423,197.321 427.423,236.063 440.34,236.063 "
   id="polygon40"
   transform="matrix(0.16516503,0,0,0.16516503,-1.41656,-269.71459)"
   style="vector-effect:non-scaling-stroke;fill:none;stroke:#000000;stroke-width:6.05455;stroke-dasharray:none;stroke-opacity:1;-inkscape-stroke:hairline" /><path
   fill="#fff0e4"
   d="m 78.65545,-231.72135 c 0.39358,0.38946 0.8506,0.69006 1.37054,0.90362 0.51944,0.21356 1.06151,0.32224 1.62753,0.32224 0.2755,0 0.5543,-0.0274 0.83788,-0.0823 0.28178,-0.0548 0.587,-0.14088 0.91452,-0.25518 l 0.21736,-0.0775 v -2.52554 c -0.54488,0.58221 -1.15781,0.87241 -1.83928,0.87241 -0.3115,0 -0.60219,-0.0596 -0.87141,-0.17491 -0.26839,-0.11529 -0.50243,-0.27599 -0.70195,-0.47832 -0.19952,-0.20315 -0.35577,-0.44231 -0.46742,-0.7183 -0.11297,-0.276 -0.16913,-0.57759 -0.16913,-0.90362 0,-0.32042 0.0562,-0.61822 0.16913,-0.89421 0.11149,-0.27417 0.26708,-0.51234 0.46164,-0.71268 0.19572,-0.19853 0.43009,-0.35726 0.70327,-0.47353 0.27137,-0.1143 0.56569,-0.17293 0.88611,-0.17293 0.7259,0 1.33553,0.3006 1.82888,0.90362 v -2.54817 c -0.34883,-0.14369 -0.67966,-0.25138 -0.99529,-0.32141 -0.31662,-0.0671 -0.63655,-0.10207 -0.96456,-0.10207 -0.5728,0 -1.12048,0.1067 -1.64323,0.32141 -0.52275,0.21356 -0.98108,0.51036 -1.37665,0.89123 -0.39557,0.38087 -0.7117,0.83458 -0.94623,1.36113 -0.23586,0.52654 -0.35494,1.10495 -0.35494,1.73638 0,0.63142 0.12057,1.21363 0.35923,1.74678 0.24032,0.53381 0.55744,0.9943 0.954,1.38177 z"
   id="path41"
   style="vector-effect:non-scaling-stroke;fill:none;stroke:#000000;stroke-width:1;stroke-dasharray:none;stroke-opacity:1;-inkscape-stroke:hairline" /><path
   fill="#fff0e4"
   d="m 85.99488,-231.74777 c 0.3997,0.39127 0.87621,0.69749 1.43281,0.92063 0.55479,0.22115 1.16458,0.33181 1.83284,0.33181 0.66165,0 1.27028,-0.11049 1.82804,-0.33181 0.56057,-0.22314 1.04154,-0.52936 1.44223,-0.92063 0.40267,-0.39227 0.71747,-0.8506 0.94325,-1.37632 0.22397,-0.52738 0.33661,-1.09455 0.33661,-1.70517 0,-0.6088 -0.11264,-1.17762 -0.33661,-1.70318 -0.22578,-0.52556 -0.54058,-0.98488 -0.94325,-1.37616 -0.40086,-0.39226 -0.88182,-0.69848 -1.44223,-0.92062 -0.55776,-0.22116 -1.16639,-0.33083 -1.82804,-0.33083 -0.66826,0 -1.27788,0.10967 -1.83284,0.33083 -0.5566,0.22214 -1.03311,0.52836 -1.43281,0.92062 -0.39804,0.39128 -0.70987,0.8506 -0.93582,1.37616 -0.22396,0.52556 -0.33644,1.09455 -0.33644,1.70318 0,0.61062 0.11248,1.17779 0.33644,1.70517 0.22595,0.52555 0.53778,0.98405 0.93582,1.37632 z m 1.14361,-3.98494 c 0.12288,-0.27417 0.2892,-0.51416 0.50094,-0.71748 0.20993,-0.20315 0.45569,-0.36204 0.73433,-0.47253 0.27979,-0.11248 0.57461,-0.16913 0.8866,-0.16913 0.312,0 0.60781,0.0566 0.88661,0.16913 0.27962,0.11049 0.52737,0.26938 0.74291,0.47253 0.21257,0.20316 0.38186,0.44331 0.50475,0.71748 0.12189,0.27599 0.18432,0.57659 0.18432,0.90362 0,0.32702 -0.0624,0.62961 -0.18432,0.90461 -0.12289,0.27516 -0.29218,0.51515 -0.50475,0.71747 -0.21554,0.20415 -0.46329,0.36204 -0.74291,0.47452 -0.2788,0.11248 -0.57461,0.16913 -0.88661,0.16913 -0.31199,0 -0.60681,-0.0568 -0.8866,-0.16913 -0.2788,-0.11248 -0.52457,-0.27037 -0.73433,-0.47452 -0.21174,-0.20232 -0.37806,-0.44231 -0.50094,-0.71747 -0.12289,-0.275 -0.18614,-0.57759 -0.18614,-0.90461 0,-0.32703 0.0632,-0.62763 0.18614,-0.90362 z"
   id="path42"
   style="vector-effect:non-scaling-stroke;fill:none;stroke:#000000;stroke-width:1;stroke-dasharray:none;stroke-opacity:1;-inkscape-stroke:hairline" /><polygon
   fill="#fff0e4"
   points="597.652,186.378 584.736,186.378 584.736,236.063 613.138,236.063 613.138,225.122 597.652,225.122 "
   id="polygon42"
   transform="matrix(0.16516503,0,0,0.16516503,-1.41656,-269.71459)"
   style="vector-effect:non-scaling-stroke;fill:none;stroke:#000000;stroke-width:6.05455;stroke-dasharray:none;stroke-opacity:1;-inkscape-stroke:hairline" /><polygon
   fill="#fff0e4"
   points="632.722,186.378 619.794,186.378 619.794,236.063 648.195,236.063 648.195,225.122 632.722,225.122 "
   id="polygon43"
   transform="matrix(0.16516503,0,0,0.16516503,-1.41656,-269.71459)"
   style="vector-effect:non-scaling-stroke;fill:none;stroke:#000000;stroke-width:6.05455;stroke-dasharray:none;stroke-opacity:1;-inkscape-stroke:hairline" /><rect
   x="106.74109"
   y="-238.93144"
   fill="#fff0e4"
   width="2.1360793"
   height="8.2062244"
   id="rect43"
   style="vector-effect:non-scaling-stroke;fill:none;stroke:#000000;stroke-width:1;stroke-dasharray:none;stroke-opacity:1;-inkscape-stroke:hairline" /><polygon
   fill="#fff0e4"
   points="691.104,186.378 678.183,186.378 678.183,236.063 691.104,236.063 691.104,205.687 714.951,236.063 727.811,236.063 727.811,186.378 714.951,186.378 714.951,216.761 "
   id="polygon44"
   transform="matrix(0.16516503,0,0,0.16516503,-1.41656,-269.71459)"
   style="vector-effect:non-scaling-stroke;fill:none;stroke:#000000;stroke-width:6.05455;stroke-dasharray:none;stroke-opacity:1;-inkscape-stroke:hairline" /><path
   fill="#fff0e4"
   d="m 122.92661,-232.30372 c -0.3044,0 -0.61243,-0.068 -0.92344,-0.20596 -0.31298,-0.13808 -0.62861,-0.34982 -0.94804,-0.63143 l -0.91403,1.72036 c 0.88562,0.61541 1.84605,0.92542 2.88378,0.92542 0.50293,0 0.94904,-0.067 1.34593,-0.20232 0.39524,-0.13329 0.72673,-0.32241 1.0019,-0.56619 0.27037,-0.24197 0.47831,-0.53497 0.61903,-0.8762 0.14072,-0.34123 0.21175,-0.72111 0.21175,-1.14278 0,-0.62482 -0.1617,-1.13039 -0.4841,-1.51786 -0.32224,-0.38946 -0.8326,-0.69849 -1.53026,-0.93203 -0.1721,-0.0568 -0.34866,-0.11149 -0.52654,-0.16252 -0.17871,-0.0502 -0.33744,-0.11149 -0.48113,-0.17772 -0.13791,-0.0699 -0.25518,-0.15311 -0.34106,-0.24577 -0.0861,-0.0945 -0.13049,-0.21554 -0.13049,-0.35907 0,-0.21174 0.0879,-0.38186 0.2608,-0.51234 0.17491,-0.13048 0.39788,-0.19654 0.67404,-0.19654 0.21719,0 0.4433,0.0454 0.67767,0.13708 0.22975,0.0897 0.4623,0.22975 0.69667,0.4187 l 0.84696,-1.66536 c -0.40647,-0.21736 -0.82979,-0.38368 -1.27325,-0.49533 -0.44331,-0.11248 -0.86662,-0.16831 -1.2731,-0.16831 -0.43686,0 -0.83078,0.0652 -1.18142,0.19573 -0.34982,0.13147 -0.65042,0.31298 -0.89321,0.54917 -0.2428,0.23619 -0.43191,0.51895 -0.56536,0.84878 -0.13329,0.33083 -0.20134,0.69849 -0.20134,1.10595 0,0.40647 0.0644,0.74208 0.19093,1.00569 0.12668,0.26476 0.29218,0.48591 0.50095,0.65884 0.20794,0.17491 0.44049,0.3148 0.70591,0.41869 0.26559,0.10587 0.53596,0.20233 0.81195,0.28921 0.23355,0.0793 0.42927,0.15311 0.59179,0.21735 0.16434,0.0662 0.2968,0.1361 0.39788,0.21175 0.10207,0.0775 0.17574,0.1607 0.21819,0.25138 0.0436,0.0907 0.0662,0.19753 0.0662,0.32042 0,0.20315 -0.087,0.38467 -0.25634,0.54537 -0.17062,0.15955 -0.42959,0.23784 -0.77925,0.23784 z"
   id="path44"
   style="vector-effect:non-scaling-stroke;fill:none;stroke:#000000;stroke-width:1;stroke-dasharray:none;stroke-opacity:1;-inkscape-stroke:hairline" /><polygon
   fill="#3da1c6"
   points="639.429,445.779 626.512,445.779 626.512,495.476 639.429,495.476 639.429,474.977 658.079,474.977 658.079,495.476 670.995,495.476 670.995,445.779 658.079,445.779 658.079,464.961 639.429,464.961 "
   id="polygon45"
   transform="matrix(0.16516503,0,0,0.16516503,-1.41656,-269.71459)"
   style="vector-effect:non-scaling-stroke;fill:none;stroke:#000000;stroke-width:6.05455;stroke-dasharray:none;stroke-opacity:1;-inkscape-stroke:hairline" /><path
   fill="#3da1c6"
   d="m 116.15699,-191.62423 c 0,0.23899 -0.01,0.48492 -0.0274,0.73531 -0.0178,0.24957 -0.0737,0.47634 -0.16913,0.68048 -0.0927,0.20233 -0.23735,0.36865 -0.4291,0.49335 -0.19292,0.12751 -0.4661,0.19192 -0.82236,0.19192 -0.35527,0 -0.63027,-0.0644 -0.82698,-0.19192 -0.19572,-0.1247 -0.34041,-0.29119 -0.43009,-0.49335 -0.0907,-0.20414 -0.14551,-0.43091 -0.16252,-0.68048 -0.0188,-0.25055 -0.0274,-0.49632 -0.0274,-0.73531 v -4.46326 h -2.13344 v 4.75824 c 0,1.27607 0.29301,2.20793 0.88198,2.79691 0.58799,0.58699 1.48682,0.88198 2.69847,0.88198 1.21182,0 2.10965,-0.29499 2.69467,-0.88198 0.5832,-0.58882 0.87537,-1.52084 0.87537,-2.79691 v -4.75824 h -2.12204 z"
   id="path45"
   style="vector-effect:non-scaling-stroke;fill:none;stroke:#000000;stroke-width:1;stroke-dasharray:none;stroke-opacity:1;-inkscape-stroke:hairline" /><path
   fill="#3da1c6"
   d="m 125.88307,-191.54859 c -0.13412,-0.17309 -0.30804,-0.32141 -0.52358,-0.44049 -0.21372,-0.11925 -0.47353,-0.20795 -0.77693,-0.26658 0.3034,-0.18812 0.53117,-0.41968 0.67949,-0.69088 0.14831,-0.2722 0.22313,-0.61541 0.22313,-1.02849 0,-0.68345 -0.19572,-1.20521 -0.58699,-1.56807 -0.39326,-0.36287 -0.96506,-0.54455 -1.7202,-0.54455 h -3.17777 v 8.2082 h 3.42734 c 0.43471,0 0.82797,-0.0512 1.17581,-0.15327 0.34965,-0.10207 0.64348,-0.2532 0.88743,-0.45553 0.24296,-0.20414 0.43091,-0.45569 0.56618,-0.75249 0.13428,-0.29878 0.20051,-0.63886 0.20051,-1.0227 0,-0.24758 -0.0284,-0.48013 -0.0869,-0.69749 -0.0588,-0.21719 -0.1541,-0.41275 -0.28755,-0.58766 z m -3.75057,-2.90558 h 0.39326 c 0.66545,0 1.00007,0.26476 1.00007,0.79477 0,0.52936 -0.33446,0.79412 -1.00007,0.79412 h -0.39326 z m 1.62291,4.71282 c -0.23338,0.13808 -0.61706,0.20794 -1.15401,0.20794 h -0.4689 v -1.74299 h 0.4689 c 0.53695,0 0.92063,0.069 1.15401,0.20613 0.23156,0.1389 0.34784,0.36022 0.34784,0.66528 1.6e-4,0.3044 -0.11611,0.52573 -0.34784,0.66364 z"
   id="path46"
   style="vector-effect:non-scaling-stroke;fill:none;stroke:#000000;stroke-width:1;stroke-dasharray:none;stroke-opacity:1;-inkscape-stroke:hairline" /><path
   fill="#3da1c6"
   d="m 103.6464,-158.20579 c -2.3536,0.49153 -4.33575,2.00477 -5.43013,4.14647 -1.09455,2.14285 -1.1626,4.63238 -0.18333,6.8309 1.21644,2.73067 2.09462,5.60404 2.61241,8.54646 0.71253,4.05579 0.74192,8.23645 0.0368,12.35649 -0.7041,4.12103 -2.13229,8.18162 -4.364,12.03607 v 0 c -2.80433,4.8395 -6.51906,8.7554 -10.82161,11.70921 -4.30205,2.951831 -9.19292,4.930181 -14.29041,5.826201 -0.86249,0.15212 -1.72878,0.27202 -2.59936,0.36105 -2.39225,0.24477 -4.52602,1.54826 -5.83462,3.56343 -1.31191,2.01601 -1.63382,4.4953 -0.88463,6.78085 1.17961,3.60225 2.7424,7.1457 4.71183,10.56346 1.96596,3.41611 4.24821,6.54748 6.77094,9.37461 1.60111,1.79484 3.90648,2.75809 6.30831,2.63801 2.40035,-0.1209 4.59787,-1.31108 6.01102,-3.25804 2.70887,-3.73273 6.1154,-6.93314 10.01709,-9.40301 3.90269,-2.46873 8.29608,-4.2061 13.00873,-5.03787 2.0606,-0.36105 4.18545,-0.54917 6.36133,-0.54719 6.06536,0.008 11.72705,1.48979 16.73089,4.10782 5.00202,2.61902 9.33298,6.38479 12.62224,10.9407 1.40919,1.94994 3.5973,3.14177 6.00012,3.27043 2.40067,0.12668 4.7034,-0.82715 6.31112,-2.61638 5.2468,-5.84139 9.13528,-12.64768 11.52654,-19.93145 0.75051,-2.28457 0.42926,-4.75428 -0.8772,-6.77425 -1.30612,-2.01815 -3.43014,-3.32229 -5.82239,-3.57202 -5.58704,-0.58601 -11.00776,-2.46311 -15.76781,-5.495211 -4.76287,-3.03507 -8.8687,-7.20433 -11.89618,-12.45873 -2.17588,-3.78161 -3.58408,-7.7573 -4.29396,-11.79228 -1.26665,-7.18733 -0.29878,-14.57681 2.64842,-21.1479 0.9829,-2.1957 0.92146,-4.6854 -0.16913,-6.82809 -1.08893,-2.14367 -3.06629,-3.66171 -5.41791,-4.15687 -6.92735,-1.46799 -14.14407,-1.6239 -21.26136,-0.37245 -0.58782,0.10323 -1.17779,0.21852 -1.7638,0.33958 z"
   id="path47"
   style="vector-effect:non-scaling-stroke;fill:none;stroke:#000000;stroke-width:1;stroke-dasharray:none;stroke-opacity:1;-inkscape-stroke:hairline" /><path
   style="color:#000000;vector-effect:non-scaling-stroke;fill:none;stroke:#000000;stroke-width:1;stroke-dasharray:none;stroke-opacity:1;-inkscape-stroke:hairline"
   d="m 47.25781,-132.99627 h 76.0586 c 5.18261,0 9.26562,3.87406 9.26562,8.57422 0,1.21477 -0.27611,2.36079 -0.77148,3.41211 l -0.95117,2.02148 h 5.41796 c 6.33662,0 10.81727,1.22558 13.68555,3.8086 2.86828,2.58301 4.38672,6.68533 4.38672,13.13281 v 10.125001 c 0,0 -0.0153,1.14566 -0.63086,2.27344 -0.61561,1.12777 -1.60866,2.21679 -4.40625,2.21679 h -20.06836 l 1.16211,2.10352 c 0.65244,1.18041 1.02344,2.52554 1.02344,3.9707 0,4.56062 -3.66581,8.22852 -8.22461,8.22852 h -18.94336 c -4.55801,0 -8.22656,-3.6684 -8.22656,-8.22852 0,-1.44571 0.37189,-2.79141 1.02539,-3.9707 l 1.16601,-2.10352 H 14.13672 c -4.36618,0 -7.81828,-1.72702 -10.26758,-4.54882 C 1.41984,-94.802449 0,-98.762669 0,-103.20916 c 0,-4.44745 1.41986,-8.40867 3.86914,-11.23047 2.44928,-2.82179 5.90136,-4.54883 10.26758,-4.54883 h 25.57812 l -0.95117,-2.02148 c -0.49538,-1.05237 -0.77148,-2.198 -0.77148,-3.41211 0,-4.70008 4.083,-8.57422 9.26562,-8.57422 z"
   id="path62" /><path
   style="color:#000000;vector-effect:non-scaling-stroke;fill:none;stroke:#000000;stroke-width:1;stroke-dasharray:none;stroke-opacity:1;-inkscape-stroke:hairline"
   d="m 47.25781,-135.83221 c -6.61544,0 -12.09961,5.07227 -12.09961,11.41016 0,0.89775 0.13202,1.76196 0.3418,2.59961 H 14.13672 c -5.13208,0 -9.45544,2.12157 -12.4082,5.52344 -2.95277,3.40186 -4.5625,8.03998 -4.5625,13.08984 0,5.049001 1.60975,9.684121 4.5625,13.085941 2.95274,3.40182 7.27608,5.52539 12.4082,5.52539 h 79.59961 c -0.31949,1.03257 -0.53516,2.10677 -0.53516,3.24023 0,6.09236 4.96972,11.0625 11.06055,11.0625 h 18.94336 c 6.09137,0 11.05859,-4.97033 11.05859,-11.0625 0,-1.13394 -0.21584,-2.20793 -0.53515,-3.24023 h 15.58398 c 3.66185,0 5.8976,-1.86505 6.89453,-3.69141 0.99694,-1.82636 0.97852,-3.63476 0.97852,-3.63476 v -10.123051 c 0,-6.90428 -1.70801,-11.98191 -5.32617,-15.24024 -3.61817,-3.25832 -8.88252,-4.53515 -15.58204,-4.53515 h -1.20312 c 0.20957,-0.83775 0.3418,-1.70228 0.3418,-2.59961 0,-6.33781 -5.48418,-11.41016 -12.09961,-11.41016 z"
   id="path48" /><path
   fill="#3da1c6"
   d="m 16.17352,-115.0888 c -1.58361,0 -3.10032,0.2968 -4.54303,0.88661 -1.4452,0.59162 -2.71367,1.41497 -3.80623,2.4669 -1.09405,1.05491 -1.96646,2.30835 -2.6182,3.7618 -0.65223,1.4556 -0.97777,3.0549 -0.97777,4.79788 0,1.74679 0.33132,3.356321 0.99247,4.829921 0.66264,1.4746 1.53967,2.74951 2.63372,3.82242 1.09174,1.07373 2.35542,1.90551 3.79071,2.49729 1.43379,0.59162 2.93283,0.88661 4.4986,0.88661 0.76174,0 1.53355,-0.0747 2.31611,-0.22496 0.78205,-0.1503 1.62472,-0.38566 2.52801,-0.7069 l 0.6017,-0.20993 v -6.98136 c -1.50482,1.60491 -3.19908,2.40646 -5.08477,2.40646 -0.8625,0 -1.66503,-0.15889 -2.40745,-0.48014 -0.74242,-0.32141 -1.38904,-0.76372 -1.94102,-1.32512 -0.55148,-0.56139 -0.98207,-1.22304 -1.29308,-1.985781 -0.31232,-0.76174 -0.46642,-1.5945 -0.46642,-2.49812 0,-0.88099 0.1541,-1.70318 0.46642,-2.46707 0.31101,-0.76009 0.73681,-1.41777 1.2769,-1.97075 0.54355,-0.55115 1.19001,-0.98686 1.94184,-1.30728 0.75282,-0.32124 1.56907,-0.48294 2.45188,-0.48294 2.00576,0 3.6916,0.8326 5.05537,2.49812 v -7.04165 c -0.96275,-0.40069 -1.8814,-0.69567 -2.75281,-0.8866 -0.87323,-0.19093 -1.76066,-0.28541 -2.66295,-0.28541 z"
   id="path49"
   style="vector-effect:non-scaling-stroke;fill:none;stroke:#000000;stroke-width:1;stroke-dasharray:none;stroke-opacity:1;-inkscape-stroke:hairline" /><path
   fill="#3da1c6"
   d="m 41.21039,-103.24927 c 0.83177,-1.07374 1.24864,-2.4717 1.24864,-4.19767 0,-0.96308 -0.15591,-1.86488 -0.4656,-2.70805 -0.31232,-0.843 -0.77264,-1.58409 -1.38424,-2.22675 -0.61161,-0.64084 -1.39036,-1.14757 -2.3318,-1.51902 -0.94425,-0.37146 -2.04722,-0.55678 -3.31008,-0.55678 h -9.17739 v 22.686581 h 5.89755 v -8.726001 l 5.62667,8.726001 h 7.34142 l -7.131,-9.297971 c 1.6244,-0.3807 2.85373,-1.1066 3.68583,-2.18034 z m -5.73156,-1.79023 c -0.62102,0.48113 -1.51473,0.72211 -2.67865,0.72211 h -1.11255 v -5.59646 h 1.11255 c 1.16392,0 2.05763,0.24098 2.67865,0.7231 0.62102,0.47997 0.93285,1.17201 0.93285,2.07546 0,0.90197 -0.31183,1.59467 -0.93285,2.07579 z"
   id="path50"
   style="vector-effect:non-scaling-stroke;fill:none;stroke:#000000;stroke-width:1;stroke-dasharray:none;stroke-opacity:1;-inkscape-stroke:hairline" /><polygon
   fill="#3da1c6"
   points="331.012,379.167 331.012,355.474 371.092,355.474 371.092,325.236 331.012,325.236 331.012,302.276 373.464,302.276 373.464,272.037 295.308,272.037 295.308,409.394 373.464,409.394 373.464,379.167 "
   id="polygon50"
   transform="matrix(0.16516503,0,0,0.16516503,-1.41656,-159.38837)"
   style="vector-effect:non-scaling-stroke;fill:none;stroke:#000000;stroke-width:6.05455;stroke-dasharray:none;stroke-opacity:1;-inkscape-stroke:hairline" /><path
   fill="#3da1c6"
   d="m 70.50835,-114.45737 -8.63532,22.686571 h 6.2875 l 1.35501,-3.9415 h 8.42408 l 1.35551,3.9415 h 6.28701 l -8.63483,-22.686571 z m 0.5723,14.26101 2.64759,-7.55217 2.64694,7.55217 z"
   id="path51"
   style="vector-effect:non-scaling-stroke;fill:none;stroke:#000000;stroke-width:1;stroke-dasharray:none;stroke-opacity:1;-inkscape-stroke:hairline" /><polygon
   fill="#3da1c6"
   points="584.232,409.394 584.232,302.276 613.567,302.276 613.567,272.037 519.205,272.037 519.205,302.276 548.528,302.276 548.528,409.394 "
   id="polygon51"
   transform="matrix(0.16516503,0,0,0.16516503,-1.41656,-159.38837)"
   style="vector-effect:non-scaling-stroke;fill:none;stroke:#000000;stroke-width:6.05455;stroke-dasharray:none;stroke-opacity:1;-inkscape-stroke:hairline" /><path
   fill="#3da1c6"
   d="m 123.36512,-111.62942 c -1.11337,-1.08315 -2.44246,-1.93094 -3.98493,-2.54255 -1.54628,-0.61061 -3.2308,-0.91683 -5.05587,-0.91683 -1.84605,0 -3.53684,0.30622 -5.07189,0.91683 -1.53405,0.61161 -2.85174,1.4594 -3.9557,2.54255 -1.10198,1.08316 -1.96596,2.35361 -2.5878,3.80722 -0.62119,1.45478 -0.9322,3.02285 -0.9322,4.70803 0,1.68535 0.31101,3.254251 0.9322,4.710011 0.62184,1.45379 1.48582,2.72209 2.5878,3.80541 1.10413,1.08315 2.42165,1.93193 3.9557,2.54255 1.53505,0.61061 3.22584,0.91699 5.07189,0.91699 1.82524,0 3.50959,-0.30621 5.05587,-0.91699 1.54247,-0.61045 2.87156,-1.4594 3.98493,-2.54255 1.11338,-1.08332 1.98017,-2.35162 2.60317,-3.80541 0.62201,-1.4556 0.93368,-3.024501 0.93368,-4.710011 0,-1.68518 -0.31183,-3.25325 -0.93368,-4.70803 -0.623,-1.45361 -1.48979,-2.72406 -2.60317,-3.80722 z m -3.14276,11.01238 c -0.34304,0.762901 -0.80815,1.424551 -1.39993,1.985781 -0.59361,0.5614 -1.27508,1.00008 -2.04739,1.30927 -0.77116,0.311 -1.5879,0.46593 -2.45088,0.46593 -0.86299,0 -1.67957,-0.15493 -2.45089,-0.46593 -0.77495,-0.30919 -1.4518,-0.74771 -2.03219,-1.30927 -0.58221,-0.56123 -1.04351,-1.22288 -1.38474,-1.985781 -0.34041,-0.76075 -0.51152,-1.5945 -0.51152,-2.49713 0,-0.90262 0.17111,-1.73439 0.51152,-2.49812 0.34106,-0.76009 0.80237,-1.42339 1.38474,-1.98495 0.58039,-0.5614 1.25707,-0.99826 2.03219,-1.31009 0.77132,-0.31018 1.5879,-0.46593 2.45089,-0.46593 0.86298,0 1.67972,0.15575 2.45088,0.46593 0.77231,0.31183 1.45378,0.74853 2.04739,1.31009 0.59178,0.56139 1.05672,1.22486 1.39993,1.98495 0.33942,0.76373 0.51053,1.5955 0.51053,2.49812 0,0.90263 -0.17128,1.73638 -0.51053,2.49713 z"
   id="path52"
   style="vector-effect:non-scaling-stroke;fill:none;stroke:#000000;stroke-width:1;stroke-dasharray:none;stroke-opacity:1;-inkscape-stroke:hairline" /><path
   fill="#3da1c6"
   d="m 142.13101,-101.06876 c 1.62588,-0.38087 2.85356,-1.10677 3.68714,-2.18051 0.83078,-1.07374 1.24684,-2.4717 1.24684,-4.19767 0,-0.96308 -0.1541,-1.86488 -0.46494,-2.70805 -0.31084,-0.84316 -0.77133,-1.58409 -1.38376,-2.22675 -0.61259,-0.64084 -1.39151,-1.14757 -2.33081,-1.51902 -0.9454,-0.37146 -2.04738,-0.55678 -3.31007,-0.55678 h -9.17789 v 22.686581 h 5.89804 v -8.726001 l 5.62586,8.726001 h 7.34142 z m -2.0454,-3.97074 c -0.62202,0.48113 -1.51523,0.72211 -2.67782,0.72211 h -1.11239 v -5.59646 h 1.11239 c 1.16259,0 2.0558,0.24098 2.67782,0.7231 0.62201,0.47997 0.93202,1.17201 0.93202,2.07546 0,0.90197 -0.31001,1.59467 -0.93202,2.07579 z"
   id="path53"
   style="vector-effect:non-scaling-stroke;fill:none;stroke:#000000;stroke-width:1;stroke-dasharray:none;stroke-opacity:1;-inkscape-stroke:hairline" /><polygon
   fill="#fff0e4"
   points="290.541,236.063 290.541,216.561 304.713,216.561 304.713,205.619 290.541,205.619 290.541,197.321 306.096,197.321 306.096,186.378 277.625,186.378 277.625,236.063 "
   id="polygon53"
   transform="matrix(0.16516503,0,0,0.16516503,-1.41656,-159.38837)"
   style="vector-effect:non-scaling-stroke;fill:none;stroke:#000000;stroke-width:6.05455;stroke-dasharray:none;stroke-opacity:1;-inkscape-stroke:hairline" /><path
   fill="#fff0e4"
   d="m 51.3066,-121.42155 c 0.39837,0.39127 0.8757,0.69749 1.42966,0.92063 0.55578,0.22115 1.16772,0.33181 1.83466,0.33181 0.66066,0 1.27028,-0.11049 1.82936,-0.33181 0.5581,-0.22314 1.03889,-0.52936 1.4419,-0.92063 0.403,-0.39227 0.71599,-0.8506 0.94144,-1.37632 0.22594,-0.52738 0.33825,-1.09455 0.33825,-1.70517 0,-0.6088 -0.11247,-1.17762 -0.33825,-1.70318 -0.22545,-0.52556 -0.53828,-0.98488 -0.94144,-1.37616 -0.40317,-0.39226 -0.8838,-0.69848 -1.4419,-0.92062 -0.55908,-0.22116 -1.1687,-0.33083 -1.82936,-0.33083 -0.66694,0 -1.27888,0.10967 -1.83466,0.33083 -0.55396,0.22214 -1.03129,0.52836 -1.42966,0.92062 -0.39888,0.39128 -0.7122,0.8506 -0.93814,1.37616 -0.22364,0.52556 -0.33644,1.09455 -0.33644,1.70318 0,0.61062 0.11297,1.17779 0.33644,1.70517 0.22594,0.52555 0.53926,0.98405 0.93814,1.37632 z m 1.14327,-3.98494 c 0.12288,-0.27417 0.2892,-0.51416 0.49995,-0.71748 0.21075,-0.20315 0.45553,-0.36204 0.73433,-0.47253 0.27929,-0.11248 0.5756,-0.16913 0.8866,-0.16913 0.31382,0 0.6083,0.0566 0.8876,0.16913 0.27979,0.11049 0.52737,0.26938 0.74159,0.47253 0.21273,0.20316 0.38137,0.44331 0.50425,0.71748 0.12437,0.27599 0.18614,0.57659 0.18614,0.90362 0,0.32702 -0.0619,0.62961 -0.18614,0.90461 -0.12288,0.27516 -0.29152,0.51515 -0.50425,0.71747 -0.21405,0.20415 -0.4618,0.36204 -0.74159,0.47452 -0.2793,0.11248 -0.57378,0.16913 -0.8876,0.16913 -0.311,0 -0.60731,-0.0568 -0.8866,-0.16913 -0.2788,-0.11248 -0.52358,-0.27037 -0.73433,-0.47452 -0.21075,-0.20232 -0.37707,-0.44231 -0.49995,-0.71747 -0.12388,-0.275 -0.18581,-0.57759 -0.18581,-0.90461 0,-0.32703 0.0619,-0.62763 0.18581,-0.90362 z"
   id="path54"
   style="vector-effect:non-scaling-stroke;fill:none;stroke:#000000;stroke-width:1;stroke-dasharray:none;stroke-opacity:1;-inkscape-stroke:hairline" /><path
   fill="#fff0e4"
   d="m 62.60504,-123.55582 2.0345,3.15697 h 2.65652 l -2.58054,-3.36309 c 0.58799,-0.13792 1.03228,-0.40086 1.33371,-0.78933 0.30142,-0.38846 0.45222,-0.89503 0.45222,-1.51885 0,-0.34784 -0.0581,-0.67487 -0.17012,-0.97927 -0.11198,-0.3044 -0.27831,-0.57279 -0.50045,-0.80633 -0.22017,-0.23057 -0.50243,-0.4149 -0.84267,-0.54918 -0.34173,-0.13411 -0.7406,-0.20034 -1.19712,-0.20034 h -3.32031 v 8.20622 h 2.13426 z m 0,-3.40653 h 0.40218 c 0.41968,0 0.7434,0.0869 0.96885,0.26097 0.22347,0.17391 0.33595,0.4243 0.33595,0.75133 0,0.3262 -0.11248,0.57758 -0.33595,0.7515 -0.22545,0.17392 -0.54917,0.26096 -0.96885,0.26096 h -0.40218 z"
   id="path55"
   style="vector-effect:non-scaling-stroke;fill:none;stroke:#000000;stroke-width:1;stroke-dasharray:none;stroke-opacity:1;-inkscape-stroke:hairline" /><polygon
   fill="#fff0e4"
   points="450.956,197.321 450.956,186.378 416.813,186.378 416.813,197.321 427.423,197.321 427.423,236.063 440.34,236.063 440.34,197.321 "
   id="polygon55"
   transform="matrix(0.16516503,0,0,0.16516503,-1.41656,-159.38837)"
   style="vector-effect:non-scaling-stroke;fill:none;stroke:#000000;stroke-width:6.05455;stroke-dasharray:none;stroke-opacity:1;-inkscape-stroke:hairline" /><path
   fill="#fff0e4"
   d="m 78.65545,-121.39513 c 0.39358,0.38946 0.8506,0.69006 1.37054,0.90362 0.51944,0.21356 1.06151,0.32224 1.62753,0.32224 0.2755,0 0.5543,-0.0274 0.83788,-0.0823 0.28178,-0.0548 0.587,-0.14088 0.91452,-0.25518 l 0.21736,-0.0775 v -2.52554 c -0.54488,0.58221 -1.15781,0.87241 -1.83928,0.87241 -0.3115,0 -0.60219,-0.0596 -0.87141,-0.17491 -0.26839,-0.11529 -0.50243,-0.27599 -0.70195,-0.47832 -0.19952,-0.20315 -0.35577,-0.44231 -0.46742,-0.7183 -0.11297,-0.276 -0.16913,-0.57759 -0.16913,-0.90362 0,-0.32042 0.0562,-0.61822 0.16913,-0.89421 0.11149,-0.27417 0.26708,-0.51234 0.46164,-0.71268 0.19572,-0.19853 0.43009,-0.35726 0.70327,-0.47353 0.27137,-0.1143 0.56569,-0.17293 0.88611,-0.17293 0.7259,0 1.33553,0.3006 1.82888,0.90362 v -2.54817 c -0.34883,-0.14369 -0.67966,-0.25138 -0.99529,-0.32141 -0.31662,-0.0671 -0.63655,-0.10207 -0.96456,-0.10207 -0.5728,0 -1.12048,0.1067 -1.64323,0.32141 -0.52275,0.21356 -0.98108,0.51036 -1.37665,0.89123 -0.39557,0.38087 -0.7117,0.83458 -0.94623,1.36113 -0.23586,0.52654 -0.35494,1.10495 -0.35494,1.73638 0,0.63142 0.12057,1.21363 0.35923,1.74678 0.24032,0.53381 0.55744,0.9943 0.954,1.38177 z"
   id="path56"
   style="vector-effect:non-scaling-stroke;fill:none;stroke:#000000;stroke-width:1;stroke-dasharray:none;stroke-opacity:1;-inkscape-stroke:hairline" /><path
   fill="#fff0e4"
   d="m 85.99488,-121.42155 c 0.3997,0.39127 0.87621,0.69749 1.43281,0.92063 0.55479,0.22115 1.16458,0.33181 1.83284,0.33181 0.66165,0 1.27028,-0.11049 1.82804,-0.33181 0.56057,-0.22314 1.04154,-0.52936 1.44223,-0.92063 0.40267,-0.39227 0.71747,-0.8506 0.94325,-1.37632 0.22397,-0.52738 0.33661,-1.09455 0.33661,-1.70517 0,-0.6088 -0.11264,-1.17762 -0.33661,-1.70318 -0.22578,-0.52556 -0.54058,-0.98488 -0.94325,-1.37616 -0.40086,-0.39226 -0.88182,-0.69848 -1.44223,-0.92062 -0.55776,-0.22116 -1.16639,-0.33083 -1.82804,-0.33083 -0.66826,0 -1.27788,0.10967 -1.83284,0.33083 -0.5566,0.22214 -1.03311,0.52836 -1.43281,0.92062 -0.39804,0.39128 -0.70987,0.8506 -0.93582,1.37616 -0.22396,0.52556 -0.33644,1.09455 -0.33644,1.70318 0,0.61062 0.11248,1.17779 0.33644,1.70517 0.22595,0.52555 0.53778,0.98405 0.93582,1.37632 z m 1.14361,-3.98494 c 0.12288,-0.27417 0.2892,-0.51416 0.50094,-0.71748 0.20993,-0.20315 0.45569,-0.36204 0.73433,-0.47253 0.27979,-0.11248 0.57461,-0.16913 0.8866,-0.16913 0.312,0 0.60781,0.0566 0.88661,0.16913 0.27962,0.11049 0.52737,0.26938 0.74291,0.47253 0.21257,0.20316 0.38186,0.44331 0.50475,0.71748 0.12189,0.27599 0.18432,0.57659 0.18432,0.90362 0,0.32702 -0.0624,0.62961 -0.18432,0.90461 -0.12289,0.27516 -0.29218,0.51515 -0.50475,0.71747 -0.21554,0.20415 -0.46329,0.36204 -0.74291,0.47452 -0.2788,0.11248 -0.57461,0.16913 -0.88661,0.16913 -0.31199,0 -0.60681,-0.0568 -0.8866,-0.16913 -0.2788,-0.11248 -0.52457,-0.27037 -0.73433,-0.47452 -0.21174,-0.20232 -0.37806,-0.44231 -0.50094,-0.71747 -0.12289,-0.275 -0.18614,-0.57759 -0.18614,-0.90461 0,-0.32703 0.0632,-0.62763 0.18614,-0.90362 z"
   id="path57"
   style="vector-effect:non-scaling-stroke;fill:none;stroke:#000000;stroke-width:1;stroke-dasharray:none;stroke-opacity:1;-inkscape-stroke:hairline" /><polygon
   fill="#fff0e4"
   points="584.736,186.378 584.736,236.063 613.138,236.063 613.138,225.122 597.652,225.122 597.652,186.378 "
   id="polygon57"
   transform="matrix(0.16516503,0,0,0.16516503,-1.41656,-159.38837)"
   style="vector-effect:non-scaling-stroke;fill:none;stroke:#000000;stroke-width:6.05455;stroke-dasharray:none;stroke-opacity:1;-inkscape-stroke:hairline" /><polygon
   fill="#fff0e4"
   points="619.794,186.378 619.794,236.063 648.195,236.063 648.195,225.122 632.722,225.122 632.722,186.378 "
   id="polygon58"
   transform="matrix(0.16516503,0,0,0.16516503,-1.41656,-159.38837)"
   style="vector-effect:non-scaling-stroke;fill:none;stroke:#000000;stroke-width:6.05455;stroke-dasharray:none;stroke-opacity:1;-inkscape-stroke:hairline" /><rect
   x="106.74109"
   y="-128.60521"
   fill="#fff0e4"
   width="2.1360793"
   height="8.2062244"
   id="rect58"
   style="vector-effect:non-scaling-stroke;fill:none;stroke:#000000;stroke-width:1;stroke-dasharray:none;stroke-opacity:1;-inkscape-stroke:hairline" /><polygon
   fill="#fff0e4"
   points="678.183,186.378 678.183,236.063 691.104,236.063 691.104,205.687 714.951,236.063 727.811,236.063 727.811,186.378 714.951,186.378 714.951,216.761 691.104,186.378 "
   id="polygon59"
   transform="matrix(0.16516503,0,0,0.16516503,-1.41656,-159.38837)"
   style="vector-effect:non-scaling-stroke;fill:none;stroke:#000000;stroke-width:6.05455;stroke-dasharray:none;stroke-opacity:1;-inkscape-stroke:hairline" /><path
   fill="#fff0e4"
   d="m 122.92661,-121.9775 c -0.3044,0 -0.61243,-0.068 -0.92344,-0.20596 -0.31298,-0.13808 -0.62861,-0.34982 -0.94804,-0.63143 l -0.91403,1.72036 c 0.88562,0.61541 1.84605,0.92542 2.88378,0.92542 0.50293,0 0.94904,-0.067 1.34593,-0.20232 0.39524,-0.13329 0.72673,-0.32241 1.0019,-0.56619 0.27037,-0.24197 0.47831,-0.53497 0.61903,-0.8762 0.14072,-0.34123 0.21175,-0.72111 0.21175,-1.14278 0,-0.62482 -0.1617,-1.13039 -0.4841,-1.51786 -0.32224,-0.38946 -0.8326,-0.69849 -1.53026,-0.93203 -0.1721,-0.0568 -0.34866,-0.11149 -0.52654,-0.16252 -0.17871,-0.0502 -0.33744,-0.11149 -0.48113,-0.17772 -0.13791,-0.0699 -0.25518,-0.15311 -0.34106,-0.24577 -0.0861,-0.0945 -0.13049,-0.21554 -0.13049,-0.35907 0,-0.21174 0.0879,-0.38186 0.2608,-0.51234 0.17491,-0.13048 0.39788,-0.19654 0.67404,-0.19654 0.21719,0 0.4433,0.0454 0.67767,0.13708 0.22975,0.0897 0.4623,0.22975 0.69667,0.4187 l 0.84696,-1.66536 c -0.40647,-0.21736 -0.82979,-0.38368 -1.27325,-0.49533 -0.44331,-0.11248 -0.86662,-0.16831 -1.2731,-0.16831 -0.43686,0 -0.83078,0.0652 -1.18142,0.19573 -0.34982,0.13147 -0.65042,0.31298 -0.89321,0.54917 -0.2428,0.23619 -0.43191,0.51895 -0.56536,0.84878 -0.13329,0.33083 -0.20134,0.69849 -0.20134,1.10595 0,0.40647 0.0644,0.74208 0.19093,1.00569 0.12668,0.26476 0.29218,0.48591 0.50095,0.65884 0.20794,0.17491 0.44049,0.3148 0.70591,0.41869 0.26559,0.10587 0.53596,0.20233 0.81195,0.28921 0.23355,0.0793 0.42927,0.15311 0.59179,0.21735 0.16434,0.0662 0.2968,0.1361 0.39788,0.21175 0.10207,0.0775 0.17574,0.1607 0.21819,0.25138 0.0436,0.0907 0.0662,0.19753 0.0662,0.32042 0,0.20315 -0.087,0.38467 -0.25634,0.54537 -0.17062,0.15955 -0.42959,0.23784 -0.77925,0.23784 z"
   id="path59"
   style="vector-effect:non-scaling-stroke;fill:none;stroke:#000000;stroke-width:1;stroke-dasharray:none;stroke-opacity:1;-inkscape-stroke:hairline" /><polygon
   fill="#3da1c6"
   points="626.512,445.779 626.512,495.476 639.429,495.476 639.429,474.977 658.079,474.977 658.079,495.476 670.995,495.476 670.995,445.779 658.079,445.779 658.079,464.961 639.429,464.961 639.429,445.779 "
   id="polygon60"
   transform="matrix(0.16516503,0,0,0.16516503,-1.41656,-159.38837)"
   style="vector-effect:non-scaling-stroke;fill:none;stroke:#000000;stroke-width:6.05455;stroke-dasharray:none;stroke-opacity:1;-inkscape-stroke:hairline" /><path
   fill="#3da1c6"
   d="m 116.15699,-81.298009 c 0,0.23899 -0.01,0.48492 -0.0274,0.73531 -0.0178,0.24957 -0.0737,0.47634 -0.16913,0.68048 -0.0927,0.20233 -0.23735,0.36865 -0.4291,0.49335 -0.19292,0.12751 -0.4661,0.19192 -0.82236,0.19192 -0.35527,0 -0.63027,-0.0644 -0.82698,-0.19192 -0.19572,-0.1247 -0.34041,-0.29119 -0.43009,-0.49335 -0.0907,-0.20414 -0.14551,-0.43091 -0.16252,-0.68048 -0.0188,-0.25055 -0.0274,-0.49632 -0.0274,-0.73531 v -4.46326 h -2.13344 v 4.75824 c 0,1.27607 0.29301,2.20793 0.88198,2.79691 0.58799,0.58699 1.48682,0.88198 2.69847,0.88198 1.21182,0 2.10965,-0.29499 2.69467,-0.88198 0.5832,-0.58882 0.87537,-1.52084 0.87537,-2.79691 v -4.75824 h -2.12204 z"
   id="path60"
   style="vector-effect:non-scaling-stroke;fill:none;stroke:#000000;stroke-width:1;stroke-dasharray:none;stroke-opacity:1;-inkscape-stroke:hairline" /><path
   fill="#3da1c6"
   d="m 125.88307,-81.222369 c -0.13412,-0.17309 -0.30804,-0.32141 -0.52358,-0.44049 -0.21372,-0.11925 -0.47353,-0.20795 -0.77693,-0.26658 0.3034,-0.18812 0.53117,-0.41968 0.67949,-0.69088 0.14831,-0.2722 0.22313,-0.61541 0.22313,-1.02849 0,-0.68345 -0.19572,-1.20521 -0.58699,-1.56807 -0.39326,-0.36287 -0.96506,-0.54455 -1.7202,-0.54455 h -3.17777 v 8.2082 h 3.42734 c 0.43471,0 0.82797,-0.0512 1.17581,-0.15327 0.34965,-0.10207 0.64348,-0.2532 0.88743,-0.45553 0.24296,-0.20414 0.43091,-0.45569 0.56618,-0.75249 0.13428,-0.29878 0.20051,-0.63886 0.20051,-1.0227 0,-0.24758 -0.0284,-0.48013 -0.0869,-0.69749 -0.0588,-0.21719 -0.1541,-0.41275 -0.28755,-0.58766 z m -3.75057,-2.90558 h 0.39326 c 0.66545,0 1.00007,0.26476 1.00007,0.79477 0,0.52936 -0.33446,0.79412 -1.00007,0.79412 h -0.39326 z m 1.62291,4.71282 c -0.23338,0.13808 -0.61706,0.20794 -1.15401,0.20794 h -0.4689 v -1.74299 h 0.4689 c 0.53695,0 0.92063,0.069 1.15401,0.20613 0.23156,0.1389 0.34784,0.36022 0.34784,0.66528 1.6e-4,0.3044 -0.11611,0.52573 -0.34784,0.66364 z"
   id="path61"
   style="vector-effect:non-scaling-stroke;fill:none;stroke:#000000;stroke-width:1;stroke-dasharray:none;stroke-opacity:1;-inkscape-stroke:hairline" /><path
   id="path78"
   style="vector-effect:non-scaling-stroke;fill:none;stroke:#000000;stroke-width:1;stroke-dasharray:none;stroke-opacity:1;-inkscape-stroke:hairline"
   d="m 125.88307,78.166391 c -0.13412,-0.17309 -0.30804,-0.32141 -0.52358,-0.44049 -0.21372,-0.11925 -0.47353,-0.20795 -0.77693,-0.26658 0.3034,-0.18812 0.53117,-0.41968 0.67949,-0.69088 0.14831,-0.2722 0.22313,-0.61541 0.22313,-1.02849 0,-0.68345 -0.19572,-1.20521 -0.58699,-1.56807 -0.39326,-0.36287 -0.96506,-0.54455 -1.7202,-0.54455 h -3.17777 v 8.2082 h 3.42734 c 0.43471,0 0.82797,-0.0512 1.17581,-0.15327 0.34965,-0.10207 0.64348,-0.2532 0.88743,-0.45553 0.24296,-0.20414 0.43091,-0.45569 0.56618,-0.75249 0.13428,-0.29878 0.20051,-0.63886 0.20051,-1.0227 0,-0.24758 -0.0284,-0.48013 -0.0869,-0.69749 -0.0588,-0.21719 -0.1541,-0.41275 -0.28755,-0.58766 z m -3.75057,-2.90558 h 0.39326 c 0.66545,0 1.00007,0.26476 1.00007,0.79477 0,0.52936 -0.33446,0.79412 -1.00007,0.79412 h -0.39326 z m 1.62291,4.71282 c -0.23338,0.13808 -0.61706,0.20794 -1.15401,0.20794 h -0.4689 v -1.74299 h 0.4689 c 0.53695,0 0.92063,0.069 1.15401,0.20613 0.23156,0.1389 0.34784,0.36022 0.34784,0.66528 1.6e-4,0.3044 -0.11611,0.52573 -0.34784,0.66364 z m -7.59842,-1.88288 c 0,0.23899 -0.01,0.48492 -0.0274,0.73531 -0.0178,0.24957 -0.0737,0.47634 -0.16913,0.68048 -0.0927,0.20233 -0.23735,0.36865 -0.4291,0.49335 -0.19292,0.12751 -0.4661,0.19192 -0.82236,0.19192 -0.35527,0 -0.63027,-0.0644 -0.82698,-0.19192 -0.19572,-0.1247 -0.34041,-0.29119 -0.43009,-0.49335 -0.0907,-0.20414 -0.14551,-0.43091 -0.16252,-0.68048 -0.0188,-0.25055 -0.0274,-0.49632 -0.0274,-0.73531 v -4.46326 h -2.13344 v 4.75824 c 0,1.27607 0.29301,2.20793 0.88198,2.79691 0.58799,0.58699 1.48682,0.88198 2.69847,0.88198 1.21182,0 2.10965,-0.29499 2.69467,-0.88198 0.5832,-0.58882 0.87537,-1.52084 0.87537,-2.79691 v -4.75824 h -2.12204 z m -14.09568,-4.46326 v 8.20821 h 2.13344 v -3.38572 h 3.08033 v 3.38572 h 2.13327 v -8.20821 h -2.13327 v 3.1682 h -3.08033 v -3.1682 z m 20.8653,-36.21623 c -0.3044,0 -0.61243,-0.068 -0.92344,-0.20596 -0.31298,-0.13808 -0.62861,-0.34982 -0.94804,-0.63143 l -0.91403,1.72036 c 0.88562,0.61541 1.84605,0.92542 2.88378,0.92542 0.50293,0 0.94904,-0.067 1.34593,-0.20232 0.39524,-0.13329 0.72673,-0.32241 1.0019,-0.56619 0.27037,-0.24197 0.47831,-0.53497 0.61903,-0.8762 0.14072,-0.34123 0.21175,-0.72111 0.21175,-1.14278 0,-0.62482 -0.1617,-1.13039 -0.4841,-1.51786 -0.32224,-0.38946 -0.8326,-0.69849 -1.53026,-0.93203 -0.1721,-0.0568 -0.34866,-0.11149 -0.52654,-0.16252 -0.17871,-0.0502 -0.33744,-0.11149 -0.48113,-0.17772 -0.13791,-0.0699 -0.25518,-0.15311 -0.34106,-0.24577 -0.0861,-0.0945 -0.13049,-0.21554 -0.13049,-0.35907 0,-0.21174 0.0879,-0.38186 0.2608,-0.51234 0.17491,-0.13048 0.39788,-0.19654 0.67404,-0.19654 0.21719,0 0.4433,0.0454 0.67767,0.13708 0.22975,0.0897 0.4623,0.22975 0.69667,0.4187 l 0.84696,-1.66536 c -0.40647,-0.21736 -0.82979,-0.38368 -1.27325,-0.49533 -0.44331,-0.11248 -0.86662,-0.16831 -1.2731,-0.16831 -0.43686,0 -0.83078,0.0652 -1.18142,0.19573 -0.34982,0.13147 -0.65042,0.31298 -0.89321,0.54917 -0.2428,0.23619 -0.43191,0.51895 -0.56536,0.84878 -0.13329,0.33083 -0.20134,0.69849 -0.20134,1.10595 0,0.40647 0.0644,0.74208 0.19093,1.00569 0.12668,0.26476 0.29218,0.48591 0.50095,0.65884 0.20794,0.17491 0.44049,0.3148 0.70591,0.41869 0.26559,0.10587 0.53596,0.20233 0.81195,0.28921 0.23355,0.0793 0.42927,0.15311 0.59179,0.21735 0.16434,0.0662 0.2968,0.1361 0.39788,0.21175 0.10207,0.0775 0.17574,0.1607 0.21819,0.25138 0.0436,0.0907 0.0662,0.19753 0.0662,0.32042 0,0.20315 -0.087,0.38467 -0.25634,0.54537 -0.17062,0.15955 -0.42959,0.23784 -0.77925,0.23784 z m -6.25827,-1.60953 -3.93869,-5.01821 h -2.13409 v 8.20622 h 2.13409 v -5.01705 l 3.93869,5.01705 h 2.12403 v -8.20622 h -2.12403 z m -9.92725,-5.01818 h 2.13608 v 8.20622 h -2.13608 z m -5.78936,-3e-5 v 8.20622 h 4.69086 v -1.80707 h -2.5556 v -6.39915 z m -5.79035,0 v 8.20622 h 4.69102 v -1.80707 h -2.55775 v -6.39915 z m -9.1665,7.18369 c 0.3997,0.39127 0.87621,0.69749 1.43281,0.92063 0.55479,0.22115 1.16458,0.33181 1.83284,0.33181 0.66165,0 1.27028,-0.11049 1.82804,-0.33181 0.56057,-0.22314 1.04154,-0.52936 1.44223,-0.92063 0.40267,-0.39227 0.71747,-0.8506 0.94325,-1.37632 0.22397,-0.52738 0.33661,-1.09455 0.33661,-1.70517 0,-0.6088 -0.11264,-1.17762 -0.33661,-1.70318 -0.22578,-0.52556 -0.54058,-0.98488 -0.94325,-1.37616 -0.40086,-0.39226 -0.88182,-0.69848 -1.44223,-0.92062 -0.55776,-0.22116 -1.16639,-0.33083 -1.82804,-0.33083 -0.66826,0 -1.27788,0.10967 -1.83284,0.33083 -0.5566,0.22214 -1.03311,0.52836 -1.43281,0.92062 -0.39804,0.39128 -0.70987,0.8506 -0.93582,1.37616 -0.22396,0.52556 -0.33644,1.09455 -0.33644,1.70318 0,0.61062 0.11248,1.17779 0.33644,1.70517 0.22595,0.52555 0.53778,0.98405 0.93582,1.37632 z m 1.14361,-3.98494 c 0.12288,-0.27417 0.2892,-0.51416 0.50094,-0.71748 0.20993,-0.20315 0.45569,-0.36204 0.73433,-0.47253 0.27979,-0.11248 0.57461,-0.16913 0.8866,-0.16913 0.312,0 0.60781,0.0566 0.88661,0.16913 0.27962,0.11049 0.52737,0.26938 0.74291,0.47253 0.21257,0.20316 0.38186,0.44331 0.50475,0.71748 0.12189,0.27599 0.18432,0.57659 0.18432,0.90362 0,0.32702 -0.0624,0.62961 -0.18432,0.90461 -0.12289,0.27516 -0.29218,0.51515 -0.50475,0.71747 -0.21554,0.20415 -0.46329,0.36204 -0.74291,0.47452 -0.2788,0.11248 -0.57461,0.16913 -0.88661,0.16913 -0.31199,0 -0.60681,-0.0568 -0.8866,-0.16913 -0.2788,-0.11248 -0.52457,-0.27037 -0.73433,-0.47452 -0.21174,-0.20232 -0.37806,-0.44231 -0.50094,-0.71747 -0.12289,-0.275 -0.18614,-0.57759 -0.18614,-0.90461 0,-0.32703 0.0632,-0.62763 0.18614,-0.90362 z m -8.48304,4.01136 c 0.39358,0.38946 0.8506,0.69006 1.37054,0.90362 0.51944,0.21356 1.06151,0.32224 1.62753,0.32224 0.2755,0 0.5543,-0.0274 0.83788,-0.0823 0.28178,-0.0548 0.587,-0.14088 0.91452,-0.25518 l 0.21736,-0.0775 v -2.52554 c -0.54488,0.58221 -1.15781,0.87241 -1.83928,0.87241 -0.3115,0 -0.60219,-0.0596 -0.87141,-0.17491 -0.26839,-0.11529 -0.50243,-0.27599 -0.70195,-0.47832 -0.19952,-0.20315 -0.35577,-0.44231 -0.46742,-0.7183 -0.11297,-0.276 -0.16913,-0.57759 -0.16913,-0.90362 0,-0.32042 0.0562,-0.61822 0.16913,-0.89421 0.11149,-0.27417 0.26708,-0.51234 0.46164,-0.71268 0.19572,-0.19853 0.43009,-0.35726 0.70327,-0.47353 0.27137,-0.1143 0.56569,-0.17293 0.88611,-0.17293 0.7259,0 1.33553,0.3006 1.82888,0.90362 v -2.54817 c -0.34883,-0.14369 -0.67966,-0.25138 -0.99529,-0.32141 -0.31662,-0.0671 -0.63655,-0.10207 -0.96456,-0.10207 -0.5728,0 -1.12048,0.1067 -1.64323,0.32141 -0.52275,0.21356 -0.98108,0.51036 -1.37665,0.89123 -0.39557,0.38087 -0.7117,0.83458 -0.94623,1.36113 -0.23586,0.52654 -0.35494,1.10495 -0.35494,1.73638 0,0.63142 0.12057,1.21363 0.35923,1.74678 0.24032,0.53381 0.55744,0.9943 0.954,1.38177 z m -9.47668,-5.40271 v 6.39882 h 2.13344 v -6.39882 h 1.75339 v -1.8074 h -5.63923 v 1.8074 z m -6.57373,3.24202 2.0345,3.15697 h 2.65652 l -2.58054,-3.36309 c 0.58799,-0.13792 1.03228,-0.40086 1.33371,-0.78933 0.30142,-0.38846 0.45222,-0.89503 0.45222,-1.51885 0,-0.34784 -0.0581,-0.67487 -0.17012,-0.97927 -0.11198,-0.3044 -0.27831,-0.57279 -0.50045,-0.80633 -0.22017,-0.23057 -0.50243,-0.4149 -0.84267,-0.54918 -0.34173,-0.13411 -0.7406,-0.20034 -1.19712,-0.20034 h -3.32031 v 8.20622 h 2.13426 z m 0,-3.40653 h 0.40218 c 0.41968,0 0.7434,0.0869 0.96885,0.26097 0.22347,0.17391 0.33595,0.4243 0.33595,0.75133 0,0.3262 -0.11248,0.57758 -0.33595,0.7515 -0.22545,0.17392 -0.54917,0.26096 -0.96885,0.26096 h -0.40218 z m -11.29844,5.5408 c 0.39837,0.39127 0.8757,0.69749 1.42966,0.92063 0.55578,0.22115 1.16772,0.33181 1.83466,0.33181 0.66066,0 1.27028,-0.11049 1.82936,-0.33181 0.5581,-0.22314 1.03889,-0.52936 1.4419,-0.92063 0.403,-0.39227 0.71599,-0.8506 0.94144,-1.37632 0.22594,-0.52738 0.33825,-1.09455 0.33825,-1.70517 0,-0.6088 -0.11247,-1.17762 -0.33825,-1.70318 -0.22545,-0.52556 -0.53828,-0.98488 -0.94144,-1.37616 -0.40317,-0.39226 -0.8838,-0.69848 -1.4419,-0.92062 -0.55908,-0.22116 -1.1687,-0.33083 -1.82936,-0.33083 -0.66694,0 -1.27888,0.10967 -1.83466,0.33083 -0.55396,0.22214 -1.03129,0.52836 -1.42966,0.92062 -0.39888,0.39128 -0.7122,0.8506 -0.93814,1.37616 -0.22364,0.52556 -0.33644,1.09455 -0.33644,1.70318 0,0.61062 0.11297,1.17779 0.33644,1.70517 0.22594,0.52555 0.53926,0.98405 0.93814,1.37632 z m 1.14327,-3.98494 c 0.12288,-0.27417 0.2892,-0.51416 0.49995,-0.71748 0.21075,-0.20315 0.45553,-0.36204 0.73433,-0.47253 0.27929,-0.11248 0.5756,-0.16913 0.8866,-0.16913 0.31382,0 0.6083,0.0566 0.8876,0.16913 0.27979,0.11049 0.52737,0.26938 0.74159,0.47253 0.21273,0.20316 0.38137,0.44331 0.50425,0.71748 0.12437,0.27599 0.18614,0.57659 0.18614,0.90362 0,0.32702 -0.0619,0.62961 -0.18614,0.90461 -0.12288,0.27516 -0.29152,0.51515 -0.50425,0.71747 -0.21405,0.20415 -0.4618,0.36204 -0.74159,0.47452 -0.2793,0.11248 -0.57378,0.16913 -0.8876,0.16913 -0.311,0 -0.60731,-0.0568 -0.8866,-0.16913 -0.2788,-0.11248 -0.52358,-0.27037 -0.73433,-0.47452 -0.21075,-0.20232 -0.37707,-0.44231 -0.49995,-0.71747 -0.12388,-0.275 -0.18581,-0.57759 -0.18581,-0.90461 0,-0.32703 0.0619,-0.62763 0.18581,-0.90362 z m -8.01249,-3.19875 v 8.20622 h 2.13327 v -3.22105 h 2.34072 v -1.80723 h -2.34072 v -1.37054 h 2.56915 v -1.8074 z m 97.69363,27.53648 c 1.62588,-0.38087 2.85356,-1.10677 3.68714,-2.18051 0.83078,-1.07374 1.24684,-2.4717 1.24684,-4.19767 0,-0.96308 -0.1541,-1.86488 -0.46494,-2.70805 -0.31084,-0.84316 -0.77133,-1.58409 -1.38376,-2.22675 -0.61259,-0.64084 -1.39151,-1.14757 -2.33081,-1.51902 -0.9454,-0.37146 -2.04738,-0.55678 -3.31007,-0.55678 h -9.17789 v 22.68658 h 5.89804 v -8.726 l 5.62586,8.726 h 7.34142 z m -2.0454,-3.97074 c -0.62202,0.48113 -1.51523,0.72211 -2.67782,0.72211 h -1.11239 v -5.59646 h 1.11239 c 1.16259,0 2.0558,0.24098 2.67782,0.7231 0.62201,0.47997 0.93202,1.17201 0.93202,2.07546 0,0.90197 -0.31001,1.59467 -0.93202,2.07579 z m -16.72049,-6.58992 c -1.11337,-1.08315 -2.44246,-1.93094 -3.98493,-2.54255 -1.54628,-0.61061 -3.2308,-0.91683 -5.05587,-0.91683 -1.84605,0 -3.53684,0.30622 -5.07189,0.91683 -1.53405,0.61161 -2.85174,1.4594 -3.9557,2.54255 -1.10198,1.08316 -1.96596,2.35361 -2.5878,3.80722 -0.62119,1.45478 -0.9322,3.02285 -0.9322,4.70803 0,1.68535 0.31101,3.25425 0.9322,4.71001 0.62184,1.45379 1.48582,2.72209 2.5878,3.80541 1.10413,1.08315 2.42165,1.93193 3.9557,2.54255 1.53505,0.61061 3.22584,0.91699 5.07189,0.91699 1.82524,0 3.50959,-0.30621 5.05587,-0.91699 1.54247,-0.61045 2.87156,-1.4594 3.98493,-2.54255 1.11338,-1.08332 1.98017,-2.35162 2.60317,-3.80541 0.62201,-1.4556 0.93368,-3.0245 0.93368,-4.71001 0,-1.68518 -0.31183,-3.25325 -0.93368,-4.70803 -0.623,-1.45361 -1.48979,-2.72406 -2.60317,-3.80722 z m -3.14276,11.01238 c -0.34304,0.7629 -0.80815,1.42455 -1.39993,1.98578 -0.59361,0.5614 -1.27508,1.00008 -2.04739,1.30927 -0.77116,0.311 -1.5879,0.46593 -2.45088,0.46593 -0.86299,0 -1.67957,-0.15493 -2.45089,-0.46593 -0.77495,-0.30919 -1.4518,-0.74771 -2.03219,-1.30927 -0.58221,-0.56123 -1.04351,-1.22288 -1.38474,-1.98578 -0.34041,-0.76075 -0.51152,-1.5945 -0.51152,-2.49713 0,-0.90262 0.17111,-1.73439 0.51152,-2.49812 0.34106,-0.76009 0.80237,-1.42339 1.38474,-1.98495 0.58039,-0.5614 1.25707,-0.99826 2.03219,-1.31009 0.77132,-0.31018 1.5879,-0.46593 2.45089,-0.46593 0.86298,0 1.67972,0.15575 2.45088,0.46593 0.77231,0.31183 1.45378,0.74853 2.04739,1.31009 0.59178,0.56139 1.05672,1.22486 1.39993,1.98495 0.33942,0.76373 0.51053,1.5955 0.51053,2.49812 0,0.90263 -0.17128,1.73638 -0.51053,2.49713 z M 84.33795,44.931391 v 4.99442 h 4.84313 v 17.69215 h 5.89706 v -17.69215 h 4.84511 v -4.99442 z m -13.8296,0 -8.63532,22.68657 h 6.2875 l 1.35501,-3.9415 h 8.42408 l 1.35551,3.9415 h 6.28701 l -8.63483,-22.68657 z m 0.5723,14.26101 2.64759,-7.55217 2.64694,7.55217 z m -17.8256,3.43312 v -3.91326 h 6.61981 v -4.99426 h -6.61981 v -3.79219 h 7.01158 v -4.99442 H 47.35799 v 22.68657 h 12.90864 v -4.99244 z m -12.04466,-6.48603 c 0.83177,-1.07374 1.24864,-2.4717 1.24864,-4.19767 0,-0.96308 -0.15591,-1.86488 -0.4656,-2.70805 -0.31232,-0.843 -0.77264,-1.58409 -1.38424,-2.22675 -0.61161,-0.64084 -1.39036,-1.14757 -2.3318,-1.51902 -0.94425,-0.37146 -2.04722,-0.55678 -3.31008,-0.55678 h -9.17739 v 22.68658 h 5.89755 v -8.726 l 5.62667,8.726 h 7.34142 l -7.131,-9.29797 c 1.6244,-0.3807 2.85373,-1.1066 3.68583,-2.18034 z m -5.73156,-1.79023 c -0.62102,0.48113 -1.51473,0.72211 -2.67865,0.72211 h -1.11255 v -5.59646 h 1.11255 c 1.16392,0 2.05763,0.24098 2.67865,0.7231 0.62102,0.47997 0.93285,1.17201 0.93285,2.07546 0,0.90197 -0.31183,1.59467 -0.93285,2.07579 z m -19.30531,-10.0493 c -1.58361,0 -3.10032,0.2968 -4.54303,0.88661 -1.4452,0.59162 -2.71367,1.41497 -3.80623,2.4669 -1.09405,1.05491 -1.96646,2.30835 -2.6182,3.7618 -0.65223,1.4556 -0.97777,3.0549 -0.97777,4.79788 0,1.74679 0.33132,3.35632 0.99247,4.82992 0.66264,1.4746 1.53967,2.74951 2.63372,3.82242 1.09174,1.07373 2.35542,1.90551 3.79071,2.49729 1.43379,0.59162 2.93283,0.88661 4.4986,0.88661 0.76174,0 1.53355,-0.0747 2.31611,-0.22496 0.78205,-0.1503 1.62472,-0.38566 2.52801,-0.7069 l 0.6017,-0.20993 v -6.98136 c -1.50482,1.60491 -3.19908,2.40646 -5.08477,2.40646 -0.8625,0 -1.66503,-0.15889 -2.40745,-0.48014 -0.74242,-0.32141 -1.38904,-0.76372 -1.94102,-1.32512 -0.55148,-0.56139 -0.98207,-1.22304 -1.29308,-1.98578 -0.31232,-0.76174 -0.46642,-1.5945 -0.46642,-2.49812 0,-0.88099 0.1541,-1.70318 0.46642,-2.46707 0.31101,-0.76009 0.73681,-1.41777 1.2769,-1.97075 0.54355,-0.55115 1.19001,-0.98686 1.94184,-1.30728 0.75282,-0.32124 1.56907,-0.48294 2.45188,-0.48294 2.00576,0 3.6916,0.8326 5.05537,2.49812 v -7.04165 c -0.96275,-0.40069 -1.8814,-0.69567 -2.75281,-0.8866 -0.87323,-0.19093 -1.76066,-0.28541 -2.66295,-0.28541 z m 31.08429,-17.90747 h 76.0586 c 5.18261,0 9.26562,3.87406 9.26562,8.57422 0,1.21477 -0.27611,2.36079 -0.77148,3.41211 l -0.95117,2.02148 h 5.41796 c 6.33662,0 10.81727,1.22558 13.68555,3.8086 2.86828,2.58301 4.38672,6.68533 4.38672,13.13281 v 10.125 c 0,0 -0.0153,1.14566 -0.63086,2.27344 -0.61561,1.12777 -1.60866,2.21679 -4.40625,2.21679 h -20.06836 l 1.16211,2.10352 c 0.65244,1.18041 1.02344,2.52554 1.02344,3.9707 0,4.56062 -3.66581,8.22852 -8.22461,8.22852 h -18.94336 c -4.55801,0 -8.22656,-3.6684 -8.22656,-8.22852 0,-1.44571 0.37189,-2.79141 1.02539,-3.9707 l 1.16601,-2.10352 H 14.13672 c -4.36618,0 -7.81828,-1.72702 -10.26758,-4.54882 C 1.41984,64.586311 0,60.626091 0,56.179601 c 0,-4.44745 1.41986,-8.40867 3.86914,-11.23047 2.44928,-2.82179 5.90136,-4.54883 10.26758,-4.54883 h 25.57812 l -0.95117,-2.02148 c -0.49538,-1.05237 -0.77148,-2.198 -0.77148,-3.41211 0,-4.70008 4.083,-8.57422 9.26562,-8.57422 z M 116.11133,0.00959129 c -3.55976,-0.066 -7.14253,0.20826 -10.70117,0.83398 -0.58782,0.10323 -1.17767,0.21879001 -1.76368,0.33985001 -2.35359,0.49153 -4.3353,2.00478 -5.42968,4.14648 -1.09455,2.14285 -1.16287,4.63156 -0.1836,6.8300797 1.21644,2.73067 2.09354,5.60446 2.61133,8.54688 0.16576,0.9435 0.28774,1.89492 0.37891,2.8496 h 22.29297 c 2.10191,0 4.08837,0.514 5.82226,1.41602 0.26048,-4.40749 1.31273,-8.7439 3.11914,-12.77148 0.9829,-2.1957 0.92262,-4.6854397 -0.16797,-6.8281297 -1.08893,-2.14367 -3.06635,-3.66109 -5.41797,-4.15625 C 123.2082,0.48263129 119.67108,0.07563129 116.11133,0.00959129 Z M 157.18555,62.357251 v 5.10742 c 0,0 0.0184,1.80841 -0.97852,3.63476 -0.99693,1.82636 -3.23268,3.69141 -6.89453,3.69141 h -15.58398 c 0.31931,1.0323 0.53515,2.1063 0.53515,3.24023 0,1.62776 -0.36409,3.17029 -1,4.56446 4.38524,2.56135 8.20164,6.01713 11.16602,10.12304 1.40919,1.94994 3.59718,3.14088 6,3.26954 2.40067,0.12668 4.70283,-0.82601 6.31054,-2.61524 5.2468,-5.84138 9.13609,-12.64788 11.52735,-19.93164 0.75051,-2.28457 0.4295,-4.75347 -0.87695,-6.77344 -1.30612,-2.01814 -3.43002,-3.32253 -5.82227,-3.57226 -1.47577,-0.15479 -2.93936,-0.40584 -4.38281,-0.73828 z m -94.78321,12.43359 c 1.11031,3.10163 2.49346,6.15648 4.19727,9.11328 1.96596,3.41611 4.24876,6.54787 6.77148,9.375 1.60111,1.79484 3.90482,2.7568 6.30664,2.63672 2.40035,-0.1209 4.59857,-1.31085 6.01172,-3.25781 2.5095,-3.45801 5.62394,-6.45118 9.16992,-8.83789 -1.04368,-1.6874 -1.6582,-3.66653 -1.6582,-5.78907 0,-1.13345 0.21567,-2.20766 0.53516,-3.24023 z" /></svg>
