<?xml version="1.0" encoding="utf-8"?>
<!-- Generator: Adobe Illustrator 15.1.0, SVG Export Plug-In . SVG Version: 6.00 Build 0)  -->
<!DOCTYPE svg PUBLIC "-//W3C//DTD SVG 1.1//EN" "http://www.w3.org/Graphics/SVG/1.1/DTD/svg11.dtd">
<svg version="1.1" id="Layer_1" xmlns="http://www.w3.org/2000/svg" xmlns:xlink="http://www.w3.org/1999/xlink" x="0px" y="0px"
	 width="1029.771px" height="581.236px" viewBox="0 0 1029.771 581.236" enable-background="new 0 0 1029.771 581.236"
	 xml:space="preserve">
<g>
	<path fill="#3DA1C6" d="M636.109,7.16c-14.25,2.976-26.251,12.138-32.877,25.105c-6.627,12.974-7.039,28.047-1.11,41.358
		c7.365,16.533,12.682,33.93,15.817,51.745c4.314,24.556,4.492,49.868,0.223,74.813c-4.263,24.951-12.91,49.536-26.422,72.873l0,0
		c-16.979,29.301-39.47,53.01-65.52,70.894c-26.047,17.872-55.659,29.85-86.522,35.275c-5.222,0.921-10.467,1.647-15.738,2.186
		c-14.484,1.482-27.403,9.374-35.326,21.575c-7.943,12.206-9.892,27.217-5.356,41.055c7.142,21.81,16.604,43.264,28.528,63.957
		c11.903,20.683,25.721,39.642,40.995,56.759c9.694,10.867,23.652,16.699,38.194,15.972c14.533-0.732,27.838-7.938,36.394-19.726
		c16.401-22.6,37.026-41.977,60.649-56.931c23.629-14.947,50.229-25.466,78.762-30.502c12.476-2.186,25.341-3.325,38.515-3.313
		c36.723,0.046,71.002,9.02,101.298,24.871c30.285,15.857,56.507,38.657,76.422,66.241c8.532,11.806,21.78,19.022,36.328,19.801
		c14.535,0.767,28.477-5.008,38.211-15.841c31.767-35.367,55.31-76.576,69.788-120.676c4.544-13.832,2.599-28.785-5.311-41.015
		c-7.908-12.219-20.768-20.115-35.252-21.627c-33.827-3.548-66.647-14.913-95.467-33.271
		c-28.837-18.376-53.696-43.619-72.026-75.432c-13.174-22.896-21.7-46.967-25.998-71.397c-7.669-43.516-1.809-88.256,16.035-128.041
		c5.951-13.294,5.579-28.368-1.024-41.341c-6.593-12.979-18.565-22.17-32.803-25.168c-41.942-8.888-85.636-9.832-128.728-2.255
		C643.229,5.729,639.657,6.427,636.109,7.16z"/>
	<path fill="#182E33" d="M833.67,236.023h-19.274c3.508-7.445,5.482-15.663,5.482-24.322c0-33.415-28.957-60.495-64.673-60.495
		H294.699c-35.716,0-64.676,27.08-64.676,60.495c0,8.659,1.98,16.876,5.485,24.322H94.168C36.66,236.023,0,282.635,0,340.137
		c0,57.491,36.66,104.108,94.168,104.108h494.557c-4.636,8.366-7.279,17.97-7.279,28.201c0,32.248,26.147,58.396,58.384,58.396
		H754.53c32.241,0,58.377-26.147,58.377-58.396c0-10.231-2.649-19.835-7.273-28.201h106.964c39.109,0,39.081-35.772,39.081-35.772
		v-61.297C951.679,266.337,912.598,236.023,833.67,236.023z"/>
	<g>
		<path fill="#3DA1C6" d="M106.5,268.214c-9.588,0-18.771,1.797-27.506,5.368c-8.75,3.582-16.43,8.567-23.045,14.936
			c-6.624,6.387-11.906,13.976-15.852,22.776c-3.949,8.813-5.92,18.496-5.92,29.049c0,10.576,2.006,20.321,6.009,29.243
			c4.012,8.928,9.322,16.647,15.946,23.143c6.61,6.501,14.261,11.537,22.951,15.12c8.681,3.582,17.757,5.368,27.237,5.368
			c4.612,0,9.285-0.452,14.023-1.362c4.735-0.91,9.837-2.335,15.306-4.28l3.643-1.271v-42.269
			c-9.111,9.717-19.369,14.57-30.786,14.57c-5.222,0-10.081-0.962-14.576-2.907c-4.495-1.946-8.41-4.624-11.752-8.023
			c-3.339-3.399-5.946-7.405-7.829-12.023c-1.891-4.612-2.824-9.654-2.824-15.125c0-5.334,0.933-10.312,2.824-14.937
			c1.883-4.602,4.461-8.584,7.731-11.932c3.291-3.337,7.205-5.975,11.757-7.915c4.558-1.945,9.5-2.924,14.845-2.924
			c12.144,0,22.351,5.041,30.608,15.125V275.31c-5.829-2.426-11.391-4.212-16.667-5.368
			C117.336,268.786,111.963,268.214,106.5,268.214z"/>
		<path fill="#3DA1C6" d="M258.087,339.897c5.036-6.501,7.56-14.965,7.56-25.415c0-5.831-0.944-11.291-2.819-16.396
			c-1.891-5.104-4.678-9.591-8.381-13.482c-3.703-3.88-8.418-6.948-14.118-9.197c-5.717-2.249-12.395-3.371-20.041-3.371h-55.565
			v137.357h35.707v-52.832l34.067,52.832h44.449l-43.175-56.295C245.606,350.793,253.049,346.398,258.087,339.897z M223.385,329.058
			c-3.76,2.913-9.171,4.372-16.218,4.372h-6.736v-33.884h6.736c7.047,0,12.458,1.459,16.218,4.378
			c3.76,2.906,5.648,7.096,5.648,12.566C229.033,321.951,227.145,326.145,223.385,329.058z"/>
		<polygon fill="#3DA1C6" points="295.308,409.394 373.464,409.394 373.464,379.167 331.012,379.167 331.012,355.474 
			371.092,355.474 371.092,325.236 331.012,325.236 331.012,302.276 373.464,302.276 373.464,272.037 295.308,272.037 		"/>
		<path fill="#3DA1C6" d="M435.473,272.037l-52.283,137.357h38.068l8.204-23.864h51.004l8.207,23.864h38.065l-52.28-137.357H435.473
			z M438.938,358.381l16.03-45.725l16.026,45.725H438.938z"/>
		<polygon fill="#3DA1C6" points="519.205,302.276 548.528,302.276 548.528,409.394 584.232,409.394 584.232,302.276 
			613.567,302.276 613.567,272.037 519.205,272.037 		"/>
		<path fill="#3DA1C6" d="M755.497,289.159c-6.741-6.558-14.788-11.691-24.127-15.394c-9.362-3.697-19.561-5.551-30.611-5.551
			c-11.177,0-21.414,1.854-30.708,5.551c-9.288,3.703-17.266,8.836-23.95,15.394c-6.672,6.558-11.903,14.25-15.668,23.051
			c-3.761,8.808-5.644,18.302-5.644,28.505c0,10.204,1.883,19.703,5.644,28.517c3.765,8.802,8.996,16.481,15.668,23.04
			c6.685,6.558,14.662,11.697,23.95,15.394c9.294,3.697,19.531,5.552,30.708,5.552c11.051,0,21.249-1.854,30.611-5.552
			c9.339-3.696,17.386-8.836,24.127-15.394c6.741-6.559,11.989-14.238,15.761-23.04c3.766-8.813,5.653-18.312,5.653-28.517
			c0-10.203-1.888-19.697-5.653-28.505C767.486,303.409,762.238,295.717,755.497,289.159z M736.469,355.834
			c-2.077,4.619-4.893,8.625-8.476,12.023c-3.594,3.399-7.72,6.055-12.396,7.927c-4.669,1.883-9.614,2.821-14.839,2.821
			s-10.169-0.938-14.839-2.821c-4.692-1.872-8.79-4.527-12.304-7.927c-3.525-3.398-6.318-7.404-8.384-12.023
			c-2.061-4.606-3.097-9.654-3.097-15.119s1.036-10.501,3.097-15.125c2.065-4.602,4.858-8.618,8.384-12.018
			c3.514-3.399,7.611-6.044,12.304-7.932c4.67-1.878,9.614-2.821,14.839-2.821s10.17,0.943,14.839,2.821
			c4.676,1.888,8.802,4.532,12.396,7.932c3.583,3.399,6.398,7.416,8.476,12.018c2.055,4.624,3.091,9.66,3.091,15.125
			S738.523,351.228,736.469,355.834z"/>
		<path fill="#3DA1C6" d="M869.116,353.099c9.844-2.306,17.277-6.701,22.324-13.202c5.03-6.501,7.549-14.965,7.549-25.415
			c0-5.831-0.933-11.291-2.815-16.396s-4.67-9.591-8.378-13.482c-3.709-3.88-8.425-6.948-14.112-9.197
			c-5.724-2.249-12.396-3.371-20.041-3.371h-55.568v137.357h35.71v-52.832l34.062,52.832h44.449L869.116,353.099z M856.732,329.058
			c-3.766,2.913-9.174,4.372-16.213,4.372h-6.735v-33.884h6.735c7.039,0,12.447,1.459,16.213,4.378
			c3.766,2.906,5.643,7.096,5.643,12.566C862.375,321.951,860.498,326.145,856.732,329.058z"/>
	</g>
	<g>
		<polygon fill="#FFF0E4" points="304.713,205.619 290.541,205.619 290.541,197.321 306.096,197.321 306.096,186.378 
			277.625,186.378 277.625,236.063 290.541,236.063 290.541,216.561 304.713,216.561 		"/>
		<path fill="#FFF0E4" d="M319.215,229.872c2.412,2.369,5.302,4.223,8.656,5.574c3.365,1.339,7.07,2.009,11.108,2.009
			c4,0,7.691-0.669,11.076-2.009c3.379-1.351,6.29-3.205,8.73-5.574c2.44-2.375,4.335-5.15,5.7-8.333
			c1.368-3.193,2.048-6.627,2.048-10.324c0-3.686-0.681-7.13-2.048-10.312c-1.365-3.182-3.259-5.963-5.7-8.332
			c-2.441-2.375-5.351-4.229-8.73-5.574c-3.385-1.339-7.076-2.003-11.076-2.003c-4.038,0-7.743,0.664-11.108,2.003
			c-3.354,1.345-6.244,3.199-8.656,5.574c-2.415,2.369-4.312,5.15-5.68,8.332c-1.354,3.182-2.037,6.627-2.037,10.312
			c0,3.697,0.684,7.131,2.037,10.324C314.903,224.721,316.8,227.497,319.215,229.872z M326.137,205.745
			c0.744-1.66,1.751-3.113,3.027-4.344c1.276-1.23,2.758-2.192,4.446-2.861c1.691-0.681,3.485-1.024,5.368-1.024
			c1.9,0,3.683,0.343,5.374,1.024c1.694,0.669,3.193,1.631,4.49,2.861c1.288,1.23,2.309,2.684,3.053,4.344
			c0.753,1.671,1.127,3.491,1.127,5.471s-0.375,3.812-1.127,5.477c-0.744,1.666-1.765,3.119-3.053,4.344
			c-1.296,1.236-2.796,2.192-4.49,2.873c-1.691,0.681-3.474,1.024-5.374,1.024c-1.883,0-3.677-0.344-5.368-1.024
			c-1.688-0.681-3.17-1.637-4.446-2.873c-1.276-1.225-2.283-2.678-3.027-4.344c-0.75-1.665-1.125-3.497-1.125-5.477
			S325.387,207.416,326.137,205.745z"/>
		<path fill="#FFF0E4" d="M387.622,216.95l12.318,19.114h16.084L400.4,215.702c3.56-0.835,6.25-2.427,8.075-4.779
			c1.825-2.352,2.738-5.419,2.738-9.196c0-2.106-0.352-4.086-1.03-5.929c-0.678-1.843-1.685-3.468-3.03-4.882
			c-1.333-1.396-3.042-2.512-5.102-3.325c-2.069-0.812-4.484-1.213-7.248-1.213H374.7v49.685h12.922V216.95z M387.622,196.325h2.435
			c2.541,0,4.501,0.526,5.866,1.58c1.353,1.053,2.034,2.569,2.034,4.549c0,1.975-0.681,3.497-2.034,4.55
			c-1.365,1.053-3.325,1.58-5.866,1.58h-2.435V196.325z"/>
		<polygon fill="#FFF0E4" points="427.423,236.063 440.34,236.063 440.34,197.321 450.956,197.321 450.956,186.378 416.813,186.378 
			416.813,197.321 427.423,197.321 		"/>
		<path fill="#FFF0E4" d="M484.8,230.032c2.383,2.358,5.15,4.178,8.298,5.471c3.145,1.293,6.427,1.951,9.854,1.951
			c1.668,0,3.356-0.166,5.073-0.498c1.706-0.332,3.554-0.853,5.537-1.545l1.316-0.469v-15.291c-3.299,3.525-7.01,5.282-11.136,5.282
			c-1.886,0-3.646-0.361-5.276-1.059c-1.625-0.698-3.042-1.671-4.25-2.896c-1.208-1.23-2.154-2.678-2.83-4.349
			c-0.684-1.671-1.024-3.497-1.024-5.471c0-1.94,0.34-3.743,1.024-5.414c0.675-1.66,1.617-3.102,2.795-4.315
			c1.185-1.202,2.604-2.163,4.258-2.867c1.643-0.692,3.425-1.047,5.365-1.047c4.395,0,8.086,1.82,11.073,5.471v-15.428
			c-2.112-0.87-4.115-1.522-6.026-1.946c-1.917-0.406-3.854-0.618-5.84-0.618c-3.468,0-6.784,0.646-9.949,1.946
			c-3.165,1.293-5.94,3.09-8.335,5.396s-4.309,5.053-5.729,8.241c-1.428,3.188-2.149,6.69-2.149,10.513s0.73,7.348,2.175,10.576
			C480.479,224.898,482.399,227.686,484.8,230.032z"/>
		<path fill="#FFF0E4" d="M529.237,229.872c2.42,2.369,5.305,4.223,8.675,5.574c3.359,1.339,7.051,2.009,11.097,2.009
			c4.006,0,7.691-0.669,11.068-2.009c3.394-1.351,6.306-3.205,8.732-5.574c2.438-2.375,4.344-5.15,5.711-8.333
			c1.356-3.193,2.038-6.627,2.038-10.324c0-3.686-0.682-7.13-2.038-10.312c-1.367-3.182-3.273-5.963-5.711-8.332
			c-2.427-2.375-5.339-4.229-8.732-5.574c-3.377-1.339-7.062-2.003-11.068-2.003c-4.046,0-7.737,0.664-11.097,2.003
			c-3.37,1.345-6.255,3.199-8.675,5.574c-2.41,2.369-4.298,5.15-5.666,8.332c-1.356,3.182-2.037,6.627-2.037,10.312
			c0,3.697,0.681,7.131,2.037,10.324C524.939,224.721,526.827,227.497,529.237,229.872z M536.161,205.745
			c0.744-1.66,1.751-3.113,3.033-4.344c1.271-1.23,2.759-2.192,4.446-2.861c1.694-0.681,3.479-1.024,5.368-1.024
			s3.68,0.343,5.368,1.024c1.693,0.669,3.193,1.631,4.498,2.861c1.287,1.23,2.312,2.684,3.056,4.344
			c0.738,1.671,1.116,3.491,1.116,5.471s-0.378,3.812-1.116,5.477c-0.744,1.666-1.769,3.119-3.056,4.344
			c-1.305,1.236-2.805,2.192-4.498,2.873c-1.688,0.681-3.479,1.024-5.368,1.024s-3.674-0.344-5.368-1.024
			c-1.688-0.681-3.176-1.637-4.446-2.873c-1.282-1.225-2.289-2.678-3.033-4.344c-0.744-1.665-1.127-3.497-1.127-5.477
			S535.417,207.416,536.161,205.745z"/>
		<polygon fill="#FFF0E4" points="613.138,225.122 597.652,225.122 597.652,186.378 584.736,186.378 584.736,236.063 
			613.138,236.063 		"/>
		<polygon fill="#FFF0E4" points="648.195,225.122 632.722,225.122 632.722,186.378 619.794,186.378 619.794,236.063 
			648.195,236.063 		"/>
		<rect x="654.846" y="186.378" fill="#FFF0E4" width="12.933" height="49.685"/>
		<polygon fill="#FFF0E4" points="691.104,205.687 714.951,236.063 727.811,236.063 727.811,186.378 714.951,186.378 
			714.951,216.761 691.104,186.378 678.183,186.378 678.183,236.063 691.104,236.063 		"/>
		<path fill="#FFF0E4" d="M752.842,226.506c-1.843,0-3.708-0.412-5.591-1.247c-1.895-0.836-3.806-2.118-5.74-3.823l-5.534,10.416
			c5.362,3.726,11.177,5.603,17.46,5.603c3.045,0,5.746-0.406,8.149-1.225c2.393-0.807,4.4-1.952,6.066-3.428
			c1.637-1.465,2.896-3.239,3.748-5.305s1.282-4.366,1.282-6.919c0-3.783-0.979-6.844-2.931-9.19
			c-1.951-2.358-5.041-4.229-9.265-5.643c-1.042-0.344-2.111-0.675-3.188-0.984c-1.082-0.304-2.043-0.675-2.913-1.076
			c-0.835-0.423-1.545-0.927-2.065-1.488c-0.521-0.572-0.79-1.305-0.79-2.174c0-1.282,0.532-2.312,1.579-3.102
			c1.059-0.79,2.409-1.19,4.081-1.19c1.315,0,2.684,0.275,4.103,0.83c1.391,0.543,2.799,1.391,4.218,2.535l5.128-10.083
			c-2.461-1.316-5.024-2.323-7.709-2.999c-2.684-0.681-5.247-1.019-7.708-1.019c-2.645,0-5.03,0.395-7.153,1.185
			c-2.118,0.796-3.938,1.895-5.408,3.325s-2.615,3.142-3.423,5.139c-0.807,2.003-1.219,4.229-1.219,6.696
			c0,2.461,0.39,4.493,1.156,6.089c0.767,1.603,1.769,2.942,3.033,3.989c1.259,1.059,2.667,1.906,4.274,2.535
			c1.608,0.641,3.245,1.225,4.916,1.751c1.414,0.48,2.599,0.927,3.583,1.316c0.995,0.401,1.797,0.824,2.409,1.282
			c0.618,0.469,1.064,0.973,1.321,1.522c0.264,0.549,0.401,1.196,0.401,1.94c0,1.23-0.527,2.329-1.552,3.302
			C756.527,226.032,754.959,226.506,752.842,226.506z"/>
	</g>
	<g>
		<polygon fill="#3DA1C6" points="658.079,464.961 639.429,464.961 639.429,445.779 626.512,445.779 626.512,495.476 
			639.429,495.476 639.429,474.977 658.079,474.977 658.079,495.476 670.995,495.476 670.995,445.779 658.079,445.779 		"/>
		<path fill="#3DA1C6" d="M711.855,472.802c0,1.447-0.058,2.936-0.166,4.452c-0.108,1.511-0.446,2.884-1.024,4.12
			c-0.561,1.225-1.437,2.232-2.598,2.987c-1.168,0.772-2.822,1.162-4.979,1.162c-2.151,0-3.816-0.39-5.007-1.162
			c-1.185-0.755-2.061-1.763-2.604-2.987c-0.549-1.236-0.881-2.609-0.984-4.12c-0.114-1.517-0.166-3.005-0.166-4.452v-27.023H681.41
			v28.809c0,7.726,1.774,13.368,5.34,16.934c3.56,3.554,9.002,5.34,16.338,5.34c7.337,0,12.773-1.786,16.315-5.34
			c3.531-3.565,5.3-9.208,5.3-16.934v-28.809h-12.848V472.802z"/>
		<path fill="#3DA1C6" d="M770.742,473.26c-0.812-1.048-1.865-1.946-3.17-2.667c-1.294-0.722-2.867-1.259-4.704-1.614
			c1.837-1.139,3.216-2.541,4.114-4.183c0.898-1.648,1.351-3.726,1.351-6.227c0-4.138-1.185-7.297-3.554-9.494
			c-2.381-2.197-5.843-3.297-10.415-3.297h-19.24v49.697h20.751c2.632,0,5.013-0.31,7.119-0.928
			c2.117-0.618,3.896-1.533,5.373-2.758c1.471-1.236,2.609-2.759,3.428-4.556c0.813-1.809,1.214-3.868,1.214-6.192
			c0-1.499-0.172-2.907-0.526-4.223C772.127,475.503,771.55,474.319,770.742,473.26z M748.034,455.668h2.381
			c4.029,0,6.055,1.603,6.055,4.812c0,3.205-2.025,4.808-6.055,4.808h-2.381V455.668z M757.86,484.202
			c-1.413,0.836-3.736,1.259-6.987,1.259h-2.839v-10.553h2.839c3.251,0,5.574,0.418,6.987,1.248
			c1.402,0.841,2.106,2.181,2.106,4.028C759.967,482.027,759.263,483.367,757.86,484.202z"/>
	</g>
</g>
</svg>
