<?xml version="1.0" encoding="UTF-8" standalone="no"?>
<!-- Generator: Adobe Illustrator 15.1.0, SVG Export Plug-In . SVG Version: 6.00 Build 0)  -->

<svg
   version="1.1"
   id="Layer_1"
   x="0px"
   y="0px"
   width="3.875in"
   height="3.875in"
   viewBox="0 0 372 371.99999"
   enable-background="new 0 0 1029.771 581.236"
   xml:space="preserve"
   sodipodi:docname="tile-baishneider-maculo-family.svg"
   inkscape:version="1.3 (0e150ed, 2023-07-21)"
   xmlns:inkscape="http://www.inkscape.org/namespaces/inkscape"
   xmlns:sodipodi="http://sodipodi.sourceforge.net/DTD/sodipodi-0.dtd"
   xmlns="http://www.w3.org/2000/svg"
   xmlns:svg="http://www.w3.org/2000/svg"><defs
   id="defs16"><inkscape:path-effect
   effect="powerstroke"
   id="path-effect8"
   is_visible="true"
   lpeversion="1.3"
   scale_width="1"
   interpolator_type="CentripetalCatmullRom"
   interpolator_beta="0.2"
   start_linecap_type="zerowidth"
   end_linecap_type="zerowidth"
   offset_points="0.22109696,0.46264379 | 0.995308,0.96930217 | 1.8100301,0.4177291"
   linejoin_type="round"
   miter_limit="4"
   not_jump="false"
   sort_points="true"
   message="&lt;b&gt;Ctrl + click&lt;/b&gt; on existing node and move it" />&#10;	&#10;	&#10;	&#10;	&#10;	&#10;&#10;		&#10;		&#10;		&#10;		&#10;		&#10;		&#10;		&#10;		&#10;		&#10;		&#10;		&#10;	&#10;		&#10;		&#10;		&#10;	&#10;		&#10;		&#10;		&#10;		&#10;		&#10;		&#10;		&#10;	&#10;	&#10;	&#10;	&#10;	&#10;	&#10;&#10;		&#10;		&#10;		&#10;		&#10;		&#10;		&#10;		&#10;	&#10;		&#10;		&#10;		&#10;		&#10;		&#10;		&#10;		&#10;		&#10;		&#10;		&#10;		&#10;	&#10;		&#10;		&#10;		&#10;	</defs><sodipodi:namedview
   id="namedview16"
   pagecolor="#ffffff"
   bordercolor="#000000"
   borderopacity="0.25"
   inkscape:showpageshadow="2"
   inkscape:pageopacity="0.0"
   inkscape:pagecheckerboard="0"
   inkscape:deskcolor="#d1d1d1"
   inkscape:zoom="1.7089081"
   inkscape:cx="128.73718"
   inkscape:cy="187.54666"
   inkscape:window-width="1920"
   inkscape:window-height="1031"
   inkscape:window-x="0"
   inkscape:window-y="25"
   inkscape:window-maximized="1"
   inkscape:current-layer="Layer_1"
   showgrid="false"
   inkscape:document-units="in" />&#10;&#10;<path
   id="path78"
   style="vector-effect:non-scaling-stroke;fill:none;stroke:#000000;stroke-width:1;stroke-dasharray:none;stroke-opacity:1;-inkscape-stroke:hairline"
   d="m -252.44973,102.16639 c -0.13412,-0.17309 -0.30804,-0.32141 -0.52358,-0.44049 -0.21372,-0.11925 -0.47353,-0.20795 -0.77693,-0.26658 0.3034,-0.18812 0.53117,-0.41968 0.67949,-0.69088 0.14831,-0.2722 0.22313,-0.61541 0.22313,-1.028489 0,-0.68345 -0.19572,-1.20521 -0.58699,-1.56807 -0.39326,-0.36287 -0.96506,-0.54455 -1.7202,-0.54455 h -3.17777 v 8.208199 h 3.42734 c 0.43471,0 0.82797,-0.0512 1.17581,-0.15327 0.34965,-0.10207 0.64348,-0.2532 0.88743,-0.45553 0.24296,-0.20414 0.43091,-0.45569 0.56618,-0.75249 0.13428,-0.29878 0.20051,-0.63886 0.20051,-1.0227 0,-0.24758 -0.0284,-0.48013 -0.0869,-0.69749 -0.0588,-0.21719 -0.1541,-0.41275 -0.28755,-0.58766 z m -3.75057,-2.905579 h 0.39326 c 0.66545,0 1.00007,0.26476 1.00007,0.794769 0,0.52936 -0.33446,0.79412 -1.00007,0.79412 h -0.39326 z m 1.62291,4.712819 c -0.23338,0.13808 -0.61706,0.20794 -1.15401,0.20794 h -0.4689 v -1.74299 h 0.4689 c 0.53695,0 0.92063,0.069 1.15401,0.20613 0.23156,0.1389 0.34784,0.36022 0.34784,0.66528 1.6e-4,0.3044 -0.11611,0.52573 -0.34784,0.66364 z m -7.59842,-1.88288 c 0,0.23899 -0.01,0.48492 -0.0274,0.73531 -0.0178,0.24957 -0.0737,0.47634 -0.16913,0.68048 -0.0927,0.20233 -0.23735,0.36865 -0.4291,0.49335 -0.19292,0.12751 -0.4661,0.19192 -0.82236,0.19192 -0.35527,0 -0.63027,-0.0644 -0.82698,-0.19192 -0.19572,-0.1247 -0.34041,-0.29119 -0.43009,-0.49335 -0.0907,-0.20414 -0.14551,-0.43091 -0.16252,-0.68048 -0.0188,-0.25055 -0.0274,-0.49632 -0.0274,-0.73531 v -4.463259 h -2.13344 v 4.758239 c 0,1.27607 0.29301,2.20793 0.88198,2.79691 0.58799,0.58699 1.48682,0.88198 2.69847,0.88198 1.21182,0 2.10965,-0.29499 2.69467,-0.88198 0.5832,-0.58882 0.87537,-1.52084 0.87537,-2.79691 v -4.758239 h -2.12204 z m -14.09568,-4.463259 v 8.208209 h 2.13344 v -3.38572 h 3.08033 v 3.38572 h 2.13327 v -8.208209 h -2.13327 v 3.168199 h -3.08033 v -3.168199 z m 20.8653,-36.21623 c -0.3044,0 -0.61243,-0.068 -0.92344,-0.20596 -0.31298,-0.13808 -0.62861,-0.34982 -0.94804,-0.63143 l -0.91403,1.72036 c 0.88562,0.61541 1.84605,0.92542 2.88378,0.92542 0.50293,0 0.94904,-0.067 1.34593,-0.20232 0.39524,-0.13329 0.72673,-0.32241 1.0019,-0.56619 0.27037,-0.24197 0.47831,-0.53497 0.61903,-0.8762 0.14072,-0.34123 0.21175,-0.72111 0.21175,-1.14278 0,-0.62482 -0.1617,-1.13039 -0.4841,-1.51786 -0.32224,-0.38946 -0.8326,-0.69849 -1.53026,-0.93203 -0.1721,-0.0568 -0.34866,-0.11149 -0.52654,-0.16252 -0.17871,-0.0502 -0.33744,-0.11149 -0.48113,-0.17772 -0.13791,-0.0699 -0.25518,-0.15311 -0.34106,-0.24577 -0.0861,-0.0945 -0.13049,-0.21554 -0.13049,-0.35907 0,-0.21174 0.0879,-0.38186 0.2608,-0.51234 0.17491,-0.13048 0.39788,-0.19654 0.67404,-0.19654 0.21719,0 0.4433,0.0454 0.67767,0.13708 0.22975,0.0897 0.4623,0.22975 0.69667,0.4187 l 0.84696,-1.66536 c -0.40647,-0.21736 -0.82979,-0.38368 -1.27325,-0.49533 -0.44331,-0.11248 -0.86662,-0.16831 -1.2731,-0.16831 -0.43686,0 -0.83078,0.0652 -1.18142,0.19573 -0.34982,0.13147 -0.65042,0.31298 -0.89321,0.54917 -0.2428,0.23619 -0.43191,0.51895 -0.56536,0.84878 -0.13329,0.33083 -0.20134,0.69849 -0.20134,1.10595 0,0.40647 0.0644,0.74208 0.19093,1.00569 0.12668,0.26476 0.29218,0.48591 0.50095,0.65884 0.20794,0.17491 0.44049,0.3148 0.70591,0.41869 0.26559,0.10587 0.53596,0.20233 0.81195,0.28921 0.23355,0.0793 0.42927,0.15311 0.59179,0.21735 0.16434,0.0662 0.2968,0.1361 0.39788,0.21175 0.10207,0.0775 0.17574,0.1607 0.21819,0.25138 0.0436,0.0907 0.0662,0.19753 0.0662,0.32042 0,0.20315 -0.087,0.38467 -0.25634,0.54537 -0.17062,0.15955 -0.42959,0.23784 -0.77925,0.23784 z m -6.25827,-1.60953 -3.93869,-5.01821 h -2.13409 v 8.20622 h 2.13409 v -5.01705 l 3.93869,5.01705 h 2.12403 v -8.20622 h -2.12403 z m -9.92725,-5.01818 h 2.13608 v 8.20622 h -2.13608 z m -5.78936,-3e-5 v 8.20622 h 4.69086 v -1.80707 h -2.5556 v -6.39915 z m -5.79035,0 v 8.20622 h 4.69102 v -1.80707 h -2.55775 v -6.39915 z m -9.1665,7.18369 c 0.3997,0.39127 0.87621,0.69749 1.43281,0.92063 0.55479,0.22115 1.16458,0.33181 1.83284,0.33181 0.66165,0 1.27028,-0.11049 1.82804,-0.33181 0.56057,-0.22314 1.04154,-0.52936 1.44223,-0.92063 0.40267,-0.39227 0.71747,-0.8506 0.94325,-1.37632 0.22397,-0.52738 0.33661,-1.09455 0.33661,-1.70517 0,-0.6088 -0.11264,-1.17762 -0.33661,-1.70318 -0.22578,-0.52556 -0.54058,-0.98488 -0.94325,-1.37616 -0.40086,-0.39226 -0.88182,-0.69848 -1.44223,-0.92062 -0.55776,-0.22116 -1.16639,-0.33083 -1.82804,-0.33083 -0.66826,0 -1.27788,0.10967 -1.83284,0.33083 -0.5566,0.22214 -1.03311,0.52836 -1.43281,0.92062 -0.39804,0.39128 -0.70987,0.8506 -0.93582,1.37616 -0.22396,0.52556 -0.33644,1.09455 -0.33644,1.70318 0,0.61062 0.11248,1.17779 0.33644,1.70517 0.22595,0.52555 0.53778,0.98405 0.93582,1.37632 z m 1.14361,-3.98494 c 0.12288,-0.27417 0.2892,-0.51416 0.50094,-0.71748 0.20993,-0.20315 0.45569,-0.36204 0.73433,-0.47253 0.27979,-0.11248 0.57461,-0.16913 0.8866,-0.16913 0.312,0 0.60781,0.0566 0.88661,0.16913 0.27962,0.11049 0.52737,0.26938 0.74291,0.47253 0.21257,0.20316 0.38186,0.44331 0.50475,0.71748 0.12189,0.27599 0.18432,0.57659 0.18432,0.90362 0,0.32702 -0.0624,0.62961 -0.18432,0.90461 -0.12289,0.27516 -0.29218,0.51515 -0.50475,0.71747 -0.21554,0.20415 -0.46329,0.36204 -0.74291,0.47452 -0.2788,0.11248 -0.57461,0.16913 -0.88661,0.16913 -0.31199,0 -0.60681,-0.0568 -0.8866,-0.16913 -0.2788,-0.11248 -0.52457,-0.27037 -0.73433,-0.47452 -0.21174,-0.20232 -0.37806,-0.44231 -0.50094,-0.71747 -0.12289,-0.275 -0.18614,-0.57759 -0.18614,-0.90461 0,-0.32703 0.0632,-0.62763 0.18614,-0.90362 z m -8.48304,4.01136 c 0.39358,0.38946 0.8506,0.69006 1.37054,0.90362 0.51944,0.21356 1.06151,0.32224 1.62753,0.32224 0.2755,0 0.5543,-0.0274 0.83788,-0.0823 0.28178,-0.0548 0.587,-0.14088 0.91452,-0.25518 l 0.21736,-0.0775 v -2.52554 c -0.54488,0.58221 -1.15781,0.87241 -1.83928,0.87241 -0.3115,0 -0.60219,-0.0596 -0.87141,-0.17491 -0.26839,-0.11529 -0.50243,-0.27599 -0.70195,-0.47832 -0.19952,-0.20315 -0.35577,-0.44231 -0.46742,-0.7183 -0.11297,-0.276 -0.16913,-0.57759 -0.16913,-0.90362 0,-0.32042 0.0562,-0.61822 0.16913,-0.89421 0.11149,-0.27417 0.26708,-0.51234 0.46164,-0.71268 0.19572,-0.19853 0.43009,-0.35726 0.70327,-0.47353 0.27137,-0.1143 0.56569,-0.17293 0.88611,-0.17293 0.7259,0 1.33553,0.3006 1.82888,0.90362 v -2.54817 c -0.34883,-0.14369 -0.67966,-0.25138 -0.99529,-0.32141 -0.31662,-0.0671 -0.63655,-0.10207 -0.96456,-0.10207 -0.5728,0 -1.12048,0.1067 -1.64323,0.32141 -0.52275,0.21356 -0.98108,0.51036 -1.37665,0.89123 -0.39557,0.38087 -0.7117,0.83458 -0.94623,1.36113 -0.23586,0.52654 -0.35494,1.10495 -0.35494,1.73638 0,0.63142 0.12057,1.21363 0.35923,1.74678 0.24032,0.53381 0.55744,0.9943 0.954,1.38177 z m -9.47668,-5.40271 v 6.39882 h 2.13344 v -6.39882 h 1.75339 v -1.8074 h -5.63923 v 1.8074 z m -6.57373,3.24202 2.0345,3.15697 h 2.65652 l -2.58054,-3.36309 c 0.58799,-0.13792 1.03228,-0.40086 1.33371,-0.78933 0.30142,-0.38846 0.45222,-0.89503 0.45222,-1.51885 0,-0.34784 -0.0581,-0.67487 -0.17012,-0.97927 -0.11198,-0.3044 -0.27831,-0.57279 -0.50045,-0.80633 -0.22017,-0.23057 -0.50243,-0.4149 -0.84267,-0.54918 -0.34173,-0.13411 -0.7406,-0.20034 -1.19712,-0.20034 h -3.32031 v 8.20622 h 2.13426 z m 0,-3.40653 h 0.40218 c 0.41968,0 0.7434,0.0869 0.96885,0.26097 0.22347,0.17391 0.33595,0.4243 0.33595,0.75133 0,0.3262 -0.11248,0.57758 -0.33595,0.7515 -0.22545,0.17392 -0.54917,0.26096 -0.96885,0.26096 h -0.40218 z m -11.29844,5.5408 c 0.39837,0.39127 0.8757,0.69749 1.42966,0.92063 0.55578,0.22115 1.16772,0.33181 1.83466,0.33181 0.66066,0 1.27028,-0.11049 1.82936,-0.33181 0.5581,-0.22314 1.03889,-0.52936 1.4419,-0.92063 0.403,-0.39227 0.71599,-0.8506 0.94144,-1.37632 0.22594,-0.52738 0.33825,-1.09455 0.33825,-1.70517 0,-0.6088 -0.11247,-1.17762 -0.33825,-1.70318 -0.22545,-0.52556 -0.53828,-0.98488 -0.94144,-1.37616 -0.40317,-0.39226 -0.8838,-0.69848 -1.4419,-0.92062 -0.55908,-0.22116 -1.1687,-0.33083 -1.82936,-0.33083 -0.66694,0 -1.27888,0.10967 -1.83466,0.33083 -0.55396,0.22214 -1.03129,0.52836 -1.42966,0.92062 -0.39888,0.39128 -0.7122,0.8506 -0.93814,1.37616 -0.22364,0.52556 -0.33644,1.09455 -0.33644,1.70318 0,0.61062 0.11297,1.17779 0.33644,1.70517 0.22594,0.52555 0.53926,0.98405 0.93814,1.37632 z m 1.14327,-3.98494 c 0.12288,-0.27417 0.2892,-0.51416 0.49995,-0.71748 0.21075,-0.20315 0.45553,-0.36204 0.73433,-0.47253 0.27929,-0.11248 0.5756,-0.16913 0.8866,-0.16913 0.31382,0 0.6083,0.0566 0.8876,0.16913 0.27979,0.11049 0.52737,0.26938 0.74159,0.47253 0.21273,0.20316 0.38137,0.44331 0.50425,0.71748 0.12437,0.27599 0.18614,0.57659 0.18614,0.90362 0,0.32702 -0.0619,0.62961 -0.18614,0.90461 -0.12288,0.27516 -0.29152,0.51515 -0.50425,0.71747 -0.21405,0.20415 -0.4618,0.36204 -0.74159,0.47452 -0.2793,0.11248 -0.57378,0.16913 -0.8876,0.16913 -0.311,0 -0.60731,-0.0568 -0.8866,-0.16913 -0.2788,-0.11248 -0.52358,-0.27037 -0.73433,-0.47452 -0.21075,-0.20232 -0.37707,-0.44231 -0.49995,-0.71747 -0.12388,-0.275 -0.18581,-0.57759 -0.18581,-0.90461 0,-0.32703 0.0619,-0.62763 0.18581,-0.90362 z m -8.01249,-3.19875 v 8.20622 h 2.13327 v -3.22105 h 2.34072 v -1.80723 h -2.34072 v -1.37054 h 2.56915 v -1.8074 z m 97.69363,27.53648 c 1.62588,-0.38087 2.85356,-1.10677 3.68714,-2.18051 0.83078,-1.07374 1.24684,-2.4717 1.24684,-4.19767 0,-0.96308 -0.1541,-1.86488 -0.46494,-2.70805 -0.31084,-0.84316 -0.77133,-1.58409 -1.38376,-2.22675 -0.61259,-0.64084 -1.39151,-1.14757 -2.33081,-1.51902 -0.9454,-0.37146 -2.04738,-0.55678 -3.31007,-0.55678 h -9.17789 v 22.68658 h 5.89804 v -8.726 l 5.62586,8.726 h 7.34142 z m -2.0454,-3.97074 c -0.62202,0.48113 -1.51523,0.72211 -2.67782,0.72211 h -1.11239 v -5.59646 h 1.11239 c 1.16259,0 2.0558,0.24098 2.67782,0.7231 0.62201,0.47997 0.93202,1.17201 0.93202,2.07546 0,0.90197 -0.31001,1.59467 -0.93202,2.07579 z m -16.72049,-6.58992 c -1.11337,-1.08315 -2.44246,-1.93094 -3.98493,-2.54255 -1.54628,-0.61061 -3.2308,-0.91683 -5.05587,-0.91683 -1.84605,0 -3.53684,0.30622 -5.07189,0.91683 -1.53405,0.61161 -2.85174,1.4594 -3.9557,2.54255 -1.10198,1.08316 -1.96596,2.35361 -2.5878,3.80722 -0.62119,1.45478 -0.9322,3.02285 -0.9322,4.70803 0,1.68535 0.31101,3.25425 0.9322,4.71001 0.62184,1.45379 1.48582,2.72209 2.5878,3.80541 1.10413,1.08315 2.42165,1.93193 3.9557,2.54255 1.53505,0.61061 3.22584,0.91699 5.07189,0.91699 1.82524,0 3.50959,-0.30621 5.05587,-0.91699 1.54247,-0.61045 2.87156,-1.4594 3.98493,-2.54255 1.11338,-1.08332 1.98017,-2.35162 2.60317,-3.80541 0.62201,-1.4556 0.93368,-3.0245 0.93368,-4.71001 0,-1.68518 -0.31183,-3.25325 -0.93368,-4.70803 -0.623,-1.45361 -1.48979,-2.72406 -2.60317,-3.80722 z m -3.14276,11.01238 c -0.34304,0.7629 -0.80815,1.42455 -1.39993,1.98578 -0.59361,0.5614 -1.27508,1.00008 -2.04739,1.30927 -0.77116,0.311 -1.5879,0.46593 -2.45088,0.46593 -0.86299,0 -1.67957,-0.15493 -2.45089,-0.46593 -0.77495,-0.30919 -1.4518,-0.74771 -2.03219,-1.30927 -0.58221,-0.56123 -1.04351,-1.22288 -1.38474,-1.98578 -0.34041,-0.76075 -0.51152,-1.5945 -0.51152,-2.49713 0,-0.90262 0.17111,-1.73439 0.51152,-2.49812 0.34106,-0.76009 0.80237,-1.42339 1.38474,-1.98495 0.58039,-0.5614 1.25707,-0.99826 2.03219,-1.31009 0.77132,-0.31018 1.5879,-0.46593 2.45089,-0.46593 0.86298,0 1.67972,0.15575 2.45088,0.46593 0.77231,0.31183 1.45378,0.74853 2.04739,1.31009 0.59178,0.56139 1.05672,1.22486 1.39993,1.98495 0.33942,0.76373 0.51053,1.5955 0.51053,2.49812 0,0.90263 -0.17128,1.73638 -0.51053,2.49713 z m -35.88441,-13.84033 v 4.99442 h 4.84313 v 17.69215 h 5.89706 v -17.69215 h 4.84511 v -4.99442 z m -13.8296,0 -8.63532,22.68657 h 6.2875 l 1.35501,-3.9415 h 8.42408 l 1.35551,3.9415 h 6.28701 l -8.63483,-22.68657 z m 0.5723,14.26101 2.64759,-7.55217 2.64694,7.55217 z m -17.8256,3.43312 v -3.91326 h 6.61981 v -4.99426 h -6.61981 v -3.79219 h 7.01158 v -4.99442 h -12.90864 v 22.68657 h 12.90864 v -4.99244 z m -12.04466,-6.48603 c 0.83177,-1.07374 1.24864,-2.4717 1.24864,-4.19767 0,-0.96308 -0.15591,-1.86488 -0.4656,-2.70805 -0.31232,-0.843 -0.77264,-1.58409 -1.38424,-2.22675 -0.61161,-0.64084 -1.39036,-1.14757 -2.3318,-1.51902 -0.94425,-0.37146 -2.04722,-0.55678 -3.31008,-0.55678 h -9.17739 v 22.68658 h 5.89755 v -8.726 l 5.62667,8.726 h 7.34142 l -7.131,-9.29797 c 1.6244,-0.3807 2.85373,-1.1066 3.68583,-2.18034 z m -5.73156,-1.79023 c -0.62102,0.48113 -1.51473,0.72211 -2.67865,0.72211 h -1.11255 v -5.59646 h 1.11255 c 1.16392,0 2.05763,0.24098 2.67865,0.7231 0.62102,0.47997 0.93285,1.17201 0.93285,2.07546 0,0.90197 -0.31183,1.59467 -0.93285,2.07579 z m -19.30531,-10.0493 c -1.58361,0 -3.10032,0.2968 -4.54303,0.88661 -1.4452,0.59162 -2.71367,1.41497 -3.80623,2.4669 -1.09405,1.05491 -1.96646,2.30835 -2.6182,3.7618 -0.65223,1.4556 -0.97777,3.0549 -0.97777,4.79788 0,1.74679 0.33132,3.35632 0.99247,4.82992 0.66264,1.4746 1.53967,2.74951 2.63372,3.82242 1.09174,1.07373 2.35542,1.90551 3.79071,2.49729 1.43379,0.59162 2.93283,0.88661 4.4986,0.88661 0.76174,0 1.53355,-0.0747 2.31611,-0.22496 0.78205,-0.1503 1.62472,-0.38566 2.52801,-0.7069 l 0.6017,-0.20993 v -6.98136 c -1.50482,1.60491 -3.19908,2.40646 -5.08477,2.40646 -0.8625,0 -1.66503,-0.15889 -2.40745,-0.48014 -0.74242,-0.32141 -1.38904,-0.76372 -1.94102,-1.32512 -0.55148,-0.56139 -0.98207,-1.22304 -1.29308,-1.98578 -0.31232,-0.76174 -0.46642,-1.5945 -0.46642,-2.49812 0,-0.88099 0.1541,-1.70318 0.46642,-2.46707 0.31101,-0.76009 0.73681,-1.41777 1.2769,-1.97075 0.54355,-0.55115 1.19001,-0.98686 1.94184,-1.30728 0.75282,-0.32124 1.56907,-0.48294 2.45188,-0.48294 2.00576,0 3.6916,0.8326 5.05537,2.49812 v -7.04165 c -0.96275,-0.40069 -1.8814,-0.69567 -2.75281,-0.8866 -0.87323,-0.19093 -1.76066,-0.28541 -2.66295,-0.28541 z m 31.08429,-17.90747 h 76.0586 c 5.18261,0 9.26562,3.87406 9.26562,8.57422 0,1.21477 -0.27611,2.36079 -0.77148,3.41211 l -0.95117,2.02148 h 5.41796 c 6.33662,0 10.81727,1.22558 13.68555,3.8086 2.86828,2.58301 4.38672,6.68533 4.38672,13.13281 v 10.125 c 0,0 -0.0153,1.14566 -0.63086,2.27344 -0.61561,1.12777 -1.60866,2.21679 -4.40625,2.21679 h -20.06836 l 1.16211,2.10352 c 0.65244,1.18041 1.02344,2.525539 1.02344,3.970699 0,4.56062 -3.66581,8.22852 -8.22461,8.22852 h -18.94336 c -4.55801,0 -8.22656,-3.6684 -8.22656,-8.22852 0,-1.44571 0.37189,-2.791409 1.02539,-3.970699 l 1.16601,-2.10352 h -84.08984 c -4.36618,0 -7.81828,-1.72702 -10.26758,-4.54882 -2.4493,-2.82181 -3.86914,-6.78203 -3.86914,-11.22852 0,-4.44745 1.41986,-8.40867 3.86914,-11.23047 2.44928,-2.82179 5.90136,-4.54883 10.26758,-4.54883 h 25.57812 l -0.95117,-2.02148 c -0.49538,-1.05237 -0.77148,-2.198 -0.77148,-3.41211 0,-4.70008 4.083,-8.57422 9.26562,-8.57422 z m 68.85352,-26.3829 c -3.55976,-0.066 -7.14253,0.20826 -10.70117,0.83398 -0.58782,0.10323 -1.17767,0.21879 -1.76368,0.33985 -2.35359,0.49153 -4.3353,2.00478 -5.42968,4.14648 -1.09455,2.14285 -1.16287,4.63156 -0.1836,6.83008 1.21644,2.73067 2.09354,5.60446 2.61133,8.54688 0.16576,0.9435 0.28774,1.89492 0.37891,2.8496 h 22.29297 c 2.10191,0 4.08837,0.514 5.82226,1.41602 0.26048,-4.40749 1.31273,-8.7439 3.11914,-12.77148 0.9829,-2.1957 0.92262,-4.68544 -0.16797,-6.82813 -1.08893,-2.14367 -3.06635,-3.66109 -5.41797,-4.15625 -3.46367,-0.73399 -7.00079,-1.14099 -10.56054,-1.20703 z m 41.07422,62.34766 v 5.10742 c 0,0 0.0184,1.80841 -0.97852,3.63476 -0.99693,1.82636 -3.23268,3.69141 -6.89453,3.69141 h -15.58398 c 0.31931,1.0323 0.53515,2.106299 0.53515,3.240229 0,1.62776 -0.36409,3.17029 -1,4.56446 4.38524,2.56135 8.20164,6.01713 11.16602,10.12304 1.40919,1.94994 3.59718,3.14088 6,3.26954 2.40067,0.12668 4.70283,-0.82601 6.31054,-2.61524 5.2468,-5.84138 9.13609,-12.64788 11.52735,-19.931639 0.75051,-2.28457 0.4295,-4.75347 -0.87695,-6.77344 -1.30612,-2.01814 -3.43002,-3.32253 -5.82227,-3.57226 -1.47577,-0.15479 -2.93936,-0.40584 -4.38281,-0.73828 z m -94.78321,12.43359 c 1.11031,3.101629 2.49346,6.156479 4.19727,9.113279 1.96596,3.41611 4.24876,6.54787 6.77148,9.375 1.60111,1.79484 3.90482,2.7568 6.30664,2.63672 2.40035,-0.1209 4.59857,-1.31085 6.01172,-3.25781 2.5095,-3.45801 5.62394,-6.45118 9.16992,-8.83789 -1.04368,-1.6874 -1.6582,-3.66653 -1.6582,-5.78907 0,-1.13345 0.21567,-2.207659 0.53516,-3.240229 z" /><rect
   style="vector-effect:non-scaling-stroke;fill:none;stroke:#f36926;stroke-width:1.0602;stroke-dasharray:none;stroke-opacity:1;-inkscape-stroke:hairline"
   id="rect82"
   width="372"
   height="372"
   x="-480"
   y="0" /><rect
   style="vector-effect:non-scaling-stroke;fill:none;stroke:#f36926;stroke-width:0.989439;stroke-dasharray:none;stroke-opacity:1;-inkscape-stroke:hairline"
   id="rect83"
   width="372"
   height="324"
   x="-480"
   y="0" /><text
   xml:space="preserve"
   style="vector-effect:non-scaling-stroke;fill:none;stroke:#000000;stroke-width:1;stroke-dasharray:none;stroke-opacity:1;-inkscape-stroke:hairline"
   x="-368.07355"
   y="174.96559"
   id="text83"><tspan
     sodipodi:role="line"
     x="-368.07355"
     y="174.96559"
     style="font-style:italic;font-variant:normal;font-weight:normal;font-stretch:normal;font-size:28.8px;font-family:'Nunito Sans 10pt';-inkscape-font-specification:'Nunito Sans 10pt';fill:#000000;fill-opacity:1;stroke:none"
     id="tspan86">FOUNDER</tspan></text><text
   xml:space="preserve"
   style="vector-effect:non-scaling-stroke;fill:none;stroke:#000000;stroke-width:1;stroke-dasharray:none;stroke-opacity:1;-inkscape-stroke:hairline"
   x="-293.82721"
   y="237.416"
   id="text84"><tspan
     sodipodi:role="line"
     x="-293.82721"
     y="237.416"
     style="font-style:normal;font-variant:normal;font-weight:normal;font-stretch:normal;font-size:28.8px;font-family:'Nunito Sans 10pt';-inkscape-font-specification:'Nunito Sans 10pt';text-align:center;text-anchor:middle;fill:#000000;fill-opacity:1;stroke:none"
     id="tspan85">The Baishneider-</tspan><tspan
     sodipodi:role="line"
     x="-293.82721"
     y="273.41599"
     style="font-style:normal;font-variant:normal;font-weight:normal;font-stretch:normal;font-size:28.8px;font-family:'Nunito Sans 10pt';-inkscape-font-specification:'Nunito Sans 10pt';text-align:center;text-anchor:middle;fill:#000000;fill-opacity:1;stroke:none"
     id="tspan2">Maculo Family</tspan><tspan
     sodipodi:role="line"
     x="-293.82721"
     y="295.08655"
     style="font-style:normal;font-variant:normal;font-weight:normal;font-stretch:normal;font-size:28.8px;font-family:'Nunito Sans 10pt';-inkscape-font-specification:'Nunito Sans 10pt';text-align:center;text-anchor:middle;fill:#000000;fill-opacity:1;stroke:none"
     id="tspan1" /></text><rect
   style="vector-effect:non-scaling-stroke;fill:#000000;stroke-width:0.72724;-inkscape-stroke:hairline"
   id="rect1"
   width="72"
   height="3.7795274"
   x="-456"
   y="162.92383" /><rect
   style="vector-effect:non-scaling-stroke;fill:#000000;stroke-width:0.72724;-inkscape-stroke:hairline"
   id="rect2"
   width="72"
   height="3.7795274"
   x="-204"
   y="162.92383" /><rect
   style="vector-effect:non-scaling-stroke;fill:none;stroke:#f36926;stroke-width:0.435625;stroke-dasharray:none;stroke-opacity:1;-inkscape-stroke:hairline"
   id="rect8"
   width="372"
   height="62.804813"
   x="-480"
   y="216.2952" /><path
   id="path1"
   style="vector-effect:non-scaling-stroke;fill:none;stroke:#000000;stroke-width:1;stroke-dasharray:none;stroke-opacity:1;-inkscape-stroke:hairline"
   d="m 227.55026,102.16639 c -0.13412,-0.17309 -0.30804,-0.32141 -0.52358,-0.44049 -0.21372,-0.11925 -0.47353,-0.20795 -0.77693,-0.26658 0.3034,-0.18812 0.53117,-0.41968 0.67949,-0.69088 0.14831,-0.2722 0.22313,-0.61541 0.22313,-1.028489 0,-0.68345 -0.19572,-1.20521 -0.58699,-1.56807 -0.39326,-0.36287 -0.96506,-0.54455 -1.7202,-0.54455 h -3.17777 v 8.208199 h 3.42734 c 0.43471,0 0.82797,-0.0512 1.17581,-0.15327 0.34965,-0.10207 0.64348,-0.2532 0.88743,-0.45553 0.24296,-0.20414 0.43091,-0.45569 0.56618,-0.75249 0.13428,-0.29878 0.20051,-0.63886 0.20051,-1.0227 0,-0.24758 -0.0284,-0.48013 -0.0869,-0.69749 -0.0588,-0.21719 -0.1541,-0.41275 -0.28755,-0.58766 z m -3.75057,-2.905579 h 0.39326 c 0.66545,0 1.00007,0.26476 1.00007,0.794769 0,0.52936 -0.33446,0.79412 -1.00007,0.79412 h -0.39326 z m 1.62291,4.712819 c -0.23338,0.13808 -0.61706,0.20794 -1.15401,0.20794 h -0.4689 v -1.74299 h 0.4689 c 0.53695,0 0.92063,0.069 1.15401,0.20613 0.23156,0.1389 0.34784,0.36022 0.34784,0.66528 1.6e-4,0.3044 -0.11611,0.52573 -0.34784,0.66364 z m -7.59842,-1.88288 c 0,0.23899 -0.01,0.48492 -0.0274,0.73531 -0.0178,0.24957 -0.0737,0.47634 -0.16913,0.68048 -0.0927,0.20233 -0.23735,0.36865 -0.4291,0.49335 -0.19292,0.12751 -0.4661,0.19192 -0.82236,0.19192 -0.35527,0 -0.63027,-0.0644 -0.82698,-0.19192 -0.19572,-0.1247 -0.34041,-0.29119 -0.43009,-0.49335 -0.0907,-0.20414 -0.14551,-0.43091 -0.16252,-0.68048 -0.0188,-0.25055 -0.0274,-0.49632 -0.0274,-0.73531 v -4.463259 h -2.13344 v 4.758239 c 0,1.27607 0.29301,2.20793 0.88198,2.79691 0.58799,0.58699 1.48682,0.88198 2.69847,0.88198 1.21182,0 2.10965,-0.29499 2.69467,-0.88198 0.5832,-0.58882 0.87537,-1.52084 0.87537,-2.79691 v -4.758239 h -2.12204 z M 203.7285,97.627491 v 8.208209 h 2.13344 v -3.38572 h 3.08033 v 3.38572 h 2.13327 v -8.208209 h -2.13327 v 3.168199 h -3.08033 v -3.168199 z m 20.8653,-36.21623 c -0.3044,0 -0.61243,-0.068 -0.92344,-0.20596 -0.31298,-0.13808 -0.62861,-0.34982 -0.94804,-0.63143 l -0.91403,1.72036 c 0.88562,0.61541 1.84605,0.92542 2.88378,0.92542 0.50293,0 0.94904,-0.067 1.34593,-0.20232 0.39524,-0.13329 0.72673,-0.32241 1.0019,-0.56619 0.27037,-0.24197 0.47831,-0.53497 0.61903,-0.8762 0.14072,-0.34123 0.21175,-0.72111 0.21175,-1.14278 0,-0.62482 -0.1617,-1.13039 -0.4841,-1.51786 -0.32224,-0.38946 -0.8326,-0.69849 -1.53026,-0.93203 -0.1721,-0.0568 -0.34866,-0.11149 -0.52654,-0.16252 -0.17871,-0.0502 -0.33744,-0.11149 -0.48113,-0.17772 -0.13791,-0.0699 -0.25518,-0.15311 -0.34106,-0.24577 -0.0861,-0.0945 -0.13049,-0.21554 -0.13049,-0.35907 0,-0.21174 0.0879,-0.38186 0.2608,-0.51234 0.17491,-0.13048 0.39788,-0.19654 0.67404,-0.19654 0.21719,0 0.4433,0.0454 0.67767,0.13708 0.22975,0.0897 0.4623,0.22975 0.69667,0.4187 l 0.84696,-1.66536 c -0.40647,-0.21736 -0.82979,-0.38368 -1.27325,-0.49533 -0.44331,-0.11248 -0.86662,-0.16831 -1.2731,-0.16831 -0.43686,0 -0.83078,0.0652 -1.18142,0.19573 -0.34982,0.13147 -0.65042,0.31298 -0.89321,0.54917 -0.2428,0.23619 -0.43191,0.51895 -0.56536,0.84878 -0.13329,0.33083 -0.20134,0.69849 -0.20134,1.10595 0,0.40647 0.0644,0.74208 0.19093,1.00569 0.12668,0.26476 0.29218,0.48591 0.50095,0.65884 0.20794,0.17491 0.44049,0.3148 0.70591,0.41869 0.26559,0.10587 0.53596,0.20233 0.81195,0.28921 0.23355,0.0793 0.42927,0.15311 0.59179,0.21735 0.16434,0.0662 0.2968,0.1361 0.39788,0.21175 0.10207,0.0775 0.17574,0.1607 0.21819,0.25138 0.0436,0.0907 0.0662,0.19753 0.0662,0.32042 0,0.20315 -0.087,0.38467 -0.25634,0.54537 -0.17062,0.15955 -0.42959,0.23784 -0.77925,0.23784 z m -6.25827,-1.60953 -3.93869,-5.01821 h -2.13409 v 8.20622 h 2.13409 v -5.01705 l 3.93869,5.01705 h 2.12403 v -8.20622 h -2.12403 z m -9.92725,-5.01818 h 2.13608 v 8.20622 h -2.13608 z m -5.78936,-3e-5 v 8.20622 h 4.69086 v -1.80707 h -2.5556 v -6.39915 z m -5.79035,0 v 8.20622 h 4.69102 v -1.80707 h -2.55775 v -6.39915 z m -9.1665,7.18369 c 0.3997,0.39127 0.87621,0.69749 1.43281,0.92063 0.55479,0.22115 1.16458,0.33181 1.83284,0.33181 0.66165,0 1.27028,-0.11049 1.82804,-0.33181 0.56057,-0.22314 1.04154,-0.52936 1.44223,-0.92063 0.40267,-0.39227 0.71747,-0.8506 0.94325,-1.37632 0.22397,-0.52738 0.33661,-1.09455 0.33661,-1.70517 0,-0.6088 -0.11264,-1.17762 -0.33661,-1.70318 -0.22578,-0.52556 -0.54058,-0.98488 -0.94325,-1.37616 -0.40086,-0.39226 -0.88182,-0.69848 -1.44223,-0.92062 -0.55776,-0.22116 -1.16639,-0.33083 -1.82804,-0.33083 -0.66826,0 -1.27788,0.10967 -1.83284,0.33083 -0.5566,0.22214 -1.03311,0.52836 -1.43281,0.92062 -0.39804,0.39128 -0.70987,0.8506 -0.93582,1.37616 -0.22396,0.52556 -0.33644,1.09455 -0.33644,1.70318 0,0.61062 0.11248,1.17779 0.33644,1.70517 0.22595,0.52555 0.53778,0.98405 0.93582,1.37632 z m 1.14361,-3.98494 c 0.12288,-0.27417 0.2892,-0.51416 0.50094,-0.71748 0.20993,-0.20315 0.45569,-0.36204 0.73433,-0.47253 0.27979,-0.11248 0.57461,-0.16913 0.8866,-0.16913 0.312,0 0.60781,0.0566 0.88661,0.16913 0.27962,0.11049 0.52737,0.26938 0.74291,0.47253 0.21257,0.20316 0.38186,0.44331 0.50475,0.71748 0.12189,0.27599 0.18432,0.57659 0.18432,0.90362 0,0.32702 -0.0624,0.62961 -0.18432,0.90461 -0.12289,0.27516 -0.29218,0.51515 -0.50475,0.71747 -0.21554,0.20415 -0.46329,0.36204 -0.74291,0.47452 -0.2788,0.11248 -0.57461,0.16913 -0.88661,0.16913 -0.31199,0 -0.60681,-0.0568 -0.8866,-0.16913 -0.2788,-0.11248 -0.52457,-0.27037 -0.73433,-0.47452 -0.21174,-0.20232 -0.37806,-0.44231 -0.50094,-0.71747 -0.12289,-0.275 -0.18614,-0.57759 -0.18614,-0.90461 0,-0.32703 0.0632,-0.62763 0.18614,-0.90362 z m -8.48304,4.01136 c 0.39358,0.38946 0.8506,0.69006 1.37054,0.90362 0.51944,0.21356 1.06151,0.32224 1.62753,0.32224 0.2755,0 0.5543,-0.0274 0.83788,-0.0823 0.28178,-0.0548 0.587,-0.14088 0.91452,-0.25518 l 0.21736,-0.0775 v -2.52554 c -0.54488,0.58221 -1.15781,0.87241 -1.83928,0.87241 -0.3115,0 -0.60219,-0.0596 -0.87141,-0.17491 -0.26839,-0.11529 -0.50243,-0.27599 -0.70195,-0.47832 -0.19952,-0.20315 -0.35577,-0.44231 -0.46742,-0.7183 -0.11297,-0.276 -0.16913,-0.57759 -0.16913,-0.90362 0,-0.32042 0.0562,-0.61822 0.16913,-0.89421 0.11149,-0.27417 0.26708,-0.51234 0.46164,-0.71268 0.19572,-0.19853 0.43009,-0.35726 0.70327,-0.47353 0.27137,-0.1143 0.56569,-0.17293 0.88611,-0.17293 0.7259,0 1.33553,0.3006 1.82888,0.90362 v -2.54817 c -0.34883,-0.14369 -0.67966,-0.25138 -0.99529,-0.32141 -0.31662,-0.0671 -0.63655,-0.10207 -0.96456,-0.10207 -0.5728,0 -1.12048,0.1067 -1.64323,0.32141 -0.52275,0.21356 -0.98108,0.51036 -1.37665,0.89123 -0.39557,0.38087 -0.7117,0.83458 -0.94623,1.36113 -0.23586,0.52654 -0.35494,1.10495 -0.35494,1.73638 0,0.63142 0.12057,1.21363 0.35923,1.74678 0.24032,0.53381 0.55744,0.9943 0.954,1.38177 z m -9.47668,-5.40271 v 6.39882 h 2.13344 v -6.39882 h 1.75339 v -1.8074 h -5.63923 v 1.8074 z m -6.57373,3.24202 2.0345,3.15697 h 2.65652 l -2.58054,-3.36309 c 0.58799,-0.13792 1.03228,-0.40086 1.33371,-0.78933 0.30142,-0.38846 0.45222,-0.89503 0.45222,-1.51885 0,-0.34784 -0.0581,-0.67487 -0.17012,-0.97927 -0.11198,-0.3044 -0.27831,-0.57279 -0.50045,-0.80633 -0.22017,-0.23057 -0.50243,-0.4149 -0.84267,-0.54918 -0.34173,-0.13411 -0.7406,-0.20034 -1.19712,-0.20034 h -3.32031 v 8.20622 h 2.13426 z m 0,-3.40653 h 0.40218 c 0.41968,0 0.7434,0.0869 0.96885,0.26097 0.22347,0.17391 0.33595,0.4243 0.33595,0.75133 0,0.3262 -0.11248,0.57758 -0.33595,0.7515 -0.22545,0.17392 -0.54917,0.26096 -0.96885,0.26096 h -0.40218 z m -11.29844,5.5408 c 0.39837,0.39127 0.8757,0.69749 1.42966,0.92063 0.55578,0.22115 1.16772,0.33181 1.83466,0.33181 0.66066,0 1.27028,-0.11049 1.82936,-0.33181 0.5581,-0.22314 1.03889,-0.52936 1.4419,-0.92063 0.403,-0.39227 0.71599,-0.8506 0.94144,-1.37632 0.22594,-0.52738 0.33825,-1.09455 0.33825,-1.70517 0,-0.6088 -0.11247,-1.17762 -0.33825,-1.70318 -0.22545,-0.52556 -0.53828,-0.98488 -0.94144,-1.37616 -0.40317,-0.39226 -0.8838,-0.69848 -1.4419,-0.92062 -0.55908,-0.22116 -1.1687,-0.33083 -1.82936,-0.33083 -0.66694,0 -1.27888,0.10967 -1.83466,0.33083 -0.55396,0.22214 -1.03129,0.52836 -1.42966,0.92062 -0.39888,0.39128 -0.7122,0.8506 -0.93814,1.37616 -0.22364,0.52556 -0.33644,1.09455 -0.33644,1.70318 0,0.61062 0.11297,1.17779 0.33644,1.70517 0.22594,0.52555 0.53926,0.98405 0.93814,1.37632 z m 1.14327,-3.98494 c 0.12288,-0.27417 0.2892,-0.51416 0.49995,-0.71748 0.21075,-0.20315 0.45553,-0.36204 0.73433,-0.47253 0.27929,-0.11248 0.5756,-0.16913 0.8866,-0.16913 0.31382,0 0.6083,0.0566 0.8876,0.16913 0.27979,0.11049 0.52737,0.26938 0.74159,0.47253 0.21273,0.20316 0.38137,0.44331 0.50425,0.71748 0.12437,0.27599 0.18614,0.57659 0.18614,0.90362 0,0.32702 -0.0619,0.62961 -0.18614,0.90461 -0.12288,0.27516 -0.29152,0.51515 -0.50425,0.71747 -0.21405,0.20415 -0.4618,0.36204 -0.74159,0.47452 -0.2793,0.11248 -0.57378,0.16913 -0.8876,0.16913 -0.311,0 -0.60731,-0.0568 -0.8866,-0.16913 -0.2788,-0.11248 -0.52358,-0.27037 -0.73433,-0.47452 -0.21075,-0.20232 -0.37707,-0.44231 -0.49995,-0.71747 -0.12388,-0.275 -0.18581,-0.57759 -0.18581,-0.90461 0,-0.32703 0.0619,-0.62763 0.18581,-0.90362 z m -8.01249,-3.19875 v 8.20622 h 2.13327 v -3.22105 h 2.34072 v -1.80723 h -2.34072 v -1.37054 h 2.56915 v -1.8074 z m 97.69363,27.53648 c 1.62588,-0.38087 2.85356,-1.10677 3.68714,-2.18051 0.83078,-1.07374 1.24684,-2.4717 1.24684,-4.19767 0,-0.96308 -0.1541,-1.86488 -0.46494,-2.70805 -0.31084,-0.84316 -0.77133,-1.58409 -1.38376,-2.22675 -0.61259,-0.64084 -1.39151,-1.14757 -2.33081,-1.51902 -0.9454,-0.37146 -2.04738,-0.55678 -3.31007,-0.55678 h -9.17789 v 22.68658 h 5.89804 v -8.726 l 5.62586,8.726 h 7.34142 z m -2.0454,-3.97074 c -0.62202,0.48113 -1.51523,0.72211 -2.67782,0.72211 h -1.11239 v -5.59646 h 1.11239 c 1.16259,0 2.0558,0.24098 2.67782,0.7231 0.62201,0.47997 0.93202,1.17201 0.93202,2.07546 0,0.90197 -0.31001,1.59467 -0.93202,2.07579 z m -16.72049,-6.58992 c -1.11337,-1.08315 -2.44246,-1.93094 -3.98493,-2.54255 -1.54628,-0.61061 -3.2308,-0.91683 -5.05587,-0.91683 -1.84605,0 -3.53684,0.30622 -5.07189,0.91683 -1.53405,0.61161 -2.85174,1.4594 -3.9557,2.54255 -1.10198,1.08316 -1.96596,2.35361 -2.5878,3.80722 -0.62119,1.45478 -0.9322,3.02285 -0.9322,4.70803 0,1.68535 0.31101,3.25425 0.9322,4.71001 0.62184,1.45379 1.48582,2.72209 2.5878,3.80541 1.10413,1.08315 2.42165,1.93193 3.9557,2.54255 1.53505,0.61061 3.22584,0.91699 5.07189,0.91699 1.82524,0 3.50959,-0.30621 5.05587,-0.91699 1.54247,-0.61045 2.87156,-1.4594 3.98493,-2.54255 1.11338,-1.08332 1.98017,-2.35162 2.60317,-3.80541 0.62201,-1.4556 0.93368,-3.0245 0.93368,-4.71001 0,-1.68518 -0.31183,-3.25325 -0.93368,-4.70803 -0.623,-1.45361 -1.48979,-2.72406 -2.60317,-3.80722 z m -3.14276,11.01238 c -0.34304,0.7629 -0.80815,1.42455 -1.39993,1.98578 -0.59361,0.5614 -1.27508,1.00008 -2.04739,1.30927 -0.77116,0.311 -1.5879,0.46593 -2.45088,0.46593 -0.86299,0 -1.67957,-0.15493 -2.45089,-0.46593 -0.77495,-0.30919 -1.4518,-0.74771 -2.03219,-1.30927 -0.58221,-0.56123 -1.04351,-1.22288 -1.38474,-1.98578 -0.34041,-0.76075 -0.51152,-1.5945 -0.51152,-2.49713 0,-0.90262 0.17111,-1.73439 0.51152,-2.49812 0.34106,-0.76009 0.80237,-1.42339 1.38474,-1.98495 0.58039,-0.5614 1.25707,-0.99826 2.03219,-1.31009 0.77132,-0.31018 1.5879,-0.46593 2.45089,-0.46593 0.86298,0 1.67972,0.15575 2.45088,0.46593 0.77231,0.31183 1.45378,0.74853 2.04739,1.31009 0.59178,0.56139 1.05672,1.22486 1.39993,1.98495 0.33942,0.76373 0.51053,1.5955 0.51053,2.49812 0,0.90263 -0.17128,1.73638 -0.51053,2.49713 z m -35.88441,-13.84033 v 4.99442 h 4.84313 v 17.69215 h 5.89706 v -17.69215 h 4.84511 v -4.99442 z m -13.8296,0 -8.63532,22.68657 h 6.2875 l 1.35501,-3.9415 h 8.42408 l 1.35551,3.9415 h 6.28701 l -8.63483,-22.68657 z m 0.5723,14.26101 2.64759,-7.55217 2.64694,7.55217 z m -17.8256,3.43312 v -3.91326 h 6.61981 v -4.99426 h -6.61981 v -3.79219 h 7.01158 v -4.99442 h -12.90864 v 22.68657 h 12.90864 v -4.99244 z m -12.04466,-6.48603 c 0.83177,-1.07374 1.24864,-2.4717 1.24864,-4.19767 0,-0.96308 -0.15591,-1.86488 -0.4656,-2.70805 -0.31232,-0.843 -0.77264,-1.58409 -1.38424,-2.22675 -0.61161,-0.64084 -1.39036,-1.14757 -2.3318,-1.51902 -0.94425,-0.37146 -2.04722,-0.55678 -3.31008,-0.55678 h -9.17739 v 22.68658 h 5.89755 v -8.726 l 5.62667,8.726 h 7.34142 l -7.131,-9.29797 c 1.6244,-0.3807 2.85373,-1.1066 3.68583,-2.18034 z m -5.73156,-1.79023 c -0.62102,0.48113 -1.51473,0.72211 -2.67865,0.72211 h -1.11255 v -5.59646 h 1.11255 c 1.16392,0 2.05763,0.24098 2.67865,0.7231 0.62102,0.47997 0.93285,1.17201 0.93285,2.07546 0,0.90197 -0.31183,1.59467 -0.93285,2.07579 z m -19.30531,-10.0493 c -1.58361,0 -3.10032,0.2968 -4.54303,0.88661 -1.4452,0.59162 -2.71367,1.41497 -3.80623,2.4669 -1.09405,1.05491 -1.96646,2.30835 -2.6182,3.7618 -0.65223,1.4556 -0.97777,3.0549 -0.97777,4.79788 0,1.74679 0.33132,3.35632 0.99247,4.82992 0.66264,1.4746 1.53967,2.74951 2.63372,3.82242 1.09174,1.07373 2.35542,1.90551 3.79071,2.49729 1.43379,0.59162 2.93283,0.88661 4.4986,0.88661 0.76174,0 1.53355,-0.0747 2.31611,-0.22496 0.78205,-0.1503 1.62472,-0.38566 2.52801,-0.7069 l 0.6017,-0.20993 v -6.98136 c -1.50482,1.60491 -3.19908,2.40646 -5.08477,2.40646 -0.8625,0 -1.66503,-0.15889 -2.40745,-0.48014 -0.74242,-0.32141 -1.38904,-0.76372 -1.94102,-1.32512 -0.55148,-0.56139 -0.98207,-1.22304 -1.29308,-1.98578 -0.31232,-0.76174 -0.46642,-1.5945 -0.46642,-2.49812 0,-0.88099 0.1541,-1.70318 0.46642,-2.46707 0.31101,-0.76009 0.73681,-1.41777 1.2769,-1.97075 0.54355,-0.55115 1.19001,-0.98686 1.94184,-1.30728 0.75282,-0.32124 1.56907,-0.48294 2.45188,-0.48294 2.00576,0 3.6916,0.8326 5.05537,2.49812 v -7.04165 c -0.96275,-0.40069 -1.8814,-0.69567 -2.75281,-0.8866 -0.87323,-0.19093 -1.76066,-0.28541 -2.66295,-0.28541 z M 148.925,50.392491 h 76.0586 c 5.18261,0 9.26562,3.87406 9.26562,8.57422 0,1.21477 -0.27611,2.36079 -0.77148,3.41211 l -0.95117,2.02148 h 5.41796 c 6.33662,0 10.81727,1.22558 13.68555,3.8086 2.86828,2.58301 4.38672,6.68533 4.38672,13.13281 v 10.125 c 0,0 -0.0153,1.14566 -0.63086,2.27344 -0.61561,1.12777 -1.60866,2.21679 -4.40625,2.21679 h -20.06836 l 1.16211,2.10352 c 0.65244,1.18041 1.02344,2.525539 1.02344,3.970699 0,4.56062 -3.66581,8.22852 -8.22461,8.22852 h -18.94336 c -4.55801,0 -8.22656,-3.6684 -8.22656,-8.22852 0,-1.44571 0.37189,-2.791409 1.02539,-3.970699 l 1.16601,-2.10352 h -84.08984 c -4.36618,0 -7.81828,-1.72702 -10.26758,-4.54882 -2.4493,-2.82181 -3.86914,-6.78203 -3.86914,-11.22852 0,-4.44745 1.41986,-8.40867 3.86914,-11.23047 2.44928,-2.82179 5.90136,-4.54883 10.26758,-4.54883 h 25.57812 l -0.95117,-2.02148 c -0.49538,-1.05237 -0.77148,-2.198 -0.77148,-3.41211 0,-4.70008 4.083,-8.57422 9.26562,-8.57422 z m 68.85352,-26.3829 c -3.55976,-0.066 -7.14253,0.20826 -10.70117,0.83398 -0.58782,0.10323 -1.17767,0.21879 -1.76368,0.33985 -2.35359,0.49153 -4.3353,2.00478 -5.42968,4.14648 -1.09455,2.14285 -1.16287,4.63156 -0.1836,6.83008 1.21644,2.73067 2.09354,5.60446 2.61133,8.54688 0.16576,0.9435 0.28774,1.89492 0.37891,2.8496 h 22.29297 c 2.10191,0 4.08837,0.514 5.82226,1.41602 0.26048,-4.40749 1.31273,-8.7439 3.11914,-12.77148 0.9829,-2.1957 0.92262,-4.68544 -0.16797,-6.82813 -1.08893,-2.14367 -3.06635,-3.66109 -5.41797,-4.15625 -3.46367,-0.73399 -7.00079,-1.14099 -10.56054,-1.20703 z m 41.07422,62.34766 v 5.10742 c 0,0 0.0184,1.80841 -0.97852,3.63476 -0.99693,1.82636 -3.23268,3.69141 -6.89453,3.69141 h -15.58398 c 0.31931,1.0323 0.53515,2.106299 0.53515,3.240229 0,1.62776 -0.36409,3.17029 -1,4.56446 4.38524,2.56135 8.20164,6.01713 11.16602,10.12304 1.40919,1.94994 3.59718,3.14088 6,3.26954 2.40067,0.12668 4.70283,-0.82601 6.31054,-2.61524 5.2468,-5.84138 9.13609,-12.64788 11.52735,-19.931639 0.75051,-2.28457 0.4295,-4.75347 -0.87695,-6.77344 -1.30612,-2.01814 -3.43002,-3.32253 -5.82227,-3.57226 -1.47577,-0.15479 -2.93936,-0.40584 -4.38281,-0.73828 z m -94.78321,12.43359 c 1.11031,3.101629 2.49346,6.156479 4.19727,9.113279 1.96596,3.41611 4.24876,6.54787 6.77148,9.375 1.60111,1.79484 3.90482,2.7568 6.30664,2.63672 2.40035,-0.1209 4.59857,-1.31085 6.01172,-3.25781 2.5095,-3.45801 5.62394,-6.45118 9.16992,-8.83789 -1.04368,-1.6874 -1.6582,-3.66653 -1.6582,-5.78907 0,-1.13345 0.21567,-2.207659 0.53516,-3.240229 z" /><rect
   style="vector-effect:non-scaling-stroke;fill:none;stroke:#f36926;stroke-width:1.0602;stroke-dasharray:none;stroke-opacity:1;-inkscape-stroke:hairline"
   id="rect3"
   width="372"
   height="372"
   x="0"
   y="0" /><rect
   style="vector-effect:non-scaling-stroke;fill:none;stroke:#f36926;stroke-width:0.989439;stroke-dasharray:none;stroke-opacity:1;-inkscape-stroke:hairline"
   id="rect4"
   width="372"
   height="324"
   x="0"
   y="0" /><path
   style="font-style:italic;font-size:28.8px;font-family:'Nunito Sans 10pt';-inkscape-font-specification:'Nunito Sans 10pt';vector-effect:non-scaling-stroke;-inkscape-stroke:hairline;stroke-width:0.99999999;stroke-dasharray:none;stroke:#000000;stroke-opacity:1;fill:none"
   d="m 245.01102,163.90639 h 4.3776 q 1.728,0 2.6496,-0.7488 0.9216,-0.7776 1.008,-2.2752 0.0864,-1.3536 -0.72,-2.016 -0.7776,-0.6624 -2.5344,-0.6624 h -3.888 z"
   id="path52" /><path
   id="path51"
   style="font-style:italic;font-size:28.8px;font-family:'Nunito Sans 10pt';-inkscape-font-specification:'Nunito Sans 10pt';vector-effect:non-scaling-stroke;-inkscape-stroke:hairline;stroke-width:0.99999999;stroke-dasharray:none;stroke:#000000;stroke-opacity:1;fill:none"
   d="M 241.90039 154.66211 L 238.67578 174.96484 L 243.2539 174.96484 L 244.49218 167.24804 L 246.91211 167.24804 C 247.35371 167.24804 247.72795 167.30472 248.03515 167.41992 C 248.34235 167.51592 248.6013 167.6879 248.8125 167.9375 C 249.0237 168.1679 249.20577 168.47537 249.35937 168.85937 L 251.63476 174.96484 L 256.38672 174.96484 L 254.16992 169.20508 C 253.86272 168.37948 253.46828 167.74628 252.98828 167.30469 C 252.65992 166.97632 252.26173 166.7584 251.79687 166.64453 C 252.60331 166.508 253.34696 166.28768 254.02539 165.98047 C 255.06219 165.50047 255.88755 164.81874 256.50195 163.93554 C 257.11635 163.05235 257.44207 161.94784 257.48047 160.62304 C 257.55727 159.35585 257.33676 158.28163 256.81836 157.39844 C 256.31916 156.51524 255.54232 155.84166 254.48632 155.38086 C 253.43033 154.90086 252.12551 154.66211 250.57031 154.66211 L 241.90039 154.66211 z " /><path
   style="font-style:italic;font-size:28.8px;font-family:'Nunito Sans 10pt';-inkscape-font-specification:'Nunito Sans 10pt';vector-effect:non-scaling-stroke;-inkscape-stroke:hairline;stroke-width:0.99999999;stroke-dasharray:none;stroke:#000000;stroke-opacity:1;fill:none"
   d="m 220.55984,174.96559 3.1968,-20.304 h 14.1408 l -0.576,3.6 h -9.7632 l -0.72,4.608 h 9.1296 l -0.5472,3.6 h -9.1584 l -0.7776,4.896 h 9.7632 l -0.576,3.6 z"
   id="path50" /><path
   style="font-style:italic;font-size:28.8px;font-family:'Nunito Sans 10pt';-inkscape-font-specification:'Nunito Sans 10pt';vector-effect:non-scaling-stroke;-inkscape-stroke:hairline;stroke-width:0.99999999;stroke-dasharray:none;stroke:#000000;stroke-opacity:1;fill:none"
   d="m 202.93428,171.19279 h 3.6288 q 1.6704,0 2.9376,-0.5184 1.296,-0.5184 2.16,-1.4688 0.864,-0.9504 1.3248,-2.2752 0.4896,-1.3248 0.576,-2.9952 0.1728,-2.7072 -1.2384,-4.0896 -1.4112,-1.4112 -4.2624,-1.4112 h -3.1104 z"
   id="path49" /><path
   style="font-style:italic;font-size:28.8px;font-family:'Nunito Sans 10pt';-inkscape-font-specification:'Nunito Sans 10pt';vector-effect:non-scaling-stroke;-inkscape-stroke:hairline;stroke-width:0.99999999;stroke-dasharray:none;stroke:#000000;stroke-opacity:1;fill:none"
   d="m 197.75028,174.96559 3.2256,-20.304 h 7.3152 q 5.0688,0 7.632,2.448 2.592,2.448 2.3328,6.9408 -0.1152,2.448 -0.9504,4.464 -0.8064,1.9872 -2.3328,3.4272 -1.4976,1.44 -3.6288,2.2464 -2.1312,0.7776 -4.896,0.7776 z"
   id="path48" /><path
   id="path47"
   style="font-style:italic;font-size:28.8px;font-family:'Nunito Sans 10pt';-inkscape-font-specification:'Nunito Sans 10pt';vector-effect:non-scaling-stroke;-inkscape-stroke:hairline;stroke-width:0.99999999;stroke-dasharray:none;stroke:#000000;stroke-opacity:1;fill:none"
   d="M 178.48242 154.66211 L 175.25781 174.96484 L 179.49023 174.96484 L 181.61328 161.56836 L 189.80078 174.96484 L 193.22851 174.96484 L 196.45508 154.66211 L 192.2207 154.66211 L 190.09765 168.14453 L 181.85351 154.66211 L 178.48242 154.66211 z " /><path
   style="font-style:italic;font-size:28.8px;font-family:'Nunito Sans 10pt';-inkscape-font-specification:'Nunito Sans 10pt';vector-effect:non-scaling-stroke;-inkscape-stroke:hairline;stroke-width:0.99999999;stroke-dasharray:none;stroke:#000000;stroke-opacity:1;fill:none"
   d="m 162.38397,175.28239 q -2.0448,0 -3.6576,-0.576 -1.584,-0.576 -2.6496,-1.728 -1.0368,-1.152 -1.44,-2.8512 -0.3744,-1.6992 -0.0288,-3.9168 l 1.8432,-11.5488 h 4.5504 l -1.8432,11.6928 q -0.3744,2.448 0.5184,3.7152 0.9216,1.2672 3.0816,1.2672 2.1024,0 3.2832,-1.0944 1.2096,-1.1232 1.6128,-3.4272 l 1.9296,-12.1536 h 4.5216 l -1.9008,12.1536 q -0.432,2.736 -1.6416,4.6368 -1.2096,1.872 -3.2544,2.8512 -2.016,0.9792 -4.9248,0.9792 z"
   id="path46" /><path
   style="font-style:italic;font-size:28.8px;font-family:'Nunito Sans 10pt';-inkscape-font-specification:'Nunito Sans 10pt';vector-effect:non-scaling-stroke;-inkscape-stroke:hairline;stroke-width:0.99999999;stroke-dasharray:none;stroke:#000000;stroke-opacity:1;fill:none"
   d="m 140.20801,171.36559 q 1.872,0 3.2256,-0.9216 1.3536,-0.9504 2.1312,-2.6208 0.7776,-1.6992 0.864,-3.9456 0.1728,-2.8224 -1.0656,-4.2048 -1.2384,-1.4112 -3.5424,-1.4112 -1.8432,0 -3.1968,0.9216 -1.3536,0.9216 -2.1312,2.592 -0.7488,1.6704 -0.864,3.9456 -0.1728,2.8224 1.0656,4.2336 1.2384,1.4112 3.5136,1.4112 z"
   id="path45" /><path
   style="font-style:italic;font-size:28.8px;font-family:'Nunito Sans 10pt';-inkscape-font-specification:'Nunito Sans 10pt';vector-effect:non-scaling-stroke;-inkscape-stroke:hairline;stroke-width:0.99999999;stroke-dasharray:none;stroke:#000000;stroke-opacity:1;fill:none"
   d="m 140.09281,175.28239 q -2.9376,0 -5.0688,-1.152 -2.1312,-1.1808 -3.1968,-3.3408 -1.0656,-2.1888 -0.9216,-5.184 0.144,-2.5344 0.9792,-4.5792 0.864,-2.0736 2.304,-3.5712 1.4688,-1.4976 3.4272,-2.304 1.9584,-0.8064 4.3488,-0.8064 2.9664,0 5.0688,1.1808 2.1312,1.152 3.1968,3.312 1.0944,2.16 0.9216,5.1264 -0.144,2.5632 -1.008,4.6368 -0.8352,2.0736 -2.304,3.5712 -1.44,1.4976 -3.4272,2.304 -1.9584,0.8064 -4.32,0.8064 z"
   id="path44" /><path
   style="font-style:italic;font-size:28.8px;font-family:'Nunito Sans 10pt';-inkscape-font-specification:'Nunito Sans 10pt';vector-effect:non-scaling-stroke;-inkscape-stroke:hairline;stroke-width:0.99999999;stroke-dasharray:none;stroke:#000000;stroke-opacity:1;fill:none"
   d="m 113.07845,174.96559 3.1968,-20.304 h 14.0256 l -0.576,3.6 h -9.4176 l -0.7776,4.8384 h 8.8128 l -0.576,3.6 h -8.8128 l -1.3248,8.2656 z"
   id="text4" /><path
   style="font-size:28.8px;font-family:'Nunito Sans 10pt';-inkscape-font-specification:'Nunito Sans 10pt';text-align:center;text-anchor:middle;vector-effect:non-scaling-stroke;fill:none;stroke:#000000;stroke-width:1;stroke-dasharray:none;stroke-opacity:1;-inkscape-stroke:hairline"
   d="m 296.98063,231.4256 v -3.5136 h 8.8992 v 3.5136 z"
   id="path43" /><path
   id="path42"
   style="font-size:28.8px;font-family:'Nunito Sans 10pt';-inkscape-font-specification:'Nunito Sans 10pt';text-align:center;text-anchor:middle;vector-effect:non-scaling-stroke;fill:none;stroke:#000000;stroke-width:1;stroke-dasharray:none;stroke-opacity:1;-inkscape-stroke:hairline"
   d="M 295.02148 222.78515 L 293.49609 222.90039 C 292.24809 222.97719 291.23055 223.34329 290.44336 223.99609 C 289.77422 224.56485 289.29409 225.31491 289.0039 226.24804 L 289.0039 223.13086 L 284.85546 223.13086 L 284.85546 237.41601 L 289.37695 237.41601 L 289.37695 230.30273 C 289.37695 229.32353 289.64599 228.54475 290.18359 227.96875 C 290.74038 227.39275 291.56575 227.05693 292.66015 226.96093 L 295.33984 226.70312 L 295.02148 222.78515 z " /><path
   id="path41"
   style="font-size:28.8px;font-family:'Nunito Sans 10pt';-inkscape-font-specification:'Nunito Sans 10pt';text-align:center;text-anchor:middle;vector-effect:non-scaling-stroke;fill:none;stroke:#000000;stroke-width:1;stroke-dasharray:none;stroke-opacity:1;-inkscape-stroke:hairline"
   d="M 275.00586 222.84375 C 273.50826 222.84375 272.19334 223.16946 271.06054 223.82226 C 269.94694 224.45586 269.07305 225.32976 268.43945 226.44336 C 267.82505 227.55696 267.51757 228.83344 267.51757 230.27343 C 267.51757 231.79023 267.84524 233.10515 268.49804 234.21875 C 269.15084 235.33235 270.10161 236.19614 271.34961 236.81054 C 272.5976 237.42494 274.10469 237.73242 275.87109 237.73242 C 276.88869 237.73242 277.91437 237.58878 278.95117 237.30078 C 279.98797 237.01278 280.88206 236.6001 281.63086 236.0625 L 280.44921 233.0957 C 279.83482 233.5373 279.12475 233.86497 278.31836 234.07617 C 277.53116 234.28737 276.76247 234.39257 276.01367 234.39257 C 275.05367 234.39257 274.2485 234.24893 273.5957 233.96093 C 272.9621 233.65373 272.49079 233.19252 272.18359 232.57812 C 272.01044 232.22099 271.88805 231.80676 271.8125 231.33984 L 281.94726 231.33984 L 281.94726 230.1875 C 281.94726 228.6707 281.65998 227.36393 281.08398 226.26953 C 280.50798 225.15593 279.70086 224.31232 278.66406 223.73633 C 277.62726 223.14113 276.40745 222.84375 275.00586 222.84375 z M 275.15039 225.81054 C 276.12959 225.81054 276.88818 226.10792 277.42578 226.70312 C 277.89618 227.22392 278.15995 227.97272 278.21875 228.94922 L 271.77734 228.94922 C 271.83964 228.4629 271.95627 228.03028 272.12695 227.65234 C 272.41495 227.05714 272.80744 226.60602 273.30664 226.29883 C 273.82504 225.97243 274.43999 225.81054 275.15039 225.81054 z " /><path
   style="font-size:28.8px;font-family:'Nunito Sans 10pt';-inkscape-font-specification:'Nunito Sans 10pt';text-align:center;text-anchor:middle;vector-effect:non-scaling-stroke;fill:none;stroke:#000000;stroke-width:1;stroke-dasharray:none;stroke-opacity:1;-inkscape-stroke:hairline"
   d="m 256.86234,234.3632 q 1.4976,0 2.3616,-1.0368 0.864,-1.0368 0.864,-3.0528 0,-2.0448 -0.864,-3.0528 -0.864,-1.008 -2.3616,-1.008 -1.4688,0 -2.3616,1.008 -0.864,1.008 -0.864,3.0528 0,2.016 0.864,3.0528 0.8928,1.0368 2.3616,1.0368 z"
   id="path40" /><path
   id="path39"
   style="font-size:28.8px;font-family:'Nunito Sans 10pt';-inkscape-font-specification:'Nunito Sans 10pt';text-align:center;text-anchor:middle;vector-effect:non-scaling-stroke;fill:none;stroke:#000000;stroke-width:1;stroke-dasharray:none;stroke-opacity:1;-inkscape-stroke:hairline"
   d="M 260.00195 217.11133 L 260.00195 225.27929 C 259.64698 224.61554 259.12065 224.06231 258.41797 223.62109 C 257.59237 223.10269 256.61326 222.84375 255.48047 222.84375 C 254.21327 222.84375 253.09867 223.15122 252.13867 223.76562 C 251.19787 224.38002 250.46957 225.24382 249.95117 226.35742 C 249.43277 227.47102 249.17187 228.77584 249.17187 230.27343 C 249.17187 231.77103 249.43277 233.08595 249.95117 234.21875 C 250.46957 235.33235 251.20797 236.19614 252.16797 236.81054 C 253.12796 237.42494 254.25071 237.73242 255.53711 237.73242 C 256.6891 237.73242 257.6985 237.46338 258.5625 236.92578 C 259.34269 236.42299 259.91592 235.7476 260.28906 234.90039 L 260.28906 237.41601 L 264.49414 237.41601 L 264.49414 217.11133 L 260.00195 217.11133 z " /><path
   style="font-size:28.8px;font-family:'Nunito Sans 10pt';-inkscape-font-specification:'Nunito Sans 10pt';text-align:center;text-anchor:middle;vector-effect:non-scaling-stroke;fill:none;stroke:#000000;stroke-width:1;stroke-dasharray:none;stroke-opacity:1;-inkscape-stroke:hairline"
   d="m 241.68475,237.416 v -14.2848 h 4.4928 v 14.2848 z"
   id="path38" /><path
   style="font-size:28.8px;font-family:'Nunito Sans 10pt';-inkscape-font-specification:'Nunito Sans 10pt';text-align:center;text-anchor:middle;vector-effect:non-scaling-stroke;fill:none;stroke:#000000;stroke-width:1;stroke-dasharray:none;stroke-opacity:1;-inkscape-stroke:hairline"
   d="m 241.48315,220.4528 v -4.176 h 4.8384 v 4.176 z"
   id="path37" /><path
   id="path36"
   style="font-size:28.8px;font-family:'Nunito Sans 10pt';-inkscape-font-specification:'Nunito Sans 10pt';text-align:center;text-anchor:middle;vector-effect:non-scaling-stroke;fill:none;stroke:#000000;stroke-width:1;stroke-dasharray:none;stroke-opacity:1;-inkscape-stroke:hairline"
   d="M 231.83593 222.84375 C 230.33834 222.84375 229.02147 223.16946 227.88867 223.82226 C 226.77507 224.45586 225.90313 225.32976 225.26953 226.44336 C 224.65513 227.55696 224.34765 228.83344 224.34765 230.27343 C 224.34765 231.79023 224.67337 233.10515 225.32617 234.21875 C 225.97897 235.33235 226.92973 236.19614 228.17773 236.81054 C 229.42573 237.42494 230.93282 237.73242 232.69922 237.73242 C 233.71681 237.73242 234.74445 237.58878 235.78125 237.30078 C 236.81805 237.01278 237.71018 236.6001 238.45898 236.0625 L 237.27929 233.0957 C 236.66489 233.5373 235.95288 233.86497 235.14648 234.07617 C 234.35928 234.28737 233.59255 234.39257 232.84375 234.39257 C 231.88375 234.39257 231.07662 234.24893 230.42383 233.96093 C 229.79023 233.65373 229.32087 233.19252 229.01367 232.57812 C 228.84052 232.22099 228.71813 231.80676 228.64258 231.33984 L 238.77539 231.33984 L 238.77539 230.1875 C 238.77539 228.6707 238.48811 227.36393 237.91211 226.26953 C 237.33611 225.15593 236.52898 224.31232 235.49218 223.73633 C 234.45539 223.14113 233.23753 222.84375 231.83593 222.84375 z M 231.97851 225.81054 C 232.95771 225.81054 233.7163 226.10792 234.2539 226.70312 C 234.7243 227.22392 234.99003 227.97272 235.04882 228.94922 L 228.60742 228.94922 C 228.66972 228.4629 228.78439 228.03028 228.95508 227.65234 C 229.24307 227.05714 229.63752 226.60602 230.13672 226.29883 C 230.65512 225.97243 231.26811 225.81054 231.97851 225.81054 z " /><path
   id="path35"
   style="font-size:28.8px;font-family:'Nunito Sans 10pt';-inkscape-font-specification:'Nunito Sans 10pt';text-align:center;text-anchor:middle;vector-effect:non-scaling-stroke;fill:none;stroke:#000000;stroke-width:1;stroke-dasharray:none;stroke-opacity:1;-inkscape-stroke:hairline"
   d="M 216.22656 222.84375 C 215.11296 222.84375 214.10357 223.10269 213.20117 223.62109 C 212.40475 224.08856 211.78302 224.74573 211.33008 225.58789 L 211.33008 223.13086 L 207.0957 223.13086 L 207.0957 237.41601 L 211.58789 237.41601 L 211.58789 229.61133 C 211.58789 228.97773 211.71329 228.4214 211.96289 227.9414 C 212.23169 227.4422 212.59584 227.05786 213.05664 226.78906 C 213.51744 226.52026 214.05552 226.38476 214.66992 226.38476 C 215.18832 226.38476 215.6111 226.49192 215.9375 226.70312 C 216.2639 226.89512 216.5046 227.1925 216.6582 227.5957 C 216.831 227.9989 216.91601 228.52689 216.91601 229.17968 L 216.91601 237.41601 L 221.41015 237.41601 L 221.41015 229.00586 C 221.41015 227.60426 221.21798 226.45318 220.83398 225.55078 C 220.44998 224.62918 219.87347 223.94746 219.10547 223.50586 C 218.33747 223.06426 217.37856 222.84375 216.22656 222.84375 z " /><path
   id="path34"
   style="font-size:28.8px;font-family:'Nunito Sans 10pt';-inkscape-font-specification:'Nunito Sans 10pt';text-align:center;text-anchor:middle;vector-effect:non-scaling-stroke;fill:none;stroke:#000000;stroke-width:1;stroke-dasharray:none;stroke-opacity:1;-inkscape-stroke:hairline"
   d="M 189.125 217.11133 L 189.125 237.41601 L 193.61718 237.41601 L 193.61718 229.61133 C 193.61718 228.97773 193.74259 228.4214 193.99218 227.9414 C 194.26098 227.4422 194.62514 227.05786 195.08593 226.78906 C 195.54673 226.52026 196.08482 226.38476 196.69922 226.38476 C 197.19842 226.38476 197.6111 226.49192 197.9375 226.70312 C 198.2831 226.89512 198.53194 227.1925 198.68554 227.5957 C 198.85834 227.9989 198.94531 228.52689 198.94531 229.17968 L 198.94531 237.41601 L 203.4375 237.41601 L 203.4375 229.00586 C 203.4375 227.60426 203.23718 226.45318 202.83398 225.55078 C 202.44998 224.62918 201.87347 223.94746 201.10547 223.50586 C 200.35667 223.06426 199.4059 222.84375 198.2539 222.84375 C 197.1403 222.84375 196.14296 223.10269 195.25976 223.62109 C 194.52894 224.05959 193.94429 224.64411 193.50195 225.37109 L 193.50195 217.11133 L 189.125 217.11133 z " /><path
   style="font-size:28.8px;font-family:'Nunito Sans 10pt';-inkscape-font-specification:'Nunito Sans 10pt';text-align:center;text-anchor:middle;vector-effect:non-scaling-stroke;fill:none;stroke:#000000;stroke-width:1;stroke-dasharray:none;stroke-opacity:1;-inkscape-stroke:hairline"
   d="m 179.82245,237.7328 q -1.296,0 -2.5056,-0.2016 -1.1808,-0.1728 -2.1888,-0.5184 -0.9792,-0.3456 -1.728,-0.864 l 1.0656,-2.9376 q 0.7488,0.432 1.6128,0.7488 0.8928,0.3168 1.8144,0.4896 0.9504,0.144 1.8432,0.144 1.3536,0 1.9872,-0.3456 0.6336,-0.3744 0.6336,-1.008 0,-0.5472 -0.4032,-0.8352 -0.3744,-0.288 -1.152,-0.4032 l -3.168,-0.4896 q -1.9296,-0.3168 -2.9376,-1.3536 -0.9792,-1.0656 -0.9792,-2.6208 0,-1.4112 0.7776,-2.448 0.7776,-1.0656 2.2464,-1.6416 1.4976,-0.6048 3.5424,-0.6048 1.0656,0 2.1024,0.1728 1.0368,0.1728 1.9296,0.5184 0.9216,0.3168 1.6128,0.864 l -1.152,2.9088 q -0.576,-0.432 -1.3248,-0.72 -0.7488,-0.3168 -1.584,-0.4608 -0.8064,-0.1728 -1.5264,-0.1728 -1.4112,0 -2.0448,0.3744 -0.6336,0.3744 -0.6336,1.0368 0,0.4896 0.3456,0.8064 0.3744,0.288 1.1232,0.4032 l 3.0816,0.4896 q 2.0736,0.3456 3.0816,1.3248 1.0368,0.9792 1.0368,2.6496 0,1.4688 -0.8064,2.5344 -0.8064,1.0368 -2.2752,1.6128 -1.4688,0.5472 -3.4272,0.5472 z"
   id="path33" /><path
   style="font-size:28.8px;font-family:'Nunito Sans 10pt';-inkscape-font-specification:'Nunito Sans 10pt';text-align:center;text-anchor:middle;vector-effect:non-scaling-stroke;fill:none;stroke:#000000;stroke-width:1;stroke-dasharray:none;stroke-opacity:1;-inkscape-stroke:hairline"
   d="m 165.96966,237.416 v -14.2848 h 4.4928 v 14.2848 z"
   id="path32" /><path
   style="font-size:28.8px;font-family:'Nunito Sans 10pt';-inkscape-font-specification:'Nunito Sans 10pt';text-align:center;text-anchor:middle;vector-effect:non-scaling-stroke;fill:none;stroke:#000000;stroke-width:1;stroke-dasharray:none;stroke-opacity:1;-inkscape-stroke:hairline"
   d="m 165.76806,220.4528 v -4.176 h 4.8384 v 4.176 z"
   id="path31" /><path
   id="path30"
   style="font-size:28.8px;font-family:'Nunito Sans 10pt';-inkscape-font-specification:'Nunito Sans 10pt';text-align:center;text-anchor:middle;vector-effect:non-scaling-stroke;fill:none;stroke:#000000;stroke-width:1;stroke-dasharray:none;stroke-opacity:1;-inkscape-stroke:hairline"
   d="M 155.60156 222.84375 C 154.83356 222.84375 154.04663 222.91052 153.24023 223.04492 C 152.43383 223.17932 151.657 223.38159 150.9082 223.65039 C 150.1786 223.89999 149.52522 224.19737 148.94922 224.54297 L 150.10156 227.50976 C 151.00396 227.02976 151.87786 226.67376 152.72265 226.44336 C 153.58665 226.21296 154.39182 226.09765 155.14062 226.09765 C 156.15822 226.09765 156.88848 226.26963 157.33008 226.61523 C 157.79088 226.96083 158.02148 227.55754 158.02148 228.40234 L 158.02148 228.80468 L 156.83984 228.80468 C 154.80464 228.80468 153.16401 228.94833 151.91601 229.23633 C 150.68721 229.52432 149.78498 229.98554 149.20898 230.61914 C 148.63298 231.23354 148.34375 232.0589 148.34375 233.0957 C 148.34375 233.9789 148.58445 234.76583 149.06445 235.45703 C 149.54445 236.14823 150.19784 236.7065 151.02344 237.1289 C 151.86823 237.5321 152.81705 237.73242 153.87304 237.73242 C 154.67944 237.73242 155.38136 237.59887 155.97656 237.33007 C 156.59096 237.06128 157.09875 236.69517 157.50195 236.23437 C 157.88168 235.80286 158.15988 235.30955 158.33789 234.7539 L 158.33789 237.41601 L 162.3125 237.41601 L 162.3125 229.00586 C 162.3125 227.56586 162.05355 226.39458 161.53515 225.49218 C 161.03595 224.58979 160.28746 223.92826 159.28906 223.50586 C 158.29066 223.06426 157.06076 222.84375 155.60156 222.84375 z M 156.95508 231.13672 L 158.02148 231.13672 L 158.02148 231.59765 C 158.02148 232.19285 157.87784 232.73093 157.58984 233.21093 C 157.32104 233.67173 156.95494 234.03588 156.49414 234.30468 C 156.03334 234.55428 155.51545 234.67968 154.93945 234.67968 C 154.24825 234.67968 153.70007 234.52595 153.29687 234.21875 C 152.89367 233.89235 152.69336 233.45133 152.69336 232.89453 C 152.69336 232.56813 152.77023 232.29909 152.92383 232.08789 C 153.09663 231.85749 153.35557 231.67541 153.70117 231.54101 C 154.04677 231.40661 154.48779 231.30955 155.02539 231.25195 C 155.56299 231.17515 156.20628 231.13672 156.95508 231.13672 z " /><path
   style="font-size:28.8px;font-family:'Nunito Sans 10pt';-inkscape-font-specification:'Nunito Sans 10pt';text-align:center;text-anchor:middle;vector-effect:non-scaling-stroke;fill:none;stroke:#000000;stroke-width:1;stroke-dasharray:none;stroke-opacity:1;-inkscape-stroke:hairline"
   d="m 132.99371,225.4064 h 4.3776 q 1.6416,0 2.4192,-0.6048 0.7776,-0.6048 0.7776,-1.8144 0,-1.2096 -0.7776,-1.8144 -0.7776,-0.6048 -2.4192,-0.6048 h -4.3776 z"
   id="path29" /><path
   style="font-size:28.8px;font-family:'Nunito Sans 10pt';-inkscape-font-specification:'Nunito Sans 10pt';text-align:center;text-anchor:middle;vector-effect:non-scaling-stroke;fill:none;stroke:#000000;stroke-width:1;stroke-dasharray:none;stroke-opacity:1;-inkscape-stroke:hairline"
   d="m 132.99371,233.96 h 4.8672 q 0.6624,0 1.1808,-0.0864 0.5184,-0.1152 0.8928,-0.3168 0.4032,-0.2304 0.6624,-0.5472 0.2592,-0.3168 0.3744,-0.72 0.1152,-0.4032 0.1152,-0.8928 0,-0.5184 -0.144,-0.9216 -0.1152,-0.4032 -0.3744,-0.6912 -0.2592,-0.3168 -0.6336,-0.5184 -0.3744,-0.2016 -0.8928,-0.288 -0.5184,-0.1152 -1.1808,-0.1152 h -4.8672 z"
   id="path28" /><path
   id="path27"
   style="font-size:28.8px;font-family:'Nunito Sans 10pt';-inkscape-font-specification:'Nunito Sans 10pt';text-align:center;text-anchor:middle;vector-effect:non-scaling-stroke;fill:none;stroke:#000000;stroke-width:1;stroke-dasharray:none;stroke-opacity:1;-inkscape-stroke:hairline"
   d="M 128.58789 217.11133 L 128.58789 237.41601 L 138.29297 237.41601 C 139.79057 237.41601 141.07714 237.1955 142.15234 236.7539 C 143.24674 236.2931 144.0822 235.62962 144.6582 234.76562 C 145.2342 233.90162 145.52148 232.87594 145.52148 231.68554 C 145.52148 230.76394 145.3495 229.96692 145.0039 229.29492 C 144.6583 228.62292 144.1769 228.07474 143.5625 227.65234 C 143.08035 227.31017 142.522 227.05836 141.88867 226.89258 C 142.73621 226.56785 143.44056 226.0632 143.99609 225.37695 C 144.64889 224.57055 144.97461 223.57321 144.97461 222.38281 C 144.97461 220.71241 144.35966 219.41574 143.13086 218.49414 C 141.92126 217.57254 140.20376 217.11133 137.97656 217.11133 L 128.58789 217.11133 z " /><path
   id="path26"
   style="font-size:28.8px;font-family:'Nunito Sans 10pt';-inkscape-font-specification:'Nunito Sans 10pt';text-align:center;text-anchor:middle;vector-effect:non-scaling-stroke;fill:none;stroke:#000000;stroke-width:1;stroke-dasharray:none;stroke-opacity:1;-inkscape-stroke:hairline"
   d="M 109.98242 222.84375 C 108.48482 222.84375 107.16991 223.16946 106.03711 223.82226 C 104.92351 224.45586 104.04961 225.32976 103.41601 226.44336 C 102.80161 227.55696 102.49414 228.83344 102.49414 230.27343 C 102.49414 231.79023 102.82181 233.10515 103.47461 234.21875 C 104.12741 235.33235 105.07622 236.19614 106.32422 236.81054 C 107.57222 237.42494 109.0793 237.73242 110.8457 237.73242 C 111.8633 237.73242 112.89093 237.58878 113.92773 237.30078 C 114.96453 237.01278 115.85862 236.6001 116.60742 236.0625 L 115.42578 233.0957 C 114.81138 233.5373 114.10132 233.86497 113.29492 234.07617 C 112.50772 234.28737 111.73903 234.39257 110.99023 234.39257 C 110.03023 234.39257 109.22506 234.24893 108.57226 233.96093 C 107.93866 233.65373 107.46735 233.19252 107.16015 232.57812 C 106.987 232.22099 106.86462 231.80676 106.78906 231.33984 L 116.92383 231.33984 L 116.92383 230.1875 C 116.92383 228.6707 116.63459 227.36393 116.05859 226.26953 C 115.48259 225.15593 114.67742 224.31232 113.64062 223.73633 C 112.60382 223.14113 111.38402 222.84375 109.98242 222.84375 z M 110.12695 225.81054 C 111.10615 225.81054 111.86474 226.10792 112.40234 226.70312 C 112.87274 227.22392 113.13651 227.97272 113.19531 228.94922 L 106.7539 228.94922 C 106.81621 228.4629 106.93283 228.03028 107.10351 227.65234 C 107.39151 227.05714 107.784 226.60602 108.2832 226.29883 C 108.8016 225.97243 109.41655 225.81054 110.12695 225.81054 z " /><path
   id="path25"
   style="font-size:28.8px;font-family:'Nunito Sans 10pt';-inkscape-font-specification:'Nunito Sans 10pt';text-align:center;text-anchor:middle;vector-effect:non-scaling-stroke;fill:none;stroke:#000000;stroke-width:1;stroke-dasharray:none;stroke-opacity:1;-inkscape-stroke:hairline"
   d="M 85.244139 217.11133 L 85.244139 237.41601 L 89.736327 237.41601 L 89.736327 229.61133 C 89.736327 228.97773 89.861727 228.4214 90.111327 227.9414 C 90.380127 227.4422 90.744277 227.05786 91.205077 226.78906 C 91.665876 226.52026 92.203959 226.38476 92.818358 226.38476 C 93.317558 226.38476 93.73024 226.49192 94.056639 226.70312 C 94.402239 226.89512 94.651086 227.1925 94.804686 227.5957 C 94.977486 227.9989 95.064452 228.52689 95.064452 229.17968 L 95.064452 237.41601 L 99.556639 237.41601 L 99.556639 229.00586 C 99.556639 227.60426 99.356323 226.45318 98.953124 225.55078 C 98.569124 224.62918 97.992607 223.94746 97.224608 223.50586 C 96.475809 223.06426 95.525044 222.84375 94.373046 222.84375 C 93.259447 222.84375 92.260151 223.10269 91.376952 223.62109 C 90.647373 224.05884 90.063171 224.64194 89.621093 225.36718 L 89.621093 217.11133 L 85.244139 217.11133 z " /><path
   style="font-size:28.8px;font-family:'Nunito Sans 10pt';-inkscape-font-specification:'Nunito Sans 10pt';text-align:center;text-anchor:middle;vector-effect:non-scaling-stroke;fill:none;stroke:#000000;stroke-width:1;stroke-dasharray:none;stroke-opacity:1;-inkscape-stroke:hairline"
   d="m 71.67859,237.416 v -16.5024 h -6.7104 v -3.8016 h 18 v 3.8016 h -6.7104 v 16.5024 z"
   id="path10" /><path
   id="path24"
   style="font-size:28.8px;font-family:'Nunito Sans 10pt';-inkscape-font-specification:'Nunito Sans 10pt';text-align:center;text-anchor:middle;vector-effect:non-scaling-stroke;fill:none;stroke:#000000;stroke-width:1;stroke-dasharray:none;stroke-opacity:1;-inkscape-stroke:hairline"
   d="M 272.77343 259.13086 L 278.70312 272.92968 L 276.08593 278.59961 L 280.69336 278.59961 L 289.07421 259.13086 L 284.55273 259.13086 L 280.99804 268.40625 L 277.49804 259.13086 L 272.77343 259.13086 z " /><path
   style="font-size:28.8px;font-family:'Nunito Sans 10pt';-inkscape-font-specification:'Nunito Sans 10pt';text-align:center;text-anchor:middle;vector-effect:non-scaling-stroke;fill:none;stroke:#000000;stroke-width:1;stroke-dasharray:none;stroke-opacity:1;-inkscape-stroke:hairline"
   d="m 270.58548,273.7328 q -2.7072,0 -4.0032,-1.4112 -1.296,-1.4112 -1.296,-4.1472 V 253.112 h 4.4928 v 14.832 q 0,0.72 0.2016,1.2384 0.2016,0.4896 0.6048,0.7488 0.432,0.2304 1.0656,0.2304 0.3744,0 0.6912,-0.0288 0.3456,-0.0288 0.6912,-0.1152 l 0.0864,3.3408 q -0.6336,0.1728 -1.2384,0.2592 -0.576,0.1152 -1.296,0.1152 z"
   id="path23" /><path
   style="font-size:28.8px;font-family:'Nunito Sans 10pt';-inkscape-font-specification:'Nunito Sans 10pt';text-align:center;text-anchor:middle;vector-effect:non-scaling-stroke;fill:none;stroke:#000000;stroke-width:1;stroke-dasharray:none;stroke-opacity:1;-inkscape-stroke:hairline"
   d="m 257.07828,273.416 v -14.2848 h 4.4928 v 14.2848 z"
   id="path22" /><path
   style="font-size:28.8px;font-family:'Nunito Sans 10pt';-inkscape-font-specification:'Nunito Sans 10pt';text-align:center;text-anchor:middle;vector-effect:non-scaling-stroke;fill:none;stroke:#000000;stroke-width:1;stroke-dasharray:none;stroke-opacity:1;-inkscape-stroke:hairline"
   d="m 256.87668,256.4528 v -4.176 h 4.8384 v 4.176 z"
   id="path21" /><path
   id="path20"
   style="font-size:28.8px;font-family:'Nunito Sans 10pt';-inkscape-font-specification:'Nunito Sans 10pt';text-align:center;text-anchor:middle;vector-effect:non-scaling-stroke;fill:none;stroke:#000000;stroke-width:1;stroke-dasharray:none;stroke-opacity:1;-inkscape-stroke:hairline"
   d="M 239.25195 258.84375 C 238.50315 258.84375 237.81133 258.96719 237.17773 259.21679 C 236.54413 259.46639 235.99595 259.8224 235.53515 260.2832 C 235.1497 260.65259 234.83704 261.09391 234.58593 261.59765 L 234.58593 259.13086 L 230.38086 259.13086 L 230.38086 273.41601 L 234.8164 273.41601 L 234.8164 265.64062 C 234.8164 264.98782 234.92161 264.4214 235.13281 263.9414 C 235.36321 263.4614 235.68893 263.08716 236.11132 262.81836 C 236.53372 262.53036 237.02328 262.38476 237.58007 262.38476 C 238.30967 262.38476 238.82952 262.60723 239.13672 263.04882 C 239.46312 263.49042 239.625 264.18029 239.625 265.12109 L 239.625 273.41601 L 244.06054 273.41601 L 244.06054 265.66797 C 244.06054 264.97677 244.16575 264.39211 244.37695 263.91211 C 244.60735 263.43211 244.93502 263.05786 245.35742 262.78906 C 245.77982 262.52026 246.26937 262.38476 246.82617 262.38476 C 247.59417 262.38476 248.12215 262.60723 248.41015 263.04882 C 248.71735 263.49042 248.87109 264.18029 248.87109 265.12109 L 248.87109 273.41601 L 253.33398 273.41601 L 253.33398 265.00586 C 253.33398 263.60426 253.15191 262.45318 252.78711 261.55078 C 252.42231 260.62918 251.86598 259.94746 251.11718 259.50586 C 250.38758 259.06426 249.47525 258.84375 248.38086 258.84375 C 247.20966 258.84375 246.18202 259.13103 245.29882 259.70703 C 244.51538 260.22932 243.93174 260.89471 243.54297 261.70117 C 243.22602 260.80924 242.71815 260.1246 242.01562 259.65039 C 241.26682 259.11279 240.34635 258.84375 239.25195 258.84375 z " /><path
   id="path19"
   style="font-size:28.8px;font-family:'Nunito Sans 10pt';-inkscape-font-specification:'Nunito Sans 10pt';text-align:center;text-anchor:middle;vector-effect:non-scaling-stroke;fill:none;stroke:#000000;stroke-width:1;stroke-dasharray:none;stroke-opacity:1;-inkscape-stroke:hairline"
   d="M 219.95508 258.84375 C 219.18708 258.84375 218.40015 258.91052 217.59375 259.04492 C 216.78735 259.17932 216.01052 259.38159 215.26172 259.65039 C 214.53212 259.89999 213.87873 260.19737 213.30273 260.54297 L 214.45508 263.50976 C 215.35747 263.02976 216.22942 262.67376 217.07422 262.44336 C 217.93821 262.21296 218.74534 262.09765 219.49414 262.09765 C 220.51174 262.09765 221.24199 262.26963 221.68359 262.61523 C 222.14439 262.96083 222.375 263.55754 222.375 264.40234 L 222.375 264.80468 L 221.19336 264.80468 C 219.15816 264.80468 217.51753 264.94832 216.26953 265.23632 C 215.04073 265.52432 214.1385 265.98554 213.5625 266.61914 C 212.9865 267.23354 212.69726 268.0589 212.69726 269.0957 C 212.69726 269.9789 212.93797 270.76583 213.41797 271.45703 C 213.89797 272.14823 214.5494 272.7065 215.375 273.1289 C 216.2198 273.5321 217.17056 273.73242 218.22656 273.73242 C 219.03296 273.73242 219.73488 273.59887 220.33008 273.33007 C 220.94447 273.06127 221.45227 272.69517 221.85547 272.23437 C 222.2352 271.80286 222.51339 271.30955 222.6914 270.7539 L 222.6914 273.41601 L 226.66601 273.41601 L 226.66601 265.00586 C 226.66601 263.56586 226.40707 262.39458 225.88867 261.49218 C 225.38947 260.58978 224.63902 259.92826 223.64062 259.50586 C 222.64222 259.06426 221.41427 258.84375 219.95508 258.84375 z M 221.30859 267.13672 L 222.375 267.13672 L 222.375 267.59765 C 222.375 268.19285 222.2294 268.73093 221.9414 269.21093 C 221.6726 269.67173 221.30845 270.03588 220.84765 270.30468 C 220.38685 270.55428 219.86897 270.67968 219.29297 270.67968 C 218.60177 270.67968 218.05359 270.52595 217.65039 270.21875 C 217.24719 269.89235 217.04687 269.45133 217.04687 268.89453 C 217.04687 268.56813 217.12374 268.29909 217.27734 268.08789 C 217.45014 267.85749 217.70908 267.67541 218.05468 267.54101 C 218.40028 267.40661 218.8413 267.30955 219.3789 267.25195 C 219.9165 267.17515 220.55979 267.13672 221.30859 267.13672 z " /><path
   style="font-size:28.8px;font-family:'Nunito Sans 10pt';-inkscape-font-specification:'Nunito Sans 10pt';text-align:center;text-anchor:middle;vector-effect:non-scaling-stroke;fill:none;stroke:#000000;stroke-width:1;stroke-dasharray:none;stroke-opacity:1;-inkscape-stroke:hairline"
   d="m 197.088,273.416 v -20.304 h 13.9968 v 3.6288 h -9.4464 v 4.8096 h 8.8128 v 3.6288 h -8.8128 v 8.2368 z"
   id="path18" /><path
   style="font-size:28.8px;font-family:'Nunito Sans 10pt';-inkscape-font-specification:'Nunito Sans 10pt';text-align:center;text-anchor:middle;vector-effect:non-scaling-stroke;fill:none;stroke:#000000;stroke-width:1;stroke-dasharray:none;stroke-opacity:1;-inkscape-stroke:hairline"
   d="m 177.64804,270.3056 q 1.46879,0 2.33279,-1.0368 0.8928,-1.0368 0.8928,-3.024 0,-1.9872 -0.8928,-2.9664 -0.864,-1.008 -2.33279,-1.008 -1.4688,0 -2.3616,1.008 -0.864,0.9792 -0.864,2.9664 0,1.9872 0.864,3.024 0.8928,1.0368 2.3616,1.0368 z"
   id="path17" /><path
   style="font-size:28.8px;font-family:'Nunito Sans 10pt';-inkscape-font-specification:'Nunito Sans 10pt';text-align:center;text-anchor:middle;vector-effect:non-scaling-stroke;fill:none;stroke:#000000;stroke-width:1;stroke-dasharray:none;stroke-opacity:1;-inkscape-stroke:hairline"
   d="m 177.64804,273.7328 q -2.3328,0 -4.0608,-0.9216 -1.728,-0.9216 -2.6784,-2.592 -0.9216,-1.6992 -0.9216,-3.9456 0,-2.2752 0.9216,-3.9456 0.9504,-1.6704 2.6784,-2.5632 1.728,-0.9216 4.0608,-0.9216 2.33279,0 4.03199,0.9216 1.728,0.8928 2.6784,2.5632 0.9504,1.6704 0.9504,3.9456 0,2.2464 -0.9504,3.9456 -0.9504,1.6704 -2.6784,2.592 -1.6992,0.9216 -4.03199,0.9216 z"
   id="path16" /><path
   style="font-size:28.8px;font-family:'Nunito Sans 10pt';-inkscape-font-specification:'Nunito Sans 10pt';text-align:center;text-anchor:middle;vector-effect:non-scaling-stroke;fill:none;stroke:#000000;stroke-width:1;stroke-dasharray:none;stroke-opacity:1;-inkscape-stroke:hairline"
   d="m 166.12808,273.7328 q -2.7072,0 -4.0032,-1.4112 -1.296,-1.4112 -1.296,-4.1472 V 253.112 h 4.4928 v 14.832 q 0,0.72 0.2016,1.2384 0.2016,0.4896 0.6048,0.7488 0.432,0.2304 1.0656,0.2304 0.3744,0 0.6912,-0.0288 0.3456,-0.0288 0.6912,-0.1152 l 0.0864,3.3408 q -0.6336,0.1728 -1.2384,0.2592 -0.576,0.1152 -1.296,0.1152 z"
   id="path15" /><path
   id="path14"
   style="font-size:28.8px;font-family:'Nunito Sans 10pt';-inkscape-font-specification:'Nunito Sans 10pt';text-align:center;text-anchor:middle;vector-effect:non-scaling-stroke;fill:none;stroke:#000000;stroke-width:1;stroke-dasharray:none;stroke-opacity:1;-inkscape-stroke:hairline"
   d="M 142.94336 259.13086 L 142.94336 267.59765 C 142.94336 268.98005 143.14563 270.12299 143.54883 271.02539 C 143.95203 271.92779 144.55688 272.60951 145.36328 273.07031 C 146.16968 273.51191 147.16897 273.73242 148.35937 273.73242 C 149.45377 273.73242 150.40258 273.46338 151.20898 272.92578 C 151.88479 272.45915 152.43197 271.83537 152.85156 271.05859 L 152.85156 273.41601 L 157.08398 273.41601 L 157.08398 259.13086 L 152.59179 259.13086 L 152.59179 266.99414 C 152.59179 267.60854 152.46639 268.15476 152.21679 268.63476 C 151.9672 269.11476 151.62324 269.48901 151.18164 269.75781 C 150.74004 270.02661 150.24039 270.16211 149.68359 270.16211 C 149.16519 270.16211 148.73232 270.06504 148.38672 269.87304 C 148.06032 269.68104 147.82157 269.39376 147.66797 269.00976 C 147.51437 268.62576 147.4375 268.15445 147.4375 267.59765 L 147.4375 259.13086 L 142.94336 259.13086 z " /><path
   style="font-size:28.8px;font-family:'Nunito Sans 10pt';-inkscape-font-specification:'Nunito Sans 10pt';text-align:center;text-anchor:middle;vector-effect:non-scaling-stroke;fill:none;stroke:#000000;stroke-width:1;stroke-dasharray:none;stroke-opacity:1;-inkscape-stroke:hairline"
   d="m 135.57135,273.7328 q -2.3328,0 -4.0608,-0.9216 -1.728,-0.9216 -2.6784,-2.592 -0.9504,-1.6992 -0.9504,-3.9744 0,-2.2752 0.9504,-3.9456 0.9504,-1.6704 2.6784,-2.5632 1.728,-0.8928 4.0608,-0.8928 1.4976,0 2.9088,0.432 1.4112,0.4032 2.2752,1.152 l -1.2384,3.1392 q -0.72,-0.576 -1.6704,-0.8928 -0.9216,-0.3168 -1.7856,-0.3168 -1.728,0 -2.7072,1.008 -0.9504,1.008 -0.9504,2.9088 0,1.872 0.9504,2.9088 0.9792,1.0368 2.7072,1.0368 0.864,0 1.7856,-0.3168 0.9504,-0.3456 1.6416,-0.9216 l 1.2672,3.168 q -0.8928,0.72 -2.304,1.152 -1.3824,0.432 -2.88,0.432 z"
   id="path13" /><path
   id="path12"
   style="font-size:28.8px;font-family:'Nunito Sans 10pt';-inkscape-font-specification:'Nunito Sans 10pt';text-align:center;text-anchor:middle;vector-effect:non-scaling-stroke;fill:none;stroke:#000000;stroke-width:1;stroke-dasharray:none;stroke-opacity:1;-inkscape-stroke:hairline"
   d="M 118.23437 258.84375 C 117.46637 258.84375 116.67944 258.91052 115.87305 259.04492 C 115.06665 259.17932 114.28786 259.38159 113.53906 259.65039 C 112.80946 259.89999 112.15608 260.19737 111.58008 260.54297 L 112.73242 263.50976 C 113.63482 263.02976 114.50871 262.67376 115.35351 262.44336 C 116.21751 262.21296 117.02464 262.09765 117.77344 262.09765 C 118.79103 262.09765 119.51934 262.26963 119.96094 262.61523 C 120.42174 262.96083 120.65234 263.55754 120.65234 264.40234 L 120.65234 264.80468 L 119.47265 264.80468 C 117.43746 264.80468 115.79487 264.94832 114.54687 265.23632 C 113.31807 265.52432 112.41584 265.98554 111.83984 266.61914 C 111.26384 267.23354 110.97656 268.0589 110.97656 269.0957 C 110.97656 269.9789 111.21531 270.76583 111.69531 271.45703 C 112.17531 272.14823 112.8287 272.7065 113.6543 273.1289 C 114.49909 273.5321 115.44986 273.73242 116.50586 273.73242 C 117.31226 273.73242 118.01222 273.59887 118.60742 273.33007 C 119.22182 273.06127 119.73156 272.69517 120.13476 272.23437 C 120.5145 271.80286 120.79269 271.30955 120.9707 270.7539 L 120.9707 273.41601 L 124.94336 273.41601 L 124.94336 265.00586 C 124.94336 263.56586 124.68441 262.39458 124.16601 261.49218 C 123.66681 260.58978 122.91832 259.92826 121.91992 259.50586 C 120.92152 259.06426 119.69357 258.84375 118.23437 258.84375 z M 119.58789 267.13672 L 120.65234 267.13672 L 120.65234 267.59765 C 120.65234 268.19285 120.5087 268.73093 120.2207 269.21093 C 119.9519 269.67173 119.58775 270.03588 119.12695 270.30468 C 118.66615 270.55428 118.14826 270.67968 117.57226 270.67968 C 116.88106 270.67968 116.33289 270.52595 115.92969 270.21875 C 115.52649 269.89235 115.32422 269.45133 115.32422 268.89453 C 115.32422 268.56813 115.40109 268.29909 115.55469 268.08789 C 115.72749 267.85749 115.98643 267.67541 116.33203 267.54101 C 116.67763 267.40661 117.1206 267.30955 117.6582 267.25195 C 118.1958 267.17515 118.83909 267.13672 119.58789 267.13672 z " /><path
   id="path11"
   style="font-size:28.8px;font-family:'Nunito Sans 10pt';-inkscape-font-specification:'Nunito Sans 10pt';text-align:center;text-anchor:middle;vector-effect:non-scaling-stroke;fill:none;stroke:#000000;stroke-width:1;stroke-dasharray:none;stroke-opacity:1;-inkscape-stroke:hairline"
   d="M 85.890624 253.11132 L 85.890624 273.41601 L 90.068358 273.41601 L 90.068358 260.68359 L 95.279296 270.24804 L 97.958983 270.24804 L 103.17187 260.63281 L 103.17187 273.41601 L 107.37695 273.41601 L 107.37695 253.11132 L 103.22851 253.11132 L 96.691405 265.41797 L 90.124999 253.11132 L 85.890624 253.11132 z " /><path
   id="rect7"
   style="vector-effect:non-scaling-stroke;stroke-width:0.99999999;-inkscape-stroke:hairline;stroke-dasharray:none;stroke:#000000;stroke-opacity:1;fill:none"
   d="m 24,162.92383 h 72 v 3.77953 H 24 Z" /><path
   id="rect9"
   style="vector-effect:non-scaling-stroke;stroke-width:0.99999999;-inkscape-stroke:hairline;stroke-dasharray:none;stroke:#000000;stroke-opacity:1;fill:none"
   d="m 276,162.92383 h 72 v 3.77953 h -72 z" /><rect
   style="vector-effect:non-scaling-stroke;fill:none;stroke:#f36926;stroke-width:0.435625;stroke-dasharray:none;stroke-opacity:1;-inkscape-stroke:hairline"
   id="rect10"
   width="372"
   height="62.804813"
   x="0"
   y="216.2952" /></svg>
