<?xml version="1.0" encoding="UTF-8" standalone="no"?>
<!-- Generator: Adobe Illustrator 15.1.0, SVG Export Plug-In . SVG Version: 6.00 Build 0)  -->

<svg
   version="1.1"
   id="Layer_1"
   x="0px"
   y="0px"
   width="3.875in"
   height="3.875in"
   viewBox="0 0 372 371.99999"
   enable-background="new 0 0 1029.771 581.236"
   xml:space="preserve"
   sodipodi:docname="tile-stephen-warren-and-family.svg"
   inkscape:version="1.3 (0e150ed, 2023-07-21)"
   xmlns:inkscape="http://www.inkscape.org/namespaces/inkscape"
   xmlns:sodipodi="http://sodipodi.sourceforge.net/DTD/sodipodi-0.dtd"
   xmlns="http://www.w3.org/2000/svg"
   xmlns:svg="http://www.w3.org/2000/svg"><defs
   id="defs16"><inkscape:path-effect
   effect="powerstroke"
   id="path-effect8"
   is_visible="true"
   lpeversion="1.3"
   scale_width="1"
   interpolator_type="CentripetalCatmullRom"
   interpolator_beta="0.2"
   start_linecap_type="zerowidth"
   end_linecap_type="zerowidth"
   offset_points="0.22109696,0.46264379 | 0.995308,0.96930217 | 1.8100301,0.4177291"
   linejoin_type="round"
   miter_limit="4"
   not_jump="false"
   sort_points="true"
   message="&lt;b&gt;Ctrl + click&lt;/b&gt; on existing node and move it" />&#10;	&#10;	&#10;	&#10;	&#10;	&#10;&#10;		&#10;		&#10;		&#10;		&#10;		&#10;		&#10;		&#10;		&#10;		&#10;		&#10;		&#10;	&#10;		&#10;		&#10;		&#10;	&#10;		&#10;		&#10;		&#10;		&#10;		&#10;		&#10;		&#10;	&#10;	&#10;	&#10;	&#10;	&#10;	&#10;&#10;		&#10;		&#10;		&#10;		&#10;		&#10;		&#10;		&#10;	&#10;		&#10;		&#10;		&#10;		&#10;		&#10;		&#10;		&#10;		&#10;		&#10;		&#10;		&#10;	&#10;		&#10;		&#10;		&#10;	</defs><sodipodi:namedview
   id="namedview16"
   pagecolor="#ffffff"
   bordercolor="#000000"
   borderopacity="0.25"
   inkscape:showpageshadow="2"
   inkscape:pageopacity="0.0"
   inkscape:pagecheckerboard="0"
   inkscape:deskcolor="#d1d1d1"
   inkscape:zoom="6.3066518"
   inkscape:cx="185.04272"
   inkscape:cy="227.45825"
   inkscape:window-width="1920"
   inkscape:window-height="1031"
   inkscape:window-x="0"
   inkscape:window-y="25"
   inkscape:window-maximized="1"
   inkscape:current-layer="Layer_1"
   showgrid="false"
   inkscape:document-units="in" />&#10;&#10;<path
   id="path78"
   style="vector-effect:non-scaling-stroke;fill:none;stroke:#000000;stroke-width:1;stroke-dasharray:none;stroke-opacity:1;-inkscape-stroke:hairline"
   d="m -252.44973,102.16639 c -0.13412,-0.17309 -0.30804,-0.32141 -0.52358,-0.44049 -0.21372,-0.11925 -0.47353,-0.20795 -0.77693,-0.26658 0.3034,-0.18812 0.53117,-0.41968 0.67949,-0.69088 0.14831,-0.2722 0.22313,-0.61541 0.22313,-1.028489 0,-0.68345 -0.19572,-1.20521 -0.58699,-1.56807 -0.39326,-0.36287 -0.96506,-0.54455 -1.7202,-0.54455 h -3.17777 v 8.208199 h 3.42734 c 0.43471,0 0.82797,-0.0512 1.17581,-0.15327 0.34965,-0.10207 0.64348,-0.2532 0.88743,-0.45553 0.24296,-0.20414 0.43091,-0.45569 0.56618,-0.75249 0.13428,-0.29878 0.20051,-0.63886 0.20051,-1.0227 0,-0.24758 -0.0284,-0.48013 -0.0869,-0.69749 -0.0588,-0.21719 -0.1541,-0.41275 -0.28755,-0.58766 z m -3.75057,-2.905579 h 0.39326 c 0.66545,0 1.00007,0.26476 1.00007,0.794769 0,0.52936 -0.33446,0.79412 -1.00007,0.79412 h -0.39326 z m 1.62291,4.712819 c -0.23338,0.13808 -0.61706,0.20794 -1.15401,0.20794 h -0.4689 v -1.74299 h 0.4689 c 0.53695,0 0.92063,0.069 1.15401,0.20613 0.23156,0.1389 0.34784,0.36022 0.34784,0.66528 1.6e-4,0.3044 -0.11611,0.52573 -0.34784,0.66364 z m -7.59842,-1.88288 c 0,0.23899 -0.01,0.48492 -0.0274,0.73531 -0.0178,0.24957 -0.0737,0.47634 -0.16913,0.68048 -0.0927,0.20233 -0.23735,0.36865 -0.4291,0.49335 -0.19292,0.12751 -0.4661,0.19192 -0.82236,0.19192 -0.35527,0 -0.63027,-0.0644 -0.82698,-0.19192 -0.19572,-0.1247 -0.34041,-0.29119 -0.43009,-0.49335 -0.0907,-0.20414 -0.14551,-0.43091 -0.16252,-0.68048 -0.0188,-0.25055 -0.0274,-0.49632 -0.0274,-0.73531 v -4.463259 h -2.13344 v 4.758239 c 0,1.27607 0.29301,2.20793 0.88198,2.79691 0.58799,0.58699 1.48682,0.88198 2.69847,0.88198 1.21182,0 2.10965,-0.29499 2.69467,-0.88198 0.5832,-0.58882 0.87537,-1.52084 0.87537,-2.79691 v -4.758239 h -2.12204 z m -14.09568,-4.463259 v 8.208209 h 2.13344 v -3.38572 h 3.08033 v 3.38572 h 2.13327 v -8.208209 h -2.13327 v 3.168199 h -3.08033 v -3.168199 z m 20.8653,-36.21623 c -0.3044,0 -0.61243,-0.068 -0.92344,-0.20596 -0.31298,-0.13808 -0.62861,-0.34982 -0.94804,-0.63143 l -0.91403,1.72036 c 0.88562,0.61541 1.84605,0.92542 2.88378,0.92542 0.50293,0 0.94904,-0.067 1.34593,-0.20232 0.39524,-0.13329 0.72673,-0.32241 1.0019,-0.56619 0.27037,-0.24197 0.47831,-0.53497 0.61903,-0.8762 0.14072,-0.34123 0.21175,-0.72111 0.21175,-1.14278 0,-0.62482 -0.1617,-1.13039 -0.4841,-1.51786 -0.32224,-0.38946 -0.8326,-0.69849 -1.53026,-0.93203 -0.1721,-0.0568 -0.34866,-0.11149 -0.52654,-0.16252 -0.17871,-0.0502 -0.33744,-0.11149 -0.48113,-0.17772 -0.13791,-0.0699 -0.25518,-0.15311 -0.34106,-0.24577 -0.0861,-0.0945 -0.13049,-0.21554 -0.13049,-0.35907 0,-0.21174 0.0879,-0.38186 0.2608,-0.51234 0.17491,-0.13048 0.39788,-0.19654 0.67404,-0.19654 0.21719,0 0.4433,0.0454 0.67767,0.13708 0.22975,0.0897 0.4623,0.22975 0.69667,0.4187 l 0.84696,-1.66536 c -0.40647,-0.21736 -0.82979,-0.38368 -1.27325,-0.49533 -0.44331,-0.11248 -0.86662,-0.16831 -1.2731,-0.16831 -0.43686,0 -0.83078,0.0652 -1.18142,0.19573 -0.34982,0.13147 -0.65042,0.31298 -0.89321,0.54917 -0.2428,0.23619 -0.43191,0.51895 -0.56536,0.84878 -0.13329,0.33083 -0.20134,0.69849 -0.20134,1.10595 0,0.40647 0.0644,0.74208 0.19093,1.00569 0.12668,0.26476 0.29218,0.48591 0.50095,0.65884 0.20794,0.17491 0.44049,0.3148 0.70591,0.41869 0.26559,0.10587 0.53596,0.20233 0.81195,0.28921 0.23355,0.0793 0.42927,0.15311 0.59179,0.21735 0.16434,0.0662 0.2968,0.1361 0.39788,0.21175 0.10207,0.0775 0.17574,0.1607 0.21819,0.25138 0.0436,0.0907 0.0662,0.19753 0.0662,0.32042 0,0.20315 -0.087,0.38467 -0.25634,0.54537 -0.17062,0.15955 -0.42959,0.23784 -0.77925,0.23784 z m -6.25827,-1.60953 -3.93869,-5.01821 h -2.13409 v 8.20622 h 2.13409 v -5.01705 l 3.93869,5.01705 h 2.12403 v -8.20622 h -2.12403 z m -9.92725,-5.01818 h 2.13608 v 8.20622 h -2.13608 z m -5.78936,-3e-5 v 8.20622 h 4.69086 v -1.80707 h -2.5556 v -6.39915 z m -5.79035,0 v 8.20622 h 4.69102 v -1.80707 h -2.55775 v -6.39915 z m -9.1665,7.18369 c 0.3997,0.39127 0.87621,0.69749 1.43281,0.92063 0.55479,0.22115 1.16458,0.33181 1.83284,0.33181 0.66165,0 1.27028,-0.11049 1.82804,-0.33181 0.56057,-0.22314 1.04154,-0.52936 1.44223,-0.92063 0.40267,-0.39227 0.71747,-0.8506 0.94325,-1.37632 0.22397,-0.52738 0.33661,-1.09455 0.33661,-1.70517 0,-0.6088 -0.11264,-1.17762 -0.33661,-1.70318 -0.22578,-0.52556 -0.54058,-0.98488 -0.94325,-1.37616 -0.40086,-0.39226 -0.88182,-0.69848 -1.44223,-0.92062 -0.55776,-0.22116 -1.16639,-0.33083 -1.82804,-0.33083 -0.66826,0 -1.27788,0.10967 -1.83284,0.33083 -0.5566,0.22214 -1.03311,0.52836 -1.43281,0.92062 -0.39804,0.39128 -0.70987,0.8506 -0.93582,1.37616 -0.22396,0.52556 -0.33644,1.09455 -0.33644,1.70318 0,0.61062 0.11248,1.17779 0.33644,1.70517 0.22595,0.52555 0.53778,0.98405 0.93582,1.37632 z m 1.14361,-3.98494 c 0.12288,-0.27417 0.2892,-0.51416 0.50094,-0.71748 0.20993,-0.20315 0.45569,-0.36204 0.73433,-0.47253 0.27979,-0.11248 0.57461,-0.16913 0.8866,-0.16913 0.312,0 0.60781,0.0566 0.88661,0.16913 0.27962,0.11049 0.52737,0.26938 0.74291,0.47253 0.21257,0.20316 0.38186,0.44331 0.50475,0.71748 0.12189,0.27599 0.18432,0.57659 0.18432,0.90362 0,0.32702 -0.0624,0.62961 -0.18432,0.90461 -0.12289,0.27516 -0.29218,0.51515 -0.50475,0.71747 -0.21554,0.20415 -0.46329,0.36204 -0.74291,0.47452 -0.2788,0.11248 -0.57461,0.16913 -0.88661,0.16913 -0.31199,0 -0.60681,-0.0568 -0.8866,-0.16913 -0.2788,-0.11248 -0.52457,-0.27037 -0.73433,-0.47452 -0.21174,-0.20232 -0.37806,-0.44231 -0.50094,-0.71747 -0.12289,-0.275 -0.18614,-0.57759 -0.18614,-0.90461 0,-0.32703 0.0632,-0.62763 0.18614,-0.90362 z m -8.48304,4.01136 c 0.39358,0.38946 0.8506,0.69006 1.37054,0.90362 0.51944,0.21356 1.06151,0.32224 1.62753,0.32224 0.2755,0 0.5543,-0.0274 0.83788,-0.0823 0.28178,-0.0548 0.587,-0.14088 0.91452,-0.25518 l 0.21736,-0.0775 v -2.52554 c -0.54488,0.58221 -1.15781,0.87241 -1.83928,0.87241 -0.3115,0 -0.60219,-0.0596 -0.87141,-0.17491 -0.26839,-0.11529 -0.50243,-0.27599 -0.70195,-0.47832 -0.19952,-0.20315 -0.35577,-0.44231 -0.46742,-0.7183 -0.11297,-0.276 -0.16913,-0.57759 -0.16913,-0.90362 0,-0.32042 0.0562,-0.61822 0.16913,-0.89421 0.11149,-0.27417 0.26708,-0.51234 0.46164,-0.71268 0.19572,-0.19853 0.43009,-0.35726 0.70327,-0.47353 0.27137,-0.1143 0.56569,-0.17293 0.88611,-0.17293 0.7259,0 1.33553,0.3006 1.82888,0.90362 v -2.54817 c -0.34883,-0.14369 -0.67966,-0.25138 -0.99529,-0.32141 -0.31662,-0.0671 -0.63655,-0.10207 -0.96456,-0.10207 -0.5728,0 -1.12048,0.1067 -1.64323,0.32141 -0.52275,0.21356 -0.98108,0.51036 -1.37665,0.89123 -0.39557,0.38087 -0.7117,0.83458 -0.94623,1.36113 -0.23586,0.52654 -0.35494,1.10495 -0.35494,1.73638 0,0.63142 0.12057,1.21363 0.35923,1.74678 0.24032,0.53381 0.55744,0.9943 0.954,1.38177 z m -9.47668,-5.40271 v 6.39882 h 2.13344 v -6.39882 h 1.75339 v -1.8074 h -5.63923 v 1.8074 z m -6.57373,3.24202 2.0345,3.15697 h 2.65652 l -2.58054,-3.36309 c 0.58799,-0.13792 1.03228,-0.40086 1.33371,-0.78933 0.30142,-0.38846 0.45222,-0.89503 0.45222,-1.51885 0,-0.34784 -0.0581,-0.67487 -0.17012,-0.97927 -0.11198,-0.3044 -0.27831,-0.57279 -0.50045,-0.80633 -0.22017,-0.23057 -0.50243,-0.4149 -0.84267,-0.54918 -0.34173,-0.13411 -0.7406,-0.20034 -1.19712,-0.20034 h -3.32031 v 8.20622 h 2.13426 z m 0,-3.40653 h 0.40218 c 0.41968,0 0.7434,0.0869 0.96885,0.26097 0.22347,0.17391 0.33595,0.4243 0.33595,0.75133 0,0.3262 -0.11248,0.57758 -0.33595,0.7515 -0.22545,0.17392 -0.54917,0.26096 -0.96885,0.26096 h -0.40218 z m -11.29844,5.5408 c 0.39837,0.39127 0.8757,0.69749 1.42966,0.92063 0.55578,0.22115 1.16772,0.33181 1.83466,0.33181 0.66066,0 1.27028,-0.11049 1.82936,-0.33181 0.5581,-0.22314 1.03889,-0.52936 1.4419,-0.92063 0.403,-0.39227 0.71599,-0.8506 0.94144,-1.37632 0.22594,-0.52738 0.33825,-1.09455 0.33825,-1.70517 0,-0.6088 -0.11247,-1.17762 -0.33825,-1.70318 -0.22545,-0.52556 -0.53828,-0.98488 -0.94144,-1.37616 -0.40317,-0.39226 -0.8838,-0.69848 -1.4419,-0.92062 -0.55908,-0.22116 -1.1687,-0.33083 -1.82936,-0.33083 -0.66694,0 -1.27888,0.10967 -1.83466,0.33083 -0.55396,0.22214 -1.03129,0.52836 -1.42966,0.92062 -0.39888,0.39128 -0.7122,0.8506 -0.93814,1.37616 -0.22364,0.52556 -0.33644,1.09455 -0.33644,1.70318 0,0.61062 0.11297,1.17779 0.33644,1.70517 0.22594,0.52555 0.53926,0.98405 0.93814,1.37632 z m 1.14327,-3.98494 c 0.12288,-0.27417 0.2892,-0.51416 0.49995,-0.71748 0.21075,-0.20315 0.45553,-0.36204 0.73433,-0.47253 0.27929,-0.11248 0.5756,-0.16913 0.8866,-0.16913 0.31382,0 0.6083,0.0566 0.8876,0.16913 0.27979,0.11049 0.52737,0.26938 0.74159,0.47253 0.21273,0.20316 0.38137,0.44331 0.50425,0.71748 0.12437,0.27599 0.18614,0.57659 0.18614,0.90362 0,0.32702 -0.0619,0.62961 -0.18614,0.90461 -0.12288,0.27516 -0.29152,0.51515 -0.50425,0.71747 -0.21405,0.20415 -0.4618,0.36204 -0.74159,0.47452 -0.2793,0.11248 -0.57378,0.16913 -0.8876,0.16913 -0.311,0 -0.60731,-0.0568 -0.8866,-0.16913 -0.2788,-0.11248 -0.52358,-0.27037 -0.73433,-0.47452 -0.21075,-0.20232 -0.37707,-0.44231 -0.49995,-0.71747 -0.12388,-0.275 -0.18581,-0.57759 -0.18581,-0.90461 0,-0.32703 0.0619,-0.62763 0.18581,-0.90362 z m -8.01249,-3.19875 v 8.20622 h 2.13327 v -3.22105 h 2.34072 v -1.80723 h -2.34072 v -1.37054 h 2.56915 v -1.8074 z m 97.69363,27.53648 c 1.62588,-0.38087 2.85356,-1.10677 3.68714,-2.18051 0.83078,-1.07374 1.24684,-2.4717 1.24684,-4.19767 0,-0.96308 -0.1541,-1.86488 -0.46494,-2.70805 -0.31084,-0.84316 -0.77133,-1.58409 -1.38376,-2.22675 -0.61259,-0.64084 -1.39151,-1.14757 -2.33081,-1.51902 -0.9454,-0.37146 -2.04738,-0.55678 -3.31007,-0.55678 h -9.17789 v 22.68658 h 5.89804 v -8.726 l 5.62586,8.726 h 7.34142 z m -2.0454,-3.97074 c -0.62202,0.48113 -1.51523,0.72211 -2.67782,0.72211 h -1.11239 v -5.59646 h 1.11239 c 1.16259,0 2.0558,0.24098 2.67782,0.7231 0.62201,0.47997 0.93202,1.17201 0.93202,2.07546 0,0.90197 -0.31001,1.59467 -0.93202,2.07579 z m -16.72049,-6.58992 c -1.11337,-1.08315 -2.44246,-1.93094 -3.98493,-2.54255 -1.54628,-0.61061 -3.2308,-0.91683 -5.05587,-0.91683 -1.84605,0 -3.53684,0.30622 -5.07189,0.91683 -1.53405,0.61161 -2.85174,1.4594 -3.9557,2.54255 -1.10198,1.08316 -1.96596,2.35361 -2.5878,3.80722 -0.62119,1.45478 -0.9322,3.02285 -0.9322,4.70803 0,1.68535 0.31101,3.25425 0.9322,4.71001 0.62184,1.45379 1.48582,2.72209 2.5878,3.80541 1.10413,1.08315 2.42165,1.93193 3.9557,2.54255 1.53505,0.61061 3.22584,0.91699 5.07189,0.91699 1.82524,0 3.50959,-0.30621 5.05587,-0.91699 1.54247,-0.61045 2.87156,-1.4594 3.98493,-2.54255 1.11338,-1.08332 1.98017,-2.35162 2.60317,-3.80541 0.62201,-1.4556 0.93368,-3.0245 0.93368,-4.71001 0,-1.68518 -0.31183,-3.25325 -0.93368,-4.70803 -0.623,-1.45361 -1.48979,-2.72406 -2.60317,-3.80722 z m -3.14276,11.01238 c -0.34304,0.7629 -0.80815,1.42455 -1.39993,1.98578 -0.59361,0.5614 -1.27508,1.00008 -2.04739,1.30927 -0.77116,0.311 -1.5879,0.46593 -2.45088,0.46593 -0.86299,0 -1.67957,-0.15493 -2.45089,-0.46593 -0.77495,-0.30919 -1.4518,-0.74771 -2.03219,-1.30927 -0.58221,-0.56123 -1.04351,-1.22288 -1.38474,-1.98578 -0.34041,-0.76075 -0.51152,-1.5945 -0.51152,-2.49713 0,-0.90262 0.17111,-1.73439 0.51152,-2.49812 0.34106,-0.76009 0.80237,-1.42339 1.38474,-1.98495 0.58039,-0.5614 1.25707,-0.99826 2.03219,-1.31009 0.77132,-0.31018 1.5879,-0.46593 2.45089,-0.46593 0.86298,0 1.67972,0.15575 2.45088,0.46593 0.77231,0.31183 1.45378,0.74853 2.04739,1.31009 0.59178,0.56139 1.05672,1.22486 1.39993,1.98495 0.33942,0.76373 0.51053,1.5955 0.51053,2.49812 0,0.90263 -0.17128,1.73638 -0.51053,2.49713 z m -35.88441,-13.84033 v 4.99442 h 4.84313 v 17.69215 h 5.89706 v -17.69215 h 4.84511 v -4.99442 z m -13.8296,0 -8.63532,22.68657 h 6.2875 l 1.35501,-3.9415 h 8.42408 l 1.35551,3.9415 h 6.28701 l -8.63483,-22.68657 z m 0.5723,14.26101 2.64759,-7.55217 2.64694,7.55217 z m -17.8256,3.43312 v -3.91326 h 6.61981 v -4.99426 h -6.61981 v -3.79219 h 7.01158 v -4.99442 h -12.90864 v 22.68657 h 12.90864 v -4.99244 z m -12.04466,-6.48603 c 0.83177,-1.07374 1.24864,-2.4717 1.24864,-4.19767 0,-0.96308 -0.15591,-1.86488 -0.4656,-2.70805 -0.31232,-0.843 -0.77264,-1.58409 -1.38424,-2.22675 -0.61161,-0.64084 -1.39036,-1.14757 -2.3318,-1.51902 -0.94425,-0.37146 -2.04722,-0.55678 -3.31008,-0.55678 h -9.17739 v 22.68658 h 5.89755 v -8.726 l 5.62667,8.726 h 7.34142 l -7.131,-9.29797 c 1.6244,-0.3807 2.85373,-1.1066 3.68583,-2.18034 z m -5.73156,-1.79023 c -0.62102,0.48113 -1.51473,0.72211 -2.67865,0.72211 h -1.11255 v -5.59646 h 1.11255 c 1.16392,0 2.05763,0.24098 2.67865,0.7231 0.62102,0.47997 0.93285,1.17201 0.93285,2.07546 0,0.90197 -0.31183,1.59467 -0.93285,2.07579 z m -19.30531,-10.0493 c -1.58361,0 -3.10032,0.2968 -4.54303,0.88661 -1.4452,0.59162 -2.71367,1.41497 -3.80623,2.4669 -1.09405,1.05491 -1.96646,2.30835 -2.6182,3.7618 -0.65223,1.4556 -0.97777,3.0549 -0.97777,4.79788 0,1.74679 0.33132,3.35632 0.99247,4.82992 0.66264,1.4746 1.53967,2.74951 2.63372,3.82242 1.09174,1.07373 2.35542,1.90551 3.79071,2.49729 1.43379,0.59162 2.93283,0.88661 4.4986,0.88661 0.76174,0 1.53355,-0.0747 2.31611,-0.22496 0.78205,-0.1503 1.62472,-0.38566 2.52801,-0.7069 l 0.6017,-0.20993 v -6.98136 c -1.50482,1.60491 -3.19908,2.40646 -5.08477,2.40646 -0.8625,0 -1.66503,-0.15889 -2.40745,-0.48014 -0.74242,-0.32141 -1.38904,-0.76372 -1.94102,-1.32512 -0.55148,-0.56139 -0.98207,-1.22304 -1.29308,-1.98578 -0.31232,-0.76174 -0.46642,-1.5945 -0.46642,-2.49812 0,-0.88099 0.1541,-1.70318 0.46642,-2.46707 0.31101,-0.76009 0.73681,-1.41777 1.2769,-1.97075 0.54355,-0.55115 1.19001,-0.98686 1.94184,-1.30728 0.75282,-0.32124 1.56907,-0.48294 2.45188,-0.48294 2.00576,0 3.6916,0.8326 5.05537,2.49812 v -7.04165 c -0.96275,-0.40069 -1.8814,-0.69567 -2.75281,-0.8866 -0.87323,-0.19093 -1.76066,-0.28541 -2.66295,-0.28541 z m 31.08429,-17.90747 h 76.0586 c 5.18261,0 9.26562,3.87406 9.26562,8.57422 0,1.21477 -0.27611,2.36079 -0.77148,3.41211 l -0.95117,2.02148 h 5.41796 c 6.33662,0 10.81727,1.22558 13.68555,3.8086 2.86828,2.58301 4.38672,6.68533 4.38672,13.13281 v 10.125 c 0,0 -0.0153,1.14566 -0.63086,2.27344 -0.61561,1.12777 -1.60866,2.21679 -4.40625,2.21679 h -20.06836 l 1.16211,2.10352 c 0.65244,1.18041 1.02344,2.525539 1.02344,3.970699 0,4.56062 -3.66581,8.22852 -8.22461,8.22852 h -18.94336 c -4.55801,0 -8.22656,-3.6684 -8.22656,-8.22852 0,-1.44571 0.37189,-2.791409 1.02539,-3.970699 l 1.16601,-2.10352 h -84.08984 c -4.36618,0 -7.81828,-1.72702 -10.26758,-4.54882 -2.4493,-2.82181 -3.86914,-6.78203 -3.86914,-11.22852 0,-4.44745 1.41986,-8.40867 3.86914,-11.23047 2.44928,-2.82179 5.90136,-4.54883 10.26758,-4.54883 h 25.57812 l -0.95117,-2.02148 c -0.49538,-1.05237 -0.77148,-2.198 -0.77148,-3.41211 0,-4.70008 4.083,-8.57422 9.26562,-8.57422 z m 68.85352,-26.3829 c -3.55976,-0.066 -7.14253,0.20826 -10.70117,0.83398 -0.58782,0.10323 -1.17767,0.21879 -1.76368,0.33985 -2.35359,0.49153 -4.3353,2.00478 -5.42968,4.14648 -1.09455,2.14285 -1.16287,4.63156 -0.1836,6.83008 1.21644,2.73067 2.09354,5.60446 2.61133,8.54688 0.16576,0.9435 0.28774,1.89492 0.37891,2.8496 h 22.29297 c 2.10191,0 4.08837,0.514 5.82226,1.41602 0.26048,-4.40749 1.31273,-8.7439 3.11914,-12.77148 0.9829,-2.1957 0.92262,-4.68544 -0.16797,-6.82813 -1.08893,-2.14367 -3.06635,-3.66109 -5.41797,-4.15625 -3.46367,-0.73399 -7.00079,-1.14099 -10.56054,-1.20703 z m 41.07422,62.34766 v 5.10742 c 0,0 0.0184,1.80841 -0.97852,3.63476 -0.99693,1.82636 -3.23268,3.69141 -6.89453,3.69141 h -15.58398 c 0.31931,1.0323 0.53515,2.106299 0.53515,3.240229 0,1.62776 -0.36409,3.17029 -1,4.56446 4.38524,2.56135 8.20164,6.01713 11.16602,10.12304 1.40919,1.94994 3.59718,3.14088 6,3.26954 2.40067,0.12668 4.70283,-0.82601 6.31054,-2.61524 5.2468,-5.84138 9.13609,-12.64788 11.52735,-19.931639 0.75051,-2.28457 0.4295,-4.75347 -0.87695,-6.77344 -1.30612,-2.01814 -3.43002,-3.32253 -5.82227,-3.57226 -1.47577,-0.15479 -2.93936,-0.40584 -4.38281,-0.73828 z m -94.78321,12.43359 c 1.11031,3.101629 2.49346,6.156479 4.19727,9.113279 1.96596,3.41611 4.24876,6.54787 6.77148,9.375 1.60111,1.79484 3.90482,2.7568 6.30664,2.63672 2.40035,-0.1209 4.59857,-1.31085 6.01172,-3.25781 2.5095,-3.45801 5.62394,-6.45118 9.16992,-8.83789 -1.04368,-1.6874 -1.6582,-3.66653 -1.6582,-5.78907 0,-1.13345 0.21567,-2.207659 0.53516,-3.240229 z" /><rect
   style="vector-effect:non-scaling-stroke;fill:none;stroke:#f36926;stroke-width:1.0602;stroke-dasharray:none;stroke-opacity:1;-inkscape-stroke:hairline"
   id="rect82"
   width="372"
   height="372"
   x="-480"
   y="0" /><rect
   style="vector-effect:non-scaling-stroke;fill:none;stroke:#f36926;stroke-width:0.989439;stroke-dasharray:none;stroke-opacity:1;-inkscape-stroke:hairline"
   id="rect83"
   width="372"
   height="324"
   x="-480"
   y="0" /><text
   xml:space="preserve"
   style="vector-effect:non-scaling-stroke;fill:none;stroke:#000000;stroke-width:1;stroke-dasharray:none;stroke-opacity:1;-inkscape-stroke:hairline"
   x="-368.07355"
   y="174.96559"
   id="text83"><tspan
     sodipodi:role="line"
     x="-368.07355"
     y="174.96559"
     style="font-style:italic;font-variant:normal;font-weight:normal;font-stretch:normal;font-size:28.8px;font-family:'Nunito Sans 10pt';-inkscape-font-specification:'Nunito Sans 10pt';fill:#000000;fill-opacity:1;stroke:none"
     id="tspan86">FOUNDER</tspan></text><text
   xml:space="preserve"
   style="vector-effect:non-scaling-stroke;fill:none;stroke:#000000;stroke-width:1;stroke-dasharray:none;stroke-opacity:1;-inkscape-stroke:hairline"
   x="-293.82721"
   y="237.416"
   id="text84"><tspan
     sodipodi:role="line"
     id="tspan84"
     x="-293.82721"
     y="237.416"
     style="font-style:normal;font-variant:normal;font-weight:normal;font-stretch:normal;font-size:28.8px;font-family:'Nunito Sans 10pt';-inkscape-font-specification:'Nunito Sans 10pt';text-align:center;text-anchor:middle;fill:#000000;fill-opacity:1;stroke:none">Stephen Warren</tspan><tspan
     sodipodi:role="line"
     x="-293.82721"
     y="273.41599"
     style="font-style:normal;font-variant:normal;font-weight:normal;font-stretch:normal;font-size:28.8px;font-family:'Nunito Sans 10pt';-inkscape-font-specification:'Nunito Sans 10pt';text-align:center;text-anchor:middle;fill:#000000;fill-opacity:1;stroke:none"
     id="tspan85">and Family</tspan></text><rect
   style="vector-effect:non-scaling-stroke;fill:#000000;stroke-width:0.72724;-inkscape-stroke:hairline"
   id="rect1"
   width="72"
   height="3.7795274"
   x="-456"
   y="162.92383" /><rect
   style="vector-effect:non-scaling-stroke;fill:#000000;stroke-width:0.72724;-inkscape-stroke:hairline"
   id="rect2"
   width="72"
   height="3.7795274"
   x="-204"
   y="162.92383" /><rect
   style="vector-effect:non-scaling-stroke;fill:none;stroke:#f36926;stroke-width:0.435625;stroke-dasharray:none;stroke-opacity:1;-inkscape-stroke:hairline"
   id="rect8"
   width="372"
   height="62.804813"
   x="-480"
   y="216.2952" /><path
   id="path1"
   style="vector-effect:non-scaling-stroke;fill:none;stroke:#000000;stroke-width:1;stroke-dasharray:none;stroke-opacity:1;-inkscape-stroke:hairline"
   d="m 227.55026,102.16639 c -0.13412,-0.17309 -0.30804,-0.32141 -0.52358,-0.44049 -0.21372,-0.11925 -0.47353,-0.20795 -0.77693,-0.26658 0.3034,-0.18812 0.53117,-0.41968 0.67949,-0.69088 0.14831,-0.2722 0.22313,-0.61541 0.22313,-1.028489 0,-0.68345 -0.19572,-1.20521 -0.58699,-1.56807 -0.39326,-0.36287 -0.96506,-0.54455 -1.7202,-0.54455 h -3.17777 v 8.208199 h 3.42734 c 0.43471,0 0.82797,-0.0512 1.17581,-0.15327 0.34965,-0.10207 0.64348,-0.2532 0.88743,-0.45553 0.24296,-0.20414 0.43091,-0.45569 0.56618,-0.75249 0.13428,-0.29878 0.20051,-0.63886 0.20051,-1.0227 0,-0.24758 -0.0284,-0.48013 -0.0869,-0.69749 -0.0588,-0.21719 -0.1541,-0.41275 -0.28755,-0.58766 z m -3.75057,-2.905579 h 0.39326 c 0.66545,0 1.00007,0.26476 1.00007,0.794769 0,0.52936 -0.33446,0.79412 -1.00007,0.79412 h -0.39326 z m 1.62291,4.712819 c -0.23338,0.13808 -0.61706,0.20794 -1.15401,0.20794 h -0.4689 v -1.74299 h 0.4689 c 0.53695,0 0.92063,0.069 1.15401,0.20613 0.23156,0.1389 0.34784,0.36022 0.34784,0.66528 1.6e-4,0.3044 -0.11611,0.52573 -0.34784,0.66364 z m -7.59842,-1.88288 c 0,0.23899 -0.01,0.48492 -0.0274,0.73531 -0.0178,0.24957 -0.0737,0.47634 -0.16913,0.68048 -0.0927,0.20233 -0.23735,0.36865 -0.4291,0.49335 -0.19292,0.12751 -0.4661,0.19192 -0.82236,0.19192 -0.35527,0 -0.63027,-0.0644 -0.82698,-0.19192 -0.19572,-0.1247 -0.34041,-0.29119 -0.43009,-0.49335 -0.0907,-0.20414 -0.14551,-0.43091 -0.16252,-0.68048 -0.0188,-0.25055 -0.0274,-0.49632 -0.0274,-0.73531 v -4.463259 h -2.13344 v 4.758239 c 0,1.27607 0.29301,2.20793 0.88198,2.79691 0.58799,0.58699 1.48682,0.88198 2.69847,0.88198 1.21182,0 2.10965,-0.29499 2.69467,-0.88198 0.5832,-0.58882 0.87537,-1.52084 0.87537,-2.79691 v -4.758239 h -2.12204 z M 203.7285,97.627491 v 8.208209 h 2.13344 v -3.38572 h 3.08033 v 3.38572 h 2.13327 v -8.208209 h -2.13327 v 3.168199 h -3.08033 v -3.168199 z m 20.8653,-36.21623 c -0.3044,0 -0.61243,-0.068 -0.92344,-0.20596 -0.31298,-0.13808 -0.62861,-0.34982 -0.94804,-0.63143 l -0.91403,1.72036 c 0.88562,0.61541 1.84605,0.92542 2.88378,0.92542 0.50293,0 0.94904,-0.067 1.34593,-0.20232 0.39524,-0.13329 0.72673,-0.32241 1.0019,-0.56619 0.27037,-0.24197 0.47831,-0.53497 0.61903,-0.8762 0.14072,-0.34123 0.21175,-0.72111 0.21175,-1.14278 0,-0.62482 -0.1617,-1.13039 -0.4841,-1.51786 -0.32224,-0.38946 -0.8326,-0.69849 -1.53026,-0.93203 -0.1721,-0.0568 -0.34866,-0.11149 -0.52654,-0.16252 -0.17871,-0.0502 -0.33744,-0.11149 -0.48113,-0.17772 -0.13791,-0.0699 -0.25518,-0.15311 -0.34106,-0.24577 -0.0861,-0.0945 -0.13049,-0.21554 -0.13049,-0.35907 0,-0.21174 0.0879,-0.38186 0.2608,-0.51234 0.17491,-0.13048 0.39788,-0.19654 0.67404,-0.19654 0.21719,0 0.4433,0.0454 0.67767,0.13708 0.22975,0.0897 0.4623,0.22975 0.69667,0.4187 l 0.84696,-1.66536 c -0.40647,-0.21736 -0.82979,-0.38368 -1.27325,-0.49533 -0.44331,-0.11248 -0.86662,-0.16831 -1.2731,-0.16831 -0.43686,0 -0.83078,0.0652 -1.18142,0.19573 -0.34982,0.13147 -0.65042,0.31298 -0.89321,0.54917 -0.2428,0.23619 -0.43191,0.51895 -0.56536,0.84878 -0.13329,0.33083 -0.20134,0.69849 -0.20134,1.10595 0,0.40647 0.0644,0.74208 0.19093,1.00569 0.12668,0.26476 0.29218,0.48591 0.50095,0.65884 0.20794,0.17491 0.44049,0.3148 0.70591,0.41869 0.26559,0.10587 0.53596,0.20233 0.81195,0.28921 0.23355,0.0793 0.42927,0.15311 0.59179,0.21735 0.16434,0.0662 0.2968,0.1361 0.39788,0.21175 0.10207,0.0775 0.17574,0.1607 0.21819,0.25138 0.0436,0.0907 0.0662,0.19753 0.0662,0.32042 0,0.20315 -0.087,0.38467 -0.25634,0.54537 -0.17062,0.15955 -0.42959,0.23784 -0.77925,0.23784 z m -6.25827,-1.60953 -3.93869,-5.01821 h -2.13409 v 8.20622 h 2.13409 v -5.01705 l 3.93869,5.01705 h 2.12403 v -8.20622 h -2.12403 z m -9.92725,-5.01818 h 2.13608 v 8.20622 h -2.13608 z m -5.78936,-3e-5 v 8.20622 h 4.69086 v -1.80707 h -2.5556 v -6.39915 z m -5.79035,0 v 8.20622 h 4.69102 v -1.80707 h -2.55775 v -6.39915 z m -9.1665,7.18369 c 0.3997,0.39127 0.87621,0.69749 1.43281,0.92063 0.55479,0.22115 1.16458,0.33181 1.83284,0.33181 0.66165,0 1.27028,-0.11049 1.82804,-0.33181 0.56057,-0.22314 1.04154,-0.52936 1.44223,-0.92063 0.40267,-0.39227 0.71747,-0.8506 0.94325,-1.37632 0.22397,-0.52738 0.33661,-1.09455 0.33661,-1.70517 0,-0.6088 -0.11264,-1.17762 -0.33661,-1.70318 -0.22578,-0.52556 -0.54058,-0.98488 -0.94325,-1.37616 -0.40086,-0.39226 -0.88182,-0.69848 -1.44223,-0.92062 -0.55776,-0.22116 -1.16639,-0.33083 -1.82804,-0.33083 -0.66826,0 -1.27788,0.10967 -1.83284,0.33083 -0.5566,0.22214 -1.03311,0.52836 -1.43281,0.92062 -0.39804,0.39128 -0.70987,0.8506 -0.93582,1.37616 -0.22396,0.52556 -0.33644,1.09455 -0.33644,1.70318 0,0.61062 0.11248,1.17779 0.33644,1.70517 0.22595,0.52555 0.53778,0.98405 0.93582,1.37632 z m 1.14361,-3.98494 c 0.12288,-0.27417 0.2892,-0.51416 0.50094,-0.71748 0.20993,-0.20315 0.45569,-0.36204 0.73433,-0.47253 0.27979,-0.11248 0.57461,-0.16913 0.8866,-0.16913 0.312,0 0.60781,0.0566 0.88661,0.16913 0.27962,0.11049 0.52737,0.26938 0.74291,0.47253 0.21257,0.20316 0.38186,0.44331 0.50475,0.71748 0.12189,0.27599 0.18432,0.57659 0.18432,0.90362 0,0.32702 -0.0624,0.62961 -0.18432,0.90461 -0.12289,0.27516 -0.29218,0.51515 -0.50475,0.71747 -0.21554,0.20415 -0.46329,0.36204 -0.74291,0.47452 -0.2788,0.11248 -0.57461,0.16913 -0.88661,0.16913 -0.31199,0 -0.60681,-0.0568 -0.8866,-0.16913 -0.2788,-0.11248 -0.52457,-0.27037 -0.73433,-0.47452 -0.21174,-0.20232 -0.37806,-0.44231 -0.50094,-0.71747 -0.12289,-0.275 -0.18614,-0.57759 -0.18614,-0.90461 0,-0.32703 0.0632,-0.62763 0.18614,-0.90362 z m -8.48304,4.01136 c 0.39358,0.38946 0.8506,0.69006 1.37054,0.90362 0.51944,0.21356 1.06151,0.32224 1.62753,0.32224 0.2755,0 0.5543,-0.0274 0.83788,-0.0823 0.28178,-0.0548 0.587,-0.14088 0.91452,-0.25518 l 0.21736,-0.0775 v -2.52554 c -0.54488,0.58221 -1.15781,0.87241 -1.83928,0.87241 -0.3115,0 -0.60219,-0.0596 -0.87141,-0.17491 -0.26839,-0.11529 -0.50243,-0.27599 -0.70195,-0.47832 -0.19952,-0.20315 -0.35577,-0.44231 -0.46742,-0.7183 -0.11297,-0.276 -0.16913,-0.57759 -0.16913,-0.90362 0,-0.32042 0.0562,-0.61822 0.16913,-0.89421 0.11149,-0.27417 0.26708,-0.51234 0.46164,-0.71268 0.19572,-0.19853 0.43009,-0.35726 0.70327,-0.47353 0.27137,-0.1143 0.56569,-0.17293 0.88611,-0.17293 0.7259,0 1.33553,0.3006 1.82888,0.90362 v -2.54817 c -0.34883,-0.14369 -0.67966,-0.25138 -0.99529,-0.32141 -0.31662,-0.0671 -0.63655,-0.10207 -0.96456,-0.10207 -0.5728,0 -1.12048,0.1067 -1.64323,0.32141 -0.52275,0.21356 -0.98108,0.51036 -1.37665,0.89123 -0.39557,0.38087 -0.7117,0.83458 -0.94623,1.36113 -0.23586,0.52654 -0.35494,1.10495 -0.35494,1.73638 0,0.63142 0.12057,1.21363 0.35923,1.74678 0.24032,0.53381 0.55744,0.9943 0.954,1.38177 z m -9.47668,-5.40271 v 6.39882 h 2.13344 v -6.39882 h 1.75339 v -1.8074 h -5.63923 v 1.8074 z m -6.57373,3.24202 2.0345,3.15697 h 2.65652 l -2.58054,-3.36309 c 0.58799,-0.13792 1.03228,-0.40086 1.33371,-0.78933 0.30142,-0.38846 0.45222,-0.89503 0.45222,-1.51885 0,-0.34784 -0.0581,-0.67487 -0.17012,-0.97927 -0.11198,-0.3044 -0.27831,-0.57279 -0.50045,-0.80633 -0.22017,-0.23057 -0.50243,-0.4149 -0.84267,-0.54918 -0.34173,-0.13411 -0.7406,-0.20034 -1.19712,-0.20034 h -3.32031 v 8.20622 h 2.13426 z m 0,-3.40653 h 0.40218 c 0.41968,0 0.7434,0.0869 0.96885,0.26097 0.22347,0.17391 0.33595,0.4243 0.33595,0.75133 0,0.3262 -0.11248,0.57758 -0.33595,0.7515 -0.22545,0.17392 -0.54917,0.26096 -0.96885,0.26096 h -0.40218 z m -11.29844,5.5408 c 0.39837,0.39127 0.8757,0.69749 1.42966,0.92063 0.55578,0.22115 1.16772,0.33181 1.83466,0.33181 0.66066,0 1.27028,-0.11049 1.82936,-0.33181 0.5581,-0.22314 1.03889,-0.52936 1.4419,-0.92063 0.403,-0.39227 0.71599,-0.8506 0.94144,-1.37632 0.22594,-0.52738 0.33825,-1.09455 0.33825,-1.70517 0,-0.6088 -0.11247,-1.17762 -0.33825,-1.70318 -0.22545,-0.52556 -0.53828,-0.98488 -0.94144,-1.37616 -0.40317,-0.39226 -0.8838,-0.69848 -1.4419,-0.92062 -0.55908,-0.22116 -1.1687,-0.33083 -1.82936,-0.33083 -0.66694,0 -1.27888,0.10967 -1.83466,0.33083 -0.55396,0.22214 -1.03129,0.52836 -1.42966,0.92062 -0.39888,0.39128 -0.7122,0.8506 -0.93814,1.37616 -0.22364,0.52556 -0.33644,1.09455 -0.33644,1.70318 0,0.61062 0.11297,1.17779 0.33644,1.70517 0.22594,0.52555 0.53926,0.98405 0.93814,1.37632 z m 1.14327,-3.98494 c 0.12288,-0.27417 0.2892,-0.51416 0.49995,-0.71748 0.21075,-0.20315 0.45553,-0.36204 0.73433,-0.47253 0.27929,-0.11248 0.5756,-0.16913 0.8866,-0.16913 0.31382,0 0.6083,0.0566 0.8876,0.16913 0.27979,0.11049 0.52737,0.26938 0.74159,0.47253 0.21273,0.20316 0.38137,0.44331 0.50425,0.71748 0.12437,0.27599 0.18614,0.57659 0.18614,0.90362 0,0.32702 -0.0619,0.62961 -0.18614,0.90461 -0.12288,0.27516 -0.29152,0.51515 -0.50425,0.71747 -0.21405,0.20415 -0.4618,0.36204 -0.74159,0.47452 -0.2793,0.11248 -0.57378,0.16913 -0.8876,0.16913 -0.311,0 -0.60731,-0.0568 -0.8866,-0.16913 -0.2788,-0.11248 -0.52358,-0.27037 -0.73433,-0.47452 -0.21075,-0.20232 -0.37707,-0.44231 -0.49995,-0.71747 -0.12388,-0.275 -0.18581,-0.57759 -0.18581,-0.90461 0,-0.32703 0.0619,-0.62763 0.18581,-0.90362 z m -8.01249,-3.19875 v 8.20622 h 2.13327 v -3.22105 h 2.34072 v -1.80723 h -2.34072 v -1.37054 h 2.56915 v -1.8074 z m 97.69363,27.53648 c 1.62588,-0.38087 2.85356,-1.10677 3.68714,-2.18051 0.83078,-1.07374 1.24684,-2.4717 1.24684,-4.19767 0,-0.96308 -0.1541,-1.86488 -0.46494,-2.70805 -0.31084,-0.84316 -0.77133,-1.58409 -1.38376,-2.22675 -0.61259,-0.64084 -1.39151,-1.14757 -2.33081,-1.51902 -0.9454,-0.37146 -2.04738,-0.55678 -3.31007,-0.55678 h -9.17789 v 22.68658 h 5.89804 v -8.726 l 5.62586,8.726 h 7.34142 z m -2.0454,-3.97074 c -0.62202,0.48113 -1.51523,0.72211 -2.67782,0.72211 h -1.11239 v -5.59646 h 1.11239 c 1.16259,0 2.0558,0.24098 2.67782,0.7231 0.62201,0.47997 0.93202,1.17201 0.93202,2.07546 0,0.90197 -0.31001,1.59467 -0.93202,2.07579 z m -16.72049,-6.58992 c -1.11337,-1.08315 -2.44246,-1.93094 -3.98493,-2.54255 -1.54628,-0.61061 -3.2308,-0.91683 -5.05587,-0.91683 -1.84605,0 -3.53684,0.30622 -5.07189,0.91683 -1.53405,0.61161 -2.85174,1.4594 -3.9557,2.54255 -1.10198,1.08316 -1.96596,2.35361 -2.5878,3.80722 -0.62119,1.45478 -0.9322,3.02285 -0.9322,4.70803 0,1.68535 0.31101,3.25425 0.9322,4.71001 0.62184,1.45379 1.48582,2.72209 2.5878,3.80541 1.10413,1.08315 2.42165,1.93193 3.9557,2.54255 1.53505,0.61061 3.22584,0.91699 5.07189,0.91699 1.82524,0 3.50959,-0.30621 5.05587,-0.91699 1.54247,-0.61045 2.87156,-1.4594 3.98493,-2.54255 1.11338,-1.08332 1.98017,-2.35162 2.60317,-3.80541 0.62201,-1.4556 0.93368,-3.0245 0.93368,-4.71001 0,-1.68518 -0.31183,-3.25325 -0.93368,-4.70803 -0.623,-1.45361 -1.48979,-2.72406 -2.60317,-3.80722 z m -3.14276,11.01238 c -0.34304,0.7629 -0.80815,1.42455 -1.39993,1.98578 -0.59361,0.5614 -1.27508,1.00008 -2.04739,1.30927 -0.77116,0.311 -1.5879,0.46593 -2.45088,0.46593 -0.86299,0 -1.67957,-0.15493 -2.45089,-0.46593 -0.77495,-0.30919 -1.4518,-0.74771 -2.03219,-1.30927 -0.58221,-0.56123 -1.04351,-1.22288 -1.38474,-1.98578 -0.34041,-0.76075 -0.51152,-1.5945 -0.51152,-2.49713 0,-0.90262 0.17111,-1.73439 0.51152,-2.49812 0.34106,-0.76009 0.80237,-1.42339 1.38474,-1.98495 0.58039,-0.5614 1.25707,-0.99826 2.03219,-1.31009 0.77132,-0.31018 1.5879,-0.46593 2.45089,-0.46593 0.86298,0 1.67972,0.15575 2.45088,0.46593 0.77231,0.31183 1.45378,0.74853 2.04739,1.31009 0.59178,0.56139 1.05672,1.22486 1.39993,1.98495 0.33942,0.76373 0.51053,1.5955 0.51053,2.49812 0,0.90263 -0.17128,1.73638 -0.51053,2.49713 z m -35.88441,-13.84033 v 4.99442 h 4.84313 v 17.69215 h 5.89706 v -17.69215 h 4.84511 v -4.99442 z m -13.8296,0 -8.63532,22.68657 h 6.2875 l 1.35501,-3.9415 h 8.42408 l 1.35551,3.9415 h 6.28701 l -8.63483,-22.68657 z m 0.5723,14.26101 2.64759,-7.55217 2.64694,7.55217 z m -17.8256,3.43312 v -3.91326 h 6.61981 v -4.99426 h -6.61981 v -3.79219 h 7.01158 v -4.99442 h -12.90864 v 22.68657 h 12.90864 v -4.99244 z m -12.04466,-6.48603 c 0.83177,-1.07374 1.24864,-2.4717 1.24864,-4.19767 0,-0.96308 -0.15591,-1.86488 -0.4656,-2.70805 -0.31232,-0.843 -0.77264,-1.58409 -1.38424,-2.22675 -0.61161,-0.64084 -1.39036,-1.14757 -2.3318,-1.51902 -0.94425,-0.37146 -2.04722,-0.55678 -3.31008,-0.55678 h -9.17739 v 22.68658 h 5.89755 v -8.726 l 5.62667,8.726 h 7.34142 l -7.131,-9.29797 c 1.6244,-0.3807 2.85373,-1.1066 3.68583,-2.18034 z m -5.73156,-1.79023 c -0.62102,0.48113 -1.51473,0.72211 -2.67865,0.72211 h -1.11255 v -5.59646 h 1.11255 c 1.16392,0 2.05763,0.24098 2.67865,0.7231 0.62102,0.47997 0.93285,1.17201 0.93285,2.07546 0,0.90197 -0.31183,1.59467 -0.93285,2.07579 z m -19.30531,-10.0493 c -1.58361,0 -3.10032,0.2968 -4.54303,0.88661 -1.4452,0.59162 -2.71367,1.41497 -3.80623,2.4669 -1.09405,1.05491 -1.96646,2.30835 -2.6182,3.7618 -0.65223,1.4556 -0.97777,3.0549 -0.97777,4.79788 0,1.74679 0.33132,3.35632 0.99247,4.82992 0.66264,1.4746 1.53967,2.74951 2.63372,3.82242 1.09174,1.07373 2.35542,1.90551 3.79071,2.49729 1.43379,0.59162 2.93283,0.88661 4.4986,0.88661 0.76174,0 1.53355,-0.0747 2.31611,-0.22496 0.78205,-0.1503 1.62472,-0.38566 2.52801,-0.7069 l 0.6017,-0.20993 v -6.98136 c -1.50482,1.60491 -3.19908,2.40646 -5.08477,2.40646 -0.8625,0 -1.66503,-0.15889 -2.40745,-0.48014 -0.74242,-0.32141 -1.38904,-0.76372 -1.94102,-1.32512 -0.55148,-0.56139 -0.98207,-1.22304 -1.29308,-1.98578 -0.31232,-0.76174 -0.46642,-1.5945 -0.46642,-2.49812 0,-0.88099 0.1541,-1.70318 0.46642,-2.46707 0.31101,-0.76009 0.73681,-1.41777 1.2769,-1.97075 0.54355,-0.55115 1.19001,-0.98686 1.94184,-1.30728 0.75282,-0.32124 1.56907,-0.48294 2.45188,-0.48294 2.00576,0 3.6916,0.8326 5.05537,2.49812 v -7.04165 c -0.96275,-0.40069 -1.8814,-0.69567 -2.75281,-0.8866 -0.87323,-0.19093 -1.76066,-0.28541 -2.66295,-0.28541 z M 148.925,50.392491 h 76.0586 c 5.18261,0 9.26562,3.87406 9.26562,8.57422 0,1.21477 -0.27611,2.36079 -0.77148,3.41211 l -0.95117,2.02148 h 5.41796 c 6.33662,0 10.81727,1.22558 13.68555,3.8086 2.86828,2.58301 4.38672,6.68533 4.38672,13.13281 v 10.125 c 0,0 -0.0153,1.14566 -0.63086,2.27344 -0.61561,1.12777 -1.60866,2.21679 -4.40625,2.21679 h -20.06836 l 1.16211,2.10352 c 0.65244,1.18041 1.02344,2.525539 1.02344,3.970699 0,4.56062 -3.66581,8.22852 -8.22461,8.22852 h -18.94336 c -4.55801,0 -8.22656,-3.6684 -8.22656,-8.22852 0,-1.44571 0.37189,-2.791409 1.02539,-3.970699 l 1.16601,-2.10352 h -84.08984 c -4.36618,0 -7.81828,-1.72702 -10.26758,-4.54882 -2.4493,-2.82181 -3.86914,-6.78203 -3.86914,-11.22852 0,-4.44745 1.41986,-8.40867 3.86914,-11.23047 2.44928,-2.82179 5.90136,-4.54883 10.26758,-4.54883 h 25.57812 l -0.95117,-2.02148 c -0.49538,-1.05237 -0.77148,-2.198 -0.77148,-3.41211 0,-4.70008 4.083,-8.57422 9.26562,-8.57422 z m 68.85352,-26.3829 c -3.55976,-0.066 -7.14253,0.20826 -10.70117,0.83398 -0.58782,0.10323 -1.17767,0.21879 -1.76368,0.33985 -2.35359,0.49153 -4.3353,2.00478 -5.42968,4.14648 -1.09455,2.14285 -1.16287,4.63156 -0.1836,6.83008 1.21644,2.73067 2.09354,5.60446 2.61133,8.54688 0.16576,0.9435 0.28774,1.89492 0.37891,2.8496 h 22.29297 c 2.10191,0 4.08837,0.514 5.82226,1.41602 0.26048,-4.40749 1.31273,-8.7439 3.11914,-12.77148 0.9829,-2.1957 0.92262,-4.68544 -0.16797,-6.82813 -1.08893,-2.14367 -3.06635,-3.66109 -5.41797,-4.15625 -3.46367,-0.73399 -7.00079,-1.14099 -10.56054,-1.20703 z m 41.07422,62.34766 v 5.10742 c 0,0 0.0184,1.80841 -0.97852,3.63476 -0.99693,1.82636 -3.23268,3.69141 -6.89453,3.69141 h -15.58398 c 0.31931,1.0323 0.53515,2.106299 0.53515,3.240229 0,1.62776 -0.36409,3.17029 -1,4.56446 4.38524,2.56135 8.20164,6.01713 11.16602,10.12304 1.40919,1.94994 3.59718,3.14088 6,3.26954 2.40067,0.12668 4.70283,-0.82601 6.31054,-2.61524 5.2468,-5.84138 9.13609,-12.64788 11.52735,-19.931639 0.75051,-2.28457 0.4295,-4.75347 -0.87695,-6.77344 -1.30612,-2.01814 -3.43002,-3.32253 -5.82227,-3.57226 -1.47577,-0.15479 -2.93936,-0.40584 -4.38281,-0.73828 z m -94.78321,12.43359 c 1.11031,3.101629 2.49346,6.156479 4.19727,9.113279 1.96596,3.41611 4.24876,6.54787 6.77148,9.375 1.60111,1.79484 3.90482,2.7568 6.30664,2.63672 2.40035,-0.1209 4.59857,-1.31085 6.01172,-3.25781 2.5095,-3.45801 5.62394,-6.45118 9.16992,-8.83789 -1.04368,-1.6874 -1.6582,-3.66653 -1.6582,-5.78907 0,-1.13345 0.21567,-2.207659 0.53516,-3.240229 z" /><rect
   style="vector-effect:non-scaling-stroke;fill:none;stroke:#f36926;stroke-width:1.0602;stroke-dasharray:none;stroke-opacity:1;-inkscape-stroke:hairline"
   id="rect3"
   width="372"
   height="372"
   x="0"
   y="0" /><rect
   style="vector-effect:non-scaling-stroke;fill:none;stroke:#f36926;stroke-width:0.989439;stroke-dasharray:none;stroke-opacity:1;-inkscape-stroke:hairline"
   id="rect4"
   width="372"
   height="324"
   x="0"
   y="0" /><path
   style="font-style:italic;font-size:28.8px;font-family:'Nunito Sans 10pt';-inkscape-font-specification:'Nunito Sans 10pt';fill:none;stroke:#000000;stroke-opacity:1;vector-effect:non-scaling-stroke;-inkscape-stroke:hairline;stroke-width:0.99999999;stroke-dasharray:none"
   d="m 245.01102,163.90639 h 4.3776 q 1.728,0 2.6496,-0.7488 0.9216,-0.7776 1.008,-2.2752 0.0864,-1.3536 -0.72,-2.016 -0.7776,-0.6624 -2.5344,-0.6624 h -3.888 z"
   id="path42" /><path
   id="path41"
   style="font-style:italic;font-size:28.8px;font-family:'Nunito Sans 10pt';-inkscape-font-specification:'Nunito Sans 10pt';fill:none;stroke:#000000;stroke-opacity:1;vector-effect:non-scaling-stroke;-inkscape-stroke:hairline;stroke-width:0.99999999;stroke-dasharray:none"
   d="M 241.90039 154.66211 L 238.67578 174.96484 L 243.2539 174.96484 L 244.49218 167.24804 L 246.91211 167.24804 C 247.35371 167.24804 247.72795 167.30472 248.03515 167.41992 C 248.34235 167.51592 248.6013 167.6879 248.8125 167.9375 C 249.0237 168.1679 249.20577 168.47537 249.35937 168.85937 L 251.63476 174.96484 L 256.38672 174.96484 L 254.16992 169.20508 C 253.86272 168.37948 253.46828 167.74628 252.98828 167.30469 C 252.65992 166.97632 252.26173 166.7584 251.79687 166.64453 C 252.60331 166.508 253.34696 166.28768 254.02539 165.98047 C 255.06219 165.50047 255.88755 164.81874 256.50195 163.93554 C 257.11635 163.05235 257.44207 161.94784 257.48047 160.62304 C 257.55727 159.35585 257.33676 158.28163 256.81836 157.39844 C 256.31916 156.51524 255.54232 155.84166 254.48632 155.38086 C 253.43033 154.90086 252.12551 154.66211 250.57031 154.66211 L 241.90039 154.66211 z " /><path
   style="font-style:italic;font-size:28.8px;font-family:'Nunito Sans 10pt';-inkscape-font-specification:'Nunito Sans 10pt';fill:none;stroke:#000000;stroke-opacity:1;vector-effect:non-scaling-stroke;-inkscape-stroke:hairline;stroke-width:0.99999999;stroke-dasharray:none"
   d="m 220.55984,174.96559 3.1968,-20.304 h 14.1408 l -0.576,3.6 h -9.7632 l -0.72,4.608 h 9.1296 l -0.5472,3.6 h -9.1584 l -0.7776,4.896 h 9.7632 l -0.576,3.6 z"
   id="path40" /><path
   style="font-style:italic;font-size:28.8px;font-family:'Nunito Sans 10pt';-inkscape-font-specification:'Nunito Sans 10pt';fill:none;stroke:#000000;stroke-opacity:1;vector-effect:non-scaling-stroke;-inkscape-stroke:hairline;stroke-width:0.99999999;stroke-dasharray:none"
   d="m 202.93428,171.19279 h 3.6288 q 1.6704,0 2.9376,-0.5184 1.296,-0.5184 2.16,-1.4688 0.864,-0.9504 1.3248,-2.2752 0.4896,-1.3248 0.576,-2.9952 0.1728,-2.7072 -1.2384,-4.0896 -1.4112,-1.4112 -4.2624,-1.4112 h -3.1104 z"
   id="path39" /><path
   style="font-style:italic;font-size:28.8px;font-family:'Nunito Sans 10pt';-inkscape-font-specification:'Nunito Sans 10pt';fill:none;stroke:#000000;stroke-opacity:1;vector-effect:non-scaling-stroke;-inkscape-stroke:hairline;stroke-width:0.99999999;stroke-dasharray:none"
   d="m 197.75028,174.96559 3.2256,-20.304 h 7.3152 q 5.0688,0 7.632,2.448 2.592,2.448 2.3328,6.9408 -0.1152,2.448 -0.9504,4.464 -0.8064,1.9872 -2.3328,3.4272 -1.4976,1.44 -3.6288,2.2464 -2.1312,0.7776 -4.896,0.7776 z"
   id="path38" /><path
   id="path37"
   style="font-style:italic;font-size:28.8px;font-family:'Nunito Sans 10pt';-inkscape-font-specification:'Nunito Sans 10pt';fill:none;stroke:#000000;stroke-opacity:1;vector-effect:non-scaling-stroke;-inkscape-stroke:hairline;stroke-width:0.99999999;stroke-dasharray:none"
   d="M 178.48242 154.66211 L 175.25781 174.96484 L 179.49023 174.96484 L 181.61328 161.56836 L 189.80078 174.96484 L 193.22851 174.96484 L 196.45508 154.66211 L 192.2207 154.66211 L 190.09765 168.14453 L 181.85351 154.66211 L 178.48242 154.66211 z " /><path
   style="font-style:italic;font-size:28.8px;font-family:'Nunito Sans 10pt';-inkscape-font-specification:'Nunito Sans 10pt';fill:none;stroke:#000000;stroke-opacity:1;vector-effect:non-scaling-stroke;-inkscape-stroke:hairline;stroke-width:0.99999999;stroke-dasharray:none"
   d="m 162.38397,175.28239 q -2.0448,0 -3.6576,-0.576 -1.584,-0.576 -2.6496,-1.728 -1.0368,-1.152 -1.44,-2.8512 -0.3744,-1.6992 -0.0288,-3.9168 l 1.8432,-11.5488 h 4.5504 l -1.8432,11.6928 q -0.3744,2.448 0.5184,3.7152 0.9216,1.2672 3.0816,1.2672 2.1024,0 3.2832,-1.0944 1.2096,-1.1232 1.6128,-3.4272 l 1.9296,-12.1536 h 4.5216 l -1.9008,12.1536 q -0.432,2.736 -1.6416,4.6368 -1.2096,1.872 -3.2544,2.8512 -2.016,0.9792 -4.9248,0.9792 z"
   id="path36" /><path
   style="font-style:italic;font-size:28.8px;font-family:'Nunito Sans 10pt';-inkscape-font-specification:'Nunito Sans 10pt';fill:none;stroke:#000000;stroke-opacity:1;vector-effect:non-scaling-stroke;-inkscape-stroke:hairline;stroke-width:0.99999999;stroke-dasharray:none"
   d="m 140.20801,171.36559 q 1.872,0 3.2256,-0.9216 1.3536,-0.9504 2.1312,-2.6208 0.7776,-1.6992 0.864,-3.9456 0.1728,-2.8224 -1.0656,-4.2048 -1.2384,-1.4112 -3.5424,-1.4112 -1.8432,0 -3.1968,0.9216 -1.3536,0.9216 -2.1312,2.592 -0.7488,1.6704 -0.864,3.9456 -0.1728,2.8224 1.0656,4.2336 1.2384,1.4112 3.5136,1.4112 z"
   id="path35" /><path
   style="font-style:italic;font-size:28.8px;font-family:'Nunito Sans 10pt';-inkscape-font-specification:'Nunito Sans 10pt';fill:none;stroke:#000000;stroke-opacity:1;vector-effect:non-scaling-stroke;-inkscape-stroke:hairline;stroke-width:0.99999999;stroke-dasharray:none"
   d="m 140.09281,175.28239 q -2.9376,0 -5.0688,-1.152 -2.1312,-1.1808 -3.1968,-3.3408 -1.0656,-2.1888 -0.9216,-5.184 0.144,-2.5344 0.9792,-4.5792 0.864,-2.0736 2.304,-3.5712 1.4688,-1.4976 3.4272,-2.304 1.9584,-0.8064 4.3488,-0.8064 2.9664,0 5.0688,1.1808 2.1312,1.152 3.1968,3.312 1.0944,2.16 0.9216,5.1264 -0.144,2.5632 -1.008,4.6368 -0.8352,2.0736 -2.304,3.5712 -1.44,1.4976 -3.4272,2.304 -1.9584,0.8064 -4.32,0.8064 z"
   id="path34" /><path
   style="font-style:italic;font-size:28.8px;font-family:'Nunito Sans 10pt';-inkscape-font-specification:'Nunito Sans 10pt';fill:none;stroke:#000000;stroke-opacity:1;vector-effect:non-scaling-stroke;-inkscape-stroke:hairline;stroke-width:0.99999999;stroke-dasharray:none"
   d="m 113.07845,174.96559 3.1968,-20.304 h 14.0256 l -0.576,3.6 h -9.4176 l -0.7776,4.8384 h 8.8128 l -0.576,3.6 h -8.8128 l -1.3248,8.2656 z"
   id="text4" /><path
   id="path23"
   style="font-size:28.8px;font-family:'Nunito Sans 10pt';-inkscape-font-specification:'Nunito Sans 10pt';text-align:center;text-anchor:middle;vector-effect:non-scaling-stroke;fill:none;stroke:#000000;stroke-width:1;stroke-dasharray:none;stroke-opacity:1;-inkscape-stroke:hairline"
   d="M 296.50586 222.84375 C 295.39226 222.84375 294.38286 223.10269 293.48046 223.62109 C 292.68404 224.08856 292.06232 224.74573 291.60937 225.58789 L 291.60937 223.13086 L 287.375 223.13086 L 287.375 237.41601 L 291.86914 237.41601 L 291.86914 229.61133 C 291.86914 228.97773 291.99258 228.4214 292.24218 227.9414 C 292.51098 227.4422 292.87709 227.05786 293.33789 226.78906 C 293.79869 226.52026 294.33482 226.38476 294.94921 226.38476 C 295.46761 226.38476 295.89039 226.49192 296.21679 226.70312 C 296.54319 226.89512 296.7839 227.1925 296.9375 227.5957 C 297.1103 227.9989 297.19726 228.52689 297.19726 229.17968 L 297.19726 237.41601 L 301.68945 237.41601 L 301.68945 229.00586 C 301.68945 227.60426 301.49728 226.45318 301.11328 225.55078 C 300.72928 224.62918 300.15276 223.94746 299.38476 223.50586 C 298.61676 223.06426 297.65785 222.84375 296.50586 222.84375 z " /><path
   id="path22"
   style="font-size:28.8px;font-family:'Nunito Sans 10pt';-inkscape-font-specification:'Nunito Sans 10pt';text-align:center;text-anchor:middle;vector-effect:non-scaling-stroke;fill:none;stroke:#000000;stroke-width:1;stroke-dasharray:none;stroke-opacity:1;-inkscape-stroke:hairline"
   d="M 277.52539 222.84375 C 276.02779 222.84375 274.71287 223.16946 273.58007 223.82226 C 272.46648 224.45586 271.59258 225.32976 270.95898 226.44336 C 270.34458 227.55696 270.03906 228.83344 270.03906 230.27343 C 270.03906 231.79023 270.36478 233.10515 271.01757 234.21875 C 271.67037 235.33235 272.62114 236.19614 273.86914 236.81054 C 275.11714 237.42494 276.62422 237.73242 278.39062 237.73242 C 279.40822 237.73242 280.43585 237.58878 281.47265 237.30078 C 282.50945 237.01278 283.40159 236.6001 284.15039 236.0625 L 282.96875 233.0957 C 282.35435 233.5373 281.64429 233.86497 280.83789 234.07617 C 280.05069 234.28737 279.28395 234.39257 278.53515 234.39257 C 277.57515 234.39257 276.76803 234.24893 276.11523 233.96093 C 275.48163 233.65373 275.01032 233.19252 274.70312 232.57812 C 274.52995 232.22095 274.40758 231.80683 274.33203 231.33984 L 284.46679 231.33984 L 284.46679 230.1875 C 284.46679 228.6707 284.17951 227.36393 283.60351 226.26953 C 283.02751 225.15593 282.22039 224.31232 281.18359 223.73633 C 280.14679 223.14113 278.92699 222.84375 277.52539 222.84375 z M 277.66992 225.81054 C 278.64912 225.81054 279.40771 226.10792 279.94531 226.70312 C 280.41571 227.22392 280.67948 227.97272 280.73828 228.94922 L 274.29687 228.94922 C 274.35917 228.4629 274.4758 228.03028 274.64648 227.65234 C 274.93448 227.05714 275.32697 226.60602 275.82617 226.29883 C 276.34457 225.97243 276.95952 225.81054 277.66992 225.81054 z " /><path
   id="path21"
   style="font-size:28.8px;font-family:'Nunito Sans 10pt';-inkscape-font-specification:'Nunito Sans 10pt';text-align:center;text-anchor:middle;vector-effect:non-scaling-stroke;fill:none;stroke:#000000;stroke-width:1;stroke-dasharray:none;stroke-opacity:1;-inkscape-stroke:hairline"
   d="M 268.54101 222.78515 L 267.01367 222.90039 C 265.76567 222.97719 264.74813 223.34329 263.96093 223.99609 C 263.29037 224.56607 262.81148 225.31799 262.52148 226.2539 L 262.52148 223.13086 L 258.375 223.13086 L 258.375 237.41601 L 262.89648 237.41601 L 262.89648 230.30273 C 262.89648 229.32353 263.16552 228.54475 263.70312 227.96875 C 264.25992 227.39275 265.08529 227.05693 266.17968 226.96093 L 268.85742 226.70312 L 268.54101 222.78515 z " /><path
   id="path20"
   style="font-size:28.8px;font-family:'Nunito Sans 10pt';-inkscape-font-specification:'Nunito Sans 10pt';text-align:center;text-anchor:middle;vector-effect:non-scaling-stroke;fill:none;stroke:#000000;stroke-width:1;stroke-dasharray:none;stroke-opacity:1;-inkscape-stroke:hairline"
   d="M 255.89843 222.78515 L 254.37109 222.90039 C 253.12309 222.97719 252.10556 223.34329 251.31836 223.99609 C 250.64922 224.56485 250.16909 225.31491 249.8789 226.24804 L 249.8789 223.13086 L 245.73047 223.13086 L 245.73047 237.41601 L 250.25195 237.41601 L 250.25195 230.30273 C 250.25195 229.32353 250.52099 228.54475 251.05859 227.96875 C 251.61539 227.39275 252.44075 227.05693 253.53515 226.96093 L 256.21484 226.70312 L 255.89843 222.78515 z " /><path
   id="path19"
   style="font-size:28.8px;font-family:'Nunito Sans 10pt';-inkscape-font-specification:'Nunito Sans 10pt';text-align:center;text-anchor:middle;vector-effect:non-scaling-stroke;fill:none;stroke:#000000;stroke-width:1;stroke-dasharray:none;stroke-opacity:1;-inkscape-stroke:hairline"
   d="M 235.36328 222.84375 C 234.59528 222.84375 233.80835 222.91052 233.00195 223.04492 C 232.19555 223.17932 231.41676 223.38159 230.66797 223.65039 C 229.93837 223.89999 229.28693 224.19737 228.71093 224.54297 L 229.86133 227.50976 C 230.76372 227.02976 231.63762 226.67376 232.48242 226.44336 C 233.34642 226.21296 234.15354 226.09765 234.90234 226.09765 C 235.91994 226.09765 236.65019 226.26963 237.09179 226.61523 C 237.55259 226.96083 237.7832 227.55754 237.7832 228.40234 L 237.7832 228.80468 L 236.60156 228.80468 C 234.56636 228.80468 232.92378 228.94833 231.67578 229.23633 C 230.44698 229.52432 229.54475 229.98554 228.96875 230.61914 C 228.39275 231.23354 228.10547 232.0589 228.10547 233.0957 C 228.10547 233.9789 228.34617 234.76583 228.82617 235.45703 C 229.30617 236.14823 229.9576 236.7065 230.7832 237.1289 C 231.628 237.5321 232.57876 237.73242 233.63476 237.73242 C 234.44116 237.73242 235.14308 237.59887 235.73828 237.33007 C 236.35268 237.06128 236.86047 236.69517 237.26367 236.23437 C 237.6434 235.80286 237.9216 235.30955 238.09961 234.7539 L 238.09961 237.41601 L 242.07422 237.41601 L 242.07422 229.00586 C 242.07422 227.56586 241.81332 226.39458 241.29492 225.49218 C 240.79572 224.58979 240.04722 223.92826 239.04882 223.50586 C 238.05043 223.06426 236.82248 222.84375 235.36328 222.84375 z M 236.71679 231.13672 L 237.7832 231.13672 L 237.7832 231.59765 C 237.7832 232.19285 237.63761 232.73093 237.34961 233.21093 C 237.08081 233.67173 236.71666 234.03588 236.25586 234.30468 C 235.79506 234.55428 235.27717 234.67968 234.70117 234.67968 C 234.00997 234.67968 233.46179 234.52595 233.05859 234.21875 C 232.65539 233.89235 232.45508 233.45133 232.45508 232.89453 C 232.45508 232.56813 232.53194 232.29909 232.68554 232.08789 C 232.85834 231.85749 233.11729 231.67541 233.46289 231.54101 C 233.80849 231.40661 234.24951 231.30955 234.78711 231.25195 C 235.32471 231.17515 235.96799 231.13672 236.71679 231.13672 z " /><path
   id="path18"
   style="font-size:28.8px;font-family:'Nunito Sans 10pt';-inkscape-font-specification:'Nunito Sans 10pt';text-align:center;text-anchor:middle;vector-effect:non-scaling-stroke;fill:none;stroke:#000000;stroke-width:1;stroke-dasharray:none;stroke-opacity:1;-inkscape-stroke:hairline"
   d="M 196.74218 217.11133 L 203.68359 237.41601 L 207.51367 237.41601 L 212.32031 223.88086 L 217.01758 237.41601 L 220.90625 237.41601 L 227.90429 217.11133 L 223.41211 217.11133 L 218.82812 231.29687 L 214.10937 217.11133 L 210.76758 217.11133 L 205.90625 231.05859 L 201.52343 217.11133 L 196.74218 217.11133 z " /><path
   style="font-size:28.8px;font-family:'Nunito Sans 10pt';-inkscape-font-specification:'Nunito Sans 10pt';text-align:center;text-anchor:middle;vector-effect:non-scaling-stroke;fill:none;stroke:#000000;stroke-width:1;stroke-dasharray:none;stroke-opacity:1;-inkscape-stroke:hairline"
   d="m 171.57121,237.416 v -14.2848 h 4.2336 v 2.736 h -0.144 q 0.6912,-1.4688 2.016,-2.2464 1.3536,-0.7776 3.024,-0.7776 1.728,0 2.88,0.6624 1.152,0.6624 1.728,2.0448 0.576,1.3536 0.576,3.456 v 8.4096 h -4.4928 v -8.2368 q 0,-0.9792 -0.2592,-1.584 -0.2304,-0.6048 -0.72,-0.8928 -0.4896,-0.3168 -1.2672,-0.3168 -0.9216,0 -1.6128,0.4032 -0.6912,0.4032 -1.0944,1.152 -0.3744,0.72 -0.3744,1.6704 v 7.8048 z"
   id="path17" /><path
   id="path16"
   style="font-size:28.8px;font-family:'Nunito Sans 10pt';-inkscape-font-specification:'Nunito Sans 10pt';text-align:center;text-anchor:middle;vector-effect:non-scaling-stroke;fill:none;stroke:#000000;stroke-width:1;stroke-dasharray:none;stroke-opacity:1;-inkscape-stroke:hairline"
   d="M 161.7207 222.84375 C 160.2231 222.84375 158.90819 223.16946 157.77539 223.82226 C 156.66179 224.45586 155.78789 225.32976 155.15429 226.44336 C 154.5399 227.55696 154.23437 228.83344 154.23437 230.27343 C 154.23437 231.79023 154.56009 233.10515 155.21289 234.21875 C 155.86569 235.33235 156.81645 236.19614 158.06445 236.81054 C 159.31245 237.42494 160.81954 237.73242 162.58594 237.73242 C 163.60353 237.73242 164.63117 237.58878 165.66797 237.30078 C 166.70477 237.01278 167.5969 236.6001 168.3457 236.0625 L 167.16406 233.0957 C 166.54966 233.5373 165.8396 233.86497 165.0332 234.07617 C 164.246 234.28737 163.47927 234.39257 162.73047 234.39257 C 161.77047 234.39257 160.96334 234.24893 160.31054 233.96093 C 159.67695 233.65373 159.20564 233.19252 158.89844 232.57812 C 158.72526 232.22095 158.60289 231.80683 158.52734 231.33984 L 168.66211 231.33984 L 168.66211 230.1875 C 168.66211 228.6707 168.37483 227.36393 167.79883 226.26953 C 167.22283 225.15593 166.4157 224.31232 165.3789 223.73633 C 164.34211 223.14113 163.1223 222.84375 161.7207 222.84375 z M 161.86523 225.81054 C 162.84443 225.81054 163.60302 226.10792 164.14062 226.70312 C 164.61102 227.22392 164.87674 227.97272 164.93554 228.94922 L 158.49414 228.94922 C 158.55644 228.46291 158.67112 228.03027 158.84179 227.65234 C 159.12979 227.05714 159.52228 226.60602 160.02148 226.29883 C 160.53988 225.97243 161.15483 225.81054 161.86523 225.81054 z " /><path
   id="path15"
   style="font-size:28.8px;font-family:'Nunito Sans 10pt';-inkscape-font-specification:'Nunito Sans 10pt';text-align:center;text-anchor:middle;vector-effect:non-scaling-stroke;fill:none;stroke:#000000;stroke-width:1;stroke-dasharray:none;stroke-opacity:1;-inkscape-stroke:hairline"
   d="M 136.98242 217.11133 L 136.98242 237.41601 L 141.47461 237.41601 L 141.47461 229.61133 C 141.47461 228.97773 141.60001 228.4214 141.84961 227.9414 C 142.11841 227.4422 142.48256 227.05786 142.94336 226.78906 C 143.40416 226.52026 143.94224 226.38476 144.55664 226.38476 C 145.05584 226.38476 145.46852 226.49192 145.79492 226.70312 C 146.14052 226.89512 146.39132 227.1925 146.54492 227.5957 C 146.71772 227.9989 146.80273 228.52689 146.80273 229.17968 L 146.80273 237.41601 L 151.29687 237.41601 L 151.29687 229.00586 C 151.29687 227.60426 151.0946 226.45318 150.6914 225.55078 C 150.3074 224.62918 149.73089 223.94746 148.96289 223.50586 C 148.21409 223.06426 147.26333 222.84375 146.11133 222.84375 C 144.99773 222.84375 144.00038 223.10269 143.11719 223.62109 C 142.38636 224.05959 141.80172 224.64411 141.35937 225.37109 L 141.35937 217.11133 L 136.98242 217.11133 z " /><path
   style="font-size:28.8px;font-family:'Nunito Sans 10pt';-inkscape-font-specification:'Nunito Sans 10pt';text-align:center;text-anchor:middle;vector-effect:non-scaling-stroke;fill:none;stroke:#000000;stroke-width:1;stroke-dasharray:none;stroke-opacity:1;-inkscape-stroke:hairline"
   d="m 126.26888,234.3632 q 1.4976,0 2.3616,-1.0368 0.864,-1.0656 0.864,-3.0816 0,-2.016 -0.864,-3.024 -0.864,-1.008 -2.3616,-1.008 -1.4688,0 -2.3616,1.008 -0.864,1.008 -0.864,3.024 0,2.016 0.864,3.0816 0.8928,1.0368 2.3616,1.0368 z"
   id="path14" /><path
   id="path13"
   style="font-size:28.8px;font-family:'Nunito Sans 10pt';-inkscape-font-specification:'Nunito Sans 10pt';text-align:center;text-anchor:middle;vector-effect:non-scaling-stroke;fill:none;stroke:#000000;stroke-width:1;stroke-dasharray:none;stroke-opacity:1;-inkscape-stroke:hairline"
   d="M 127.62305 222.84375 C 126.47105 222.84375 125.45351 223.12093 124.57031 223.67773 C 123.77621 224.1611 123.20129 224.80982 122.8418 225.61914 L 122.8418 223.13086 L 118.63672 223.13086 L 118.63672 242.59961 L 123.1289 242.59961 L 123.1289 235.24804 C 123.48387 235.92806 124.01027 236.49756 124.71289 236.95507 C 125.53849 237.47347 126.50945 237.73242 127.62305 237.73242 C 128.92864 237.73242 130.05139 237.42494 130.99219 236.81054 C 131.95218 236.17694 132.68244 235.30305 133.18164 234.18945 C 133.70004 233.05665 133.95898 231.75183 133.95898 230.27343 C 133.95898 228.75664 133.70004 227.45182 133.18164 226.35742 C 132.66324 225.24382 131.92289 224.38002 130.96289 223.76562 C 130.02209 223.15122 128.90944 222.84375 127.62305 222.84375 z " /><path
   id="path12"
   style="font-size:28.8px;font-family:'Nunito Sans 10pt';-inkscape-font-specification:'Nunito Sans 10pt';text-align:center;text-anchor:middle;vector-effect:non-scaling-stroke;fill:none;stroke:#000000;stroke-width:1;stroke-dasharray:none;stroke-opacity:1;-inkscape-stroke:hairline"
   d="M 108.78711 222.84375 C 107.28951 222.84375 105.97459 223.16946 104.8418 223.82226 C 103.7282 224.45586 102.8543 225.32976 102.2207 226.44336 C 101.6063 227.55696 101.29883 228.83344 101.29883 230.27343 C 101.29883 231.79023 101.6265 233.10515 102.2793 234.21875 C 102.93209 235.33235 103.88091 236.19614 105.1289 236.81054 C 106.3769 237.42494 107.88399 237.73242 109.65039 237.73242 C 110.66799 237.73242 111.69562 237.58878 112.73242 237.30078 C 113.76922 237.01278 114.66331 236.6001 115.41211 236.0625 L 114.23047 233.0957 C 113.61607 233.5373 112.90601 233.86497 112.09961 234.07617 C 111.31241 234.28737 110.54372 234.39257 109.79492 234.39257 C 108.83492 234.39257 108.02975 234.24893 107.37695 233.96093 C 106.74335 233.65373 106.27204 233.19252 105.96484 232.57812 C 105.79169 232.22099 105.6693 231.80676 105.59375 231.33984 L 115.72851 231.33984 L 115.72851 230.1875 C 115.72851 228.6707 115.43928 227.36393 114.86328 226.26953 C 114.28728 225.15593 113.48211 224.31232 112.44531 223.73633 C 111.40851 223.14113 110.18871 222.84375 108.78711 222.84375 z M 108.93164 225.81054 C 109.91084 225.81054 110.66943 226.10792 111.20703 226.70312 C 111.67743 227.22392 111.9412 227.97272 112 228.94922 L 105.55859 228.94922 C 105.6209 228.4629 105.73752 228.03028 105.9082 227.65234 C 106.1962 227.05714 106.58869 226.60602 107.08789 226.29883 C 107.60629 225.97243 108.22124 225.81054 108.93164 225.81054 z " /><path
   style="font-size:28.8px;font-family:'Nunito Sans 10pt';-inkscape-font-specification:'Nunito Sans 10pt';text-align:center;text-anchor:middle;vector-effect:non-scaling-stroke;fill:none;stroke:#000000;stroke-width:1;stroke-dasharray:none;stroke-opacity:1;-inkscape-stroke:hairline"
   d="m 96.80656,237.7328 q -3.1392,0 -4.6368,-1.5264 -1.4976,-1.5264 -1.4976,-4.4352 v -5.2992 h -2.736 v -3.3408 h 2.8512 v -4.0608 h 4.3488 v 4.0608 h 4.4928 v 3.3408 h -4.4928 v 5.1552 q 0,1.2384 0.6048,1.872 0.6048,0.6048 1.872,0.6048 0.432,0 0.8928,-0.0864 0.4896,-0.1152 0.9792,-0.2592 l 0.6336,3.2544 q -0.6912,0.3456 -1.5552,0.5184 -0.864,0.2016 -1.7568,0.2016 z"
   id="path11" /><path
   style="font-size:28.8px;font-family:'Nunito Sans 10pt';-inkscape-font-specification:'Nunito Sans 10pt';text-align:center;text-anchor:middle;vector-effect:non-scaling-stroke;fill:none;stroke:#000000;stroke-width:1;stroke-dasharray:none;stroke-opacity:1;-inkscape-stroke:hairline"
   d="m 78.54744,237.7328 q -1.6416,0 -3.168,-0.2592 -1.5264,-0.2592 -2.8224,-0.72 -1.2672,-0.4608 -2.2464,-1.1232 l 1.3536,-3.6 q 0.9504,0.6048 2.0448,1.0368 1.0944,0.4032 2.3328,0.6336 1.2384,0.2016 2.5056,0.2016 2.016,0 2.9376,-0.6048 0.9504,-0.6336 0.9504,-1.6704 0,-0.576 -0.288,-0.9504 -0.288,-0.4032 -0.9504,-0.6624 -0.6336,-0.2592 -1.6704,-0.4608 l -3.312,-0.6624 q -2.8224,-0.5472 -4.176,-1.9872 -1.3248,-1.44 -1.3248,-3.744 0,-1.9296 1.0656,-3.3408 1.0656,-1.44 2.9664,-2.2176 1.9008,-0.8064 4.3776,-0.8064 1.44,0 2.7648,0.2592 1.3248,0.2592 2.448,0.7488 1.1232,0.4896 1.9296,1.1808 l -1.3824,3.456 q -1.152,-0.9216 -2.6208,-1.3536 -1.4688,-0.4608 -3.168,-0.4608 -1.2096,0 -2.0736,0.288 -0.864,0.288 -1.3536,0.8352 -0.4608,0.5472 -0.4608,1.296 0,0.8352 0.6048,1.3536 0.6336,0.4896 2.16,0.7776 l 3.2832,0.6336 q 2.88,0.576 4.2912,1.9296 1.4112,1.3536 1.4112,3.6 0,1.9008 -1.0368,3.3408 -1.0368,1.44 -2.9376,2.2464 -1.872,0.8064 -4.4352,0.8064 z"
   id="path9" /><path
   id="path33"
   style="font-size:28.8px;font-family:'Nunito Sans 10pt';-inkscape-font-specification:'Nunito Sans 10pt';text-align:center;text-anchor:middle;vector-effect:non-scaling-stroke;fill:none;stroke:#000000;stroke-width:1;stroke-dasharray:none;stroke-opacity:1;-inkscape-stroke:hairline"
   d="M 248.00586 259.13086 L 253.93359 272.92968 L 251.31836 278.59961 L 255.92578 278.59961 L 264.30664 259.13086 L 259.78515 259.13086 L 256.23047 268.40625 L 252.72851 259.13086 L 248.00586 259.13086 z " /><path
   style="font-size:28.8px;font-family:'Nunito Sans 10pt';-inkscape-font-specification:'Nunito Sans 10pt';text-align:center;text-anchor:middle;vector-effect:non-scaling-stroke;fill:none;stroke:#000000;stroke-width:1;stroke-dasharray:none;stroke-opacity:1;-inkscape-stroke:hairline"
   d="m 245.81752,273.7328 q -2.7072,0 -4.0032,-1.4112 -1.296,-1.4112 -1.296,-4.1472 V 253.112 h 4.4928 v 14.832 q 0,0.72 0.2016,1.2384 0.2016,0.4896 0.6048,0.7488 0.432,0.2304 1.0656,0.2304 0.3744,0 0.6912,-0.0288 0.3456,-0.0288 0.6912,-0.1152 l 0.0864,3.3408 q -0.6336,0.1728 -1.2384,0.2592 -0.576,0.1152 -1.296,0.1152 z"
   id="path32" /><path
   style="font-size:28.8px;font-family:'Nunito Sans 10pt';-inkscape-font-specification:'Nunito Sans 10pt';text-align:center;text-anchor:middle;vector-effect:non-scaling-stroke;fill:none;stroke:#000000;stroke-width:1;stroke-dasharray:none;stroke-opacity:1;-inkscape-stroke:hairline"
   d="m 232.31033,273.416 v -14.2848 h 4.4928 v 14.2848 z"
   id="path31" /><path
   style="font-size:28.8px;font-family:'Nunito Sans 10pt';-inkscape-font-specification:'Nunito Sans 10pt';text-align:center;text-anchor:middle;vector-effect:non-scaling-stroke;fill:none;stroke:#000000;stroke-width:1;stroke-dasharray:none;stroke-opacity:1;-inkscape-stroke:hairline"
   d="m 232.10873,256.4528 v -4.176 h 4.8384 v 4.176 z"
   id="path30" /><path
   id="path29"
   style="font-size:28.8px;font-family:'Nunito Sans 10pt';-inkscape-font-specification:'Nunito Sans 10pt';text-align:center;text-anchor:middle;vector-effect:non-scaling-stroke;fill:none;stroke:#000000;stroke-width:1;stroke-dasharray:none;stroke-opacity:1;-inkscape-stroke:hairline"
   d="M 214.48242 258.84375 C 213.73362 258.84375 213.04375 258.96719 212.41015 259.21679 C 211.77655 259.46639 211.22837 259.8224 210.76758 260.2832 C 210.38305 260.65171 210.06918 261.09154 209.81836 261.59375 L 209.81836 259.13086 L 205.61328 259.13086 L 205.61328 273.41601 L 210.04883 273.41601 L 210.04883 265.64062 C 210.04883 264.98782 210.15403 264.4214 210.36523 263.9414 C 210.59563 263.4614 210.92135 263.08716 211.34375 262.81836 C 211.76615 262.53036 212.2557 262.38476 212.8125 262.38476 C 213.5421 262.38476 214.05998 262.60723 214.36718 263.04882 C 214.69358 263.49042 214.85742 264.18029 214.85742 265.12109 L 214.85742 273.41601 L 219.29297 273.41601 L 219.29297 265.66797 C 219.29297 264.97677 219.39817 264.39211 219.60937 263.91211 C 219.83977 263.43211 220.16549 263.05786 220.58789 262.78906 C 221.01029 262.52026 221.49984 262.38476 222.05664 262.38476 C 222.82464 262.38476 223.35262 262.60723 223.64062 263.04882 C 223.94782 263.49042 224.10156 264.18029 224.10156 265.12109 L 224.10156 273.41601 L 228.5664 273.41601 L 228.5664 265.00586 C 228.5664 263.60426 228.38433 262.45318 228.01953 261.55078 C 227.65473 260.62918 227.09841 259.94746 226.34961 259.50586 C 225.62001 259.06426 224.70768 258.84375 223.61328 258.84375 C 222.44208 258.84375 221.41445 259.13103 220.53125 259.70703 C 219.74786 260.22928 219.16417 260.89479 218.77539 261.70117 C 218.45844 260.80924 217.95058 260.1246 217.24804 259.65039 C 216.49924 259.11279 215.57682 258.84375 214.48242 258.84375 z " /><path
   id="path28"
   style="font-size:28.8px;font-family:'Nunito Sans 10pt';-inkscape-font-specification:'Nunito Sans 10pt';text-align:center;text-anchor:middle;vector-effect:non-scaling-stroke;fill:none;stroke:#000000;stroke-width:1;stroke-dasharray:none;stroke-opacity:1;-inkscape-stroke:hairline"
   d="M 195.1875 258.84375 C 194.4195 258.84375 193.63257 258.91052 192.82617 259.04492 C 192.01977 259.17932 191.24098 259.38159 190.49218 259.65039 C 189.76259 259.89999 189.11115 260.19737 188.53515 260.54297 L 189.68554 263.50976 C 190.58794 263.02976 191.46185 262.67376 192.30664 262.44336 C 193.17064 262.21296 193.97776 262.09765 194.72656 262.09765 C 195.74416 262.09765 196.47441 262.26963 196.91601 262.61523 C 197.37681 262.96083 197.60547 263.55754 197.60547 264.40234 L 197.60547 264.80468 L 196.42578 264.80468 C 194.39058 264.80468 192.74799 264.94832 191.5 265.23632 C 190.2712 265.52432 189.36897 265.98554 188.79297 266.61914 C 188.21697 267.23354 187.92968 268.0589 187.92968 269.0957 C 187.92968 269.9789 188.17039 270.76583 188.65039 271.45703 C 189.13039 272.14823 189.78182 272.7065 190.60742 273.1289 C 191.45221 273.5321 192.40298 273.73242 193.45898 273.73242 C 194.26538 273.73242 194.9673 273.59887 195.5625 273.33007 C 196.1769 273.06127 196.68469 272.69517 197.08789 272.23437 C 197.46762 271.80286 197.74581 271.30955 197.92383 270.7539 L 197.92383 273.41601 L 201.89843 273.41601 L 201.89843 265.00586 C 201.89843 263.56586 201.63754 262.39458 201.11914 261.49218 C 200.61994 260.58978 199.87144 259.92826 198.87304 259.50586 C 197.87465 259.06426 196.6467 258.84375 195.1875 258.84375 z M 196.54101 267.13672 L 197.60547 267.13672 L 197.60547 267.59765 C 197.60547 268.19285 197.46183 268.73093 197.17383 269.21093 C 196.90503 269.67173 196.54088 270.03588 196.08008 270.30468 C 195.61928 270.55428 195.10139 270.67968 194.52539 270.67968 C 193.83419 270.67968 193.28601 270.52595 192.88281 270.21875 C 192.47961 269.89235 192.27929 269.45133 192.27929 268.89453 C 192.27929 268.56813 192.35421 268.29909 192.50781 268.08789 C 192.68061 267.85749 192.94151 267.67541 193.28711 267.54101 C 193.63271 267.40661 194.07373 267.30955 194.61133 267.25195 C 195.14892 267.17515 195.79221 267.13672 196.54101 267.13672 z " /><path
   style="font-size:28.8px;font-family:'Nunito Sans 10pt';-inkscape-font-specification:'Nunito Sans 10pt';text-align:center;text-anchor:middle;vector-effect:non-scaling-stroke;fill:none;stroke:#000000;stroke-width:1;stroke-dasharray:none;stroke-opacity:1;-inkscape-stroke:hairline"
   d="m 172.32004,273.416 v -20.304 h 13.9968 v 3.6288 h -9.4464 v 4.8096 h 8.8128 v 3.6288 h -8.8128 v 8.2368 z"
   id="path27" /><path
   style="font-size:28.8px;font-family:'Nunito Sans 10pt';-inkscape-font-specification:'Nunito Sans 10pt';text-align:center;text-anchor:middle;vector-effect:non-scaling-stroke;fill:none;stroke:#000000;stroke-width:1;stroke-dasharray:none;stroke-opacity:1;-inkscape-stroke:hairline"
   d="m 152.18889,270.3632 q 1.4976,0 2.3616,-1.0368 0.864,-1.0368 0.864,-3.0528 0,-2.0448 -0.864,-3.0528 -0.864,-1.008 -2.3616,-1.008 -1.4688,0 -2.3616,1.008 -0.864,1.008 -0.864,3.0528 0,2.016 0.864,3.0528 0.8928,1.0368 2.3616,1.0368 z"
   id="path26" /><path
   id="path25"
   style="font-size:28.8px;font-family:'Nunito Sans 10pt';-inkscape-font-specification:'Nunito Sans 10pt';text-align:center;text-anchor:middle;vector-effect:non-scaling-stroke;fill:none;stroke:#000000;stroke-width:1;stroke-dasharray:none;stroke-opacity:1;-inkscape-stroke:hairline"
   d="M 155.32812 253.11132 L 155.32812 261.27929 C 154.97315 260.61553 154.44682 260.06231 153.74414 259.62109 C 152.91854 259.10269 151.93944 258.84375 150.80664 258.84375 C 149.53944 258.84375 148.42484 259.15122 147.46484 259.76562 C 146.52404 260.38002 145.79574 261.24382 145.27734 262.35742 C 144.75894 263.47102 144.5 264.77584 144.5 266.27343 C 144.5 267.77103 144.75894 269.08595 145.27734 270.21875 C 145.79574 271.33235 146.53414 272.19614 147.49414 272.81054 C 148.45414 273.42494 149.57688 273.73242 150.86328 273.73242 C 152.01528 273.73242 153.02467 273.46338 153.88867 272.92578 C 154.66886 272.42299 155.24209 271.7476 155.61523 270.90039 L 155.61523 273.41601 L 159.82031 273.41601 L 159.82031 253.11132 L 155.32812 253.11132 z " /><path
   id="path24"
   style="font-size:28.8px;font-family:'Nunito Sans 10pt';-inkscape-font-specification:'Nunito Sans 10pt';text-align:center;text-anchor:middle;vector-effect:non-scaling-stroke;fill:none;stroke:#000000;stroke-width:1;stroke-dasharray:none;stroke-opacity:1;-inkscape-stroke:hairline"
   d="M 136.37695 258.84375 C 135.26335 258.84375 134.25591 259.10269 133.35351 259.62109 C 132.55825 260.08788 131.93521 260.74358 131.48242 261.58398 L 131.48242 259.13086 L 127.24805 259.13086 L 127.24805 273.41601 L 131.74023 273.41601 L 131.74023 265.61132 C 131.74023 264.97773 131.86563 264.4214 132.11523 263.9414 C 132.38403 263.4422 132.74818 263.05786 133.20898 262.78906 C 133.66978 262.52026 134.20786 262.38476 134.82226 262.38476 C 135.34066 262.38476 135.76344 262.49192 136.08984 262.70312 C 136.41624 262.89512 136.65695 263.1925 136.81055 263.5957 C 136.98334 263.9989 137.06836 264.52688 137.06836 265.17968 L 137.06836 273.41601 L 141.5625 273.41601 L 141.5625 265.00586 C 141.5625 263.60426 141.37033 262.45318 140.98633 261.55078 C 140.60233 260.62918 140.02581 259.94746 139.25781 259.50586 C 138.48981 259.06426 137.52895 258.84375 136.37695 258.84375 z " /><path
   id="path10"
   style="font-size:28.8px;font-family:'Nunito Sans 10pt';-inkscape-font-specification:'Nunito Sans 10pt';text-align:center;text-anchor:middle;vector-effect:non-scaling-stroke;fill:none;stroke:#000000;stroke-width:1;stroke-dasharray:none;stroke-opacity:1;-inkscape-stroke:hairline"
   d="M 116.88086 258.84375 C 116.11286 258.84375 115.32593 258.91052 114.51953 259.04492 C 113.71313 259.17932 112.93434 259.38159 112.18555 259.65039 C 111.45595 259.89999 110.80256 260.19737 110.22656 260.54297 L 111.3789 263.50976 C 112.2813 263.02976 113.1552 262.67376 114 262.44336 C 114.864 262.21296 115.67112 262.09765 116.41992 262.09765 C 117.43752 262.09765 118.16582 262.26963 118.60742 262.61523 C 119.06822 262.96083 119.29883 263.55754 119.29883 264.40234 L 119.29883 264.80468 L 118.11914 264.80468 C 116.08394 264.80468 114.44136 264.94832 113.19336 265.23632 C 111.96456 265.52432 111.06233 265.98554 110.48633 266.61914 C 109.91033 267.23354 109.62305 268.0589 109.62305 269.0957 C 109.62305 269.9789 109.8618 270.76583 110.3418 271.45703 C 110.82179 272.14823 111.47518 272.7065 112.30078 273.1289 C 113.14558 273.5321 114.09634 273.73242 115.15234 273.73242 C 115.95874 273.73242 116.65871 273.59887 117.2539 273.33007 C 117.8683 273.06127 118.37805 272.69517 118.78125 272.23437 C 119.15965 271.80437 119.43714 271.31303 119.61523 270.75976 L 119.61523 273.41601 L 123.58984 273.41601 L 123.58984 265.00586 C 123.58984 263.56586 123.3309 262.39458 122.8125 261.49218 C 122.3133 260.58978 121.5648 259.92826 120.5664 259.50586 C 119.56801 259.06426 118.34006 258.84375 116.88086 258.84375 z M 118.23437 267.13672 L 119.29883 267.13672 L 119.29883 267.59765 C 119.29883 268.19285 119.15519 268.73093 118.86719 269.21093 C 118.59839 269.67173 118.23424 270.03588 117.77344 270.30468 C 117.31264 270.55428 116.79279 270.67968 116.2168 270.67968 C 115.5256 270.67968 114.97937 270.52595 114.57617 270.21875 C 114.17297 269.89235 113.9707 269.45133 113.9707 268.89453 C 113.9707 268.56813 114.04757 268.29909 114.20117 268.08789 C 114.37397 267.85749 114.63291 267.67541 114.97851 267.54101 C 115.32411 267.40661 115.76709 267.30955 116.30469 267.25195 C 116.84229 267.17515 117.48557 267.13672 118.23437 267.13672 z " /><path
   id="rect6"
   style="vector-effect:non-scaling-stroke;stroke-width:0.99999999;-inkscape-stroke:hairline;fill:none;stroke:#000000;stroke-opacity:1;stroke-dasharray:none"
   d="m 24,162.92383 h 72 v 3.77953 H 24 Z" /><path
   id="rect7"
   style="vector-effect:non-scaling-stroke;stroke-width:0.99999999;-inkscape-stroke:hairline;fill:none;stroke:#000000;stroke-opacity:1;stroke-dasharray:none"
   d="m 276,162.92383 h 72 v 3.77953 h -72 z" /><rect
   style="vector-effect:non-scaling-stroke;fill:none;stroke:#f36926;stroke-width:0.435625;stroke-dasharray:none;stroke-opacity:1;-inkscape-stroke:hairline"
   id="rect9"
   width="372"
   height="62.804813"
   x="0"
   y="216.2952" /></svg>
