<?xml version="1.0" encoding="UTF-8" standalone="no"?>
<!-- Generator: Adobe Illustrator 15.1.0, SVG Export Plug-In . SVG Version: 6.00 Build 0)  -->

<svg
   version="1.1"
   id="Layer_1"
   x="0px"
   y="0px"
   width="3.875in"
   height="3.875in"
   viewBox="0 0 372 371.99999"
   enable-background="new 0 0 1029.771 581.236"
   xml:space="preserve"
   sodipodi:docname="tile-david-klausa.svg"
   inkscape:version="1.3 (0e150ed, 2023-07-21)"
   xmlns:inkscape="http://www.inkscape.org/namespaces/inkscape"
   xmlns:sodipodi="http://sodipodi.sourceforge.net/DTD/sodipodi-0.dtd"
   xmlns="http://www.w3.org/2000/svg"
   xmlns:svg="http://www.w3.org/2000/svg"><defs
   id="defs16"><inkscape:path-effect
   effect="powerstroke"
   id="path-effect8"
   is_visible="true"
   lpeversion="1.3"
   scale_width="1"
   interpolator_type="CentripetalCatmullRom"
   interpolator_beta="0.2"
   start_linecap_type="zerowidth"
   end_linecap_type="zerowidth"
   offset_points="0.22109696,0.46264379 | 0.995308,0.96930217 | 1.8100301,0.4177291"
   linejoin_type="round"
   miter_limit="4"
   not_jump="false"
   sort_points="true"
   message="&lt;b&gt;Ctrl + click&lt;/b&gt; on existing node and move it" />&#10;	&#10;	&#10;	&#10;	&#10;	&#10;&#10;		&#10;		&#10;		&#10;		&#10;		&#10;		&#10;		&#10;		&#10;		&#10;		&#10;		&#10;	&#10;		&#10;		&#10;		&#10;	&#10;		&#10;		&#10;		&#10;		&#10;		&#10;		&#10;		&#10;	&#10;	&#10;	&#10;	&#10;	&#10;	&#10;&#10;		&#10;		&#10;		&#10;		&#10;		&#10;		&#10;		&#10;	&#10;		&#10;		&#10;		&#10;		&#10;		&#10;		&#10;		&#10;		&#10;		&#10;		&#10;		&#10;	&#10;		&#10;		&#10;		&#10;	</defs><sodipodi:namedview
   id="namedview16"
   pagecolor="#ffffff"
   bordercolor="#000000"
   borderopacity="0.25"
   inkscape:showpageshadow="2"
   inkscape:pageopacity="0.0"
   inkscape:pagecheckerboard="0"
   inkscape:deskcolor="#d1d1d1"
   inkscape:zoom="2.4961319"
   inkscape:cx="199.90931"
   inkscape:cy="184.08482"
   inkscape:window-width="1920"
   inkscape:window-height="1031"
   inkscape:window-x="0"
   inkscape:window-y="25"
   inkscape:window-maximized="1"
   inkscape:current-layer="Layer_1"
   showgrid="false"
   inkscape:document-units="in" />&#10;&#10;<path
   id="path78"
   style="vector-effect:non-scaling-stroke;fill:none;stroke:#000000;stroke-width:1;stroke-dasharray:none;stroke-opacity:1;-inkscape-stroke:hairline"
   d="m -252.44973,102.16639 c -0.13412,-0.17309 -0.30804,-0.32141 -0.52358,-0.44049 -0.21372,-0.11925 -0.47353,-0.20795 -0.77693,-0.26658 0.3034,-0.18812 0.53117,-0.41968 0.67949,-0.69088 0.14831,-0.2722 0.22313,-0.61541 0.22313,-1.028489 0,-0.68345 -0.19572,-1.20521 -0.58699,-1.56807 -0.39326,-0.36287 -0.96506,-0.54455 -1.7202,-0.54455 h -3.17777 v 8.208199 h 3.42734 c 0.43471,0 0.82797,-0.0512 1.17581,-0.15327 0.34965,-0.10207 0.64348,-0.2532 0.88743,-0.45553 0.24296,-0.20414 0.43091,-0.45569 0.56618,-0.75249 0.13428,-0.29878 0.20051,-0.63886 0.20051,-1.0227 0,-0.24758 -0.0284,-0.48013 -0.0869,-0.69749 -0.0588,-0.21719 -0.1541,-0.41275 -0.28755,-0.58766 z m -3.75057,-2.905579 h 0.39326 c 0.66545,0 1.00007,0.26476 1.00007,0.794769 0,0.52936 -0.33446,0.79412 -1.00007,0.79412 h -0.39326 z m 1.62291,4.712819 c -0.23338,0.13808 -0.61706,0.20794 -1.15401,0.20794 h -0.4689 v -1.74299 h 0.4689 c 0.53695,0 0.92063,0.069 1.15401,0.20613 0.23156,0.1389 0.34784,0.36022 0.34784,0.66528 1.6e-4,0.3044 -0.11611,0.52573 -0.34784,0.66364 z m -7.59842,-1.88288 c 0,0.23899 -0.01,0.48492 -0.0274,0.73531 -0.0178,0.24957 -0.0737,0.47634 -0.16913,0.68048 -0.0927,0.20233 -0.23735,0.36865 -0.4291,0.49335 -0.19292,0.12751 -0.4661,0.19192 -0.82236,0.19192 -0.35527,0 -0.63027,-0.0644 -0.82698,-0.19192 -0.19572,-0.1247 -0.34041,-0.29119 -0.43009,-0.49335 -0.0907,-0.20414 -0.14551,-0.43091 -0.16252,-0.68048 -0.0188,-0.25055 -0.0274,-0.49632 -0.0274,-0.73531 v -4.463259 h -2.13344 v 4.758239 c 0,1.27607 0.29301,2.20793 0.88198,2.79691 0.58799,0.58699 1.48682,0.88198 2.69847,0.88198 1.21182,0 2.10965,-0.29499 2.69467,-0.88198 0.5832,-0.58882 0.87537,-1.52084 0.87537,-2.79691 v -4.758239 h -2.12204 z m -14.09568,-4.463259 v 8.208209 h 2.13344 v -3.38572 h 3.08033 v 3.38572 h 2.13327 v -8.208209 h -2.13327 v 3.168199 h -3.08033 v -3.168199 z m 20.8653,-36.21623 c -0.3044,0 -0.61243,-0.068 -0.92344,-0.20596 -0.31298,-0.13808 -0.62861,-0.34982 -0.94804,-0.63143 l -0.91403,1.72036 c 0.88562,0.61541 1.84605,0.92542 2.88378,0.92542 0.50293,0 0.94904,-0.067 1.34593,-0.20232 0.39524,-0.13329 0.72673,-0.32241 1.0019,-0.56619 0.27037,-0.24197 0.47831,-0.53497 0.61903,-0.8762 0.14072,-0.34123 0.21175,-0.72111 0.21175,-1.14278 0,-0.62482 -0.1617,-1.13039 -0.4841,-1.51786 -0.32224,-0.38946 -0.8326,-0.69849 -1.53026,-0.93203 -0.1721,-0.0568 -0.34866,-0.11149 -0.52654,-0.16252 -0.17871,-0.0502 -0.33744,-0.11149 -0.48113,-0.17772 -0.13791,-0.0699 -0.25518,-0.15311 -0.34106,-0.24577 -0.0861,-0.0945 -0.13049,-0.21554 -0.13049,-0.35907 0,-0.21174 0.0879,-0.38186 0.2608,-0.51234 0.17491,-0.13048 0.39788,-0.19654 0.67404,-0.19654 0.21719,0 0.4433,0.0454 0.67767,0.13708 0.22975,0.0897 0.4623,0.22975 0.69667,0.4187 l 0.84696,-1.66536 c -0.40647,-0.21736 -0.82979,-0.38368 -1.27325,-0.49533 -0.44331,-0.11248 -0.86662,-0.16831 -1.2731,-0.16831 -0.43686,0 -0.83078,0.0652 -1.18142,0.19573 -0.34982,0.13147 -0.65042,0.31298 -0.89321,0.54917 -0.2428,0.23619 -0.43191,0.51895 -0.56536,0.84878 -0.13329,0.33083 -0.20134,0.69849 -0.20134,1.10595 0,0.40647 0.0644,0.74208 0.19093,1.00569 0.12668,0.26476 0.29218,0.48591 0.50095,0.65884 0.20794,0.17491 0.44049,0.3148 0.70591,0.41869 0.26559,0.10587 0.53596,0.20233 0.81195,0.28921 0.23355,0.0793 0.42927,0.15311 0.59179,0.21735 0.16434,0.0662 0.2968,0.1361 0.39788,0.21175 0.10207,0.0775 0.17574,0.1607 0.21819,0.25138 0.0436,0.0907 0.0662,0.19753 0.0662,0.32042 0,0.20315 -0.087,0.38467 -0.25634,0.54537 -0.17062,0.15955 -0.42959,0.23784 -0.77925,0.23784 z m -6.25827,-1.60953 -3.93869,-5.01821 h -2.13409 v 8.20622 h 2.13409 v -5.01705 l 3.93869,5.01705 h 2.12403 v -8.20622 h -2.12403 z m -9.92725,-5.01818 h 2.13608 v 8.20622 h -2.13608 z m -5.78936,-3e-5 v 8.20622 h 4.69086 v -1.80707 h -2.5556 v -6.39915 z m -5.79035,0 v 8.20622 h 4.69102 v -1.80707 h -2.55775 v -6.39915 z m -9.1665,7.18369 c 0.3997,0.39127 0.87621,0.69749 1.43281,0.92063 0.55479,0.22115 1.16458,0.33181 1.83284,0.33181 0.66165,0 1.27028,-0.11049 1.82804,-0.33181 0.56057,-0.22314 1.04154,-0.52936 1.44223,-0.92063 0.40267,-0.39227 0.71747,-0.8506 0.94325,-1.37632 0.22397,-0.52738 0.33661,-1.09455 0.33661,-1.70517 0,-0.6088 -0.11264,-1.17762 -0.33661,-1.70318 -0.22578,-0.52556 -0.54058,-0.98488 -0.94325,-1.37616 -0.40086,-0.39226 -0.88182,-0.69848 -1.44223,-0.92062 -0.55776,-0.22116 -1.16639,-0.33083 -1.82804,-0.33083 -0.66826,0 -1.27788,0.10967 -1.83284,0.33083 -0.5566,0.22214 -1.03311,0.52836 -1.43281,0.92062 -0.39804,0.39128 -0.70987,0.8506 -0.93582,1.37616 -0.22396,0.52556 -0.33644,1.09455 -0.33644,1.70318 0,0.61062 0.11248,1.17779 0.33644,1.70517 0.22595,0.52555 0.53778,0.98405 0.93582,1.37632 z m 1.14361,-3.98494 c 0.12288,-0.27417 0.2892,-0.51416 0.50094,-0.71748 0.20993,-0.20315 0.45569,-0.36204 0.73433,-0.47253 0.27979,-0.11248 0.57461,-0.16913 0.8866,-0.16913 0.312,0 0.60781,0.0566 0.88661,0.16913 0.27962,0.11049 0.52737,0.26938 0.74291,0.47253 0.21257,0.20316 0.38186,0.44331 0.50475,0.71748 0.12189,0.27599 0.18432,0.57659 0.18432,0.90362 0,0.32702 -0.0624,0.62961 -0.18432,0.90461 -0.12289,0.27516 -0.29218,0.51515 -0.50475,0.71747 -0.21554,0.20415 -0.46329,0.36204 -0.74291,0.47452 -0.2788,0.11248 -0.57461,0.16913 -0.88661,0.16913 -0.31199,0 -0.60681,-0.0568 -0.8866,-0.16913 -0.2788,-0.11248 -0.52457,-0.27037 -0.73433,-0.47452 -0.21174,-0.20232 -0.37806,-0.44231 -0.50094,-0.71747 -0.12289,-0.275 -0.18614,-0.57759 -0.18614,-0.90461 0,-0.32703 0.0632,-0.62763 0.18614,-0.90362 z m -8.48304,4.01136 c 0.39358,0.38946 0.8506,0.69006 1.37054,0.90362 0.51944,0.21356 1.06151,0.32224 1.62753,0.32224 0.2755,0 0.5543,-0.0274 0.83788,-0.0823 0.28178,-0.0548 0.587,-0.14088 0.91452,-0.25518 l 0.21736,-0.0775 v -2.52554 c -0.54488,0.58221 -1.15781,0.87241 -1.83928,0.87241 -0.3115,0 -0.60219,-0.0596 -0.87141,-0.17491 -0.26839,-0.11529 -0.50243,-0.27599 -0.70195,-0.47832 -0.19952,-0.20315 -0.35577,-0.44231 -0.46742,-0.7183 -0.11297,-0.276 -0.16913,-0.57759 -0.16913,-0.90362 0,-0.32042 0.0562,-0.61822 0.16913,-0.89421 0.11149,-0.27417 0.26708,-0.51234 0.46164,-0.71268 0.19572,-0.19853 0.43009,-0.35726 0.70327,-0.47353 0.27137,-0.1143 0.56569,-0.17293 0.88611,-0.17293 0.7259,0 1.33553,0.3006 1.82888,0.90362 v -2.54817 c -0.34883,-0.14369 -0.67966,-0.25138 -0.99529,-0.32141 -0.31662,-0.0671 -0.63655,-0.10207 -0.96456,-0.10207 -0.5728,0 -1.12048,0.1067 -1.64323,0.32141 -0.52275,0.21356 -0.98108,0.51036 -1.37665,0.89123 -0.39557,0.38087 -0.7117,0.83458 -0.94623,1.36113 -0.23586,0.52654 -0.35494,1.10495 -0.35494,1.73638 0,0.63142 0.12057,1.21363 0.35923,1.74678 0.24032,0.53381 0.55744,0.9943 0.954,1.38177 z m -9.47668,-5.40271 v 6.39882 h 2.13344 v -6.39882 h 1.75339 v -1.8074 h -5.63923 v 1.8074 z m -6.57373,3.24202 2.0345,3.15697 h 2.65652 l -2.58054,-3.36309 c 0.58799,-0.13792 1.03228,-0.40086 1.33371,-0.78933 0.30142,-0.38846 0.45222,-0.89503 0.45222,-1.51885 0,-0.34784 -0.0581,-0.67487 -0.17012,-0.97927 -0.11198,-0.3044 -0.27831,-0.57279 -0.50045,-0.80633 -0.22017,-0.23057 -0.50243,-0.4149 -0.84267,-0.54918 -0.34173,-0.13411 -0.7406,-0.20034 -1.19712,-0.20034 h -3.32031 v 8.20622 h 2.13426 z m 0,-3.40653 h 0.40218 c 0.41968,0 0.7434,0.0869 0.96885,0.26097 0.22347,0.17391 0.33595,0.4243 0.33595,0.75133 0,0.3262 -0.11248,0.57758 -0.33595,0.7515 -0.22545,0.17392 -0.54917,0.26096 -0.96885,0.26096 h -0.40218 z m -11.29844,5.5408 c 0.39837,0.39127 0.8757,0.69749 1.42966,0.92063 0.55578,0.22115 1.16772,0.33181 1.83466,0.33181 0.66066,0 1.27028,-0.11049 1.82936,-0.33181 0.5581,-0.22314 1.03889,-0.52936 1.4419,-0.92063 0.403,-0.39227 0.71599,-0.8506 0.94144,-1.37632 0.22594,-0.52738 0.33825,-1.09455 0.33825,-1.70517 0,-0.6088 -0.11247,-1.17762 -0.33825,-1.70318 -0.22545,-0.52556 -0.53828,-0.98488 -0.94144,-1.37616 -0.40317,-0.39226 -0.8838,-0.69848 -1.4419,-0.92062 -0.55908,-0.22116 -1.1687,-0.33083 -1.82936,-0.33083 -0.66694,0 -1.27888,0.10967 -1.83466,0.33083 -0.55396,0.22214 -1.03129,0.52836 -1.42966,0.92062 -0.39888,0.39128 -0.7122,0.8506 -0.93814,1.37616 -0.22364,0.52556 -0.33644,1.09455 -0.33644,1.70318 0,0.61062 0.11297,1.17779 0.33644,1.70517 0.22594,0.52555 0.53926,0.98405 0.93814,1.37632 z m 1.14327,-3.98494 c 0.12288,-0.27417 0.2892,-0.51416 0.49995,-0.71748 0.21075,-0.20315 0.45553,-0.36204 0.73433,-0.47253 0.27929,-0.11248 0.5756,-0.16913 0.8866,-0.16913 0.31382,0 0.6083,0.0566 0.8876,0.16913 0.27979,0.11049 0.52737,0.26938 0.74159,0.47253 0.21273,0.20316 0.38137,0.44331 0.50425,0.71748 0.12437,0.27599 0.18614,0.57659 0.18614,0.90362 0,0.32702 -0.0619,0.62961 -0.18614,0.90461 -0.12288,0.27516 -0.29152,0.51515 -0.50425,0.71747 -0.21405,0.20415 -0.4618,0.36204 -0.74159,0.47452 -0.2793,0.11248 -0.57378,0.16913 -0.8876,0.16913 -0.311,0 -0.60731,-0.0568 -0.8866,-0.16913 -0.2788,-0.11248 -0.52358,-0.27037 -0.73433,-0.47452 -0.21075,-0.20232 -0.37707,-0.44231 -0.49995,-0.71747 -0.12388,-0.275 -0.18581,-0.57759 -0.18581,-0.90461 0,-0.32703 0.0619,-0.62763 0.18581,-0.90362 z m -8.01249,-3.19875 v 8.20622 h 2.13327 v -3.22105 h 2.34072 v -1.80723 h -2.34072 v -1.37054 h 2.56915 v -1.8074 z m 97.69363,27.53648 c 1.62588,-0.38087 2.85356,-1.10677 3.68714,-2.18051 0.83078,-1.07374 1.24684,-2.4717 1.24684,-4.19767 0,-0.96308 -0.1541,-1.86488 -0.46494,-2.70805 -0.31084,-0.84316 -0.77133,-1.58409 -1.38376,-2.22675 -0.61259,-0.64084 -1.39151,-1.14757 -2.33081,-1.51902 -0.9454,-0.37146 -2.04738,-0.55678 -3.31007,-0.55678 h -9.17789 v 22.68658 h 5.89804 v -8.726 l 5.62586,8.726 h 7.34142 z m -2.0454,-3.97074 c -0.62202,0.48113 -1.51523,0.72211 -2.67782,0.72211 h -1.11239 v -5.59646 h 1.11239 c 1.16259,0 2.0558,0.24098 2.67782,0.7231 0.62201,0.47997 0.93202,1.17201 0.93202,2.07546 0,0.90197 -0.31001,1.59467 -0.93202,2.07579 z m -16.72049,-6.58992 c -1.11337,-1.08315 -2.44246,-1.93094 -3.98493,-2.54255 -1.54628,-0.61061 -3.2308,-0.91683 -5.05587,-0.91683 -1.84605,0 -3.53684,0.30622 -5.07189,0.91683 -1.53405,0.61161 -2.85174,1.4594 -3.9557,2.54255 -1.10198,1.08316 -1.96596,2.35361 -2.5878,3.80722 -0.62119,1.45478 -0.9322,3.02285 -0.9322,4.70803 0,1.68535 0.31101,3.25425 0.9322,4.71001 0.62184,1.45379 1.48582,2.72209 2.5878,3.80541 1.10413,1.08315 2.42165,1.93193 3.9557,2.54255 1.53505,0.61061 3.22584,0.91699 5.07189,0.91699 1.82524,0 3.50959,-0.30621 5.05587,-0.91699 1.54247,-0.61045 2.87156,-1.4594 3.98493,-2.54255 1.11338,-1.08332 1.98017,-2.35162 2.60317,-3.80541 0.62201,-1.4556 0.93368,-3.0245 0.93368,-4.71001 0,-1.68518 -0.31183,-3.25325 -0.93368,-4.70803 -0.623,-1.45361 -1.48979,-2.72406 -2.60317,-3.80722 z m -3.14276,11.01238 c -0.34304,0.7629 -0.80815,1.42455 -1.39993,1.98578 -0.59361,0.5614 -1.27508,1.00008 -2.04739,1.30927 -0.77116,0.311 -1.5879,0.46593 -2.45088,0.46593 -0.86299,0 -1.67957,-0.15493 -2.45089,-0.46593 -0.77495,-0.30919 -1.4518,-0.74771 -2.03219,-1.30927 -0.58221,-0.56123 -1.04351,-1.22288 -1.38474,-1.98578 -0.34041,-0.76075 -0.51152,-1.5945 -0.51152,-2.49713 0,-0.90262 0.17111,-1.73439 0.51152,-2.49812 0.34106,-0.76009 0.80237,-1.42339 1.38474,-1.98495 0.58039,-0.5614 1.25707,-0.99826 2.03219,-1.31009 0.77132,-0.31018 1.5879,-0.46593 2.45089,-0.46593 0.86298,0 1.67972,0.15575 2.45088,0.46593 0.77231,0.31183 1.45378,0.74853 2.04739,1.31009 0.59178,0.56139 1.05672,1.22486 1.39993,1.98495 0.33942,0.76373 0.51053,1.5955 0.51053,2.49812 0,0.90263 -0.17128,1.73638 -0.51053,2.49713 z m -35.88441,-13.84033 v 4.99442 h 4.84313 v 17.69215 h 5.89706 v -17.69215 h 4.84511 v -4.99442 z m -13.8296,0 -8.63532,22.68657 h 6.2875 l 1.35501,-3.9415 h 8.42408 l 1.35551,3.9415 h 6.28701 l -8.63483,-22.68657 z m 0.5723,14.26101 2.64759,-7.55217 2.64694,7.55217 z m -17.8256,3.43312 v -3.91326 h 6.61981 v -4.99426 h -6.61981 v -3.79219 h 7.01158 v -4.99442 h -12.90864 v 22.68657 h 12.90864 v -4.99244 z m -12.04466,-6.48603 c 0.83177,-1.07374 1.24864,-2.4717 1.24864,-4.19767 0,-0.96308 -0.15591,-1.86488 -0.4656,-2.70805 -0.31232,-0.843 -0.77264,-1.58409 -1.38424,-2.22675 -0.61161,-0.64084 -1.39036,-1.14757 -2.3318,-1.51902 -0.94425,-0.37146 -2.04722,-0.55678 -3.31008,-0.55678 h -9.17739 v 22.68658 h 5.89755 v -8.726 l 5.62667,8.726 h 7.34142 l -7.131,-9.29797 c 1.6244,-0.3807 2.85373,-1.1066 3.68583,-2.18034 z m -5.73156,-1.79023 c -0.62102,0.48113 -1.51473,0.72211 -2.67865,0.72211 h -1.11255 v -5.59646 h 1.11255 c 1.16392,0 2.05763,0.24098 2.67865,0.7231 0.62102,0.47997 0.93285,1.17201 0.93285,2.07546 0,0.90197 -0.31183,1.59467 -0.93285,2.07579 z m -19.30531,-10.0493 c -1.58361,0 -3.10032,0.2968 -4.54303,0.88661 -1.4452,0.59162 -2.71367,1.41497 -3.80623,2.4669 -1.09405,1.05491 -1.96646,2.30835 -2.6182,3.7618 -0.65223,1.4556 -0.97777,3.0549 -0.97777,4.79788 0,1.74679 0.33132,3.35632 0.99247,4.82992 0.66264,1.4746 1.53967,2.74951 2.63372,3.82242 1.09174,1.07373 2.35542,1.90551 3.79071,2.49729 1.43379,0.59162 2.93283,0.88661 4.4986,0.88661 0.76174,0 1.53355,-0.0747 2.31611,-0.22496 0.78205,-0.1503 1.62472,-0.38566 2.52801,-0.7069 l 0.6017,-0.20993 v -6.98136 c -1.50482,1.60491 -3.19908,2.40646 -5.08477,2.40646 -0.8625,0 -1.66503,-0.15889 -2.40745,-0.48014 -0.74242,-0.32141 -1.38904,-0.76372 -1.94102,-1.32512 -0.55148,-0.56139 -0.98207,-1.22304 -1.29308,-1.98578 -0.31232,-0.76174 -0.46642,-1.5945 -0.46642,-2.49812 0,-0.88099 0.1541,-1.70318 0.46642,-2.46707 0.31101,-0.76009 0.73681,-1.41777 1.2769,-1.97075 0.54355,-0.55115 1.19001,-0.98686 1.94184,-1.30728 0.75282,-0.32124 1.56907,-0.48294 2.45188,-0.48294 2.00576,0 3.6916,0.8326 5.05537,2.49812 v -7.04165 c -0.96275,-0.40069 -1.8814,-0.69567 -2.75281,-0.8866 -0.87323,-0.19093 -1.76066,-0.28541 -2.66295,-0.28541 z m 31.08429,-17.90747 h 76.0586 c 5.18261,0 9.26562,3.87406 9.26562,8.57422 0,1.21477 -0.27611,2.36079 -0.77148,3.41211 l -0.95117,2.02148 h 5.41796 c 6.33662,0 10.81727,1.22558 13.68555,3.8086 2.86828,2.58301 4.38672,6.68533 4.38672,13.13281 v 10.125 c 0,0 -0.0153,1.14566 -0.63086,2.27344 -0.61561,1.12777 -1.60866,2.21679 -4.40625,2.21679 h -20.06836 l 1.16211,2.10352 c 0.65244,1.18041 1.02344,2.525539 1.02344,3.970699 0,4.56062 -3.66581,8.22852 -8.22461,8.22852 h -18.94336 c -4.55801,0 -8.22656,-3.6684 -8.22656,-8.22852 0,-1.44571 0.37189,-2.791409 1.02539,-3.970699 l 1.16601,-2.10352 h -84.08984 c -4.36618,0 -7.81828,-1.72702 -10.26758,-4.54882 -2.4493,-2.82181 -3.86914,-6.78203 -3.86914,-11.22852 0,-4.44745 1.41986,-8.40867 3.86914,-11.23047 2.44928,-2.82179 5.90136,-4.54883 10.26758,-4.54883 h 25.57812 l -0.95117,-2.02148 c -0.49538,-1.05237 -0.77148,-2.198 -0.77148,-3.41211 0,-4.70008 4.083,-8.57422 9.26562,-8.57422 z m 68.85352,-26.3829 c -3.55976,-0.066 -7.14253,0.20826 -10.70117,0.83398 -0.58782,0.10323 -1.17767,0.21879 -1.76368,0.33985 -2.35359,0.49153 -4.3353,2.00478 -5.42968,4.14648 -1.09455,2.14285 -1.16287,4.63156 -0.1836,6.83008 1.21644,2.73067 2.09354,5.60446 2.61133,8.54688 0.16576,0.9435 0.28774,1.89492 0.37891,2.8496 h 22.29297 c 2.10191,0 4.08837,0.514 5.82226,1.41602 0.26048,-4.40749 1.31273,-8.7439 3.11914,-12.77148 0.9829,-2.1957 0.92262,-4.68544 -0.16797,-6.82813 -1.08893,-2.14367 -3.06635,-3.66109 -5.41797,-4.15625 -3.46367,-0.73399 -7.00079,-1.14099 -10.56054,-1.20703 z m 41.07422,62.34766 v 5.10742 c 0,0 0.0184,1.80841 -0.97852,3.63476 -0.99693,1.82636 -3.23268,3.69141 -6.89453,3.69141 h -15.58398 c 0.31931,1.0323 0.53515,2.106299 0.53515,3.240229 0,1.62776 -0.36409,3.17029 -1,4.56446 4.38524,2.56135 8.20164,6.01713 11.16602,10.12304 1.40919,1.94994 3.59718,3.14088 6,3.26954 2.40067,0.12668 4.70283,-0.82601 6.31054,-2.61524 5.2468,-5.84138 9.13609,-12.64788 11.52735,-19.931639 0.75051,-2.28457 0.4295,-4.75347 -0.87695,-6.77344 -1.30612,-2.01814 -3.43002,-3.32253 -5.82227,-3.57226 -1.47577,-0.15479 -2.93936,-0.40584 -4.38281,-0.73828 z m -94.78321,12.43359 c 1.11031,3.101629 2.49346,6.156479 4.19727,9.113279 1.96596,3.41611 4.24876,6.54787 6.77148,9.375 1.60111,1.79484 3.90482,2.7568 6.30664,2.63672 2.40035,-0.1209 4.59857,-1.31085 6.01172,-3.25781 2.5095,-3.45801 5.62394,-6.45118 9.16992,-8.83789 -1.04368,-1.6874 -1.6582,-3.66653 -1.6582,-5.78907 0,-1.13345 0.21567,-2.207659 0.53516,-3.240229 z" /><rect
   style="vector-effect:non-scaling-stroke;fill:none;stroke:#f36926;stroke-width:1.0602;stroke-dasharray:none;stroke-opacity:1;-inkscape-stroke:hairline"
   id="rect82"
   width="372"
   height="372"
   x="-480"
   y="0" /><rect
   style="vector-effect:non-scaling-stroke;fill:none;stroke:#f36926;stroke-width:0.989439;stroke-dasharray:none;stroke-opacity:1;-inkscape-stroke:hairline"
   id="rect83"
   width="372"
   height="324"
   x="-480"
   y="0" /><text
   xml:space="preserve"
   style="vector-effect:non-scaling-stroke;fill:#000000;fill-opacity:1;stroke:none;stroke-width:1;stroke-dasharray:none;stroke-opacity:1;-inkscape-stroke:hairline"
   x="-368.07355"
   y="174.96559"
   id="text83"><tspan
     sodipodi:role="line"
     x="-368.07355"
     y="174.96559"
     style="font-style:italic;font-variant:normal;font-weight:normal;font-stretch:normal;font-size:28.8px;font-family:'Nunito Sans 10pt';-inkscape-font-specification:'Nunito Sans 10pt';fill:#000000;fill-opacity:1;stroke:none"
     id="tspan86">FOUNDER</tspan></text><text
   xml:space="preserve"
   style="vector-effect:non-scaling-stroke;fill:#000000;fill-opacity:1;stroke:none;stroke-width:1;stroke-dasharray:none;stroke-opacity:1;-inkscape-stroke:hairline"
   x="-294.86401"
   y="255.1208"
   id="text84"><tspan
     sodipodi:role="line"
     x="-294.86401"
     y="255.1208"
     style="font-style:normal;font-variant:normal;font-weight:normal;font-stretch:normal;font-size:28.8px;font-family:'Nunito Sans 10pt';-inkscape-font-specification:'Nunito Sans 10pt';text-align:center;text-anchor:middle;fill:#000000;fill-opacity:1;stroke:none"
     id="tspan85">David Klausa</tspan></text><rect
   style="vector-effect:non-scaling-stroke;fill:#000000;stroke-width:0.72724;-inkscape-stroke:hairline"
   id="rect1"
   width="72"
   height="3.7795274"
   x="-456"
   y="162.92383" /><rect
   style="vector-effect:non-scaling-stroke;fill:#000000;stroke-width:0.72724;-inkscape-stroke:hairline"
   id="rect2"
   width="72"
   height="3.7795274"
   x="-204"
   y="162.92383" /><rect
   style="vector-effect:non-scaling-stroke;fill:none;stroke:#f36926;stroke-width:0.435625;stroke-dasharray:none;stroke-opacity:1;-inkscape-stroke:hairline"
   id="rect8"
   width="372"
   height="62.804813"
   x="-480"
   y="216" /><path
   id="path1"
   style="vector-effect:non-scaling-stroke;fill:none;stroke:#000000;stroke-width:1;stroke-dasharray:none;stroke-opacity:1;-inkscape-stroke:hairline"
   d="m 227.55026,102.16639 c -0.13412,-0.17309 -0.30804,-0.32141 -0.52358,-0.44049 -0.21372,-0.11925 -0.47353,-0.20795 -0.77693,-0.26658 0.3034,-0.18812 0.53117,-0.41968 0.67949,-0.69088 0.14831,-0.2722 0.22313,-0.61541 0.22313,-1.028489 0,-0.68345 -0.19572,-1.20521 -0.58699,-1.56807 -0.39326,-0.36287 -0.96506,-0.54455 -1.7202,-0.54455 h -3.17777 v 8.208199 h 3.42734 c 0.43471,0 0.82797,-0.0512 1.17581,-0.15327 0.34965,-0.10207 0.64348,-0.2532 0.88743,-0.45553 0.24296,-0.20414 0.43091,-0.45569 0.56618,-0.75249 0.13428,-0.29878 0.20051,-0.63886 0.20051,-1.0227 0,-0.24758 -0.0284,-0.48013 -0.0869,-0.69749 -0.0588,-0.21719 -0.1541,-0.41275 -0.28755,-0.58766 z m -3.75057,-2.905579 h 0.39326 c 0.66545,0 1.00007,0.26476 1.00007,0.794769 0,0.52936 -0.33446,0.79412 -1.00007,0.79412 h -0.39326 z m 1.62291,4.712819 c -0.23338,0.13808 -0.61706,0.20794 -1.15401,0.20794 h -0.4689 v -1.74299 h 0.4689 c 0.53695,0 0.92063,0.069 1.15401,0.20613 0.23156,0.1389 0.34784,0.36022 0.34784,0.66528 1.6e-4,0.3044 -0.11611,0.52573 -0.34784,0.66364 z m -7.59842,-1.88288 c 0,0.23899 -0.01,0.48492 -0.0274,0.73531 -0.0178,0.24957 -0.0737,0.47634 -0.16913,0.68048 -0.0927,0.20233 -0.23735,0.36865 -0.4291,0.49335 -0.19292,0.12751 -0.4661,0.19192 -0.82236,0.19192 -0.35527,0 -0.63027,-0.0644 -0.82698,-0.19192 -0.19572,-0.1247 -0.34041,-0.29119 -0.43009,-0.49335 -0.0907,-0.20414 -0.14551,-0.43091 -0.16252,-0.68048 -0.0188,-0.25055 -0.0274,-0.49632 -0.0274,-0.73531 v -4.463259 h -2.13344 v 4.758239 c 0,1.27607 0.29301,2.20793 0.88198,2.79691 0.58799,0.58699 1.48682,0.88198 2.69847,0.88198 1.21182,0 2.10965,-0.29499 2.69467,-0.88198 0.5832,-0.58882 0.87537,-1.52084 0.87537,-2.79691 v -4.758239 h -2.12204 z M 203.7285,97.627491 v 8.208209 h 2.13344 v -3.38572 h 3.08033 v 3.38572 h 2.13327 v -8.208209 h -2.13327 v 3.168199 h -3.08033 v -3.168199 z m 20.8653,-36.21623 c -0.3044,0 -0.61243,-0.068 -0.92344,-0.20596 -0.31298,-0.13808 -0.62861,-0.34982 -0.94804,-0.63143 l -0.91403,1.72036 c 0.88562,0.61541 1.84605,0.92542 2.88378,0.92542 0.50293,0 0.94904,-0.067 1.34593,-0.20232 0.39524,-0.13329 0.72673,-0.32241 1.0019,-0.56619 0.27037,-0.24197 0.47831,-0.53497 0.61903,-0.8762 0.14072,-0.34123 0.21175,-0.72111 0.21175,-1.14278 0,-0.62482 -0.1617,-1.13039 -0.4841,-1.51786 -0.32224,-0.38946 -0.8326,-0.69849 -1.53026,-0.93203 -0.1721,-0.0568 -0.34866,-0.11149 -0.52654,-0.16252 -0.17871,-0.0502 -0.33744,-0.11149 -0.48113,-0.17772 -0.13791,-0.0699 -0.25518,-0.15311 -0.34106,-0.24577 -0.0861,-0.0945 -0.13049,-0.21554 -0.13049,-0.35907 0,-0.21174 0.0879,-0.38186 0.2608,-0.51234 0.17491,-0.13048 0.39788,-0.19654 0.67404,-0.19654 0.21719,0 0.4433,0.0454 0.67767,0.13708 0.22975,0.0897 0.4623,0.22975 0.69667,0.4187 l 0.84696,-1.66536 c -0.40647,-0.21736 -0.82979,-0.38368 -1.27325,-0.49533 -0.44331,-0.11248 -0.86662,-0.16831 -1.2731,-0.16831 -0.43686,0 -0.83078,0.0652 -1.18142,0.19573 -0.34982,0.13147 -0.65042,0.31298 -0.89321,0.54917 -0.2428,0.23619 -0.43191,0.51895 -0.56536,0.84878 -0.13329,0.33083 -0.20134,0.69849 -0.20134,1.10595 0,0.40647 0.0644,0.74208 0.19093,1.00569 0.12668,0.26476 0.29218,0.48591 0.50095,0.65884 0.20794,0.17491 0.44049,0.3148 0.70591,0.41869 0.26559,0.10587 0.53596,0.20233 0.81195,0.28921 0.23355,0.0793 0.42927,0.15311 0.59179,0.21735 0.16434,0.0662 0.2968,0.1361 0.39788,0.21175 0.10207,0.0775 0.17574,0.1607 0.21819,0.25138 0.0436,0.0907 0.0662,0.19753 0.0662,0.32042 0,0.20315 -0.087,0.38467 -0.25634,0.54537 -0.17062,0.15955 -0.42959,0.23784 -0.77925,0.23784 z m -6.25827,-1.60953 -3.93869,-5.01821 h -2.13409 v 8.20622 h 2.13409 v -5.01705 l 3.93869,5.01705 h 2.12403 v -8.20622 h -2.12403 z m -9.92725,-5.01818 h 2.13608 v 8.20622 h -2.13608 z m -5.78936,-3e-5 v 8.20622 h 4.69086 v -1.80707 h -2.5556 v -6.39915 z m -5.79035,0 v 8.20622 h 4.69102 v -1.80707 h -2.55775 v -6.39915 z m -9.1665,7.18369 c 0.3997,0.39127 0.87621,0.69749 1.43281,0.92063 0.55479,0.22115 1.16458,0.33181 1.83284,0.33181 0.66165,0 1.27028,-0.11049 1.82804,-0.33181 0.56057,-0.22314 1.04154,-0.52936 1.44223,-0.92063 0.40267,-0.39227 0.71747,-0.8506 0.94325,-1.37632 0.22397,-0.52738 0.33661,-1.09455 0.33661,-1.70517 0,-0.6088 -0.11264,-1.17762 -0.33661,-1.70318 -0.22578,-0.52556 -0.54058,-0.98488 -0.94325,-1.37616 -0.40086,-0.39226 -0.88182,-0.69848 -1.44223,-0.92062 -0.55776,-0.22116 -1.16639,-0.33083 -1.82804,-0.33083 -0.66826,0 -1.27788,0.10967 -1.83284,0.33083 -0.5566,0.22214 -1.03311,0.52836 -1.43281,0.92062 -0.39804,0.39128 -0.70987,0.8506 -0.93582,1.37616 -0.22396,0.52556 -0.33644,1.09455 -0.33644,1.70318 0,0.61062 0.11248,1.17779 0.33644,1.70517 0.22595,0.52555 0.53778,0.98405 0.93582,1.37632 z m 1.14361,-3.98494 c 0.12288,-0.27417 0.2892,-0.51416 0.50094,-0.71748 0.20993,-0.20315 0.45569,-0.36204 0.73433,-0.47253 0.27979,-0.11248 0.57461,-0.16913 0.8866,-0.16913 0.312,0 0.60781,0.0566 0.88661,0.16913 0.27962,0.11049 0.52737,0.26938 0.74291,0.47253 0.21257,0.20316 0.38186,0.44331 0.50475,0.71748 0.12189,0.27599 0.18432,0.57659 0.18432,0.90362 0,0.32702 -0.0624,0.62961 -0.18432,0.90461 -0.12289,0.27516 -0.29218,0.51515 -0.50475,0.71747 -0.21554,0.20415 -0.46329,0.36204 -0.74291,0.47452 -0.2788,0.11248 -0.57461,0.16913 -0.88661,0.16913 -0.31199,0 -0.60681,-0.0568 -0.8866,-0.16913 -0.2788,-0.11248 -0.52457,-0.27037 -0.73433,-0.47452 -0.21174,-0.20232 -0.37806,-0.44231 -0.50094,-0.71747 -0.12289,-0.275 -0.18614,-0.57759 -0.18614,-0.90461 0,-0.32703 0.0632,-0.62763 0.18614,-0.90362 z m -8.48304,4.01136 c 0.39358,0.38946 0.8506,0.69006 1.37054,0.90362 0.51944,0.21356 1.06151,0.32224 1.62753,0.32224 0.2755,0 0.5543,-0.0274 0.83788,-0.0823 0.28178,-0.0548 0.587,-0.14088 0.91452,-0.25518 l 0.21736,-0.0775 v -2.52554 c -0.54488,0.58221 -1.15781,0.87241 -1.83928,0.87241 -0.3115,0 -0.60219,-0.0596 -0.87141,-0.17491 -0.26839,-0.11529 -0.50243,-0.27599 -0.70195,-0.47832 -0.19952,-0.20315 -0.35577,-0.44231 -0.46742,-0.7183 -0.11297,-0.276 -0.16913,-0.57759 -0.16913,-0.90362 0,-0.32042 0.0562,-0.61822 0.16913,-0.89421 0.11149,-0.27417 0.26708,-0.51234 0.46164,-0.71268 0.19572,-0.19853 0.43009,-0.35726 0.70327,-0.47353 0.27137,-0.1143 0.56569,-0.17293 0.88611,-0.17293 0.7259,0 1.33553,0.3006 1.82888,0.90362 v -2.54817 c -0.34883,-0.14369 -0.67966,-0.25138 -0.99529,-0.32141 -0.31662,-0.0671 -0.63655,-0.10207 -0.96456,-0.10207 -0.5728,0 -1.12048,0.1067 -1.64323,0.32141 -0.52275,0.21356 -0.98108,0.51036 -1.37665,0.89123 -0.39557,0.38087 -0.7117,0.83458 -0.94623,1.36113 -0.23586,0.52654 -0.35494,1.10495 -0.35494,1.73638 0,0.63142 0.12057,1.21363 0.35923,1.74678 0.24032,0.53381 0.55744,0.9943 0.954,1.38177 z m -9.47668,-5.40271 v 6.39882 h 2.13344 v -6.39882 h 1.75339 v -1.8074 h -5.63923 v 1.8074 z m -6.57373,3.24202 2.0345,3.15697 h 2.65652 l -2.58054,-3.36309 c 0.58799,-0.13792 1.03228,-0.40086 1.33371,-0.78933 0.30142,-0.38846 0.45222,-0.89503 0.45222,-1.51885 0,-0.34784 -0.0581,-0.67487 -0.17012,-0.97927 -0.11198,-0.3044 -0.27831,-0.57279 -0.50045,-0.80633 -0.22017,-0.23057 -0.50243,-0.4149 -0.84267,-0.54918 -0.34173,-0.13411 -0.7406,-0.20034 -1.19712,-0.20034 h -3.32031 v 8.20622 h 2.13426 z m 0,-3.40653 h 0.40218 c 0.41968,0 0.7434,0.0869 0.96885,0.26097 0.22347,0.17391 0.33595,0.4243 0.33595,0.75133 0,0.3262 -0.11248,0.57758 -0.33595,0.7515 -0.22545,0.17392 -0.54917,0.26096 -0.96885,0.26096 h -0.40218 z m -11.29844,5.5408 c 0.39837,0.39127 0.8757,0.69749 1.42966,0.92063 0.55578,0.22115 1.16772,0.33181 1.83466,0.33181 0.66066,0 1.27028,-0.11049 1.82936,-0.33181 0.5581,-0.22314 1.03889,-0.52936 1.4419,-0.92063 0.403,-0.39227 0.71599,-0.8506 0.94144,-1.37632 0.22594,-0.52738 0.33825,-1.09455 0.33825,-1.70517 0,-0.6088 -0.11247,-1.17762 -0.33825,-1.70318 -0.22545,-0.52556 -0.53828,-0.98488 -0.94144,-1.37616 -0.40317,-0.39226 -0.8838,-0.69848 -1.4419,-0.92062 -0.55908,-0.22116 -1.1687,-0.33083 -1.82936,-0.33083 -0.66694,0 -1.27888,0.10967 -1.83466,0.33083 -0.55396,0.22214 -1.03129,0.52836 -1.42966,0.92062 -0.39888,0.39128 -0.7122,0.8506 -0.93814,1.37616 -0.22364,0.52556 -0.33644,1.09455 -0.33644,1.70318 0,0.61062 0.11297,1.17779 0.33644,1.70517 0.22594,0.52555 0.53926,0.98405 0.93814,1.37632 z m 1.14327,-3.98494 c 0.12288,-0.27417 0.2892,-0.51416 0.49995,-0.71748 0.21075,-0.20315 0.45553,-0.36204 0.73433,-0.47253 0.27929,-0.11248 0.5756,-0.16913 0.8866,-0.16913 0.31382,0 0.6083,0.0566 0.8876,0.16913 0.27979,0.11049 0.52737,0.26938 0.74159,0.47253 0.21273,0.20316 0.38137,0.44331 0.50425,0.71748 0.12437,0.27599 0.18614,0.57659 0.18614,0.90362 0,0.32702 -0.0619,0.62961 -0.18614,0.90461 -0.12288,0.27516 -0.29152,0.51515 -0.50425,0.71747 -0.21405,0.20415 -0.4618,0.36204 -0.74159,0.47452 -0.2793,0.11248 -0.57378,0.16913 -0.8876,0.16913 -0.311,0 -0.60731,-0.0568 -0.8866,-0.16913 -0.2788,-0.11248 -0.52358,-0.27037 -0.73433,-0.47452 -0.21075,-0.20232 -0.37707,-0.44231 -0.49995,-0.71747 -0.12388,-0.275 -0.18581,-0.57759 -0.18581,-0.90461 0,-0.32703 0.0619,-0.62763 0.18581,-0.90362 z m -8.01249,-3.19875 v 8.20622 h 2.13327 v -3.22105 h 2.34072 v -1.80723 h -2.34072 v -1.37054 h 2.56915 v -1.8074 z m 97.69363,27.53648 c 1.62588,-0.38087 2.85356,-1.10677 3.68714,-2.18051 0.83078,-1.07374 1.24684,-2.4717 1.24684,-4.19767 0,-0.96308 -0.1541,-1.86488 -0.46494,-2.70805 -0.31084,-0.84316 -0.77133,-1.58409 -1.38376,-2.22675 -0.61259,-0.64084 -1.39151,-1.14757 -2.33081,-1.51902 -0.9454,-0.37146 -2.04738,-0.55678 -3.31007,-0.55678 h -9.17789 v 22.68658 h 5.89804 v -8.726 l 5.62586,8.726 h 7.34142 z m -2.0454,-3.97074 c -0.62202,0.48113 -1.51523,0.72211 -2.67782,0.72211 h -1.11239 v -5.59646 h 1.11239 c 1.16259,0 2.0558,0.24098 2.67782,0.7231 0.62201,0.47997 0.93202,1.17201 0.93202,2.07546 0,0.90197 -0.31001,1.59467 -0.93202,2.07579 z m -16.72049,-6.58992 c -1.11337,-1.08315 -2.44246,-1.93094 -3.98493,-2.54255 -1.54628,-0.61061 -3.2308,-0.91683 -5.05587,-0.91683 -1.84605,0 -3.53684,0.30622 -5.07189,0.91683 -1.53405,0.61161 -2.85174,1.4594 -3.9557,2.54255 -1.10198,1.08316 -1.96596,2.35361 -2.5878,3.80722 -0.62119,1.45478 -0.9322,3.02285 -0.9322,4.70803 0,1.68535 0.31101,3.25425 0.9322,4.71001 0.62184,1.45379 1.48582,2.72209 2.5878,3.80541 1.10413,1.08315 2.42165,1.93193 3.9557,2.54255 1.53505,0.61061 3.22584,0.91699 5.07189,0.91699 1.82524,0 3.50959,-0.30621 5.05587,-0.91699 1.54247,-0.61045 2.87156,-1.4594 3.98493,-2.54255 1.11338,-1.08332 1.98017,-2.35162 2.60317,-3.80541 0.62201,-1.4556 0.93368,-3.0245 0.93368,-4.71001 0,-1.68518 -0.31183,-3.25325 -0.93368,-4.70803 -0.623,-1.45361 -1.48979,-2.72406 -2.60317,-3.80722 z m -3.14276,11.01238 c -0.34304,0.7629 -0.80815,1.42455 -1.39993,1.98578 -0.59361,0.5614 -1.27508,1.00008 -2.04739,1.30927 -0.77116,0.311 -1.5879,0.46593 -2.45088,0.46593 -0.86299,0 -1.67957,-0.15493 -2.45089,-0.46593 -0.77495,-0.30919 -1.4518,-0.74771 -2.03219,-1.30927 -0.58221,-0.56123 -1.04351,-1.22288 -1.38474,-1.98578 -0.34041,-0.76075 -0.51152,-1.5945 -0.51152,-2.49713 0,-0.90262 0.17111,-1.73439 0.51152,-2.49812 0.34106,-0.76009 0.80237,-1.42339 1.38474,-1.98495 0.58039,-0.5614 1.25707,-0.99826 2.03219,-1.31009 0.77132,-0.31018 1.5879,-0.46593 2.45089,-0.46593 0.86298,0 1.67972,0.15575 2.45088,0.46593 0.77231,0.31183 1.45378,0.74853 2.04739,1.31009 0.59178,0.56139 1.05672,1.22486 1.39993,1.98495 0.33942,0.76373 0.51053,1.5955 0.51053,2.49812 0,0.90263 -0.17128,1.73638 -0.51053,2.49713 z m -35.88441,-13.84033 v 4.99442 h 4.84313 v 17.69215 h 5.89706 v -17.69215 h 4.84511 v -4.99442 z m -13.8296,0 -8.63532,22.68657 h 6.2875 l 1.35501,-3.9415 h 8.42408 l 1.35551,3.9415 h 6.28701 l -8.63483,-22.68657 z m 0.5723,14.26101 2.64759,-7.55217 2.64694,7.55217 z m -17.8256,3.43312 v -3.91326 h 6.61981 v -4.99426 h -6.61981 v -3.79219 h 7.01158 v -4.99442 h -12.90864 v 22.68657 h 12.90864 v -4.99244 z m -12.04466,-6.48603 c 0.83177,-1.07374 1.24864,-2.4717 1.24864,-4.19767 0,-0.96308 -0.15591,-1.86488 -0.4656,-2.70805 -0.31232,-0.843 -0.77264,-1.58409 -1.38424,-2.22675 -0.61161,-0.64084 -1.39036,-1.14757 -2.3318,-1.51902 -0.94425,-0.37146 -2.04722,-0.55678 -3.31008,-0.55678 h -9.17739 v 22.68658 h 5.89755 v -8.726 l 5.62667,8.726 h 7.34142 l -7.131,-9.29797 c 1.6244,-0.3807 2.85373,-1.1066 3.68583,-2.18034 z m -5.73156,-1.79023 c -0.62102,0.48113 -1.51473,0.72211 -2.67865,0.72211 h -1.11255 v -5.59646 h 1.11255 c 1.16392,0 2.05763,0.24098 2.67865,0.7231 0.62102,0.47997 0.93285,1.17201 0.93285,2.07546 0,0.90197 -0.31183,1.59467 -0.93285,2.07579 z m -19.30531,-10.0493 c -1.58361,0 -3.10032,0.2968 -4.54303,0.88661 -1.4452,0.59162 -2.71367,1.41497 -3.80623,2.4669 -1.09405,1.05491 -1.96646,2.30835 -2.6182,3.7618 -0.65223,1.4556 -0.97777,3.0549 -0.97777,4.79788 0,1.74679 0.33132,3.35632 0.99247,4.82992 0.66264,1.4746 1.53967,2.74951 2.63372,3.82242 1.09174,1.07373 2.35542,1.90551 3.79071,2.49729 1.43379,0.59162 2.93283,0.88661 4.4986,0.88661 0.76174,0 1.53355,-0.0747 2.31611,-0.22496 0.78205,-0.1503 1.62472,-0.38566 2.52801,-0.7069 l 0.6017,-0.20993 v -6.98136 c -1.50482,1.60491 -3.19908,2.40646 -5.08477,2.40646 -0.8625,0 -1.66503,-0.15889 -2.40745,-0.48014 -0.74242,-0.32141 -1.38904,-0.76372 -1.94102,-1.32512 -0.55148,-0.56139 -0.98207,-1.22304 -1.29308,-1.98578 -0.31232,-0.76174 -0.46642,-1.5945 -0.46642,-2.49812 0,-0.88099 0.1541,-1.70318 0.46642,-2.46707 0.31101,-0.76009 0.73681,-1.41777 1.2769,-1.97075 0.54355,-0.55115 1.19001,-0.98686 1.94184,-1.30728 0.75282,-0.32124 1.56907,-0.48294 2.45188,-0.48294 2.00576,0 3.6916,0.8326 5.05537,2.49812 v -7.04165 c -0.96275,-0.40069 -1.8814,-0.69567 -2.75281,-0.8866 -0.87323,-0.19093 -1.76066,-0.28541 -2.66295,-0.28541 z M 148.925,50.392491 h 76.0586 c 5.18261,0 9.26562,3.87406 9.26562,8.57422 0,1.21477 -0.27611,2.36079 -0.77148,3.41211 l -0.95117,2.02148 h 5.41796 c 6.33662,0 10.81727,1.22558 13.68555,3.8086 2.86828,2.58301 4.38672,6.68533 4.38672,13.13281 v 10.125 c 0,0 -0.0153,1.14566 -0.63086,2.27344 -0.61561,1.12777 -1.60866,2.21679 -4.40625,2.21679 h -20.06836 l 1.16211,2.10352 c 0.65244,1.18041 1.02344,2.525539 1.02344,3.970699 0,4.56062 -3.66581,8.22852 -8.22461,8.22852 h -18.94336 c -4.55801,0 -8.22656,-3.6684 -8.22656,-8.22852 0,-1.44571 0.37189,-2.791409 1.02539,-3.970699 l 1.16601,-2.10352 h -84.08984 c -4.36618,0 -7.81828,-1.72702 -10.26758,-4.54882 -2.4493,-2.82181 -3.86914,-6.78203 -3.86914,-11.22852 0,-4.44745 1.41986,-8.40867 3.86914,-11.23047 2.44928,-2.82179 5.90136,-4.54883 10.26758,-4.54883 h 25.57812 l -0.95117,-2.02148 c -0.49538,-1.05237 -0.77148,-2.198 -0.77148,-3.41211 0,-4.70008 4.083,-8.57422 9.26562,-8.57422 z m 68.85352,-26.3829 c -3.55976,-0.066 -7.14253,0.20826 -10.70117,0.83398 -0.58782,0.10323 -1.17767,0.21879 -1.76368,0.33985 -2.35359,0.49153 -4.3353,2.00478 -5.42968,4.14648 -1.09455,2.14285 -1.16287,4.63156 -0.1836,6.83008 1.21644,2.73067 2.09354,5.60446 2.61133,8.54688 0.16576,0.9435 0.28774,1.89492 0.37891,2.8496 h 22.29297 c 2.10191,0 4.08837,0.514 5.82226,1.41602 0.26048,-4.40749 1.31273,-8.7439 3.11914,-12.77148 0.9829,-2.1957 0.92262,-4.68544 -0.16797,-6.82813 -1.08893,-2.14367 -3.06635,-3.66109 -5.41797,-4.15625 -3.46367,-0.73399 -7.00079,-1.14099 -10.56054,-1.20703 z m 41.07422,62.34766 v 5.10742 c 0,0 0.0184,1.80841 -0.97852,3.63476 -0.99693,1.82636 -3.23268,3.69141 -6.89453,3.69141 h -15.58398 c 0.31931,1.0323 0.53515,2.106299 0.53515,3.240229 0,1.62776 -0.36409,3.17029 -1,4.56446 4.38524,2.56135 8.20164,6.01713 11.16602,10.12304 1.40919,1.94994 3.59718,3.14088 6,3.26954 2.40067,0.12668 4.70283,-0.82601 6.31054,-2.61524 5.2468,-5.84138 9.13609,-12.64788 11.52735,-19.931639 0.75051,-2.28457 0.4295,-4.75347 -0.87695,-6.77344 -1.30612,-2.01814 -3.43002,-3.32253 -5.82227,-3.57226 -1.47577,-0.15479 -2.93936,-0.40584 -4.38281,-0.73828 z m -94.78321,12.43359 c 1.11031,3.101629 2.49346,6.156479 4.19727,9.113279 1.96596,3.41611 4.24876,6.54787 6.77148,9.375 1.60111,1.79484 3.90482,2.7568 6.30664,2.63672 2.40035,-0.1209 4.59857,-1.31085 6.01172,-3.25781 2.5095,-3.45801 5.62394,-6.45118 9.16992,-8.83789 -1.04368,-1.6874 -1.6582,-3.66653 -1.6582,-5.78907 0,-1.13345 0.21567,-2.207659 0.53516,-3.240229 z" /><rect
   style="vector-effect:non-scaling-stroke;fill:none;stroke:#f36926;stroke-width:1.0602;stroke-dasharray:none;stroke-opacity:1;-inkscape-stroke:hairline"
   id="rect3"
   width="372"
   height="372"
   x="0"
   y="0" /><rect
   style="vector-effect:non-scaling-stroke;fill:none;stroke:#f36926;stroke-width:0.989439;stroke-dasharray:none;stroke-opacity:1;-inkscape-stroke:hairline"
   id="rect4"
   width="372"
   height="324"
   x="0"
   y="0" /><path
   style="font-style:italic;font-size:28.8px;font-family:'Nunito Sans 10pt';-inkscape-font-specification:'Nunito Sans 10pt';fill:none;stroke:#000000;stroke-opacity:1;vector-effect:non-scaling-stroke;-inkscape-stroke:hairline;stroke-width:0.99999999;stroke-dasharray:none"
   d="m 245.01102,163.90639 h 4.3776 q 1.728,0 2.6496,-0.7488 0.9216,-0.7776 1.008,-2.2752 0.0864,-1.3536 -0.72,-2.016 -0.7776,-0.6624 -2.5344,-0.6624 h -3.888 z"
   id="path15" /><path
   id="path14"
   style="font-style:italic;font-size:28.8px;font-family:'Nunito Sans 10pt';-inkscape-font-specification:'Nunito Sans 10pt';fill:none;stroke:#000000;stroke-opacity:1;vector-effect:non-scaling-stroke;-inkscape-stroke:hairline;stroke-width:0.99999999;stroke-dasharray:none"
   d="M 241.90039 154.66211 L 238.67578 174.96484 L 243.2539 174.96484 L 244.49218 167.24804 L 246.91211 167.24804 C 247.35371 167.24804 247.72795 167.30472 248.03515 167.41992 C 248.34235 167.51592 248.6013 167.6879 248.8125 167.9375 C 249.0237 168.1679 249.20577 168.47537 249.35937 168.85937 L 251.63476 174.96484 L 256.38672 174.96484 L 254.16992 169.20508 C 253.86272 168.37948 253.46828 167.74628 252.98828 167.30469 C 252.65992 166.97632 252.26173 166.7584 251.79687 166.64453 C 252.60331 166.508 253.34696 166.28768 254.02539 165.98047 C 255.06219 165.50047 255.88755 164.81874 256.50195 163.93554 C 257.11635 163.05235 257.44207 161.94784 257.48047 160.62304 C 257.55727 159.35585 257.33676 158.28163 256.81836 157.39844 C 256.31916 156.51524 255.54232 155.84166 254.48632 155.38086 C 253.43033 154.90086 252.12551 154.66211 250.57031 154.66211 L 241.90039 154.66211 z " /><path
   style="font-style:italic;font-size:28.8px;font-family:'Nunito Sans 10pt';-inkscape-font-specification:'Nunito Sans 10pt';fill:none;stroke:#000000;stroke-opacity:1;vector-effect:non-scaling-stroke;-inkscape-stroke:hairline;stroke-width:0.99999999;stroke-dasharray:none"
   d="m 220.55984,174.96559 3.1968,-20.304 h 14.1408 l -0.576,3.6 h -9.7632 l -0.72,4.608 h 9.1296 l -0.5472,3.6 h -9.1584 l -0.7776,4.896 h 9.7632 l -0.576,3.6 z"
   id="path13" /><path
   style="font-style:italic;font-size:28.8px;font-family:'Nunito Sans 10pt';-inkscape-font-specification:'Nunito Sans 10pt';fill:none;stroke:#000000;stroke-opacity:1;vector-effect:non-scaling-stroke;-inkscape-stroke:hairline;stroke-width:0.99999999;stroke-dasharray:none"
   d="m 202.93428,171.19279 h 3.6288 q 1.6704,0 2.9376,-0.5184 1.296,-0.5184 2.16,-1.4688 0.864,-0.9504 1.3248,-2.2752 0.4896,-1.3248 0.576,-2.9952 0.1728,-2.7072 -1.2384,-4.0896 -1.4112,-1.4112 -4.2624,-1.4112 h -3.1104 z"
   id="path12" /><path
   style="font-style:italic;font-size:28.8px;font-family:'Nunito Sans 10pt';-inkscape-font-specification:'Nunito Sans 10pt';fill:none;stroke:#000000;stroke-opacity:1;vector-effect:non-scaling-stroke;-inkscape-stroke:hairline;stroke-width:0.99999999;stroke-dasharray:none"
   d="m 197.75028,174.96559 3.2256,-20.304 h 7.3152 q 5.0688,0 7.632,2.448 2.592,2.448 2.3328,6.9408 -0.1152,2.448 -0.9504,4.464 -0.8064,1.9872 -2.3328,3.4272 -1.4976,1.44 -3.6288,2.2464 -2.1312,0.7776 -4.896,0.7776 z"
   id="path11" /><path
   id="path10"
   style="font-style:italic;font-size:28.8px;font-family:'Nunito Sans 10pt';-inkscape-font-specification:'Nunito Sans 10pt';fill:none;stroke:#000000;stroke-opacity:1;vector-effect:non-scaling-stroke;-inkscape-stroke:hairline;stroke-width:0.99999999;stroke-dasharray:none"
   d="M 178.48242 154.66211 L 175.25781 174.96484 L 179.49023 174.96484 L 181.61328 161.56836 L 189.80078 174.96484 L 193.22851 174.96484 L 196.45508 154.66211 L 192.2207 154.66211 L 190.09765 168.14453 L 181.85351 154.66211 L 178.48242 154.66211 z " /><path
   style="font-style:italic;font-size:28.8px;font-family:'Nunito Sans 10pt';-inkscape-font-specification:'Nunito Sans 10pt';fill:none;stroke:#000000;stroke-opacity:1;vector-effect:non-scaling-stroke;-inkscape-stroke:hairline;stroke-width:0.99999999;stroke-dasharray:none"
   d="m 162.38397,175.28239 q -2.0448,0 -3.6576,-0.576 -1.584,-0.576 -2.6496,-1.728 -1.0368,-1.152 -1.44,-2.8512 -0.3744,-1.6992 -0.0288,-3.9168 l 1.8432,-11.5488 h 4.5504 l -1.8432,11.6928 q -0.3744,2.448 0.5184,3.7152 0.9216,1.2672 3.0816,1.2672 2.1024,0 3.2832,-1.0944 1.2096,-1.1232 1.6128,-3.4272 l 1.9296,-12.1536 h 4.5216 l -1.9008,12.1536 q -0.432,2.736 -1.6416,4.6368 -1.2096,1.872 -3.2544,2.8512 -2.016,0.9792 -4.9248,0.9792 z"
   id="path9" /><path
   style="font-style:italic;font-size:28.8px;font-family:'Nunito Sans 10pt';-inkscape-font-specification:'Nunito Sans 10pt';fill:none;stroke:#000000;stroke-opacity:1;vector-effect:non-scaling-stroke;-inkscape-stroke:hairline;stroke-width:0.99999999;stroke-dasharray:none"
   d="m 140.20801,171.36559 q 1.872,0 3.2256,-0.9216 1.3536,-0.9504 2.1312,-2.6208 0.7776,-1.6992 0.864,-3.9456 0.1728,-2.8224 -1.0656,-4.2048 -1.2384,-1.4112 -3.5424,-1.4112 -1.8432,0 -3.1968,0.9216 -1.3536,0.9216 -2.1312,2.592 -0.7488,1.6704 -0.864,3.9456 -0.1728,2.8224 1.0656,4.2336 1.2384,1.4112 3.5136,1.4112 z"
   id="path8" /><path
   style="font-style:italic;font-size:28.8px;font-family:'Nunito Sans 10pt';-inkscape-font-specification:'Nunito Sans 10pt';fill:none;stroke:#000000;stroke-opacity:1;vector-effect:non-scaling-stroke;-inkscape-stroke:hairline;stroke-width:0.99999999;stroke-dasharray:none"
   d="m 140.09281,175.28239 q -2.9376,0 -5.0688,-1.152 -2.1312,-1.1808 -3.1968,-3.3408 -1.0656,-2.1888 -0.9216,-5.184 0.144,-2.5344 0.9792,-4.5792 0.864,-2.0736 2.304,-3.5712 1.4688,-1.4976 3.4272,-2.304 1.9584,-0.8064 4.3488,-0.8064 2.9664,0 5.0688,1.1808 2.1312,1.152 3.1968,3.312 1.0944,2.16 0.9216,5.1264 -0.144,2.5632 -1.008,4.6368 -0.8352,2.0736 -2.304,3.5712 -1.44,1.4976 -3.4272,2.304 -1.9584,0.8064 -4.32,0.8064 z"
   id="path7" /><path
   style="font-style:italic;font-size:28.8px;font-family:'Nunito Sans 10pt';-inkscape-font-specification:'Nunito Sans 10pt';fill:none;stroke:#000000;stroke-opacity:1;vector-effect:non-scaling-stroke;-inkscape-stroke:hairline;stroke-width:0.99999999;stroke-dasharray:none"
   d="m 113.07845,174.96559 3.1968,-20.304 h 14.0256 l -0.576,3.6 h -9.4176 l -0.7776,4.8384 h 8.8128 l -0.576,3.6 h -8.8128 l -1.3248,8.2656 z"
   id="text4" /><path
   id="path28"
   style="font-size:28.8px;font-family:'Nunito Sans 10pt';-inkscape-font-specification:'Nunito Sans 10pt';text-align:center;text-anchor:middle;fill:none;stroke:#000000;stroke-opacity:1;vector-effect:non-scaling-stroke;-inkscape-stroke:hairline;stroke-width:0.99999999;stroke-dasharray:none"
   d="M 270.54297 240.54882 C 269.77497 240.54882 268.98804 240.6156 268.18164 240.75 C 267.37524 240.8844 266.59645 241.08471 265.84765 241.35351 C 265.11805 241.60311 264.46467 241.90244 263.88867 242.24804 L 265.04101 245.21289 C 265.94341 244.73289 266.81731 244.37883 267.66211 244.14843 C 268.5261 243.91803 269.33323 243.80273 270.08203 243.80273 C 271.09963 243.80273 271.82793 243.97471 272.26953 244.32031 C 272.73033 244.66591 272.96093 245.26067 272.96093 246.10547 L 272.96093 246.50976 L 271.78125 246.50976 C 269.74605 246.50976 268.10346 246.6534 266.85547 246.9414 C 265.62667 247.2294 264.72443 247.69062 264.14843 248.32422 C 263.57243 248.93861 263.28515 249.76398 263.28515 250.80078 C 263.28515 251.68398 263.5239 252.47091 264.0039 253.16211 C 264.4839 253.85331 265.13729 254.40963 265.96289 254.83203 C 266.80769 255.23523 267.75845 255.4375 268.81445 255.4375 C 269.62085 255.4375 270.32081 255.30395 270.91601 255.03515 C 271.53041 254.76635 272.04016 254.40025 272.44336 253.93945 C 272.82176 253.50945 273.09925 253.01811 273.27734 252.46484 L 273.27734 255.12109 L 277.25195 255.12109 L 277.25195 246.71093 C 277.25195 245.27094 276.99301 244.09966 276.47461 243.19726 C 275.97541 242.29486 275.22691 241.63333 274.22851 241.21093 C 273.23011 240.76933 272.00216 240.54882 270.54297 240.54882 z M 271.89648 248.84179 L 272.96093 248.84179 L 272.96093 249.30273 C 272.96093 249.89793 272.81729 250.43601 272.52929 250.91601 C 272.26049 251.37681 271.89634 251.74096 271.43554 252.00976 C 270.97474 252.25936 270.4549 252.38476 269.8789 252.38476 C 269.1877 252.38476 268.64148 252.23102 268.23828 251.92382 C 267.83508 251.59743 267.63281 251.15641 267.63281 250.59961 C 267.63281 250.27321 267.70968 250.00417 267.86328 249.79297 C 268.03608 249.56257 268.29502 249.38049 268.64062 249.24609 C 268.98622 249.11169 269.42919 249.01463 269.96679 248.95703 C 270.50439 248.88023 271.14768 248.84179 271.89648 248.84179 z " /><path
   style="font-size:28.8px;font-family:'Nunito Sans 10pt';-inkscape-font-specification:'Nunito Sans 10pt';text-align:center;text-anchor:middle;fill:none;stroke:#000000;stroke-opacity:1;vector-effect:non-scaling-stroke;-inkscape-stroke:hairline;stroke-width:0.99999999;stroke-dasharray:none"
   d="m 254.5583,255.4376 q -1.296,0 -2.5056,-0.2016 -1.1808,-0.1728 -2.1888,-0.5184 -0.9792,-0.3456 -1.728,-0.864 l 1.0656,-2.9376 q 0.7488,0.432 1.6128,0.7488 0.8928,0.3168 1.8144,0.4896 0.9504,0.144 1.8432,0.144 1.3536,0 1.9872,-0.3456 0.6336,-0.3744 0.6336,-1.008 0,-0.5472 -0.4032,-0.8352 -0.3744,-0.288 -1.152,-0.4032 l -3.168,-0.4896 q -1.9296,-0.3168 -2.9376,-1.3536 -0.9792,-1.0656 -0.9792,-2.6208 0,-1.4112 0.7776,-2.448 0.7776,-1.0656 2.2464,-1.6416 1.4976,-0.6048 3.5424,-0.6048 1.0656,0 2.1024,0.1728 1.0368,0.1728 1.9296,0.5184 0.9216,0.3168 1.6128,0.864 l -1.152,2.9088 q -0.576,-0.432 -1.3248,-0.72 -0.7488,-0.3168 -1.584,-0.4608 -0.8064,-0.1728 -1.5264,-0.1728 -1.4112,0 -2.0448,0.3744 -0.6336,0.3744 -0.6336,1.0368 0,0.4896 0.3456,0.8064 0.3744,0.288 1.1232,0.4032 l 3.0816,0.4896 q 2.0736,0.3456 3.0816,1.3248 1.0368,0.9792 1.0368,2.6496 0,1.4688 -0.8064,2.5344 -0.8064,1.0368 -2.2752,1.6128 -1.4688,0.5472 -3.4272,0.5472 z"
   id="path27" /><path
   style="font-size:28.8px;font-family:'Nunito Sans 10pt';-inkscape-font-specification:'Nunito Sans 10pt';text-align:center;text-anchor:middle;fill:none;stroke:#000000;stroke-opacity:1;vector-effect:non-scaling-stroke;-inkscape-stroke:hairline;stroke-width:0.99999999;stroke-dasharray:none"
   d="m 236.44312,255.4376 q -1.7856,0 -2.9952,-0.6624 -1.2096,-0.6912 -1.8144,-2.0448 -0.6048,-1.3536 -0.6048,-3.4272 v -8.4672 h 4.4928 v 8.4672 q 0,0.8352 0.2304,1.4112 0.2304,0.576 0.72,0.864 0.5184,0.288 1.296,0.288 0.8352,0 1.4976,-0.4032 0.6624,-0.4032 1.0368,-1.1232 0.3744,-0.72 0.3744,-1.6416 v -7.8624 h 4.4928 v 14.2848 h -4.2336 v -2.8224 h 0.2304 q -0.6624,1.4976 -1.872,2.3328 -1.2096,0.8064 -2.8512,0.8064 z"
   id="path26" /><path
   id="path25"
   style="font-size:28.8px;font-family:'Nunito Sans 10pt';-inkscape-font-specification:'Nunito Sans 10pt';text-align:center;text-anchor:middle;fill:none;stroke:#000000;stroke-opacity:1;vector-effect:non-scaling-stroke;-inkscape-stroke:hairline;stroke-width:0.99999999;stroke-dasharray:none"
   d="M 220.71875 240.54882 C 219.95075 240.54882 219.16382 240.6156 218.35742 240.75 C 217.55102 240.8844 216.77223 241.08471 216.02343 241.35351 C 215.29384 241.60311 214.6424 241.90244 214.0664 242.24804 L 215.21679 245.21289 C 216.11919 244.73289 216.99309 244.37883 217.83789 244.14843 C 218.70189 243.91803 219.50901 243.80273 220.25781 243.80273 C 221.27541 243.80273 222.00566 243.97471 222.44726 244.32031 C 222.90806 244.66591 223.13672 245.26067 223.13672 246.10547 L 223.13672 246.50976 L 221.95703 246.50976 C 219.92183 246.50976 218.27925 246.6534 217.03125 246.9414 C 215.80245 247.2294 214.90022 247.69062 214.32422 248.32422 C 213.74822 248.93861 213.46093 249.76398 213.46093 250.80078 C 213.46093 251.68398 213.70164 252.47091 214.18164 253.16211 C 214.66164 253.85331 215.31307 254.40963 216.13867 254.83203 C 216.98347 255.23523 217.93423 255.4375 218.99023 255.4375 C 219.79663 255.4375 220.49659 255.30395 221.09179 255.03515 C 221.70619 254.76635 222.21594 254.40025 222.61914 253.93945 C 222.99887 253.50794 223.27706 253.01463 223.45508 252.45898 L 223.45508 255.12109 L 227.42968 255.12109 L 227.42968 246.71093 C 227.42968 245.27094 227.16879 244.09966 226.65039 243.19726 C 226.15119 242.29486 225.40269 241.63333 224.40429 241.21093 C 223.40589 240.76933 222.17795 240.54882 220.71875 240.54882 z M 222.07226 248.84179 L 223.13672 248.84179 L 223.13672 249.30273 C 223.13672 249.89793 222.99307 250.43601 222.70508 250.91601 C 222.43628 251.37681 222.07212 251.74096 221.61133 252.00976 C 221.15053 252.25936 220.63264 252.38476 220.05664 252.38476 C 219.36544 252.38476 218.81726 252.23102 218.41406 251.92382 C 218.01086 251.59743 217.80859 251.15641 217.80859 250.59961 C 217.80859 250.27321 217.88546 250.00417 218.03906 249.79297 C 218.21186 249.56257 218.47276 249.38049 218.81836 249.24609 C 219.16396 249.11169 219.60498 249.01463 220.14258 248.95703 C 220.68017 248.88023 221.32346 248.84179 222.07226 248.84179 z " /><path
   style="font-size:28.8px;font-family:'Nunito Sans 10pt';-inkscape-font-specification:'Nunito Sans 10pt';text-align:center;text-anchor:middle;fill:none;stroke:#000000;stroke-opacity:1;vector-effect:non-scaling-stroke;-inkscape-stroke:hairline;stroke-width:0.99999999;stroke-dasharray:none"
   d="m 209.31356,255.4376 q -2.7072,0 -4.0032,-1.4112 -1.296,-1.4112 -1.296,-4.1472 v -15.0624 h 4.4928 v 14.832 q 0,0.72 0.2016,1.2384 0.2016,0.4896 0.6048,0.7488 0.432,0.2304 1.0656,0.2304 0.3744,0 0.6912,-0.0288 0.3456,-0.0288 0.6912,-0.1152 l 0.0864,3.3408 q -0.6336,0.1728 -1.2384,0.2592 -0.576,0.1152 -1.296,0.1152 z"
   id="path24" /><path
   id="path23"
   style="font-size:28.8px;font-family:'Nunito Sans 10pt';-inkscape-font-specification:'Nunito Sans 10pt';text-align:center;text-anchor:middle;fill:none;stroke:#000000;stroke-opacity:1;vector-effect:non-scaling-stroke;-inkscape-stroke:hairline;stroke-width:0.99999999;stroke-dasharray:none"
   d="M 183.88281 234.8164 L 183.88281 255.12109 L 188.43359 255.12109 L 188.43359 245.87695 L 188.54883 245.87695 L 197.21679 255.12109 L 202.86328 255.12109 L 192.97656 244.49414 L 202.34375 234.8164 L 196.87109 234.8164 L 188.54883 243.57226 L 188.43359 243.57226 L 188.43359 234.8164 L 183.88281 234.8164 z " /><path
   style="font-size:28.8px;font-family:'Nunito Sans 10pt';-inkscape-font-specification:'Nunito Sans 10pt';text-align:center;text-anchor:middle;fill:none;stroke:#000000;stroke-opacity:1;vector-effect:non-scaling-stroke;-inkscape-stroke:hairline;stroke-width:0.99999999;stroke-dasharray:none"
   d="m 163.75203,252.068 q 1.4976,0 2.3616,-1.0368 0.864,-1.0368 0.864,-3.0528 0,-2.0448 -0.864,-3.0528 -0.864,-1.008 -2.3616,-1.008 -1.4688,0 -2.3616,1.008 -0.864,1.008 -0.864,3.0528 0,2.016 0.864,3.0528 0.8928,1.0368 2.3616,1.0368 z"
   id="path22" /><path
   id="path21"
   style="font-size:28.8px;font-family:'Nunito Sans 10pt';-inkscape-font-specification:'Nunito Sans 10pt';text-align:center;text-anchor:middle;fill:none;stroke:#000000;stroke-opacity:1;vector-effect:non-scaling-stroke;-inkscape-stroke:hairline;stroke-width:0.99999999;stroke-dasharray:none"
   d="M 166.89062 234.8164 L 166.89062 242.98047 C 166.53567 242.31835 166.00802 241.76657 165.30664 241.32617 C 164.48104 240.80777 163.50194 240.54882 162.36914 240.54882 C 161.10194 240.54882 159.98929 240.85435 159.02929 241.46875 C 158.0885 242.08315 157.35824 242.9489 156.83984 244.0625 C 156.32144 245.1761 156.0625 246.48091 156.0625 247.97851 C 156.0625 249.47611 156.32144 250.79103 156.83984 251.92382 C 157.35824 253.03742 158.09859 253.90122 159.05859 254.51562 C 160.01859 255.13002 161.14133 255.4375 162.42773 255.4375 C 163.57973 255.4375 164.58717 255.16846 165.45117 254.63086 C 166.23147 254.12799 166.80655 253.4509 167.17969 252.60351 L 167.17969 255.12109 L 171.38476 255.12109 L 171.38476 234.8164 L 166.89062 234.8164 z " /><path
   style="font-size:28.8px;font-family:'Nunito Sans 10pt';-inkscape-font-specification:'Nunito Sans 10pt';text-align:center;text-anchor:middle;fill:none;stroke:#000000;stroke-opacity:1;vector-effect:non-scaling-stroke;-inkscape-stroke:hairline;stroke-width:0.99999999;stroke-dasharray:none"
   d="M 148.57443,255.1208 V 240.836 h 4.4928 v 14.2848 z"
   id="path20" /><path
   style="font-size:28.8px;font-family:'Nunito Sans 10pt';-inkscape-font-specification:'Nunito Sans 10pt';text-align:center;text-anchor:middle;fill:none;stroke:#000000;stroke-opacity:1;vector-effect:non-scaling-stroke;-inkscape-stroke:hairline;stroke-width:0.99999999;stroke-dasharray:none"
   d="m 148.37283,238.1576 v -4.176 h 4.8384 v 4.176 z"
   id="path19" /><path
   id="path18"
   style="font-size:28.8px;font-family:'Nunito Sans 10pt';-inkscape-font-specification:'Nunito Sans 10pt';text-align:center;text-anchor:middle;fill:none;stroke:#000000;stroke-opacity:1;vector-effect:non-scaling-stroke;-inkscape-stroke:hairline;stroke-width:0.99999999;stroke-dasharray:none"
   d="M 130.68945 240.83593 L 136.79492 255.12109 L 140.82812 255.12109 L 146.99023 240.83593 L 142.49804 240.83593 L 138.91601 250.11132 L 135.4414 240.83593 L 130.68945 240.83593 z " /><path
   id="path17"
   style="font-size:28.8px;font-family:'Nunito Sans 10pt';-inkscape-font-specification:'Nunito Sans 10pt';text-align:center;text-anchor:middle;fill:none;stroke:#000000;stroke-opacity:1;vector-effect:non-scaling-stroke;-inkscape-stroke:hairline;stroke-width:0.99999999;stroke-dasharray:none"
   d="M 122.59765 240.54882 C 121.82966 240.54882 121.04077 240.6156 120.23437 240.75 C 119.42797 240.8844 118.65114 241.08471 117.90234 241.35351 C 117.17274 241.60311 116.51936 241.90244 115.94336 242.24804 L 117.0957 245.21289 C 117.9981 244.73289 118.872 244.37883 119.7168 244.14843 C 120.58079 243.91803 121.38792 243.80273 122.13672 243.80273 C 123.15432 243.80273 123.88262 243.97471 124.32422 244.32031 C 124.78502 244.66591 125.01562 245.26067 125.01562 246.10547 L 125.01562 246.50976 L 123.83594 246.50976 C 121.80074 246.50976 120.15815 246.6534 118.91015 246.9414 C 117.68136 247.2294 116.77912 247.69062 116.20312 248.32422 C 115.62712 248.93861 115.33984 249.76398 115.33984 250.80078 C 115.33984 251.68398 115.57859 252.47091 116.05859 253.16211 C 116.53859 253.85331 117.19198 254.40963 118.01758 254.83203 C 118.86238 255.23523 119.81314 255.4375 120.86914 255.4375 C 121.67554 255.4375 122.3755 255.30395 122.9707 255.03515 C 123.5851 254.76635 124.09485 254.40025 124.49805 253.93945 C 124.87644 253.50945 125.15394 253.01811 125.33203 252.46484 L 125.33203 255.12109 L 129.30664 255.12109 L 129.30664 246.71093 C 129.30664 245.27094 129.04769 244.09966 128.5293 243.19726 C 128.0301 242.29486 127.2816 241.63333 126.2832 241.21093 C 125.2848 240.76933 124.05685 240.54882 122.59765 240.54882 z M 123.95117 248.84179 L 125.01562 248.84179 L 125.01562 249.30273 C 125.01562 249.89793 124.87198 250.43601 124.58398 250.91601 C 124.31518 251.37681 123.95103 251.74096 123.49023 252.00976 C 123.02943 252.25936 122.50959 252.38476 121.93359 252.38476 C 121.24239 252.38476 120.69617 252.23102 120.29297 251.92382 C 119.88977 251.59743 119.6875 251.15641 119.6875 250.59961 C 119.6875 250.27321 119.76437 250.00417 119.91797 249.79297 C 120.09077 249.56257 120.34971 249.38049 120.69531 249.24609 C 121.04091 249.11169 121.48388 249.01463 122.02148 248.95703 C 122.55908 248.88023 123.20237 248.84179 123.95117 248.84179 z " /><path
   style="font-size:28.8px;font-family:'Nunito Sans 10pt';-inkscape-font-specification:'Nunito Sans 10pt';text-align:center;text-anchor:middle;fill:none;stroke:#000000;stroke-opacity:1;vector-effect:non-scaling-stroke;-inkscape-stroke:hairline;stroke-width:0.99999999;stroke-dasharray:none"
   d="m 98.059327,251.348 h 3.283203 q 3.168,0 4.752,-1.584 1.584,-1.6128 1.584,-4.8096 0,-3.1968 -1.6128,-4.7808 -1.584,-1.584 -4.7232,-1.584 h -3.283203 z"
   id="path16" /><path
   style="font-size:28.8px;font-family:'Nunito Sans 10pt';-inkscape-font-specification:'Nunito Sans 10pt';text-align:center;text-anchor:middle;fill:none;stroke:#000000;stroke-opacity:1;vector-effect:non-scaling-stroke;-inkscape-stroke:hairline;stroke-width:0.99999999;stroke-dasharray:none"
   d="m 93.508927,255.1208 v -20.304 h 8.150403 q 3.4272,0 5.8176,1.2096 2.3904,1.1808 3.6576,3.456 1.2672,2.2464 1.2672,5.472 0,3.2256 -1.2672,5.5008 -1.2672,2.2752 -3.6864,3.4848 -2.3904,1.1808 -5.7888,1.1808 z"
   id="text5" /><path
   id="rect5"
   style="vector-effect:non-scaling-stroke;stroke-width:0.99999999;-inkscape-stroke:hairline;fill:none;stroke:#000000;stroke-opacity:1;stroke-dasharray:none"
   d="m 24,162.92383 h 72 v 3.77953 H 24 Z" /><path
   id="rect6"
   style="vector-effect:non-scaling-stroke;stroke-width:0.99999999;-inkscape-stroke:hairline;fill:none;stroke:#000000;stroke-opacity:1;stroke-dasharray:none"
   d="m 276,162.92383 h 72 v 3.77953 h -72 z" /><rect
   style="vector-effect:non-scaling-stroke;fill:none;stroke:#f36926;stroke-width:0.435625;stroke-dasharray:none;stroke-opacity:1;-inkscape-stroke:hairline"
   id="rect7"
   width="372"
   height="62.804813"
   x="0"
   y="216" /></svg>
